<svg xmlns="http://www.w3.org/2000/svg" xmlns:xlink="http://www.w3.org/1999/xlink" width="375.901" height="442.001" viewBox="0 0 375.901 442.001">
  <defs>
    <filter id="Path_11548" x="0" y="0" width="364.642" height="344.314" filterUnits="userSpaceOnUse">
      <feOffset dy="1" input="SourceAlpha"/>
      <feGaussianBlur stdDeviation="49.5" result="blur"/>
      <feFlood flood-opacity="0.161"/>
      <feComposite operator="in" in2="blur"/>
      <feComposite in="SourceGraphic"/>
    </filter>
  </defs>
  <g id="e-learning_colored" data-name="e-learning colored" transform="translate(43.039 90.49)">
    <g id="background" transform="translate(57.336 231.037)">
      <g id="books" transform="translate(0 46.446)">
        <path id="Path_11419" data-name="Path 11419" d="M80.4,512.2v4.285l41,8.05,30.578-7.76-1.1-5.675Z" transform="translate(-80.4 -475.716)" fill="#e2e2e2"/>
        <line id="Line_177" data-name="Line 177" x1="0.116" y1="6.718" transform="translate(40.886 42.102)" fill="none" stroke="#202124" stroke-miterlimit="10" stroke-width="1"/>
        <line id="Line_178" data-name="Line 178" y1="6.718" x2="26.582" transform="translate(43.145 40.017)" fill="none" stroke="#202124" stroke-miterlimit="10" stroke-width="1"/>
        <line id="Line_179" data-name="Line 179" y1="2.838" x2="12.277" transform="translate(44.824 41.755)" fill="none" stroke="#202124" stroke-miterlimit="10" stroke-width="1"/>
        <line id="Line_180" data-name="Line 180" x2="0.174" transform="translate(53.511 41.292)" fill="none" stroke="#202124" stroke-miterlimit="10" stroke-width="1"/>
        <line id="Line_181" data-name="Line 181" y1="3.127" x2="13.783" transform="translate(53.511 38.164)" fill="none" stroke="#202124" stroke-miterlimit="10" stroke-width="1"/>
        <path id="Path_11420" data-name="Path 11420" d="M146.59,514.115c11-2.374,22.065-4.749,33.068-7.123-.116-2.664-.232-5.328-.405-7.992-11,1.969-21.949,3.938-32.952,5.849C146.474,507.976,146.532,511.046,146.59,514.115Z" transform="translate(-108.136 -470.623)" fill="#fff" stroke="#202124" stroke-miterlimit="10" stroke-width="0.75"/>
        <path id="Path_11421" data-name="Path 11421" d="M147.7,499" transform="translate(-108.725 -470.623)" fill="#fff" stroke="#202124" stroke-miterlimit="10" stroke-width="0.75"/>
        <path id="Path_11422" data-name="Path 11422" d="M147.7,496.475c.174,2.2.29,4.459.463,6.66,10.077-1.911,20.211-3.822,30.288-5.733-.058-1.448-.174-2.954-.232-4.4C168.027,494.158,157.893,495.316,147.7,496.475Z" transform="translate(-108.725 -468.098)" fill="#fff" stroke="#202124" stroke-miterlimit="10" stroke-width="0.75"/>
        <line id="Line_182" data-name="Line 182" y1="5.56" x2="27.335" transform="translate(41.929 35.384)" fill="none" stroke="#202124" stroke-miterlimit="10" stroke-width="0.75"/>
        <line id="Line_183" data-name="Line 183" y1="3.533" x2="18.879" transform="translate(39.844 35.964)" fill="none" stroke="#202124" stroke-miterlimit="10" stroke-width="0.75"/>
        <line id="Line_184" data-name="Line 184" y1="3.417" x2="17.837" transform="translate(50.673 32.547)" fill="none" stroke="#202124" stroke-miterlimit="10" stroke-width="0.75"/>
        <line id="Line_185" data-name="Line 185" y1="4.749" x2="24.439" transform="translate(42.739 28.319)" fill="none" stroke="#202124" stroke-miterlimit="10" stroke-width="0.75"/>
        <line id="Line_186" data-name="Line 186" y1="2.896" x2="15.289" transform="translate(52.816 27.103)" fill="#202124" stroke="#202124" stroke-miterlimit="10" stroke-width="0.75"/>
        <path id="Path_11423" data-name="Path 11423" d="M84.663,498.9c-.174,3.011-.29,6.023-.463,9.034,12.509,2.432,25.076,4.865,37.585,7.239-.174-3.359-.29-6.718-.463-10.135C109.16,503.012,96.883,500.985,84.663,498.9Z" transform="translate(-81.999 -470.581)" fill="#b1cefc"/>
        <path id="Path_11424" data-name="Path 11424" d="M80.574,485.7l-.174,6.081c13.552,2.432,27.161,4.865,40.712,7.3-.058-1.621-.116-3.243-.174-4.922,9.961-1.911,19.922-3.88,29.883-5.791q-18.85-2.954-37.759-5.965C102.291,483.5,91.4,484.6,80.574,485.7Z" transform="translate(-80.4 -463.636)" fill="#4ca899"/>
        <path id="Path_11425" data-name="Path 11425" d="M119.7,457.6l2.259,18.764h9.034l2.085-18.242Z" transform="translate(-96.94 -453.199)" fill="#202124" stroke="#202124" stroke-miterlimit="10" stroke-width="1"/>
        <rect id="Rectangle_1308" data-name="Rectangle 1308" width="15.868" height="2.432" transform="translate(21.601 2.896)" fill="#fff" stroke="#202124" stroke-miterlimit="10" stroke-width="1"/>
        <rect id="Rectangle_1309" data-name="Rectangle 1309" width="8.397" height="3.185" transform="translate(25.308)" fill="#fff" stroke="#202124" stroke-miterlimit="10" stroke-width="1"/>
      </g>
      <g id="papers" transform="translate(170.494 74.939)">
        <path id="Path_11426" data-name="Path 11426" d="M390.1,530.809c.521,1.506,42.624,21.485,42.624,21.485l33.068-18.127L426.7,517.2Z" transform="translate(-381.239 -506.776)" fill="#ccc"/>
        <path id="Path_11427" data-name="Path 11427" d="M398.9,512.809c1.042,1.158,34.747,18.822,34.747,18.822l33.995-16.273L433.647,499.2Z" transform="translate(-384.943 -499.2)" fill="#ddd"/>
        <path id="Path_11428" data-name="Path 11428" d="M374.8,516.51l27.161,13.262,28.03-14.826L405.667,501.8Z" transform="translate(-374.8 -500.294)" fill="#ccc"/>
        <line id="Line_187" data-name="Line 187" y1="5.56" x2="10.83" transform="translate(30.867 17.895)" fill="none" stroke="#202124" stroke-miterlimit="10" stroke-width="1"/>
        <line id="Line_188" data-name="Line 188" y1="9.556" x2="20.038" transform="translate(21.833 13.204)" fill="none" stroke="#202124" stroke-miterlimit="10" stroke-width="1"/>
        <line id="Line_189" data-name="Line 189" y1="10.193" x2="21.601" transform="translate(18.011 10.482)" fill="none" stroke="#202124" stroke-miterlimit="10" stroke-width="1"/>
        <line id="Line_190" data-name="Line 190" y1="11.003" x2="24.787" transform="translate(10.135 8.05)" fill="none" stroke="#202124" stroke-miterlimit="10" stroke-width="1"/>
        <line id="Line_191" data-name="Line 191" y1="7.123" x2="15.521" transform="translate(56.522 17.895)" fill="none" stroke="#202124" stroke-miterlimit="10" stroke-width="1"/>
        <line id="Line_192" data-name="Line 192" y1="12.683" x2="24.613" transform="translate(46.735 13.551)" fill="none" stroke="#202124" stroke-miterlimit="10" stroke-width="1"/>
        <line id="Line_193" data-name="Line 193" y1="10.83" x2="20.443" transform="translate(45.461 11.93)" fill="none" stroke="#202124" stroke-miterlimit="10" stroke-width="1"/>
        <line id="Line_194" data-name="Line 194" y1="3.88" x2="8.687" transform="translate(53.395 8.05)" fill="none" stroke="#202124" stroke-miterlimit="10" stroke-width="1"/>
        <line id="Line_195" data-name="Line 195" y1="8.861" x2="14.304" transform="translate(56.522 29.477)" fill="none" stroke="#202124" stroke-miterlimit="10" stroke-width="1"/>
        <line id="Line_196" data-name="Line 196" y1="10.772" x2="22.296" transform="translate(43.782 28.261)" fill="none" stroke="#202124" stroke-miterlimit="10" stroke-width="1"/>
        <line id="Line_197" data-name="Line 197" y1="3.938" x2="6.66" transform="translate(38.801 32.489)" fill="none" stroke="#202124" stroke-miterlimit="10" stroke-width="1"/>
      </g>
      <g id="plant" transform="translate(243.235)">
        <path id="Path_11429" data-name="Path 11429" d="M507.8,438.5l4.054,34.342h18.879l4.575-34.342Z" transform="translate(-503.518 -398.714)" fill="#202124"/>
        <ellipse id="Ellipse_476" data-name="Ellipse 476" cx="13.783" cy="3.301" rx="13.783" ry="3.301" transform="translate(4.225 36.253)" fill="#fff" stroke="#202124" stroke-miterlimit="10" stroke-width="1"/>
        <g id="Group_4606" data-name="Group 4606" transform="translate(9.075 7.4)">
          <g id="Group_4605" data-name="Group 4605">
            <path id="Path_11430" data-name="Path 11430" d="M519.1,382.939a16.023,16.023,0,0,0-1.969,15.115,15.86,15.86,0,0,0,4.517,6.312c3.417,3.069,5.328,6.486,4.749,11.177-.116,1.1,1.622,1.1,1.737,0a13.466,13.466,0,0,0-1.158-7.529c-1.448-2.954-4.17-4.517-6.139-7.065a14.246,14.246,0,0,1-.116-17.142c.579-.869-.927-1.737-1.622-.869Z" transform="translate(-516.075 -382.579)" fill="#00fff7"/>
          </g>
        </g>
        <g id="Group_4608" data-name="Group 4608" transform="translate(18.345 12.749)">
          <g id="Group_4607" data-name="Group 4607">
            <path id="Path_11431" data-name="Path 11431" d="M534.178,413.581c-.463-2.606-.753-5.038.579-7.413.869-1.564,2.085-2.9,2.9-4.517a14.039,14.039,0,0,0,1.042-9.208c-.232-1.1-1.911-.637-1.679.463a12.314,12.314,0,0,1-.869,7.876c-.811,1.622-2.027,2.954-2.9,4.517-1.564,2.78-1.274,5.733-.753,8.745.232,1.1,1.911.637,1.68-.463Z" transform="translate(-532.083 -391.814)" fill="#00fff7"/>
          </g>
        </g>
        <g id="Group_4610" data-name="Group 4610" transform="translate(2.927 12.749)">
          <g id="Group_4609" data-name="Group 4609">
            <path id="Path_11432" data-name="Path 11432" d="M505.6,392.443c-.985,5.154,3.417,9.5,7.644,11.582.985.521,1.853-.984.869-1.506-3.417-1.737-7.7-5.328-6.892-9.613.232-1.1-1.448-1.564-1.622-.463Z" transform="translate(-505.459 -391.814)" fill="#00fff7"/>
          </g>
        </g>
        <g id="Group_4612" data-name="Group 4612" transform="translate(17.939 9.952)">
          <g id="Group_4611" data-name="Group 4611">
            <path id="Path_11433" data-name="Path 11433" d="M533.535,387.283a8.54,8.54,0,0,0,1.853,12.914c.927.637,1.8-.869.869-1.506a6.643,6.643,0,0,1-1.506-10.135c.695-.927-.521-2.143-1.216-1.274Z" transform="translate(-531.382 -386.985)" fill="#00fff7"/>
          </g>
        </g>
        <g id="Group_4614" data-name="Group 4614" transform="translate(19.254 26.937)">
          <g id="Group_4613" data-name="Group 4613">
            <path id="Path_11434" data-name="Path 11434" d="M534.954,425.861a12.36,12.36,0,0,0,7.065-8.455.871.871,0,0,0-1.68-.463,10.744,10.744,0,0,1-6.254,7.413c-.985.463-.116,1.969.869,1.506Z" transform="translate(-533.652 -416.314)" fill="#00fff7"/>
          </g>
        </g>
        <path id="Path_11435" data-name="Path 11435" d="M504.919,392.673a9.968,9.968,0,0,1-3.359-3.764c-2.49-4.691-.232-9.613.116-10.308a12.881,12.881,0,0,1,2.374,2.954C506.657,386.244,505.325,391.341,504.919,392.673Z" transform="translate(-500.405 -373.504)" fill="#00fff7"/>
        <path id="Path_11436" data-name="Path 11436" d="M524.44,422.391A6.457,6.457,0,0,1,515,416.6a13.81,13.81,0,0,1,5.328,1.969A14.885,14.885,0,0,1,524.44,422.391Z" transform="translate(-506.548 -389.497)" fill="#00fff7"/>
        <path id="Path_11437" data-name="Path 11437" d="M521.284,405.845a8.4,8.4,0,0,1,3.243-10.945,10.12,10.12,0,0,1,.29,4.633A10.759,10.759,0,0,1,521.284,405.845Z" transform="translate(-508.836 -380.364)" fill="#00fff7"/>
        <path id="Path_11438" data-name="Path 11438" d="M515.089,371.194c-.579.116-.637,1.969-.695,5.733-.058,3.069.174,4.517.984,5.791a6.592,6.592,0,0,0,1.216,1.448,12.5,12.5,0,0,0,1.39-7.529C517.521,373.8,515.9,371.021,515.089,371.194Z" transform="translate(-506.289 -370.384)" fill="#00fff7"/>
        <path id="Path_11439" data-name="Path 11439" d="M532.553,383.7a10.722,10.722,0,0,1-1.679-3.648c-1.274-5.1,1.737-9.382,2.374-10.251a11.886,11.886,0,0,1,1.68,4.112A13.32,13.32,0,0,1,532.553,383.7Z" transform="translate(-513.098 -369.8)" fill="#00fff7"/>
        <path id="Path_11440" data-name="Path 11440" d="M542.314,388.467a9.437,9.437,0,0,1,.058-6.37,9.291,9.291,0,0,1,5.038-5.1,10.488,10.488,0,0,1,0,3.822A12.489,12.489,0,0,1,542.314,388.467Z" transform="translate(-517.821 -372.83)" fill="#00fff7"/>
        <path id="Path_11441" data-name="Path 11441" d="M546.076,403.868a5.823,5.823,0,0,0-3.417-.116c-3.243.869-4.343,4.228-4.459,4.575a5.46,5.46,0,0,0,4.749.348A5.266,5.266,0,0,0,546.076,403.868Z" transform="translate(-516.312 -384.005)" fill="#00fff7"/>
        <path id="Path_11442" data-name="Path 11442" d="M542,424.495a5.829,5.829,0,0,1,3.417-2.838,5.656,5.656,0,0,1,4.112.463,5.134,5.134,0,0,1-1.564,2.085C545.475,426.116,542.174,424.611,542,424.495Z" transform="translate(-517.911 -391.543)" fill="#00fff7"/>
      </g>
    </g>
    <g id="student" transform="translate(109.253 144.544)">
      <g id="leg_right" transform="translate(0 102.564)">
        <path id="Path_11443" data-name="Path 11443" d="M311.559,516.3c2.432.984,4.923,2.027,7.355,3.011,10.54,13.494,22.76,30.172,20.385,32.373-2.374,2.259-19.053-11.351-31.968-22.528a14.713,14.713,0,0,1,.116-4.17A17.008,17.008,0,0,1,311.559,516.3Z" transform="translate(-227.787 -447.529)" fill="#202124"/>
        <path id="Path_11444" data-name="Path 11444" d="M297.613,430.242a17.765,17.765,0,0,1-1.042,7.355c-2.9,7.934-10.656,11.582-13.436,12.162a140.141,140.141,0,0,1-41.176,2.606c3.822,4.807,7.7,9.613,11.525,14.42a13.294,13.294,0,0,0-1.448,1.911,19.458,19.458,0,0,0-2.374,6.718c-.174.869-.405,2.143-.579,3.648a288.439,288.439,0,0,1-25.308-13.9c-5.791-3.591-10.482-6.776-13.494-8.861-1.274-.927-6.428-4.459-13.262-9.787-7.181-5.56-10.83-8.455-14.768-12.567a54.238,54.238,0,0,1-7.934-10.308c-3.185-5.5-3.706-8.8-3.822-10.366a11.563,11.563,0,0,1,7.413-13.32c1.332-.695,5.618-2.664,14.131-2.374,5.386.174,9.266,1.216,14.246,2.548a111.462,111.462,0,0,1,18.706,7.007,109.411,109.411,0,0,1,13.436,7.644c2.49,1.564,4.98,3.185,7.529,4.749a7.892,7.892,0,0,0,.927,2.606,9.7,9.7,0,0,0,3.185,3.3,31.121,31.121,0,0,0,6.6,3.938,45.617,45.617,0,0,0,9.729,3.011,58.483,58.483,0,0,0,15,.927,52.482,52.482,0,0,0,11.177-1.564A23.977,23.977,0,0,0,297.613,430.242Z" transform="translate(-170.175 -397.55)" fill="#00ffd5"/>
        <g id="Group_4615" data-name="Group 4615" transform="translate(0 0.187)">
          <path id="Path_11445" data-name="Path 11445" d="M237.024,414.336a106.809,106.809,0,0,0-35.616-15c-7.818-1.737-16.389-2.49-23.628.985-3.417,1.679-6.6,4.459-7.471,8.224a14.521,14.521,0,0,0,.579,7.355,40.274,40.274,0,0,0,6.776,13.436,66.473,66.473,0,0,0,10.54,10.424,292.84,292.84,0,0,0,60.808,39.67" transform="translate(-170.047 -397.873)" fill="none"/>
        </g>
        <g id="Group_4617" data-name="Group 4617" transform="translate(47.813 24.614)">
          <g id="Group_4616" data-name="Group 4616">
            <path id="Path_11446" data-name="Path 11446" d="M252.661,440.428q17.461,21.8,34.979,43.666c.174.232.463-.116.29-.29q-17.461-21.8-34.979-43.666c-.174-.232-.463.058-.29.29Z" transform="translate(-252.607 -440.053)" fill="#fff"/>
          </g>
        </g>
        <g id="Group_4618" data-name="Group 4618" transform="translate(71.842 52.208)">
          <path id="Path_11447" data-name="Path 11447" d="M294.1,490.364a140.01,140.01,0,0,0,41.118-2.664" transform="translate(-294.1 -487.7)" fill="none"/>
        </g>
        <g id="Group_4620" data-name="Group 4620" transform="translate(79.139 69.137)">
          <g id="Group_4619" data-name="Group 4619">
            <path id="Path_11448" data-name="Path 11448" d="M310.754,517.029a19.341,19.341,0,0,0-4.054,10.656c0,.29.405.29.463,0a19.627,19.627,0,0,1,4-10.482c.116-.174-.232-.405-.405-.174Z" transform="translate(-306.7 -516.932)" fill="#202124"/>
          </g>
        </g>
        <g id="Group_4622" data-name="Group 4622" transform="translate(82.491 73.918)">
          <g id="Group_4621" data-name="Group 4621">
            <path id="Path_11449" data-name="Path 11449" d="M313.016,530.7a7.163,7.163,0,0,1,.058-2.49c.058-.405.637-3.069,1.506-1.969.347.463.116,1.622-.058,2.085a3.508,3.508,0,0,1-1.679,1.969c-.232.116,0,.463.174.405a4.142,4.142,0,0,0,1.969-2.548c.174-.753.29-2.085-.347-2.722-.753-.753-1.332.463-1.564,1.042a8.579,8.579,0,0,0-.521,4.17c.058.29.521.29.463.058Z" transform="translate(-312.488 -525.188)" fill="#fff"/>
          </g>
        </g>
        <g id="Group_4624" data-name="Group 4624" transform="translate(79.91 78.974)">
          <g id="Group_4623" data-name="Group 4623">
            <path id="Path_11450" data-name="Path 11450" d="M310.851,533.965c-1.1.927-4.4,4.98-1.911,6.139,1.042.521,1.911-.637,2.259-1.506a6.072,6.072,0,0,0,.174-4.17c-.058-.29-.521-.174-.405.116a5.869,5.869,0,0,1,.174,2.838,4.518,4.518,0,0,1-.463,1.332.9.9,0,0,1-.348.463c-.405.637-.984.463-1.8-.579a4.239,4.239,0,0,1,.985-2.548,7.994,7.994,0,0,1,1.622-1.8c.232-.116-.116-.463-.29-.29Z" transform="translate(-308.031 -533.918)" fill="#fff"/>
          </g>
        </g>
        <g id="Group_4626" data-name="Group 4626" transform="translate(83.598 79.843)">
          <g id="Group_4625" data-name="Group 4625">
            <path id="Path_11451" data-name="Path 11451" d="M314.863,541.373a8.36,8.36,0,0,1,3.417-5.56c.232-.174,0-.521-.232-.348a8.8,8.8,0,0,0-3.648,5.791c0,.289.463.405.463.116Z" transform="translate(-314.4 -535.418)" fill="#fff"/>
          </g>
        </g>
        <g id="Group_4628" data-name="Group 4628" transform="translate(85.098 81.956)">
          <g id="Group_4627" data-name="Group 4627">
            <path id="Path_11452" data-name="Path 11452" d="M317.4,544.009a10.972,10.972,0,0,1,2.954-4.575c.232-.174-.116-.521-.29-.29A11.429,11.429,0,0,0,317,543.951c-.058.174.347.29.405.058Z" transform="translate(-316.99 -539.067)" fill="#fff"/>
          </g>
        </g>
        <g id="Group_4630" data-name="Group 4630" transform="translate(86.662 84.012)">
          <g id="Group_4629" data-name="Group 4629">
            <path id="Path_11453" data-name="Path 11453" d="M320.1,547.009a7.151,7.151,0,0,1,2.9-4c.232-.174,0-.521-.232-.347a7.316,7.316,0,0,0-3.069,4.228.211.211,0,0,0,.405.116Z" transform="translate(-319.69 -542.618)" fill="#fff"/>
          </g>
        </g>
        <g id="Group_4632" data-name="Group 4632" transform="translate(88.362 85.512)">
          <g id="Group_4631" data-name="Group 4631">
            <path id="Path_11454" data-name="Path 11454" d="M323.016,549.489a11.565,11.565,0,0,1,2.954-3.938c.232-.174-.116-.463-.29-.29a11.947,11.947,0,0,0-3.011,4c-.174.29.232.521.347.232Z" transform="translate(-322.626 -545.208)" fill="#fff"/>
          </g>
        </g>
        <g id="Group_4634" data-name="Group 4634" transform="translate(89.652 87.97)">
          <g id="Group_4633" data-name="Group 4633">
            <path id="Path_11455" data-name="Path 11455" d="M325.228,552.955c.927-1.042,1.853-2.085,2.722-3.127.174-.232-.116-.521-.29-.29-.927,1.042-1.853,2.085-2.722,3.127-.232.232.058.521.29.289Z" transform="translate(-324.853 -549.453)" fill="#fff"/>
          </g>
        </g>
        <g id="Group_4636" data-name="Group 4636" transform="translate(89.463 71.86)">
          <g id="Group_4635" data-name="Group 4635">
            <path id="Path_11456" data-name="Path 11456" d="M324.569,521.962c5.212,7.181,10.193,14.594,14.883,22.123.174.232.521,0,.348-.232-4.691-7.529-9.671-14.941-14.884-22.122-.116-.232-.521,0-.347.232Z" transform="translate(-324.526 -521.634)" fill="#fff"/>
          </g>
        </g>
      </g>
      <g id="torso_1_" transform="translate(63.271 36.755)">
        <path id="Path_11457" data-name="Path 11457" d="M279.3,294.123c2.259,13.609,3.648,24.613,4.517,32.2.753,6.37.927,9.092,1.8,15.231,1.39,9.613,3.069,18.011,4.691,24.96.695,2.954,1.274,5.328,1.737,7.007l1.39,2.432a36.945,36.945,0,0,0,6.949,4.98c7.123,3.938,13.9,4.459,19.169,4.865a55.533,55.533,0,0,0,12.162-.405,58.417,58.417,0,0,0,16.91-5.1c.811-3.938,1.622-7.934,2.432-11.93,4.865-23.339,10.135-46.156,15.636-68.568-2.027-1.39-4.865-3.185-8.339-5.1a83.2,83.2,0,0,0-24.265-9.15,84.474,84.474,0,0,0-24.844-1.158,69.216,69.216,0,0,0-19.4,4.4A67.574,67.574,0,0,0,279.3,294.123Z" transform="translate(-279.3 -283.939)" fill="#040844"/>
        <g id="Group_4637" data-name="Group 4637">
          <path id="Path_11458" data-name="Path 11458" d="M279.3,294.1a39.077,39.077,0,0,1,10.54-5.27c14.478-5.038,30.4-6.486,45.4-3.011,11,2.548,21.254,7.644,31.041,13.262" transform="translate(-279.3 -283.914)" fill="none"/>
        </g>
        <g id="Group_4639" data-name="Group 4639" transform="translate(3.069 21.246)">
          <g id="Group_4638" data-name="Group 4638">
            <path id="Path_11459" data-name="Path 11459" d="M284.6,320.774a307.841,307.841,0,0,0,9.44,68.163c.058.29.463.174.405-.116a310.741,310.741,0,0,1-9.44-68.047c0-.232-.405-.232-.405,0Z" transform="translate(-284.6 -320.6)" fill="#202124"/>
          </g>
        </g>
        <g id="Group_4641" data-name="Group 4641" transform="translate(13.412 91.05)">
          <g id="Group_4640" data-name="Group 4640">
            <path id="Path_11460" data-name="Path 11460" d="M302.483,441.462c2.374,3.648,6.312,5.444,10.25,6.949a57.264,57.264,0,0,0,15.173,3.533,58.764,58.764,0,0,0,30.462-5.328.209.209,0,1,0-.232-.348,58.2,58.2,0,0,1-28.319,5.444,56.381,56.381,0,0,1-14.246-2.722c-4.633-1.506-9.961-3.475-12.741-7.76-.116-.232-.463,0-.348.232Z" transform="translate(-302.46 -441.134)" fill="#202124"/>
          </g>
        </g>
        <g id="Group_4643" data-name="Group 4643" transform="translate(69.547 19.572)">
          <g id="Group_4642" data-name="Group 4642">
            <path id="Path_11461" data-name="Path 11461" d="M415.843,317.878Q407.156,354.8,399.4,391.832c-.058.29.347.405.405.116q7.731-37.093,16.447-73.954c.058-.29-.347-.405-.405-.116Z" transform="translate(-399.39 -317.71)" fill="#202124"/>
          </g>
        </g>
      </g>
      <g id="leg_left" transform="translate(46.822 109.65)">
        <path id="Path_11462" data-name="Path 11462" d="M285.415,513.1c-3.011,2.548-7.181,6.139-12.046,10.54-15.289,13.783-23.57,21.254-22.354,23.281,1.042,1.8,9.5.232,41.986-14.362,1.158-4,2.259-7.992,3.417-11.988C292.712,518.08,289.063,515.59,285.415,513.1Z" transform="translate(-250.897 -453.269)" fill="#202124"/>
        <path id="Path_11463" data-name="Path 11463" d="M310.5,469.757c1.679-1.911,4.054-4.459,7.007-7.471,2.085-2.143,5.154-5.154,11.93-11.293,7.3-6.6,10.945-9.9,16.447-14.42,7.413-6.023,13.03-10.019,14.71-11.177a182.072,182.072,0,0,1,15.752-9.787c5.849-3.243,8.4-4.17,11.235-4.749,3.185-.637,7.471-1.506,11.988.521A13.45,13.45,0,0,1,406.4,417.4a13.982,13.982,0,0,1,1.216,9.092c-.232,1.564-.984,5.386-5.733,11.293-2.9,3.591-6.544,7.065-13.378,11.582a127.977,127.977,0,0,1-16.91,9.266c-3.475,1.622-12.219,5.733-26.7,11.119-6.023,2.259-14.131,5.1-23.744,8.108a11.332,11.332,0,0,0-10.656-8.108Z" transform="translate(-275.983 -409.926)" fill="#00ffd5"/>
        <g id="Group_4645" data-name="Group 4645" transform="translate(34.354)">
          <g id="Group_4644" data-name="Group 4644">
            <path id="Path_11464" data-name="Path 11464" d="M310.613,469.039c20.791-20.269,42.16-41.523,68.337-54.785,6.718-3.417,14.884-5.907,21.949-2.085,7.876,4.286,7.876,14.073,3.822,21.022-7.065,12.162-21.543,19.69-33.879,25.423a405.947,405.947,0,0,1-49.92,19c-.29.058-.174.521.116.405a419.791,419.791,0,0,0,48.183-18.184c12.972-5.849,28.377-13.609,35.848-26.408,2.954-5.1,4.112-11.756.927-17.026-3.011-5.038-9.266-7.007-14.883-6.544-7.355.579-14.189,4.749-20.385,8.455a209.259,209.259,0,0,0-19.4,13.32c-14.594,11.293-27.856,24.207-41.06,37.064-.174.232.174.521.347.347Z" transform="translate(-310.218 -409.787)" fill="#fff"/>
          </g>
        </g>
        <g id="Group_4646" data-name="Group 4646" transform="translate(34.517 59.831)">
          <path id="Path_11465" data-name="Path 11465" d="M310.5,513.1a11.136,11.136,0,0,1,9.961,7.7" transform="translate(-310.5 -513.1)" fill="none"/>
        </g>
        <g id="Group_4648" data-name="Group 4648" transform="translate(24.608 61.831)">
          <g id="Group_4647" data-name="Group 4647">
            <path id="Path_11466" data-name="Path 11466" d="M301.039,519.65c-.405-3.533-4.98-4.054-7.007-1.506a1.96,1.96,0,0,0-.058,2.838c1.216,1.042,3.417.174,4.633-.463.174-.116.869-.637,1.042-.463.174.116-.174,1.506-.232,1.853a6.126,6.126,0,0,0,.058,3.069,1.879,1.879,0,0,0,2.2,1.274c3.069-.869,2.316-6.428-.869-6.544-.29,0-.29.405,0,.463,2.432.116,2.78,2.9,1.853,4.633-.869,1.564-2.954.579-2.954-1.1a34.011,34.011,0,0,1,.463-4.17.212.212,0,0,0-.347-.174,8.34,8.34,0,0,1-2.432,1.332,7.72,7.72,0,0,1-1.1.289c-.985.405-1.448,0-1.332-1.274-.753-.927-.637-1.622.405-1.969a4.9,4.9,0,0,1,2.027-.637,3.024,3.024,0,0,1,3.243,2.722c0,.058.463.058.405-.174Z" transform="translate(-293.388 -516.553)" fill="#fff"/>
          </g>
        </g>
        <g id="Group_4650" data-name="Group 4650" transform="translate(22.709 68.21)">
          <g id="Group_4649" data-name="Group 4649">
            <path id="Path_11467" data-name="Path 11467" d="M290.278,527.992a5.807,5.807,0,0,1,3.822,3.069.209.209,0,1,0,.347-.232,6.335,6.335,0,0,0-4.054-3.243c-.29-.116-.405.348-.116.405Z" transform="translate(-290.11 -527.568)" fill="#fff"/>
          </g>
        </g>
        <g id="Group_4652" data-name="Group 4652" transform="translate(19.987 70.597)">
          <g id="Group_4651" data-name="Group 4651">
            <path id="Path_11468" data-name="Path 11468" d="M285.578,532.1a5.706,5.706,0,0,1,3.648,3.185c.116.232.521.116.405-.116a5.914,5.914,0,0,0-3.938-3.475c-.29-.058-.405.347-.116.405Z" transform="translate(-285.41 -531.69)" fill="#fff"/>
          </g>
        </g>
        <g id="Group_4654" data-name="Group 4654" transform="translate(16.984 73.359)">
          <g id="Group_4653" data-name="Group 4653">
            <path id="Path_11469" data-name="Path 11469" d="M280.442,536.946a3.676,3.676,0,0,1,4.054,3.069c.058.29.463.174.405-.116a4.128,4.128,0,0,0-4.459-3.417c-.29.058-.29.463,0,.463Z" transform="translate(-280.225 -536.459)" fill="#fff"/>
          </g>
        </g>
        <g id="Group_4656" data-name="Group 4656" transform="translate(14.238 76.562)">
          <g id="Group_4655" data-name="Group 4655">
            <path id="Path_11470" data-name="Path 11470" d="M275.608,542.4c1.564.405,3.706,1.042,3.591,3.069,0,.29.405.29.463,0,.116-2.2-2.2-3.011-3.938-3.475-.232-.058-.347.347-.116.405Z" transform="translate(-275.482 -541.99)" fill="#fff"/>
          </g>
        </g>
        <g id="Group_4658" data-name="Group 4658" transform="translate(11.243 78.494)">
          <g id="Group_4657" data-name="Group 4657">
            <path id="Path_11471" data-name="Path 11471" d="M270.478,545.716a13.732,13.732,0,0,1,3.533,1.853c.232.174.463-.232.232-.347a15.474,15.474,0,0,0-3.648-1.853c-.29-.174-.405.232-.116.347Z" transform="translate(-270.31 -545.326)" fill="#fff"/>
          </g>
        </g>
        <g id="Group_4660" data-name="Group 4660" transform="translate(14.875 77.799)">
          <g id="Group_4659" data-name="Group 4659">
            <path id="Path_11472" data-name="Path 11472" d="M276.824,555.636q13.03-5.038,25.6-11.119a.209.209,0,1,0-.232-.348q-12.509,5.994-25.481,11.061c-.232.058-.116.521.116.405Z" transform="translate(-276.582 -544.126)" fill="#fff"/>
          </g>
        </g>
      </g>
      <g id="hand_right" transform="translate(37.688 46.939)">
        <path id="Path_11473" data-name="Path 11473" d="M305.1,387.3c.521,1.679,1.216,3.822,1.853,6.312.174.753.753,2.9,1.448,5.907s1.564,7.529,2.374,13.262c.521.927.927,1.332,1.1,1.274.232-.058.232-.869,0-2.374-.405-3.417-.927-6.139-1.332-7.992-.753-3.359-.985-3.359-1.448-6.2a66.617,66.617,0,0,0-1.274-7.007c-.347-1.332-.695-2.374-.927-3.069C306.258,387.358,305.679,387.3,305.1,387.3Z" transform="translate(-264.576 -337.611)" fill="#fff"/>
        <path id="Path_11474" data-name="Path 11474" d="M304.175,406.8a8.87,8.87,0,0,0-2.49,1.216,8.578,8.578,0,0,0-3.185,5.5,10.434,10.434,0,0,0,2.259,2.432,10.886,10.886,0,0,0,3.127,1.737c.753-.521,1.564-1.042,2.316-1.679q1.477-1.129,2.78-2.259a9.5,9.5,0,0,0-1.1-3.417A10.013,10.013,0,0,0,304.175,406.8Z" transform="translate(-261.798 -345.818)" fill="#f7cd5b"/>
        <path id="Path_11475" data-name="Path 11475" d="M260.708,301.5c-.637.927-1.39,2.143-2.316,3.648-2.259,3.533-3.88,6.255-4.228,6.776-1.158,1.969-3.533,5.849-6.254,11-2.9,5.444-4.749,9.5-6.718,13.9,0,0-2.085,4.575-4.575,11.756-1.39,3.938-1.679,5.212-1.39,6.834.753,4.517,5.1,7.3,6.255,8.05,1.506.984,2.664,1.39,6.37,2.49,7.471,2.259,11.177,3.417,14.536,4.054a107.077,107.077,0,0,0,11.64,1.679c-.811-.753-1.622-1.448-2.374-2.2.637-1.448,1.332-2.838,1.969-4.285-1.622-2.374-3.3-4.691-4.923-7.065-2.606-3.764-5.27-7.471-7.876-11.177.811-1.853,2.085-4.749,3.822-8.281,3.533-7.355,4.923-9.5,7.065-14.536,2.9-6.949,4.4-10.424,3.591-13.146C273.333,304.222,263.024,301.963,260.708,301.5Z" transform="translate(-235.125 -301.5)" fill="#040844"/>
        <g id="Group_4661" data-name="Group 4661" transform="translate(0.029 1.679)">
          <path id="Path_11476" data-name="Path 11476" d="M259.571,304.4c-9.208,14.246-17.432,29.246-22.991,45.287-1.1,3.243-2.143,6.892-.695,9.961,1.39,3.069,4.807,4.691,7.934,5.907a117.2,117.2,0,0,0,29.42,7.355" transform="translate(-235.175 -304.4)" fill="none"/>
        </g>
        <g id="Group_4662" data-name="Group 4662" transform="translate(25.699 27.219)">
          <path id="Path_11477" data-name="Path 11477" d="M287.9,348.5c-2.78,6.023-5.617,11.988-8.4,18.011" transform="translate(-279.5 -348.5)" fill="none"/>
        </g>
        <g id="Group_4664" data-name="Group 4664" transform="translate(26.235 45.944)">
          <g id="Group_4663" data-name="Group 4663">
            <path id="Path_11478" data-name="Path 11478" d="M280.469,381.162a143.274,143.274,0,0,0,11.988,16.853c.174.232.463-.116.29-.29a137.556,137.556,0,0,1-11.93-16.795c-.116-.232-.521,0-.347.232Z" transform="translate(-280.426 -380.834)" fill="#202124"/>
          </g>
        </g>
        <g id="Group_4666" data-name="Group 4666" transform="translate(36.408 60.692)">
          <g id="Group_4665" data-name="Group 4665">
            <path id="Path_11479" data-name="Path 11479" d="M298.46,413.423c.753-2.954,2.664-6.255,5.965-6.66.29-.058.29-.463,0-.463-3.533.405-5.56,3.822-6.428,7.007-.058.232.405.347.463.116Z" transform="translate(-297.991 -406.3)" fill="#202124"/>
          </g>
        </g>
        <g id="Group_4668" data-name="Group 4668" transform="translate(43.598 61.31)">
          <g id="Group_4667" data-name="Group 4667">
            <path id="Path_11480" data-name="Path 11480" d="M310.461,407.734a12.315,12.315,0,0,1,3.3,6.37c.058.29.463.174.405-.116a12.373,12.373,0,0,0-3.417-6.544c-.174-.232-.463.116-.29.29Z" transform="translate(-310.408 -407.367)" fill="#202124"/>
          </g>
        </g>
        <g id="Group_4670" data-name="Group 4670" transform="translate(43.598 63.85)">
          <g id="Group_4669" data-name="Group 4669">
            <path id="Path_11481" data-name="Path 11481" d="M310.461,412.128a8.125,8.125,0,0,1,1.8,4.286c.058.29.463.29.463,0a9.017,9.017,0,0,0-1.969-4.575c-.174-.232-.463.058-.29.29Z" transform="translate(-310.408 -411.753)" fill="#202124"/>
          </g>
        </g>
        <g id="Group_4672" data-name="Group 4672" transform="translate(36.717 67.68)">
          <g id="Group_4671" data-name="Group 4671">
            <path id="Path_11482" data-name="Path 11482" d="M298.569,418.676a9.683,9.683,0,0,0,5.212,4.112c.29.116.405-.348.116-.405a9.74,9.74,0,0,1-4.98-3.88c-.116-.29-.521-.058-.348.174Z" transform="translate(-298.526 -418.367)" fill="#202124"/>
          </g>
        </g>
        <g id="Group_4674" data-name="Group 4674" transform="translate(39.618 67.831)">
          <g id="Group_4673" data-name="Group 4673">
            <path id="Path_11483" data-name="Path 11483" d="M303.63,419.016a8.378,8.378,0,0,1,3.243,2.954c.174.232.521,0,.348-.232a8.551,8.551,0,0,0-3.359-3.069c-.232-.174-.463.232-.232.347Z" transform="translate(-303.534 -418.626)" fill="#202124"/>
          </g>
        </g>
        <g id="Group_4676" data-name="Group 4676" transform="translate(40.89 66.055)">
          <g id="Group_4675" data-name="Group 4675">
            <path id="Path_11484" data-name="Path 11484" d="M305.829,415.989a5.607,5.607,0,0,1,3.127,3.822c.058.29.463.174.405-.116A5.989,5.989,0,0,0,306,415.583c-.174-.116-.405.232-.174.405Z" transform="translate(-305.732 -415.56)" fill="#202124"/>
          </g>
        </g>
        <g id="Group_4678" data-name="Group 4678" transform="translate(40.287 49.463)">
          <g id="Group_4677" data-name="Group 4677">
            <path id="Path_11485" data-name="Path 11485" d="M304.7,387.194q1.911,5.994,3.3,12.162c.058.29.463.174.405-.116q-1.39-6.168-3.3-12.162c-.058-.29-.463-.174-.405.116Z" transform="translate(-304.69 -386.91)" fill="#202124"/>
          </g>
        </g>
        <g id="Group_4680" data-name="Group 4680" transform="translate(40.697 49.218)">
          <g id="Group_4679" data-name="Group 4679">
            <path id="Path_11486" data-name="Path 11486" d="M305.747,387.074c1.622-.811,2.49,6.023,2.606,6.66.405,2.085.811,4.17,1.216,6.2.058.29.463.174.405-.116-.753-3.764-1.158-7.76-2.2-11.467-.348-1.158-.869-2.316-2.2-1.679-.348.174-.116.521.174.405Z" transform="translate(-305.399 -386.487)" fill="#202124"/>
          </g>
        </g>
        <g id="Group_4682" data-name="Group 4682" transform="translate(45.139 70.022)">
          <g id="Group_4681" data-name="Group 4681">
            <path id="Path_11487" data-name="Path 11487" d="M313.087,422.694a32.533,32.533,0,0,1,.927,4.112c.058.29.463.174.405-.116a32.524,32.524,0,0,0-.927-4.112c-.058-.29-.521-.174-.405.116Z" transform="translate(-313.068 -422.41)" fill="#202124"/>
          </g>
        </g>
        <g id="Group_4684" data-name="Group 4684" transform="translate(46.123 70.022)">
          <g id="Group_4683" data-name="Group 4683">
            <path id="Path_11488" data-name="Path 11488" d="M314.787,422.694a22.234,22.234,0,0,1,.637,3.417.232.232,0,0,0,.463,0,18.07,18.07,0,0,0-.637-3.533c-.116-.29-.579-.174-.463.116Z" transform="translate(-314.768 -422.41)" fill="#202124"/>
          </g>
        </g>
        <g id="Group_4686" data-name="Group 4686" transform="translate(45.979 74.901)">
          <g id="Group_4685" data-name="Group 4685">
            <path id="Path_11489" data-name="Path 11489" d="M314.566,431.162c.347.463.637.927.984,1.39.174.232.521,0,.347-.232-.347-.463-.637-.927-.984-1.39-.174-.232-.521,0-.347.232Z" transform="translate(-314.518 -430.834)" fill="#202124"/>
          </g>
        </g>
        <g id="Group_4688" data-name="Group 4688" transform="translate(47.069 73.795)">
          <g id="Group_4687" data-name="Group 4687">
            <path id="Path_11490" data-name="Path 11490" d="M316.4,429.142v2.374a.232.232,0,0,0,.463,0v-2.374c-.058-.29-.463-.29-.463,0Z" transform="translate(-316.4 -428.925)" fill="#202124"/>
          </g>
        </g>
      </g>
      <g id="hand_left" transform="translate(58.233 52.962)">
        <path id="Path_11491" data-name="Path 11491" d="M271.5,360.223c.116,1.506.29,3.938.637,6.892,1.042,9.324,2.49,14.883,5.5,29.419.521,2.49,1.274,6.37,2.2,11.119a82.02,82.02,0,0,0,12.914,3.3,97.925,97.925,0,0,0,13.32,1.216,147.287,147.287,0,0,0,14.768-.232c-1.042-4.98-1.853-9.092-2.374-11.872-2.259-11.872-3.706-21.833-5.849-36.659-.405-2.954-.753-5.386-.985-7.007a108.1,108.1,0,0,0-13.2-.348,100.664,100.664,0,0,0-16.737,1.737A96.078,96.078,0,0,0,271.5,360.223Z" transform="translate(-270.979 -330.456)" fill="#efefef"/>
        <path id="Path_11492" data-name="Path 11492" d="M339.813,397.652a6.269,6.269,0,0,0-1.1-1.911,14.651,14.651,0,0,0-2.316-2.664,17.158,17.158,0,0,0-4-2.78c-1.1-.579-3.243-1.622-3.706-1.1-.116.174-.405.811,2.259,4-.985,0-2.432.058-4.228.174a59.058,59.058,0,0,0-9.092.984c-1.1.232-2.722.637-4.633,1.216.579.695,1.216,1.506,1.969,2.316.637.695,1.042,1.158,2.49,2.722q.956,1.042,2.085,2.259a18.813,18.813,0,0,0,3.938,1.39,23.228,23.228,0,0,0,6.834.521c2.9-.174,4.343-.232,5.733-.985C338.366,402.517,340.335,399.8,339.813,397.652Z" transform="translate(-288.445 -344.373)" fill="#f7cd5b"/>
        <path id="Path_11493" data-name="Path 11493" d="M397.274,311.9a23.662,23.662,0,0,0-7.123,3.475c-10.077,7.239-10.945,20.1-11.119,22.644.811,3.069,1.622,6.2,2.316,9.5.984,4.228,1.8,8.339,2.548,12.335-2.9.463-5.791.927-8.8,1.332-6.949.927-13.609,1.622-20.038,2.085a10.146,10.146,0,0,0-1.622,1.564,9.37,9.37,0,0,0-1.506,6.718,42.268,42.268,0,0,0,4.98,3.359,65.561,65.561,0,0,0,10.25,4.575,125.41,125.41,0,0,0,14.189,4.343,63.413,63.413,0,0,0,8.513,1.564,35.089,35.089,0,0,0,8.918,0,18.261,18.261,0,0,0,8.8-2.954,15.04,15.04,0,0,0,2.9-2.606c0-1.737,0-4.112-.116-7.007-.174-5.444-.347-12.393-1.39-20.964a141.378,141.378,0,0,0-3.3-18.474c-1.448-5.791-1.621-4.865-4.228-13.32a21.663,21.663,0,0,0-2.548-5.675A10.869,10.869,0,0,0,397.274,311.9Z" transform="translate(-304.787 -311.9)" fill="#040844"/>
        <g id="Group_4689" data-name="Group 4689" transform="translate(92.486)">
          <path id="Path_11494" data-name="Path 11494" d="M430.3,311.9a16.573,16.573,0,0,1,3.069,5.27c8.4,19.574,10.077,41.407,10.193,62.719" transform="translate(-430.3 -311.9)" fill="none"/>
        </g>
        <g id="Group_4691" data-name="Group 4691" transform="translate(47.434 59.621)">
          <g id="Group_4690" data-name="Group 4690">
            <path id="Path_11495" data-name="Path 11495" d="M352.561,415.169c3.417,3.243,8.166,5.038,12.451,6.834a117.186,117.186,0,0,0,15.81,5.154c9.44,2.259,19.922,3.706,28.435-1.969.232-.174,0-.521-.232-.347-8.745,5.849-19.574,4.112-29.13,1.679a111.562,111.562,0,0,1-12.915-4.112c-4.807-1.853-10.424-3.88-14.189-7.471-.116-.232-.405.058-.232.232Z" transform="translate(-352.506 -414.851)" fill="#fff"/>
          </g>
        </g>
        <g id="Group_4693" data-name="Group 4693" transform="translate(46.883 51.089)">
          <g id="Group_4692" data-name="Group 4692">
            <path id="Path_11496" data-name="Path 11496" d="M352.16,408.273a8,8,0,0,1,2.954-7.76c.232-.174,0-.521-.232-.348a8.4,8.4,0,0,0-3.185,8.224.239.239,0,0,0,.463-.116Z" transform="translate(-351.555 -400.118)" fill="#202124"/>
          </g>
        </g>
        <g id="Group_4695" data-name="Group 4695" transform="translate(51.079 47.546)">
          <g id="Group_4694" data-name="Group 4694">
            <path id="Path_11497" data-name="Path 11497" d="M358.974,397.764q15.984-1.477,31.91-3.3c.29-.058.29-.463,0-.463-10.656,1.216-21.254,2.316-31.91,3.3-.232.058-.232.463,0,.463Z" transform="translate(-358.8 -394)" fill="#fff"/>
          </g>
        </g>
        <g id="Group_4697" data-name="Group 4697" transform="translate(74.064 25.876)">
          <g id="Group_4696" data-name="Group 4696">
            <path id="Path_11498" data-name="Path 11498" d="M398.5,356.824c1.911,7.181,3.533,14.478,4.865,21.775.058.29.463.174.405-.116-1.332-7.3-3.011-14.594-4.865-21.775-.058-.232-.463-.116-.405.116Z" transform="translate(-398.49 -356.582)" fill="#fff"/>
          </g>
        </g>
        <g id="Group_4699" data-name="Group 4699" transform="translate(40.603 44.587)">
          <g id="Group_4698" data-name="Group 4698">
            <path id="Path_11499" data-name="Path 11499" d="M350.549,395.614a18.167,18.167,0,0,0-9.556-6.718c-.29-.058-.405.347-.116.405a17.588,17.588,0,0,1,9.266,6.486c.232.232.579.058.405-.174Z" transform="translate(-340.71 -388.89)" fill="#202124"/>
          </g>
        </g>
        <g id="Group_4701" data-name="Group 4701" transform="translate(40.149 45.655)">
          <g id="Group_4700" data-name="Group 4700">
            <path id="Path_11500" data-name="Path 11500" d="M339.969,391.062a10.255,10.255,0,0,0,1.8,2.374c.174.174.521-.116.29-.29a9.706,9.706,0,0,1-1.737-2.316c-.116-.232-.521,0-.347.232Z" transform="translate(-339.926 -390.734)" fill="#202124"/>
          </g>
        </g>
        <g id="Group_4702" data-name="Group 4702" transform="translate(24.555 48.646)">
          <path id="Path_11501" data-name="Path 11501" d="M330.432,395.9a33.946,33.946,0,0,1-5.444.405,44.262,44.262,0,0,0-11.988,2.2" transform="translate(-313 -395.9)" fill="none"/>
        </g>
        <g id="Group_4704" data-name="Group 4704" transform="translate(24.864 51.348)">
          <g id="Group_4703" data-name="Group 4703">
            <path id="Path_11502" data-name="Path 11502" d="M313.63,400.99a17.126,17.126,0,0,0,7.934,1.8.232.232,0,0,0,0-.463,17.634,17.634,0,0,1-7.7-1.737c-.232-.116-.463.29-.232.405Z" transform="translate(-313.534 -400.564)" fill="#202124"/>
          </g>
        </g>
        <g id="Group_4706" data-name="Group 4706" transform="translate(26.311 53.348)">
          <g id="Group_4705" data-name="Group 4705">
            <path id="Path_11503" data-name="Path 11503" d="M316.129,404.413a17.368,17.368,0,0,0,5.212,2.259c.29.058.405-.348.116-.405a16.906,16.906,0,0,1-5.154-2.2c-.174-.174-.405.174-.174.348Z" transform="translate(-316.032 -404.018)" fill="#202124"/>
          </g>
        </g>
        <g id="Group_4708" data-name="Group 4708" transform="translate(28.165 55.584)">
          <g id="Group_4707" data-name="Group 4707">
            <path id="Path_11504" data-name="Path 11504" d="M319.33,408.3a11.432,11.432,0,0,0,5.386,2.259c.29.058.405-.405.116-.405a11.531,11.531,0,0,1-5.27-2.2c-.232-.232-.463.174-.232.347Z" transform="translate(-319.234 -407.88)" fill="#202124"/>
          </g>
        </g>
        <g id="Group_4709" data-name="Group 4709" transform="translate(30.52 58.202)">
          <path id="Path_11505" data-name="Path 11505" d="M323.3,412.4c5.038,2.78,11.177,2.664,16.737,1.448" transform="translate(-323.3 -412.4)" fill="none"/>
        </g>
        <g id="Group_4711" data-name="Group 4711" transform="translate(40.939 26.408)">
          <g id="Group_4710" data-name="Group 4710">
            <path id="Path_11506" data-name="Path 11506" d="M341.3,357.674a147.956,147.956,0,0,0,2.374,18.822c.058.29.463.174.405-.116a144.774,144.774,0,0,1-2.316-18.706c-.058-.232-.521-.232-.463,0Z" transform="translate(-341.291 -357.5)" fill="#202124"/>
          </g>
        </g>
        <g id="Group_4713" data-name="Group 4713" transform="translate(45.461 59.772)">
          <g id="Group_4712" data-name="Group 4712">
            <path id="Path_11507" data-name="Path 11507" d="M349.1,415.394c1.39,7.413,2.78,14.883,4.17,22.3.058.29.463.174.405-.116-1.39-7.413-2.78-14.883-4.17-22.3,0-.29-.405-.174-.405.116Z" transform="translate(-349.1 -415.11)" fill="#202124"/>
          </g>
        </g>
        <g id="Group_4715" data-name="Group 4715" transform="translate(0 29.947)">
          <g id="Group_4714" data-name="Group 4714">
            <path id="Path_11508" data-name="Path 11508" d="M270.6,363.894a439.152,439.152,0,0,0,8.976,46.5c.058.29.463.174.405-.116a454.288,454.288,0,0,1-8.976-46.5c0-.29-.405-.174-.405.116Z" transform="translate(-270.6 -363.61)" fill="#202124"/>
          </g>
        </g>
        <g id="Group_4717" data-name="Group 4717" transform="translate(8.693 76.903)">
          <g id="Group_4716" data-name="Group 4716">
            <path id="Path_11509" data-name="Path 11509" d="M285.778,445.16c13.146,4.691,27.219,4.923,41,4.285a.232.232,0,0,0,0-.463c-13.783.637-27.8.405-40.886-4.285-.29-.058-.405.405-.116.463Z" transform="translate(-285.61 -444.691)" fill="#202124"/>
          </g>
        </g>
        <g id="Group_4719" data-name="Group 4719" transform="translate(0.337 25.308)">
          <g id="Group_4718" data-name="Group 4718">
            <path id="Path_11510" data-name="Path 11510" d="M271.424,360.291a111.466,111.466,0,0,1,40.075-3.822c.29,0,.29-.405,0-.463a112.13,112.13,0,0,0-40.191,3.88c-.232.058-.116.463.116.405Z" transform="translate(-271.182 -355.6)" fill="#202124"/>
          </g>
        </g>
      </g>
      <g id="head_1_" transform="translate(77.203 0)">
        <path id="Path_11511" data-name="Path 11511" d="M321.054,265.041a6.378,6.378,0,0,0-.463,2.374,9.245,9.245,0,0,0,2.027,5.965,9.7,9.7,0,0,0,5.444,3.475,10.833,10.833,0,0,0,4.228.174c.347.463.695.985,1.042,1.448a4.643,4.643,0,0,0-1.448,1.274c-.347.463-1.737,2.143-1.1,3.88a4.043,4.043,0,0,0,3.417,2.316c1.448.116,2.548-.579,4-1.506a11.04,11.04,0,0,0,3.011-2.9,9.537,9.537,0,0,0,1.564-3.3c.116-.348.174-.695.232-.927-1.448-1.332-2.954-2.664-4.4-4a9.066,9.066,0,0,0,1.042-1.911,13.2,13.2,0,0,0,1.1-5.154,18.307,18.307,0,0,0-.174-2.838,33.955,33.955,0,0,0-2.78-1.969c-2.78-1.8-4.517-2.838-6.6-2.664a6.6,6.6,0,0,0-2.606.869c-1.8.869-2.49,1.8-4.98,3.648C322.56,264,321.749,264.578,321.054,265.041Z" transform="translate(-310.605 -236.576)" fill="#fff"/>
        <path id="Path_11512" data-name="Path 11512" d="M333.369,247.929a19.412,19.412,0,0,0-1.911-1.911c-1.448-1.216-3.822-3.243-6.718-3.3-1.911-.058-3.3.869-6.2,2.664a27.732,27.732,0,0,0-5.038,3.938c-.058.637-.116,1.332-.116,1.969a16.65,16.65,0,0,1-3.185-1.506,13.781,13.781,0,0,1-4.749-4.4,12.16,12.16,0,0,1-1.679-9.208,11.136,11.136,0,0,1,2.838-5.154,12.132,12.132,0,0,1,5.038-2.9,15.412,15.412,0,0,1,7.239-.521,16.466,16.466,0,0,1,7.644,3.475,20.912,20.912,0,0,1,.695-2.722,13.451,13.451,0,0,1,1.911-4.517,7.6,7.6,0,0,1,4.517-3.127,5.436,5.436,0,0,1,4.17.347c1.506.927,2.548,2.954,3.243,4.343a3.791,3.791,0,0,0,1.564,1.911,3.681,3.681,0,0,0,1.853.347,4.99,4.99,0,0,0,2.49-1.158c2.259-1.506,5.328-.927,7.818-.405a18.137,18.137,0,0,1,3.938,1.332,17.8,17.8,0,0,1,7.007,6.37,22.685,22.685,0,0,1,3.3,8.4,16.706,16.706,0,0,1-.058,7.587,14.549,14.549,0,0,1-4.286,7.123c-2.838,2.606-5.907,3.243-8.513,3.764a27.562,27.562,0,0,1-10.83-.058,37.474,37.474,0,0,1-13.378-5.1C332.326,252.967,332.847,250.419,333.369,247.929Z" transform="translate(-303.403 -220.448)" fill="#3c4560"/>
        <ellipse id="Ellipse_477" data-name="Ellipse 477" cx="0.753" cy="1.042" rx="0.753" ry="1.042" transform="translate(20.7 26.554)" fill="#202124"/>
        <path id="Path_11513" data-name="Path 11513" d="M349.5,242.087l1.216.869a14.677,14.677,0,0,1,4.4,6.834,5.988,5.988,0,0,0-.753-5.444A5.835,5.835,0,0,0,349.5,242.087Z" transform="translate(-322.778 -229.548)" fill="#eb506e"/>
        <g id="Group_4720" data-name="Group 4720" transform="translate(9.917 28.87)">
          <path id="Path_11514" data-name="Path 11514" d="M320.666,270.3a9.833,9.833,0,0,0,2.722,8.861,10.323,10.323,0,0,0,8.918,2.722,10.68,10.68,0,0,0,7.471-5.56" transform="translate(-320.482 -270.3)" fill="none"/>
        </g>
        <g id="Group_4721" data-name="Group 4721" transform="translate(0 6.994)">
          <path id="Path_11515" data-name="Path 11515" d="M313.285,256.371c-7.413-1.158-12.162-11.061-8.861-17.605,3.417-6.718,13.494-7.818,19.516-4.228a20.722,20.722,0,0,1,7.992,9.382" transform="translate(-303.357 -232.526)" fill="none"/>
        </g>
        <g id="Group_4722" data-name="Group 4722" transform="translate(9.928 22.21)">
          <path id="Path_11516" data-name="Path 11516" d="M320.5,265.46c1.158-.927,2.259-1.853,3.417-2.722a22.927,22.927,0,0,1,6.544-3.938" transform="translate(-320.5 -258.8)" fill="none"/>
        </g>
        <g id="Group_4723" data-name="Group 4723" transform="translate(19.773 22.199)">
          <path id="Path_11517" data-name="Path 11517" d="M337.5,258.85c2.722-.521,6.6,2.027,8.629,3.591" transform="translate(-337.5 -258.781)" fill="none"/>
        </g>
        <g id="Group_4725" data-name="Group 4725" transform="translate(15.284 27.123)">
          <g id="Group_4724" data-name="Group 4724">
            <path id="Path_11518" data-name="Path 11518" d="M330.705,267.408c-.753,1.911-1.737,5.27.058,6.892.232.174.521-.116.29-.29-1.679-1.506-.695-4.691,0-6.486.174-.232-.232-.347-.347-.116Z" transform="translate(-329.749 -267.282)" fill="#202124"/>
          </g>
        </g>
        <g id="Group_4727" data-name="Group 4727" transform="translate(21.545 40.324)">
          <g id="Group_4726" data-name="Group 4726">
            <path id="Path_11519" data-name="Path 11519" d="M340.583,290.38l1.564,2.259c.174.232.521,0,.348-.232l-1.564-2.259c-.116-.174-.463,0-.347.232Z" transform="translate(-340.56 -290.078)" fill="#202124"/>
          </g>
        </g>
        <g id="Group_4728" data-name="Group 4728" transform="translate(20.092 40.742)">
          <path id="Path_11520" data-name="Path 11520" d="M339.412,292.885a9.215,9.215,0,0,0-1.274,2.9,3.212,3.212,0,0,0,.753,2.954,3.785,3.785,0,0,0,3.764.463,11.067,11.067,0,0,0,7.644-8.4" transform="translate(-338.052 -290.8)" fill="none"/>
        </g>
        <g id="Group_4729" data-name="Group 4729" transform="translate(23.015 0.008)">
          <path id="Path_11521" data-name="Path 11521" d="M343.1,231.14a11.116,11.116,0,0,1,5.212-9.5,6.776,6.776,0,0,1,4.691-1.1c2.316.463,3.88,2.606,4.633,4.865.347,1.158.869,2.606,2.085,2.664a3.231,3.231,0,0,0,1.564-.579c5.038-2.9,11.756-2.085,16.447,1.39s7.413,9.15,8.108,14.941a16.246,16.246,0,0,1-.348,6.255,14.064,14.064,0,0,1-6.139,7.76,22.539,22.539,0,0,1-9.613,3.011,31.743,31.743,0,0,1-13.378-1.506,18.376,18.376,0,0,1-7.181-4.054" transform="translate(-343.098 -220.461)" fill="none"/>
        </g>
        <g id="Group_4730" data-name="Group 4730" transform="translate(28.576 18.157)">
          <path id="Path_11522" data-name="Path 11522" d="M352.7,251.8a25.149,25.149,0,0,1,.405,16.737" transform="translate(-352.7 -251.8)" fill="none"/>
        </g>
      </g>
    </g>
    <g id="tutor" transform="translate(25.6 40.1)">
      <g id="window">
        <path id="Path_11523" data-name="Path 11523" d="M25.6,40.1q.174,78.269.347,156.479A323.841,323.841,0,0,0,98.4,219.686a322.708,322.708,0,0,0,98.741,3.417q3.909-87.216,7.876-174.374Q115.277,44.386,25.6,40.1Z" transform="translate(-25.6 -40.1)" fill="#e8e8e8" opacity="0.58"/>
      </g>
      <g id="head" transform="translate(25.904 38.223)">
        <path id="Path_11524" data-name="Path 11524" d="M71.447,140.173c-.116-1.448-.232-3.648-.347-6.255-.347-6.95-.29-7.876-.232-8.513a19.971,19.971,0,0,1,3.243-9.266,21.163,21.163,0,0,1,4.865-4.865,23.694,23.694,0,0,1,10.077-4.4,14.544,14.544,0,0,1,8.513.405,8.413,8.413,0,0,1,4.749,3.648,8.256,8.256,0,0,1,.174,6.255c-.405,1.332-1.274,3.011-3.822,5.212-2.954,2.548-4.691,2.838-8.8,4.98a39.846,39.846,0,0,0-12.451,9.613,31.657,31.657,0,0,0-3.243,4.807C73.3,141.215,72.374,140.694,71.447,140.173Z" transform="translate(-70.538 -106.237)" fill="#202124"/>
        <path id="Path_11525" data-name="Path 11525" d="M101.865,132.9a22.912,22.912,0,0,1,1.1,4.054,13.913,13.913,0,0,1-.521,7.992,9.284,9.284,0,0,1-2.78,3.822,10.669,10.669,0,0,1-5.212,1.969,15.567,15.567,0,0,1-4,.058,23.849,23.849,0,0,1-2.432,4c-.347.463-.695.869-1.042,1.274-3.127-1.158-6.255-2.374-9.382-3.533a14.707,14.707,0,0,1,2.259-4.865,19.263,19.263,0,0,1,6.486-5.56c1.737-1.042,1.506-.637,4.923-2.432,2.9-1.506,4.98-2.838,6.081-3.533C98.68,135.274,100.186,134.174,101.865,132.9Z" transform="translate(-73.389 -117.38)" fill="#fff"/>
        <g id="Group_4731" data-name="Group 4731" transform="translate(16.025 15.52)">
          <path id="Path_11526" data-name="Path 11526" d="M110.451,132.9a14.108,14.108,0,0,1,1.158,6.6c0,2.374-.116,4.923-1.274,7.007a8.7,8.7,0,0,1-5.444,4,14.593,14.593,0,0,1-6.892,0" transform="translate(-98 -132.9)" fill="none"/>
        </g>
        <g id="Group_4733" data-name="Group 4733" transform="translate(15.614 33.25)">
          <g id="Group_4732" data-name="Group 4732">
            <path id="Path_11527" data-name="Path 11527" d="M98.512,163.622A8.773,8.773,0,0,0,97.3,166.46c-.058.29.347.405.405.116a9.413,9.413,0,0,1,1.158-2.722c.174-.29-.174-.463-.347-.232Z" transform="translate(-97.29 -163.515)" fill="#202124"/>
          </g>
        </g>
        <g id="Group_4735" data-name="Group 4735">
          <g id="Group_4734" data-name="Group 4734">
            <path id="Path_11528" data-name="Path 11528" d="M71.413,136.562c-.753-6.2-1.506-12.972,1.564-18.706,2.722-5.038,8.108-8.687,13.494-10.308,5.154-1.506,15.347-1.8,16.1,5.618.753,7.355-6.776,10.424-11.93,13.494-.232.116,0,.521.232.347,5.56-3.3,12.741-6.2,12.162-13.9-.405-5.675-7.471-7.355-12.1-6.949a24.55,24.55,0,0,0-16.679,8.919c-4.865,6.081-4.17,14.189-3.3,21.428.058.347.463.347.463.058Z" transform="translate(-70.329 -106.101)" fill="#202124"/>
          </g>
        </g>
        <g id="Group_4737" data-name="Group 4737" transform="translate(4.129 20.748)">
          <g id="Group_4736" data-name="Group 4736">
            <path id="Path_11529" data-name="Path 11529" d="M93.119,141.969c-6.139,3.069-12.335,6.37-15.636,12.683-.116.232.232.463.347.232,3.243-6.255,9.44-9.5,15.463-12.509.29-.174.058-.579-.174-.405Z" transform="translate(-77.46 -141.927)" fill="#202124"/>
          </g>
        </g>
      </g>
      <g id="torso" transform="translate(0 71.137)">
        <path id="Path_11530" data-name="Path 11530" d="M27.753,163.436c-.637.869-1.274,1.737-1.853,2.606,0,2.49,0,6.023.058,10.25.116,4.691.347,15.521,1.911,32.836.985,10.714,2.432,24.439,4.865,40.539a209.812,209.812,0,0,0,34.284,12.162,213.163,213.163,0,0,0,27.856,5.328c1.39-10.772,2.143-19.98,2.664-27.1a247.153,247.153,0,0,0,.753-26.871,137.9,137.9,0,0,0-1.158-15.521,138.654,138.654,0,0,0-3.88-18.937A105.192,105.192,0,0,0,50.86,163.783,100.919,100.919,0,0,0,27.753,163.436Z" transform="translate(-25.726 -162.935)" fill="#00ffd5"/>
        <g id="Group_4738" data-name="Group 4738" transform="translate(2.027 0.001)">
          <path id="Path_11531" data-name="Path 11531" d="M29.1,163.437a104.83,104.83,0,0,1,65.441,15.289" transform="translate(-29.1 -162.937)" fill="none"/>
        </g>
        <g id="Group_4739" data-name="Group 4739" transform="translate(68.858 20.655)">
          <path id="Path_11532" data-name="Path 11532" d="M144.5,198.6c6.37,27.277,3.359,55.712.29,83.568" transform="translate(-144.5 -198.6)" fill="none"/>
        </g>
        <g id="Group_4740" data-name="Group 4740" transform="translate(0 3.686)">
          <path id="Path_11533" data-name="Path 11533" d="M25.6,169.3a604.75,604.75,0,0,0,7.007,83.046" transform="translate(-25.6 -169.3)" fill="none"/>
        </g>
      </g>
      <g id="hand" transform="translate(40.979 81.423)">
        <path id="Path_11534" data-name="Path 11534" d="M200.69,197.4a17.087,17.087,0,0,1,.521-4.691c.347-1.332.521-1.332,3.3-6.6a12.756,12.756,0,0,1,3.069-4.286c1.1-.985,1.853-1.158,2.49-1.042a2.627,2.627,0,0,1,1.332.811c-.347.811-.695,1.622-1.042,2.49-.579,1.332-1.1,2.664-1.622,3.938a19.457,19.457,0,0,0,3.591.29A21.783,21.783,0,0,0,219.4,186.8a31.421,31.421,0,0,0,8.919-5.1,9.668,9.668,0,0,1,.174,3.069,11.766,11.766,0,0,1-1.564,4.286c-.637,1.274-1.506,2.9-2.548,4.749-.869.753-2.027,1.8-3.475,2.838a52.256,52.256,0,0,1-7.065,4.286c-5.27,2.78-7.876,4.17-9.092,3.764C201.964,203.71,201.037,199.367,200.69,197.4Z" transform="translate(-140.265 -180.718)" fill="#fff"/>
        <path id="Path_11535" data-name="Path 11535" d="M123.718,192.094a15.111,15.111,0,0,0-7.181-1.8c-9.613.347-16.158,11.64-18.474,18.474a32.8,32.8,0,0,0-1.332,15.463,126.4,126.4,0,0,0,4.633,14.594,146.483,146.483,0,0,0,10.077,20.791,90.8,90.8,0,0,0,7.644,11.293,23.91,23.91,0,0,0,5.907,5.733,13.282,13.282,0,0,0,12.857,1.911c1.042-.405,3.069-1.448,5.733-4.691a30.742,30.742,0,0,0,4.575-7.7c5.1-12.857,5.27-10.6,8.339-19.922,5.212-15.694,7.818-31.852,8.861-38.512a9.145,9.145,0,0,0-2.548-5.212,9.414,9.414,0,0,0-6.023-2.722c-2.143,2.954-4.343,6.139-6.486,9.44a190.89,190.89,0,0,0-11.814,21.2c-2.259-6.081-4.575-12.162-6.892-18.3C128.872,205.471,126.324,198.754,123.718,192.094Z" transform="translate(-96.361 -184.737)" fill="#00ffd5"/>
        <path id="Path_11536" data-name="Path 11536" d="M205.4,216" transform="translate(-142.253 -195.555)" fill="#fff"/>
        <g id="Group_4741" data-name="Group 4741" transform="translate(27.357 7.356)">
          <path id="Path_11537" data-name="Path 11537" d="M143.6,193.4q7.3,19.545,14.594,39.149" transform="translate(-143.6 -193.4)" fill="none"/>
        </g>
        <g id="Group_4742" data-name="Group 4742" transform="translate(41.662 15.117)">
          <path id="Path_11538" data-name="Path 11538" d="M168.3,237.667A314.247,314.247,0,0,1,186.948,206.8" transform="translate(-168.3 -206.8)" fill="none"/>
        </g>
        <g id="Group_4744" data-name="Group 4744" transform="translate(0.075 22.776)">
          <g id="Group_4743" data-name="Group 4743">
            <path id="Path_11539" data-name="Path 11539" d="M96.5,236.863a134.084,134.084,0,0,0,11.177,29.072,127.427,127.427,0,0,0,8.339,13.725c2.49,3.591,5.212,7.239,8.861,9.729,7.3,4.98,15.115,2.722,19.864-4.286,2.9-4.228,4.98-9.092,7.007-13.783,2.143-4.865,4.054-9.845,5.733-14.884a180.626,180.626,0,0,0,8.05-36.2c.058-.29-.405-.29-.463,0a180.422,180.422,0,0,1-17.026,58.086c-1.8,3.706-3.764,7.529-6.834,10.308-4.4,3.938-10.424,3.88-15.289.869-4.286-2.606-7.3-6.834-10.077-10.888a123.585,123.585,0,0,1-7.065-11.582,129.484,129.484,0,0,1-11.814-30.288c-.116-.232-.521-.116-.463.116Z" transform="translate(-96.49 -220.025)" fill="#fff"/>
          </g>
        </g>
        <g id="Group_4746" data-name="Group 4746" transform="translate(61.341 15.17)">
          <g id="Group_4745" data-name="Group 4745">
            <path id="Path_11540" data-name="Path 11540" d="M202.408,207.3a8.883,8.883,0,0,1,7.123,6.6c.058.29.463.174.405-.116a9.1,9.1,0,0,0-7.413-6.892c-.232-.058-.347.405-.116.405Z" transform="translate(-202.282 -206.891)" fill="#202124"/>
          </g>
        </g>
        <g id="Group_4747" data-name="Group 4747" transform="translate(60.309 0)">
          <path id="Path_11541" data-name="Path 11541" d="M200.5,194.366a47.879,47.879,0,0,1,5.56-10.83c.927-1.39,2.259-2.9,3.938-2.838" transform="translate(-200.5 -180.697)" fill="none"/>
        </g>
        <g id="Group_4749" data-name="Group 4749" transform="translate(68.688 1.671)">
          <g id="Group_4748" data-name="Group 4748">
            <path id="Path_11542" data-name="Path 11542" d="M216.724,183.708c-.579,1.564-1.158,3.069-1.737,4.633-.116.29.347.347.405.116.579-1.564,1.158-3.069,1.737-4.633.116-.232-.29-.347-.405-.116Z" transform="translate(-214.968 -183.582)" fill="#202124"/>
          </g>
        </g>
        <g id="Group_4751" data-name="Group 4751" transform="translate(69.118 0.77)">
          <g id="Group_4750" data-name="Group 4750">
            <path id="Path_11543" data-name="Path 11543" d="M215.878,189.424c7.065,1.042,13.146-3.591,18.937-7.007.232-.116,0-.521-.232-.347-5.617,3.3-11.7,7.992-18.59,6.949-.29-.058-.405.347-.116.405Z" transform="translate(-215.71 -182.026)" fill="#202124"/>
          </g>
        </g>
        <g id="Group_4753" data-name="Group 4753" transform="translate(80.231 2.349)">
          <g id="Group_4752" data-name="Group 4752">
            <path id="Path_11544" data-name="Path 11544" d="M235.247,191.035a22.882,22.882,0,0,0,7.76-5.907c.174-.232-.116-.521-.29-.29a22.856,22.856,0,0,1-7.644,5.849c-.347.058-.116.463.174.347Z" transform="translate(-234.899 -184.753)" fill="#202124"/>
          </g>
        </g>
        <g id="Group_4755" data-name="Group 4755" transform="translate(80.488 3.786)">
          <g id="Group_4754" data-name="Group 4754">
            <path id="Path_11545" data-name="Path 11545" d="M235.666,194.569a23.487,23.487,0,0,0,7.7-7.007c.174-.232-.232-.463-.348-.232a22.406,22.406,0,0,1-7.529,6.834c-.29.174-.116.579.174.405Z" transform="translate(-235.343 -187.234)" fill="#202124"/>
          </g>
        </g>
        <g id="Group_4757" data-name="Group 4757" transform="translate(80.849 7.029)">
          <g id="Group_4756" data-name="Group 4756">
            <path id="Path_11546" data-name="Path 11546" d="M236.276,199.3a18.145,18.145,0,0,0,6.428-6.139c.174-.232-.232-.463-.348-.232a16.865,16.865,0,0,1-6.255,6.023c-.29.116-.058.463.174.348Z" transform="translate(-235.967 -192.834)" fill="#202124"/>
          </g>
        </g>
        <g id="Group_4758" data-name="Group 4758" transform="translate(69.575 13.032)">
          <path id="Path_11547" data-name="Path 11547" d="M216.5,211.366a5.6,5.6,0,0,0,3.185-.695,46.422,46.422,0,0,0,11.351-7.471" transform="translate(-216.5 -203.2)" fill="none"/>
        </g>
      </g>
      <g id="tab" transform="translate(79.861 16.91)">
        <g transform="matrix(1, 0, 0, 1, -148.5, -147.5)" filter="url(#Path_11548)">
          <path id="Path_11548-2" data-name="Path 11548" d="M163.5,69.3c.463,14.073.869,28.2,1.332,42.276q32.923,2.519,65.788,5.038.261-23.368.521-46.735Q197.263,69.532,163.5,69.3Z" transform="translate(-15 78.2)" fill="#01817c"/>
        </g>
      </g>
    </g>
  </g>
</svg>
