<svg xmlns="http://www.w3.org/2000/svg" width="319.897" height="306.589" viewBox="0 0 319.897 306.589">
  <g id="guidance" transform="translate(-0.099)">
    <g id="background" transform="translate(0.6 167.15)">
      <g id="stairs" transform="translate(0 73.035)">
        <path id="Path_11738" data-name="Path 11738" d="M301.7,535.812l14.77-3.56s8.713-2.019,15.78-3.453c11.37-2.338,61.313,2.6,128.258,13.548.053,3.772.053,7.545.106,11.317-18.543-.053-37.085-.159-55.628-.213Q353.343,544.685,301.7,535.812Z" transform="translate(-141.723 -487.761)" fill="#fff" stroke="#202124" stroke-miterlimit="10" stroke-width="1"/>
        <path id="Path_11739" data-name="Path 11739" d="M132.3,537.321c.106-.478,0-42.824,0-42.824s36.554-.744,38.148-.531,176.129,43.355,176.129,43.355Z" transform="translate(-62.327 -471.684)" fill="#fff" stroke="#202124" stroke-miterlimit="10" stroke-width="1"/>
        <path id="Path_11740" data-name="Path 11740" d="M.6,517.7c.106-.744,0-64.767,0-64.767s30.019-1.169,31.347-.8c1.275.425,144.676,65.564,144.676,65.564Z" transform="translate(-0.6 -452.062)" fill="#fff" stroke="#202124" stroke-miterlimit="10" stroke-width="1"/>
      </g>
    </g>
    <g id="guy" transform="translate(24.615)">
      <g id="leg_left_1_" transform="translate(81.184 137.556)">
        <path id="Path_11754" data-name="Path 11754" d="M208.482,508.141c9.617,9.351,13.92,14.611,13.017,15.78q-1.514,1.992-22.9-11.37l2.391-7.651a5.411,5.411,0,0,0,1.7,2.391A6.5,6.5,0,0,0,208.482,508.141Z" transform="translate(-198.6 -374.198)" fill="#00302e"/>
        <g id="Group_4994" data-name="Group 4994" transform="translate(8.223 133.824)">
          <g id="Group_4993" data-name="Group 4993">
            <path id="Path_11755" data-name="Path 11755" d="M215.683,511.9c-1.169-.266-2.232,2.5-1.169,2.55.691.053,1.009-.9,1.222-1.381a4.048,4.048,0,0,1,.691-1.541c.159-.159.638-.584.85-.266.319.478-.584.9-.85.85-.266,0-.266.372,0,.425,1.381.106,1.7-2.178.319-1.7a2.278,2.278,0,0,0-1.222,1.7c-.053.159-.638,1.86-1.009,1.435-.106-.159.213-.85.266-.956.159-.266.478-.744.8-.638.266,0,.372-.425.106-.478Z" transform="translate(-214.077 -510.776)" fill="#fff"/>
          </g>
        </g>
        <g id="Group_4996" data-name="Group 4996" transform="translate(11.108 136.919)">
          <g id="Group_4995" data-name="Group 4995">
            <path id="Path_11756" data-name="Path 11756" d="M219.822,517.981a2.691,2.691,0,0,1,2.178-.956c.266,0,.266-.372,0-.425a3.126,3.126,0,0,0-2.444,1.116c-.159.159.106.425.266.266Z" transform="translate(-219.508 -516.6)" fill="#fff"/>
          </g>
        </g>
        <g id="Group_4998" data-name="Group 4998" transform="translate(12.681 138.034)">
          <g id="Group_4997" data-name="Group 4997">
            <path id="Path_11757" data-name="Path 11757" d="M222.8,519.869a3.221,3.221,0,0,1,1.806-.744.213.213,0,0,0,0-.425,3.3,3.3,0,0,0-2.072.85c-.213.213.106.478.266.319Z" transform="translate(-222.467 -518.7)" fill="#fff"/>
          </g>
        </g>
        <g id="Group_5000" data-name="Group 5000" transform="translate(13.779 139.517)">
          <g id="Group_4999" data-name="Group 4999">
            <path id="Path_11758" data-name="Path 11758" d="M224.835,522.664a4.743,4.743,0,0,1,2.019-.8c.266-.053.159-.425-.106-.372a4.984,4.984,0,0,0-2.125.85c-.213.106,0,.478.213.319Z" transform="translate(-224.534 -521.49)" fill="#fff"/>
          </g>
        </g>
        <g id="Group_5002" data-name="Group 5002" transform="translate(15.107 141.176)">
          <g id="Group_5001" data-name="Group 5001">
            <path id="Path_11759" data-name="Path 11759" d="M227.335,525.615c.106-.053,1.647-.744,1.7-.584.053.266.425.159.372-.106-.106-.8-1.913.159-2.285.372-.213.106,0,.425.213.319Z" transform="translate(-227.034 -524.613)" fill="#fff"/>
          </g>
        </g>
        <g id="Group_5004" data-name="Group 5004" transform="translate(0.486 137.676)">
          <g id="Group_5003" data-name="Group 5003">
            <path id="Path_11760" data-name="Path 11760" d="M199.613,518.384a126.889,126.889,0,0,1,13.92,8.342c.212.159.425-.213.212-.319a123.654,123.654,0,0,0-13.92-8.342.192.192,0,1,0-.213.319Z" transform="translate(-199.515 -518.026)" fill="#fff"/>
          </g>
        </g>
        <path id="Path_11761" data-name="Path 11761" d="M230.737,268.357c.85,10.042,1.7,20.243,2.391,30.55.691,9.4,1.275,18.7,1.806,27.947V335.3c-1.328,3.719-3.4,9.4-6.216,16.258-3.241,7.917-5.419,12.326-9.829,22.315-2.072,4.729-5.1,11.529-8.66,19.871a6.5,6.5,0,0,1-3.4-.584,7.065,7.065,0,0,1-3.028-2.816c.106-2.391.266-6.11.425-10.626.372-11.8.531-20.827.584-24.918.531-36.607.053-44.418,1.009-61.313.425-7.81,1.275-19.765,3.241-34.588C216.286,262.035,223.512,265.223,230.737,268.357Z" transform="translate(-201.037 -258.9)" fill="#01302e"/>
        <g id="Group_5006" data-name="Group 5006" transform="translate(29.377 10.055)">
          <g id="Group_5005" data-name="Group 5005">
            <path id="Path_11762" data-name="Path 11762" d="M253.9,278.024a600.975,600.975,0,0,1,4.463,64.82.213.213,0,0,0,.425,0,600.975,600.975,0,0,0-4.463-64.82c-.053-.266-.478-.266-.425,0Z" transform="translate(-253.891 -277.825)" fill="#202124"/>
          </g>
        </g>
        <g id="Group_5008" data-name="Group 5008" transform="translate(9.011 75.808)">
          <g id="Group_5007" data-name="Group 5007">
            <path id="Path_11763" data-name="Path 11763" d="M240.181,401.7a445.426,445.426,0,0,1-24.6,57.169c-.106.213.213.425.319.213A447.422,447.422,0,0,0,240.606,401.8c.053-.213-.319-.319-.425-.106Z" transform="translate(-215.56 -401.582)" fill="#202124"/>
          </g>
        </g>
        <g id="Group_5010" data-name="Group 5010" transform="translate(2.869 44.75)">
          <g id="Group_5009" data-name="Group 5009">
            <path id="Path_11764" data-name="Path 11764" d="M205.435,343.324q.159,42.877-1.435,85.807c0,.266.372.266.425,0q1.674-42.877,1.435-85.807a.213.213,0,0,0-.425,0Z" transform="translate(-204 -343.125)" fill="#202124"/>
          </g>
        </g>
        <g id="Group_5012" data-name="Group 5012" transform="translate(2.901 131.773)">
          <g id="Group_5011" data-name="Group 5011">
            <path id="Path_11765" data-name="Path 11765" d="M204.081,507.226a5.006,5.006,0,0,0,5.951,2.391c.266-.053.159-.478-.106-.372a4.674,4.674,0,0,1-5.526-2.232c-.106-.212-.425-.053-.319.213Z" transform="translate(-204.06 -506.915)" fill="#202124"/>
          </g>
        </g>
      </g>
      <g id="leg_right_1_" transform="translate(29.01 124.433)">
        <path id="Path_11766" data-name="Path 11766" d="M116.5,464.454q16.019,25.742,13.442,27.734c-1.913,1.488-11.742-7.173-29.541-26.087,1.647-2.285,3.241-4.569,4.888-6.8a9.419,9.419,0,0,0,1.647,2.444C110.335,465.251,115.649,464.56,116.5,464.454Z" transform="translate(-100.4 -339.702)" fill="#00302e"/>
        <g id="Group_5014" data-name="Group 5014" transform="translate(12.686 125.85)">
          <g id="Group_5013" data-name="Group 5013">
            <path id="Path_11767" data-name="Path 11767" d="M127.264,471.138a2.358,2.358,0,0,0-1.966.372,2.05,2.05,0,0,0-1.009,1.753c.106.638.744.691,1.222.372a5.183,5.183,0,0,0,1.7-1.86c.106-.213-.213-.425-.319-.213a4.718,4.718,0,0,1-.85,1.169,4.625,4.625,0,0,1-.584.478c-.106.053-.213.159-.319.213a.5.5,0,0,1-.266-.8,2.106,2.106,0,0,1,2.338-1.116c.213.053.319-.319.053-.372Z" transform="translate(-124.276 -471.068)" fill="#15dbd6"/>
          </g>
        </g>
        <g id="Group_5016" data-name="Group 5016" transform="translate(15.74 124.272)">
          <g id="Group_5015" data-name="Group 5015">
            <path id="Path_11768" data-name="Path 11768" d="M130.437,469.958a2.2,2.2,0,0,1,.9-1.169c.478-.319,1.541-.638,1.753.106.213.8-.744,1.116-1.328,1.116-.531,0-1.009-.053-1.541-.053-.266,0-.266.372,0,.425.9.053,2.019.266,2.763-.266a1.2,1.2,0,0,0,.372-1.594,1.515,1.515,0,0,0-1.86-.213,2.82,2.82,0,0,0-1.435,1.594c-.053.159.319.266.372.053Z" transform="translate(-130.025 -468.098)" fill="#15dbd6"/>
          </g>
        </g>
        <g id="Group_5018" data-name="Group 5018" transform="translate(16.761 128.158)">
          <g id="Group_5017" data-name="Group 5017">
            <path id="Path_11769" data-name="Path 11769" d="M132.24,476.627a3.847,3.847,0,0,1,1.009-.584c.213-.106.956-.372,1.116-.159s.478,0,.319-.213c-.266-.372-.691-.266-1.063-.159a4.741,4.741,0,0,0-1.647.8c-.106.159.106.478.266.319Z" transform="translate(-131.946 -475.411)" fill="#15dbd6"/>
          </g>
        </g>
        <g id="Group_5020" data-name="Group 5020" transform="translate(17.516 129.846)">
          <g id="Group_5019" data-name="Group 5019">
            <path id="Path_11770" data-name="Path 11770" d="M133.7,479.764a2.53,2.53,0,0,1,2.019-.744c.266,0,.266-.372,0-.425a2.857,2.857,0,0,0-2.285.9c-.213.159.106.425.266.266Z" transform="translate(-133.367 -478.589)" fill="#15dbd6"/>
          </g>
        </g>
        <g id="Group_5022" data-name="Group 5022" transform="translate(18.578 131.605)">
          <g id="Group_5021" data-name="Group 5021">
            <path id="Path_11771" data-name="Path 11771" d="M135.7,483.122a3.7,3.7,0,0,1,2.072-.8.213.213,0,0,0,0-.425,4.253,4.253,0,0,0-2.338.9c-.213.212.106.478.266.319Z" transform="translate(-135.367 -481.9)" fill="#15dbd6"/>
          </g>
        </g>
        <g id="Group_5024" data-name="Group 5024" transform="translate(19.8 133.571)">
          <g id="Group_5023" data-name="Group 5023">
            <path id="Path_11772" data-name="Path 11772" d="M138,486.875a4.1,4.1,0,0,1,2.178-.85.213.213,0,0,0,0-.425,4.119,4.119,0,0,0-2.444.956c-.213.213.106.478.266.319Z" transform="translate(-137.667 -485.6)" fill="#15dbd6"/>
          </g>
        </g>
        <g id="Group_5026" data-name="Group 5026" transform="translate(20.899 135.359)">
          <g id="Group_5025" data-name="Group 5025">
            <path id="Path_11773" data-name="Path 11773" d="M140.035,490.205a5.971,5.971,0,0,1,1.488-.85c.213-.106.106-.478-.106-.372a5.892,5.892,0,0,0-1.594.9c-.213.159,0,.478.213.319Z" transform="translate(-139.734 -488.964)" fill="#15dbd6"/>
          </g>
        </g>
        <g id="Group_5028" data-name="Group 5028" transform="translate(0.825 125.789)">
          <g id="Group_5027" data-name="Group 5027">
            <path id="Path_11774" data-name="Path 11774" d="M102.031,471.3c4.941,5.1,9.882,10.148,14.824,15.249.159.159.478-.106.266-.266-4.941-5.1-9.882-10.148-14.824-15.249-.213-.212-.478.053-.266.266Z" transform="translate(-101.953 -470.953)" fill="#15dbd6"/>
          </g>
        </g>
        <path id="Path_11775" data-name="Path 11775" d="M145.132,239.141q1.992,30.444,4.038,60.888-8.528,10.679-17.161,22.474Q119.975,339,109.8,354.7a8.47,8.47,0,0,0,3.188,3.135c3.772,2.125,7.81.531,8.395.319,1.806-1.806,5.047-4.994,9.3-8.873,10.945-9.989,17.533-14.5,32.463-26.884,2.71-2.232,7.066-5.9,12.486-10.573a9.922,9.922,0,0,0,3.294-3.666,11.188,11.188,0,0,0,.9-2.763c.319-1.806,0-2.71-.213-5.844l-.106-3.188c-.159-4.888-.372-9.776-.531-14.664-.584-15.78-.584-15.089-.584-16.1-.478-9.989-.744-14.93-1.169-16.258-1.275-3.507-5.791-11.476-27.734-15.142C147.895,235.847,146.514,237.494,145.132,239.141Z" transform="translate(-104.806 -234.2)" fill="#01302e"/>
        <g id="Group_5030" data-name="Group 5030" transform="translate(40.061 5.645)">
          <g id="Group_5029" data-name="Group 5029">
            <path id="Path_11776" data-name="Path 11776" d="M175.8,245.024q2.391,29.966,4.091,59.985a.213.213,0,0,0,.425,0q-1.674-30.046-4.091-59.985c-.053-.266-.425-.266-.425,0Z" transform="translate(-175.8 -244.825)" fill="#15dbd6"/>
          </g>
        </g>
        <g id="Group_5032" data-name="Group 5032" transform="translate(4.69 66.708)">
          <g id="Group_5031" data-name="Group 5031">
            <path id="Path_11777" data-name="Path 11777" d="M147.945,359.832q-20.323,25.662-38.679,52.706c-.159.212.213.425.319.212q18.41-27.017,38.626-52.6c.213-.266-.106-.531-.266-.319Z" transform="translate(-109.226 -359.755)" fill="#15dbd6"/>
          </g>
        </g>
        <g id="Group_5034" data-name="Group 5034" transform="translate(4.761 120.243)">
          <g id="Group_5033" data-name="Group 5033">
            <path id="Path_11778" data-name="Path 11778" d="M109.381,460.826c2.178,4.2,7.066,4.463,11.317,4.41a.213.213,0,0,0,0-.425c-4.038.053-8.82-.106-10.945-4.2a.214.214,0,0,0-.372.213Z" transform="translate(-109.36 -460.515)" fill="#15dbd6"/>
          </g>
        </g>
        <g id="Group_5036" data-name="Group 5036" transform="translate(73.108 29.714)">
          <g id="Group_5035" data-name="Group 5035">
            <path id="Path_11779" data-name="Path 11779" d="M238,290.324c.531,13.708,1.063,27.469,1.541,41.177a.213.213,0,0,0,.425,0c-.531-13.708-1.063-27.469-1.541-41.177a.213.213,0,0,0-.425,0Z" transform="translate(-238 -290.125)" fill="#15dbd6"/>
          </g>
        </g>
        <g id="Group_5038" data-name="Group 5038" transform="translate(16.315 73.668)">
          <g id="Group_5037" data-name="Group 5037">
            <path id="Path_11780" data-name="Path 11780" d="M188.644,372.931c-3.879,4.994-9.192,8.926-14.08,12.911s-9.829,7.917-14.717,11.848a350.479,350.479,0,0,0-28.691,25.237c-.159.159.106.478.266.266,8.979-9.085,18.755-17.214,28.691-25.237,4.888-3.932,9.829-7.863,14.717-11.848s10.2-7.863,14.08-12.911c.159-.213-.106-.478-.266-.266Z" transform="translate(-131.107 -372.853)" fill="#15dbd6"/>
          </g>
        </g>
      </g>
      <g id="hand_left_1_" transform="translate(124.428 89.951)">
        <path id="Path_11781" data-name="Path 11781" d="M373.356,274.607a3.238,3.238,0,0,0-3.666,1.488,3.318,3.318,0,0,0,1.488,4.41,19.012,19.012,0,0,0,4.676,4.463,16.87,16.87,0,0,0,5.738,2.763,15.906,15.906,0,0,0,7.7-.053c-1.435-.638-2.816-1.275-4.25-1.913a23.474,23.474,0,0,0,5.844,1.009h1.222c-3.613-2.391-5.313-3.772-5.154-4.091.159-.266,1.86.319,5.154,1.806a32.61,32.61,0,0,0-2.5-2.178,43.929,43.929,0,0,0-4.888-3.294c-.584-.319-1.009-.638-1.328-.8,1.275-.106,2.71-.266,2.763-.691.053-.584-2.285-1.275-3.188-1.541A31.343,31.343,0,0,0,373.356,274.607Z" transform="translate(-321.867 -218.607)" fill="#fff"/>
        <path id="Path_11782" data-name="Path 11782" d="M304.3,169.3a40.5,40.5,0,0,0-11.848,7.491A41.393,41.393,0,0,0,280.5,197.725c.425,2.125,1.063,4.835,1.806,8.023,1.966,8.129,2.072,6.907,3.719,13.761.691,2.816,1.966,5.472,2.657,8.288a6.029,6.029,0,0,0,1.594,3.082,5.794,5.794,0,0,0,2.816,1.488,41.247,41.247,0,0,0,11.423.85c7.332-.584,3.56,0,11.317-.691,3.188-.266,7.6-.691,12.8-1.328a6.983,6.983,0,0,0,1.594-2.178,7.23,7.23,0,0,0,.638-3.985q-12.911-4.383-25.875-8.82c-.425-9.617-.691-19.446-.744-29.488C304.25,180.829,304.25,174.985,304.3,169.3Z" transform="translate(-280.229 -169.3)" fill="#040844"/>
        <g id="Group_5040" data-name="Group 5040" transform="translate(23.844 2.603)">
          <g id="Group_5039" data-name="Group 5039">
            <path id="Path_11783" data-name="Path 11783" d="M324.939,174.359c-.212,14.345.053,28.691.9,42.983a.213.213,0,0,0,.425,0c-.8-14.345-1.116-28.638-.9-42.983,0-.213-.425-.213-.425,0Z" transform="translate(-324.869 -174.2)" fill="#202124"/>
          </g>
        </g>
        <g id="Group_5042" data-name="Group 5042" transform="translate(26.47 47.057)">
          <g id="Group_5041" data-name="Group 5041">
            <path id="Path_11784" data-name="Path 11784" d="M329.964,258.257c7.97,2.975,15.939,5.791,24.015,8.448.266.106.372-.319.106-.372-8.076-2.657-16.046-5.473-24.015-8.448-.266-.106-.372.319-.106.372Z" transform="translate(-329.81 -257.868)" fill="#202124"/>
          </g>
        </g>
        <g id="Group_5044" data-name="Group 5044" transform="translate(0 27.713)">
          <g id="Group_5043" data-name="Group 5043">
            <path id="Path_11785" data-name="Path 11785" d="M280,221.746c1.381,6.641,3.028,13.283,4.941,19.818q1.435,4.941,3.028,9.723c.691,1.966,1.222,3.985,3.188,5.047,1.966,1.116,4.676,1.116,6.854,1.275a85.735,85.735,0,0,0,9.776.106c6.748-.266,13.389-1.222,20.083-2.125.266-.053.159-.425-.106-.372-6.11.85-12.273,1.7-18.436,2.019-2.922.159-5.844.213-8.713.106s-6.694.053-9.245-1.381c-2.657-1.488-3.4-6-4.25-8.713-.85-2.763-1.7-5.526-2.5-8.342-1.594-5.738-3.028-11.529-4.25-17.374-.053-.159-.425-.053-.372.213Z" transform="translate(-279.99 -221.459)" fill="#202124"/>
          </g>
        </g>
        <g id="Group_5046" data-name="Group 5046" transform="translate(48.252 56.438)">
          <g id="Group_5045" data-name="Group 5045">
            <path id="Path_11786" data-name="Path 11786" d="M373.141,275.724a7.345,7.345,0,0,1-2.285,5.154c-.159.159.106.478.266.266a7.745,7.745,0,0,0,2.391-5.419c.053-.266-.372-.266-.372,0Z" transform="translate(-370.808 -275.525)" fill="#202124"/>
          </g>
        </g>
        <g id="Group_5048" data-name="Group 5048" transform="translate(48.837 61.265)">
          <g id="Group_5047" data-name="Group 5047">
            <path id="Path_11787" data-name="Path 11787" d="M371.957,284.977c4.729,6,12.167,10.042,19.818,7.226.212-.106.159-.478-.106-.372-7.545,2.763-14.77-1.222-19.446-7.12-.159-.266-.425.053-.266.266Z" transform="translate(-371.908 -284.61)" fill="#202124"/>
          </g>
        </g>
        <g id="Group_5050" data-name="Group 5050" transform="translate(51.322 55.836)">
          <g id="Group_5049" data-name="Group 5049">
            <path id="Path_11788" data-name="Path 11788" d="M376.753,274.768c2.232.213,4.516.478,6.748.85,2.019.319,4.516.478,5.951,2.019.159.213.478-.106.266-.266-1.381-1.435-3.294-1.647-5.207-1.966a78.525,78.525,0,0,0-7.81-1.009c-.159-.053-.159.372.053.372Z" transform="translate(-376.586 -274.391)" fill="#202124"/>
          </g>
        </g>
        <g id="Group_5052" data-name="Group 5052" transform="translate(59.039 58.671)">
          <g id="Group_5051" data-name="Group 5051">
            <path id="Path_11789" data-name="Path 11789" d="M391.264,280.934a8.062,8.062,0,0,0,5.1-.85.192.192,0,1,0-.213-.319,8.261,8.261,0,0,1-4.782.8c-.266-.053-.372.319-.106.372Z" transform="translate(-391.11 -279.726)" fill="#202124"/>
          </g>
        </g>
        <g id="Group_5054" data-name="Group 5054" transform="translate(61.97 59.831)">
          <g id="Group_5053" data-name="Group 5053">
            <path id="Path_11790" data-name="Path 11790" d="M396.666,282.171a16.442,16.442,0,0,0,5.419,5.047c.213.106.425-.212.213-.319a15.471,15.471,0,0,1-5.26-4.888c-.159-.212-.531-.053-.372.159Z" transform="translate(-396.627 -281.911)" fill="#202124"/>
          </g>
        </g>
        <g id="Group_5056" data-name="Group 5056" transform="translate(61.832 59.564)">
          <g id="Group_5055" data-name="Group 5055">
            <path id="Path_11791" data-name="Path 11791" d="M396.438,281.723a47.265,47.265,0,0,0,7.81,5.154c.213.106.425-.213.213-.319a44.166,44.166,0,0,1-7.757-5.047c-.159-.266-.478.053-.266.213Z" transform="translate(-396.367 -281.408)" fill="#202124"/>
          </g>
        </g>
        <g id="Group_5058" data-name="Group 5058" transform="translate(57.617 64.267)">
          <g id="Group_5057" data-name="Group 5057">
            <path id="Path_11792" data-name="Path 11792" d="M388.522,290.653a29.885,29.885,0,0,0,10.042,4.2c.266.053.372-.319.106-.372a29.353,29.353,0,0,1-9.935-4.2.216.216,0,0,0-.213.372Z" transform="translate(-388.434 -290.26)" fill="#202124"/>
          </g>
        </g>
        <g id="Group_5060" data-name="Group 5060" transform="translate(63.009 66.94)">
          <g id="Group_5059" data-name="Group 5059">
            <path id="Path_11793" data-name="Path 11793" d="M398.7,295.72a17.672,17.672,0,0,0,7.066.956.213.213,0,0,0,0-.425,17.158,17.158,0,0,1-6.96-.956c-.213-.053-.319.319-.106.425Z" transform="translate(-398.582 -295.29)" fill="#202124"/>
          </g>
        </g>
        <g id="Group_5062" data-name="Group 5062" transform="translate(63.959 63.607)">
          <g id="Group_5061" data-name="Group 5061">
            <path id="Path_11794" data-name="Path 11794" d="M400.492,289.38c2.072,1.275,4.144,2.6,6.216,3.932.213.159.425-.212.213-.319-2.072-1.328-4.144-2.657-6.216-3.932-.266-.159-.478.159-.213.319Z" transform="translate(-400.37 -289.018)" fill="#202124"/>
          </g>
        </g>
        <g id="Group_5064" data-name="Group 5064" transform="translate(61.964 64.086)">
          <g id="Group_5063" data-name="Group 5063">
            <path id="Path_11795" data-name="Path 11795" d="M396.713,290.28a89.09,89.09,0,0,0,8.182,3.932c.213.106.319-.266.106-.372a86.789,86.789,0,0,1-8.076-3.879c-.266-.159-.425.159-.213.319Z" transform="translate(-396.615 -289.918)" fill="#202124"/>
          </g>
        </g>
        <g id="Group_5066" data-name="Group 5066" transform="translate(64.939 63.858)">
          <g id="Group_5065" data-name="Group 5065">
            <path id="Path_11796" data-name="Path 11796" d="M402.313,289.867a15.169,15.169,0,0,0,4.569,1.381c.266.053.266-.372,0-.425a13.818,13.818,0,0,1-4.357-1.328c-.266-.053-.425.266-.213.372Z" transform="translate(-402.215 -289.489)" fill="#202124"/>
          </g>
        </g>
      </g>
      <g id="torso_1_" transform="translate(69.915 59.202)">
        <path id="Path_11797" data-name="Path 11797" d="M207.506,111.7a48.438,48.438,0,0,1-4.888,7.279,49.551,49.551,0,0,1-3.772,4.144c-1.009,1.966-2.391,4.569-3.932,7.757-1.169,2.444-4.941,10.307-8.129,18.649a208.71,208.71,0,0,0-9.085,31.985,41.12,41.12,0,0,0,2.657,3.719,43.1,43.1,0,0,0,15.674,11.954,45.139,45.139,0,0,0,21.093,3.825,76.009,76.009,0,0,1,3.666-7.438c3.188-5.632,6-8.713,10.2-14.133,2.444-3.135,4.516-6.11,8.713-12.114,4.038-5.738,9.457-13.92,15.567-24.493-1.009-1.169-2.285-2.6-3.879-4.25A102.5,102.5,0,0,0,207.506,111.7Z" transform="translate(-177.535 -111.555)" fill="#15dbd6"/>
        <g id="Group_5068" data-name="Group 5068" transform="translate(29.764)">
          <g id="Group_5067" data-name="Group 5067">
            <path id="Path_11798" data-name="Path 11798" d="M233.564,111.784a103.362,103.362,0,0,1,47.605,31.135c.159.213.425-.106.266-.266a103.525,103.525,0,0,0-47.765-31.188c-.266-.159-.372.213-.106.319Z" transform="translate(-233.41 -111.426)" fill="#202124"/>
          </g>
        </g>
        <g id="Group_5070" data-name="Group 5070" transform="translate(39.513 37.196)">
          <g id="Group_5069" data-name="Group 5069">
            <path id="Path_11799" data-name="Path 11799" d="M286.741,181.522q-8.687,13.15-17.905,25.875c-5.9,8.129-12.751,15.992-17.055,25.131-.106.213.213.425.319.213,4.3-9.139,11.157-16.949,17.055-25.131,6.163-8.5,12.114-17.161,17.905-25.875.159-.213-.159-.425-.319-.213Z" transform="translate(-251.76 -181.434)" fill="#202124"/>
          </g>
        </g>
        <g id="Group_5072" data-name="Group 5072" transform="translate(0 11.639)">
          <g id="Group_5071" data-name="Group 5071">
            <path id="Path_11800" data-name="Path 11800" d="M198.542,133.421A200.865,200.865,0,0,0,177.4,191.546c-.053.266.319.372.372.106a202.105,202.105,0,0,1,21.146-58.072c.106-.159-.266-.372-.372-.159Z" transform="translate(-177.39 -133.332)" fill="#202124"/>
          </g>
        </g>
        <g id="Group_5074" data-name="Group 5074" transform="translate(0.812 71.093)">
          <g id="Group_5073" data-name="Group 5073">
            <path id="Path_11801" data-name="Path 11801" d="M178.962,245.535a43.931,43.931,0,0,0,37.457,18.277.213.213,0,0,0,0-.425,43.543,43.543,0,0,1-37.085-18.065c-.213-.213-.531,0-.372.213Z" transform="translate(-178.919 -245.234)" fill="#202124"/>
          </g>
        </g>
      </g>
      <g id="hand_right_1_" transform="translate(47.036 26.294)">
        <path id="Path_11802" data-name="Path 11802" d="M146.013,67.984c.372-.744-.106-1.541-.9-3.454-1.435-3.294-.638-2.391-2.338-6.429a37.469,37.469,0,0,0-3.4-6.641c-1.116-1.753-1.488-2.019-1.647-1.966-.425.159,0,2.178.425,3.932-.319.478-.691,1.009-1.009,1.488-.266.213-.584.531-.956.9a5.679,5.679,0,0,0-1.009,1.169,3.891,3.891,0,0,0-.425,2.55,5.413,5.413,0,0,0,.744,1.806,6.771,6.771,0,0,0,2.072,2.285c.638.425.9.425,1.169.85a3.537,3.537,0,0,1,.478,1.913,4.431,4.431,0,0,0,1.753,2.657C142.082,69.1,145.323,69.419,146.013,67.984Z" transform="translate(-134.499 -49.489)" fill="#fff"/>
        <path id="Path_11803" data-name="Path 11803" d="M189.717,97.524l2.71-.159a30.522,30.522,0,0,1,1.275,5.26c.425,2.816,1.009,6.8-.478,11a18.061,18.061,0,0,1-7.917,9.139c-7.332,3.082-11.157,4.569-13.23,5.419-1.753.691-2.975,1.116-4.994,2.019a29.06,29.06,0,0,1-3.454,1.488c-1.806.584-2.019.372-4.3,1.116a21.621,21.621,0,0,1-2.71.8,6.589,6.589,0,0,1-2.71.106,4.826,4.826,0,0,1-2.232-1.116c-.266-.691-.584-1.753-.956-3.082a50.622,50.622,0,0,1-1.381-9.085c-.425-4.038-.425-2.6-1.381-10.361-.106-1.063-.478-3.985-.9-8.023-.478-4.516-1.116-10.679-1.753-18.383a7.373,7.373,0,0,1,1.966-1.753,6.948,6.948,0,0,1,3.241-.9c.372,1.116.9,2.763,1.647,4.782,1.7,4.463,3.135,7.332,4.994,11.211,1.222,2.55,3.028,6.376,5.1,11.1,2.178-.85,4.3-1.753,6.535-2.6C175.85,102.731,182.81,100.074,189.717,97.524Z" transform="translate(-139.471 -64.258)" fill="#040844"/>
        <g id="Group_5076" data-name="Group 5076" transform="translate(23.102 33.048)">
          <g id="Group_5075" data-name="Group 5075">
            <path id="Path_11804" data-name="Path 11804" d="M204.9,111.7c-8.873,3.666-17.852,7.013-26.937,10.148-.266.106-.159.478.106.372,9.085-3.135,18.065-6.482,26.937-10.148.213-.053.106-.425-.106-.372Z" transform="translate(-177.81 -111.69)" fill="#202124"/>
          </g>
        </g>
        <g id="Group_5078" data-name="Group 5078" transform="translate(10.911 17.317)">
          <g id="Group_5077" data-name="Group 5077">
            <path id="Path_11805" data-name="Path 11805" d="M168.7,112.111c-4.835-9.829-9.3-19.765-13.442-29.913-.106-.213-.478-.106-.372.106,4.144,10.148,8.607,20.19,13.5,30.019.106.213.425,0,.319-.213Z" transform="translate(-154.864 -82.082)" fill="#202124"/>
          </g>
        </g>
        <g id="Group_5080" data-name="Group 5080" transform="translate(5.684 16.795)">
          <g id="Group_5079" data-name="Group 5079">
            <path id="Path_11806" data-name="Path 11806" d="M149.741,81.1a5.866,5.866,0,0,0-4.676,2.5c-.159.213.213.425.319.213a5.436,5.436,0,0,1,4.357-2.285c.213,0,.213-.425,0-.425Z" transform="translate(-145.026 -81.1)" fill="#202124"/>
          </g>
        </g>
        <g id="Group_5082" data-name="Group 5082" transform="translate(5.878 20.687)">
          <g id="Group_5081" data-name="Group 5081">
            <path id="Path_11807" data-name="Path 11807" d="M145.4,88.624q1.753,22.873,5.419,45.48c.053.266.425.159.372-.106q-3.666-22.554-5.419-45.374c0-.266-.425-.266-.372,0Z" transform="translate(-145.391 -88.425)" fill="#202124"/>
          </g>
        </g>
        <g id="Group_5084" data-name="Group 5084" transform="translate(12.05 58.272)">
          <g id="Group_5083" data-name="Group 5083">
            <path id="Path_11808" data-name="Path 11808" d="M157.057,169.331c1.169,1.275,2.657,1.328,4.3,1.063a46.325,46.325,0,0,0,9.51-2.763c6.695-2.5,13.336-5.366,19.977-8.076.213-.106.106-.478-.106-.372l-16.417,6.695c-2.391.956-4.729,1.86-7.173,2.657-2.6.85-7.6,2.869-9.829.531-.159-.213-.425.053-.266.266Z" transform="translate(-157.008 -159.164)" fill="#202124"/>
          </g>
        </g>
        <g id="Group_5086" data-name="Group 5086" transform="translate(3.545 9.226)">
          <g id="Group_5085" data-name="Group 5085">
            <path id="Path_11809" data-name="Path 11809" d="M144.135,66.984a2.943,2.943,0,0,0-2.019.106c-.425.213-1.116.691-1.116,1.275,0,.638.85,1.169,1.328,1.488a5.056,5.056,0,0,0,2.338.744c.266,0,.266-.372,0-.425a4.288,4.288,0,0,1-2.922-1.328c-.425-.584,0-1.116.584-1.435a2.342,2.342,0,0,1,1.7-.106c.266.159.372-.266.106-.319Z" transform="translate(-141 -66.853)" fill="#202124"/>
          </g>
        </g>
        <g id="Group_5088" data-name="Group 5088" transform="translate(6.661 12.604)">
          <g id="Group_5087" data-name="Group 5087">
            <path id="Path_11810" data-name="Path 11810" d="M146.883,73.471a3.907,3.907,0,0,0,1.541,2.125c.213.159.425-.213.213-.319a3.892,3.892,0,0,1-1.381-1.913c-.106-.266-.478-.159-.372.106Z" transform="translate(-146.864 -73.21)" fill="#202124"/>
          </g>
        </g>
        <g id="Group_5090" data-name="Group 5090" transform="translate(3.661 0.077)">
          <g id="Group_5089" data-name="Group 5089">
            <path id="Path_11811" data-name="Path 11811" d="M148.966,66.671a60.181,60.181,0,0,0-7.385-16.949c-.159-.213-.478,0-.319.213a61.652,61.652,0,0,1,7.332,16.843c.053.213.425.106.372-.106Z" transform="translate(-141.218 -49.634)" fill="#202124"/>
          </g>
        </g>
        <g id="Group_5092" data-name="Group 5092" transform="translate(2.826 0.343)">
          <g id="Group_5091" data-name="Group 5091">
            <path id="Path_11812" data-name="Path 11812" d="M139.941,50.222a2.722,2.722,0,0,0-.106,2.231,30.748,30.748,0,0,0,1.116,3.772c.106.266.478.159.372-.106a23.477,23.477,0,0,1-.8-2.55c-.213-.85-.85-2.338-.266-3.135.159-.213-.159-.425-.319-.213Z" transform="translate(-139.647 -50.134)" fill="#202124"/>
          </g>
        </g>
        <g id="Group_5094" data-name="Group 5094" transform="translate(2.826 4.54)">
          <g id="Group_5093" data-name="Group 5093">
            <path id="Path_11813" data-name="Path 11813" d="M139.888,58.122c-.584,1.328,0,2.657.638,3.879.106.213.478,0,.319-.213-.531-1.063-1.169-2.232-.638-3.454.159-.213-.213-.425-.319-.213Z" transform="translate(-139.647 -58.034)" fill="#202124"/>
          </g>
        </g>
        <g id="Group_5096" data-name="Group 5096" transform="translate(1.415 5.202)">
          <g id="Group_5095" data-name="Group 5095">
            <path id="Path_11814" data-name="Path 11814" d="M138.218,59.29c-1.753-.213-1.222,2.71-.85,3.613.106.213.425.053.319-.213-.266-.584-.8-3.135.531-3.028.213.053.213-.319,0-.372Z" transform="translate(-136.991 -59.279)" fill="#202124"/>
          </g>
        </g>
        <g id="Group_5098" data-name="Group 5098" transform="translate(0.244 6.662)">
          <g id="Group_5097" data-name="Group 5097">
            <path id="Path_11815" data-name="Path 11815" d="M135.644,62.066c-1.381,1.009-.9,2.71.106,3.825.159.213.478-.106.266-.266-.8-.85-1.328-2.338-.159-3.188.213-.159,0-.531-.213-.372Z" transform="translate(-134.788 -62.027)" fill="#202124"/>
          </g>
        </g>
        <g id="Group_5100" data-name="Group 5100" transform="translate(0 9.244)">
          <g id="Group_5099" data-name="Group 5099">
            <path id="Path_11816" data-name="Path 11816" d="M134.473,67c-.478,1.222.319,2.285,1.116,3.135.159.213.478-.106.266-.266-.691-.744-1.488-1.647-1.01-2.71.106-.266-.266-.372-.372-.159Z" transform="translate(-134.328 -66.887)" fill="#202124"/>
          </g>
        </g>
        <g id="Group_5102" data-name="Group 5102" transform="translate(1.255 12.015)">
          <g id="Group_5101" data-name="Group 5101">
            <path id="Path_11817" data-name="Path 11817" d="M136.7,72.314c.531,1.381,1.647,1.7,2.5,2.763a7.747,7.747,0,0,1,.85,2.178,7.357,7.357,0,0,0,1.063,1.753c.159.213.425-.106.266-.266a5.785,5.785,0,0,1-1.169-2.178,7.817,7.817,0,0,0-.425-1.594,2.13,2.13,0,0,0-.8-.744,3.737,3.737,0,0,1-1.86-1.966c-.106-.266-.478-.159-.425.053Z" transform="translate(-136.69 -72.103)" fill="#202124"/>
          </g>
        </g>
      </g>
      <g id="head_1_" transform="translate(121.534 51.883)">
        <path id="Path_11818" data-name="Path 11818" d="M291.351,113.791a16.43,16.43,0,0,0-.478-9.085c-.744-2.125-1.222-3.56-2.6-4.782-3.029-2.657-7.279-1.594-7.7-1.488-.956.266-4.091,1.063-5.154,3.772a6.2,6.2,0,0,0,.106,4.2,5.017,5.017,0,0,0,1.7,2.657c1.169.85,2.5.744,3.825.691a11.324,11.324,0,0,0,4.463-1.275,7.443,7.443,0,0,0,3.613,4.622A6.685,6.685,0,0,0,291.351,113.791Z" transform="translate(-274.798 -97.88)" fill="#202124"/>
        <path id="Path_11819" data-name="Path 11819" d="M279.583,118.206a8.183,8.183,0,0,0-1.435,2.444,7.24,7.24,0,0,0,.584,6.482,6.741,6.741,0,0,0,3.56,2.55c-.159.478-.266.9-.425,1.381A2.439,2.439,0,0,0,279,131.7a1.98,1.98,0,0,0-.319,1.86c.425,1.488,2.55,1.86,3.188,1.966a6.418,6.418,0,0,0,3.082-.319c.956-.319,2.178-.691,2.55-1.753a2.542,2.542,0,0,0,.106-1.222c-.319-.106-.691-.159-1.009-.266.213-.744.425-1.541.638-2.285a17.394,17.394,0,0,0,1.86-1.488,14.056,14.056,0,0,0,1.7-1.913,10.133,10.133,0,0,0,1.753-4.357c-.584-.478-1.222-1.063-1.86-1.647A23.921,23.921,0,0,1,287.5,116.4a18.192,18.192,0,0,1-3.241,1.222A19.414,19.414,0,0,1,279.583,118.206Z" transform="translate(-275.993 -106.439)" fill="#fff"/>
        <ellipse id="Ellipse_505" data-name="Ellipse 505" cx="0.903" cy="0.425" rx="0.903" ry="0.425" transform="matrix(0.463, -0.887, 0.887, 0.463, 10.116, 14.291)" fill="#202124"/>
        <g id="Group_5104" data-name="Group 5104" transform="translate(1.404 11.877)">
          <g id="Group_5103" data-name="Group 5103">
            <path id="Path_11820" data-name="Path 11820" d="M279.266,120.056c-3.135,3.294-2.763,8.66,1.381,10.945,4.2,2.338,9.564-.531,10.732-4.994.053-.266-.319-.372-.372-.106-1.116,4.144-6.216,6.907-10.148,4.729s-4.3-7.226-1.328-10.361c.213-.106-.106-.372-.266-.213Z" transform="translate(-277.188 -120.006)" fill="#202124"/>
          </g>
        </g>
        <g id="Group_5106" data-name="Group 5106" transform="translate(5.64 23.315)">
          <g id="Group_5105" data-name="Group 5105">
            <path id="Path_11821" data-name="Path 11821" d="M285.872,141.622c-.213.372-.478.744-.691,1.169-.106.213.213.425.319.213.213-.372.478-.744.691-1.169.159-.213-.159-.425-.319-.213Z" transform="translate(-285.16 -141.534)" fill="#202124"/>
          </g>
        </g>
        <g id="Group_5108" data-name="Group 5108" transform="translate(2.36 24.498)">
          <g id="Group_5107" data-name="Group 5107">
            <path id="Path_11822" data-name="Path 11822" d="M280.322,143.781c-2.5,1.328-1.116,3.825,1.063,4.463,2.391.691,6.535.159,7.173-2.763.053-.266-.319-.372-.372-.106-.372,1.913-2.71,2.71-4.41,2.763a6.43,6.43,0,0,1-2.231-.266c-1.647-.478-3.347-2.5-.956-3.772.159-.106-.053-.425-.266-.319Z" transform="translate(-278.986 -143.76)" fill="#202124"/>
          </g>
        </g>
        <g id="Group_5110" data-name="Group 5110">
          <g id="Group_5109" data-name="Group 5109">
            <path id="Path_11823" data-name="Path 11823" d="M278.187,109.26c-3.56-1.541-4.091-5.791-1.647-8.607a8.671,8.671,0,0,1,8.713-2.285c5.685,1.647,6.482,9.829,5.685,14.664-.053.266.319.372.372.106,1.063-6.535-.956-16.046-9.3-15.461a8.01,8.01,0,0,0-7.066,4.729,5.476,5.476,0,0,0,3.028,7.173c.266.106.478-.213.213-.319Z" transform="translate(-274.545 -97.652)" fill="#202124"/>
          </g>
        </g>
        <g id="Group_5112" data-name="Group 5112" transform="translate(3.549 9.834)">
          <g id="Group_5111" data-name="Group 5111">
            <path id="Path_11824" data-name="Path 11824" d="M281.424,118.2c2.71.266,5.207-.691,7.651-1.7.213-.106.053-.425-.213-.319-2.391,1.009-4.782,1.966-7.438,1.647-.266-.053-.266.319,0,.372Z" transform="translate(-281.225 -116.16)" fill="#202124"/>
          </g>
        </g>
        <g id="Group_5114" data-name="Group 5114" transform="translate(11.064 9.618)">
          <g id="Group_5113" data-name="Group 5113">
            <path id="Path_11825" data-name="Path 11825" d="M295.385,115.991c1.01,2.444,3.188,4.091,5.154,5.791.213.159.478-.106.266-.266-1.86-1.647-4.038-3.241-5.047-5.632-.053-.213-.478-.159-.372.106Z" transform="translate(-295.368 -115.753)" fill="#202124"/>
          </g>
        </g>
        <g id="Group_5116" data-name="Group 5116" transform="translate(5.231 11.778)">
          <g id="Group_5115" data-name="Group 5115">
            <path id="Path_11826" data-name="Path 11826" d="M287.53,119.862a8.018,8.018,0,0,0-3.135,4.41c-.053.266.319.372.372.106a7.487,7.487,0,0,1,2.922-4.144c.266-.213.053-.531-.159-.372Z" transform="translate(-284.39 -119.819)" fill="#202124"/>
          </g>
        </g>
      </g>
      <g id="tab">
        <path id="Path_11827" data-name="Path 11827" d="M69.337,0,45.8,74.543l76.084,47.127L149.99,34.695Z" transform="translate(-45.8)" fill="#15dbd6" opacity="0.53"/>
        <circle id="Ellipse_506" data-name="Ellipse 506" cx="2.391" cy="2.391" r="2.391" transform="translate(25.078 9.617)" fill="#fff"/>
        <circle id="Ellipse_507" data-name="Ellipse 507" cx="2.232" cy="2.232" r="2.232" transform="translate(12.22 52.121)" fill="#fff" stroke="#fff" stroke-miterlimit="10" stroke-width="1"/>
        <line id="Line_198" data-name="Line 198" x2="52.281" y2="18.596" transform="translate(35.066 13.07)" fill="none" stroke="#fff" stroke-miterlimit="10" stroke-width="1"/>
        <line id="Line_199" data-name="Line 199" x2="61.047" y2="22.156" transform="translate(22.74 22.368)" fill="none" stroke="#fff" stroke-miterlimit="10" stroke-width="1"/>
        <line id="Line_200" data-name="Line 200" x2="54.512" y2="18.702" transform="translate(27.469 33.419)" fill="none" stroke="#fff" stroke-miterlimit="10" stroke-width="1"/>
        <line id="Line_201" data-name="Line 201" x2="57.86" y2="21.624" transform="translate(20.827 41.123)" fill="none" stroke="#fff" stroke-miterlimit="10" stroke-width="1"/>
        <line id="Line_202" data-name="Line 202" x2="58.922" y2="20.562" transform="translate(23.059 54.353)" fill="none" stroke="#fff" stroke-miterlimit="10" stroke-width="1"/>
        <line id="Line_203" data-name="Line 203" x2="34.482" y2="13.23" transform="translate(23.75 61.685)" fill="none" stroke="#fff" stroke-miterlimit="10" stroke-width="1"/>
        <line id="Line_204" data-name="Line 204" x2="55.522" y2="25.29" transform="translate(15.408 67.317)" fill="none" stroke="#fff" stroke-miterlimit="10" stroke-width="1"/>
      </g>
    </g>
    <g id="girl" transform="translate(158.578 110.034)">
      <g id="leg_right" transform="translate(0 83.947)">
        <path id="Path_11828" data-name="Path 11828" d="M319.383,514.9c-14.824,7.066-22,11.423-21.412,13.07q1.036,3.028,36.023-5.738c-.478-3.294-.956-6.535-1.435-9.829C328.2,513.2,323.793,514.047,319.383,514.9Z" transform="translate(-297.938 -434.138)" fill="#00302e"/>
        <g id="Group_5118" data-name="Group 5118" transform="translate(17.299 79.486)">
          <g id="Group_5117" data-name="Group 5117">
            <path id="Path_11829" data-name="Path 11829" d="M333.049,518.315a6.023,6.023,0,0,1-1.435-1.169c-.372-.478-1.169-1.647-.266-1.966,1.541-.531,1.541,2.5,1.594,3.294a.213.213,0,0,0,.425,0,7.057,7.057,0,0,0-.638-3.135,1.366,1.366,0,0,0-1.647-.531c-1.753.8.9,3.347,1.753,3.825.213.159.425-.159.213-.319Z" transform="translate(-330.496 -514.704)" fill="#fff"/>
          </g>
        </g>
        <g id="Group_5120" data-name="Group 5120" transform="translate(19.43 82.134)">
          <g id="Group_5119" data-name="Group 5119">
            <path id="Path_11830" data-name="Path 11830" d="M334.822,520.969c1.01-.9,3.082-1.328,4.2-.266q.8.4-.319,1.275a3.4,3.4,0,0,0-.372-.106,7.378,7.378,0,0,1-1.009-.319c-.744-.266-1.488-.691-2.232-1.01-.213-.106-.425.213-.213.319a11.241,11.241,0,0,0,4.091,1.541c.85.053,1.381-.478.956-1.328-.956-1.966-4.038-1.594-5.366-.425-.159.213.106.478.266.319Z" transform="translate(-334.508 -519.687)" fill="#fff"/>
          </g>
        </g>
        <g id="Group_5122" data-name="Group 5122" transform="translate(14.567 83.302)">
          <g id="Group_5121" data-name="Group 5121">
            <path id="Path_11831" data-name="Path 11831" d="M325.592,522.318a3.678,3.678,0,0,1,3.932,2.178c.106.213.425.053.319-.213a4.067,4.067,0,0,0-4.41-2.338c-.159,0-.053.372.159.372Z" transform="translate(-325.356 -521.885)" fill="#fff"/>
          </g>
        </g>
        <g id="Group_5124" data-name="Group 5124" transform="translate(13.488 84.638)">
          <g id="Group_5123" data-name="Group 5123">
            <path id="Path_11832" data-name="Path 11832" d="M323.524,524.825a4.015,4.015,0,0,1,3.135,1.86c.159.213.478,0,.319-.213a4.449,4.449,0,0,0-3.453-2.072c-.266.053-.266.425,0,.425Z" transform="translate(-323.325 -524.4)" fill="#fff"/>
          </g>
        </g>
        <g id="Group_5126" data-name="Group 5126" transform="translate(11.245 86.12)">
          <g id="Group_5125" data-name="Group 5125">
            <path id="Path_11833" data-name="Path 11833" d="M319.261,527.567A2.678,2.678,0,0,1,321.333,529c.106.213.478,0,.319-.213a3.092,3.092,0,0,0-2.338-1.594c-.213-.053-.319.319-.053.372Z" transform="translate(-319.103 -527.19)" fill="#fff"/>
          </g>
        </g>
        <g id="Group_5128" data-name="Group 5128" transform="translate(9.61 87.661)">
          <g id="Group_5127" data-name="Group 5127">
            <path id="Path_11834" data-name="Path 11834" d="M316.224,530.467a2.7,2.7,0,0,1,1.806.9c.159.213.478-.106.266-.266a3.092,3.092,0,0,0-2.072-1.009c-.266-.053-.266.319,0,.372Z" transform="translate(-316.025 -530.09)" fill="#fff"/>
          </g>
        </g>
        <g id="Group_5130" data-name="Group 5130" transform="translate(21.025 86.746)">
          <g id="Group_5129" data-name="Group 5129">
            <path id="Path_11835" data-name="Path 11835" d="M337.771,532.264c4.41-.956,8.767-2.125,13.123-3.507.266-.053.159-.478-.106-.372-4.3,1.381-8.66,2.5-13.123,3.507-.266.053-.159.425.106.372Z" transform="translate(-337.51 -528.368)" fill="#fff"/>
          </g>
        </g>
        <path id="Path_11836" data-name="Path 11836" d="M367.417,365.1c-2.125.319-5.26.8-9.139,1.381-14.4,2.178-21.624,3.294-28.744,4.782-4.835,1.009-11.848,2.656-20.19,5.207a13.405,13.405,0,0,0-2.178,3.719c-1.009,2.71-.8,5.1-.319,8.448a90.458,90.458,0,0,0,2.072,10.414c1.966,7.12,2.922,10.732,4.038,13.867,2.55,7.545,5.9,18.118,10.467,32.941a9.449,9.449,0,0,0,4.835,1.913c4.676.531,8.023-2.763,8.5-3.241-.319-3.719-.584-7.545-.8-11.423-.638-11.689-.638-22.793-.213-33.26,3.082-.053,7.438-.106,12.592-.372,5.9-.266,10.361-.584,16.63-1.116,3.985-.319,9.192-.744,15.355-1.328,1.222-1.488,5.26-6.8,4.676-13.867C384.207,374.823,377.193,367.331,367.417,365.1Z" transform="translate(-301.927 -365.1)" fill="#01302f"/>
        <g id="Group_5132" data-name="Group 5132" transform="translate(6.202 0.638)">
          <g id="Group_5131" data-name="Group 5131">
            <path id="Path_11837" data-name="Path 11837" d="M309.871,377.511a288.279,288.279,0,0,1,54.884-10.786.213.213,0,0,0,0-.425,293.653,293.653,0,0,0-54.991,10.839c-.266.053-.159.425.106.372Z" transform="translate(-309.61 -366.3)" fill="#202124"/>
          </g>
        </g>
        <g id="Group_5134" data-name="Group 5134" transform="translate(4.597 13.22)">
          <g id="Group_5133" data-name="Group 5133">
            <path id="Path_11838" data-name="Path 11838" d="M307.392,390.1c-2.6,10.839,1.7,22.1,4.729,32.357,3.507,11.742,7.332,23.378,11.1,35.066.053.266.478.159.372-.106-3.56-11-7.173-22-10.52-33.047-3.241-10.786-8.129-22.846-5.366-34.163.159-.212-.266-.319-.319-.106Z" transform="translate(-306.589 -389.982)" fill="#202124"/>
          </g>
        </g>
        <g id="Group_5136" data-name="Group 5136" transform="translate(33.242 30.882)">
          <g id="Group_5135" data-name="Group 5135">
            <path id="Path_11839" data-name="Path 11839" d="M360.821,423.424a397.652,397.652,0,0,0,1.009,48.4.213.213,0,0,0,.425,0,408.658,408.658,0,0,1-1.009-48.4.213.213,0,0,0-.425,0Z" transform="translate(-360.504 -423.225)" fill="#202124"/>
          </g>
        </g>
        <g id="Group_5138" data-name="Group 5138" transform="translate(22.545 79.831)">
          <g id="Group_5137" data-name="Group 5137">
            <path id="Path_11840" data-name="Path 11840" d="M340.492,517.45a8.177,8.177,0,0,0,9.723-1.753c.159-.213-.106-.478-.266-.266a7.708,7.708,0,0,1-9.245,1.7c-.266-.106-.478.213-.213.319Z" transform="translate(-340.37 -515.353)" fill="#202124"/>
          </g>
        </g>
        <g id="Group_5140" data-name="Group 5140" transform="translate(34.422 32.091)">
          <g id="Group_5139" data-name="Group 5139">
            <path id="Path_11841" data-name="Path 11841" d="M362.924,428.635q20.482-.956,40.858-2.71a.213.213,0,0,0,0-.425q-20.4,1.753-40.858,2.71c-.266.053-.266.425,0,.425Z" transform="translate(-362.725 -425.5)" fill="#202124"/>
          </g>
        </g>
      </g>
      <g id="leg_left" transform="translate(65.65 90.859)">
        <path id="Path_11842" data-name="Path 11842" d="M517.323,536.669c.106,1.966.213,3.879.372,5.844-1.966,6.96-2.444,10.679-1.381,11.158,1.381.638,5.472-4.41,12.273-15.2-1.647-2.125-3.294-4.25-4.888-6.376C521.52,533.641,519.395,535.182,517.323,536.669Z" transform="translate(-465.679 -450.283)" fill="#00302e"/>
        <g id="Group_5142" data-name="Group 5142" transform="translate(49.933 88.671)">
          <g id="Group_5141" data-name="Group 5141">
            <path id="Path_11843" data-name="Path 11843" d="M518.148,545a2.706,2.706,0,0,0-1.86.8c-.372.319-1.01.9-.744,1.435.213.478.8.372,1.169.213a3.791,3.791,0,0,0,1.647-1.381c.159-.213-.213-.425-.319-.213a3.649,3.649,0,0,1-1.01,1.009c-.266.159-1.328.691-1.009-.159.106-.319.638-.691.956-.9a2.162,2.162,0,0,1,1.275-.425c.159.053.159-.372-.106-.372Z" transform="translate(-515.481 -545)" fill="#15dbd6"/>
          </g>
        </g>
        <g id="Group_5144" data-name="Group 5144" transform="translate(52.648 87.181)">
          <g id="Group_5143" data-name="Group 5143">
            <path id="Path_11844" data-name="Path 11844" d="M520.967,544.217a1.779,1.779,0,0,1,.584-1.063,2.3,2.3,0,0,1,1.381-.584c.956.159.266,1.116-.213,1.381a2.468,2.468,0,0,1-1.222.319c-.266,0-.266.372,0,.425a2.512,2.512,0,0,0,2.019-.85c.319-.372.584-.956.159-1.381-.478-.478-1.222-.212-1.753,0a2.237,2.237,0,0,0-1.328,1.594c-.053.266.319.372.372.159Z" transform="translate(-520.59 -542.196)" fill="#15dbd6"/>
          </g>
        </g>
        <g id="Group_5146" data-name="Group 5146" transform="translate(51.306 91.008)">
          <g id="Group_5145" data-name="Group 5145">
            <path id="Path_11845" data-name="Path 11845" d="M518.455,550.516c.319-.584,1.063-.638,1.647-.691a.213.213,0,0,0,0-.425,2.423,2.423,0,0,0-2.019.9c-.106.266.266.425.372.212Z" transform="translate(-518.064 -549.4)" fill="#15dbd6"/>
          </g>
        </g>
        <g id="Group_5148" data-name="Group 5148" transform="translate(51.116 92.403)">
          <g id="Group_5147" data-name="Group 5147">
            <path id="Path_11846" data-name="Path 11846" d="M518.022,552.968a1.812,1.812,0,0,1,1.966-.425c.213.106.319-.266.106-.372a2.139,2.139,0,0,0-2.338.531c-.159.213.106.478.266.266Z" transform="translate(-517.708 -552.024)" fill="#15dbd6"/>
          </g>
        </g>
        <g id="Group_5150" data-name="Group 5150" transform="translate(50.449 94.146)">
          <g id="Group_5149" data-name="Group 5149">
            <path id="Path_11847" data-name="Path 11847" d="M516.8,556.312a2.315,2.315,0,0,1,1.913-.584c.266.053.372-.319.106-.372a2.419,2.419,0,0,0-2.285.691c-.212.213.053.478.266.266Z" transform="translate(-516.453 -555.305)" fill="#15dbd6"/>
          </g>
        </g>
        <g id="Group_5152" data-name="Group 5152" transform="translate(50.218 95.928)">
          <g id="Group_5151" data-name="Group 5151">
            <path id="Path_11848" data-name="Path 11848" d="M516.38,559.584a1.4,1.4,0,0,1,1.753-.372c.212.106.425-.213.212-.319a1.809,1.809,0,0,0-2.285.425c-.159.159.159.425.319.266Z" transform="translate(-516.018 -558.659)" fill="#15dbd6"/>
          </g>
        </g>
        <g id="Group_5154" data-name="Group 5154" transform="translate(50.006 98.031)">
          <g id="Group_5153" data-name="Group 5153">
            <path id="Path_11849" data-name="Path 11849" d="M515.98,563.406a.839.839,0,0,1,1.116-.319c.213.106.425-.213.213-.319a1.251,1.251,0,0,0-1.647.425c-.159.213.159.425.319.213Z" transform="translate(-515.618 -562.618)" fill="#15dbd6"/>
          </g>
        </g>
        <g id="Group_5156" data-name="Group 5156" transform="translate(51.71 87.775)">
          <g id="Group_5155" data-name="Group 5155">
            <path id="Path_11850" data-name="Path 11850" d="M528.376,543.413c-3.347,4.569-6.482,9.245-9.51,14.08-.159.213.213.425.319.213,3.028-4.782,6.216-9.457,9.51-14.08.213-.266-.159-.425-.319-.212Z" transform="translate(-518.826 -543.315)" fill="#15dbd6"/>
          </g>
        </g>
        <path id="Path_11851" data-name="Path 11851" d="M459.542,386.127c-.106,1.381-.319,3.507-.531,6.11-.8,10.095-1.328,17.268-1.381,26.14,0,2.019,0,4.994.159,8.66,1.966,3.082,3.932,6.216,5.951,9.351q7.97,12.353,15.939,24.068a11.346,11.346,0,0,1-2.391,2.55,12.478,12.478,0,0,1-3.719,2.019c-5.313-2.922-9.617-5.207-12.539-6.8-3.985-2.125-5.951-3.188-9.989-5.419a85.5,85.5,0,0,1-8.66-5.26,23.747,23.747,0,0,1-5.419-4.569c-1.328-1.594-2.178-3.294-3.719-7.81-1.913-5.685-2.285-8.288-4.091-14.4-1.541-5.26-1.488-4.144-2.71-8.66-1.488-5.419-2.338-9.829-3.4-15.249-.691-3.507-1.169-6.429-1.541-8.66a20.994,20.994,0,0,1,8.129-7.81C438.343,375.873,450.084,378.211,459.542,386.127Z" transform="translate(-421.5 -378.109)" fill="#01302f"/>
        <g id="Group_5158" data-name="Group 5158" transform="translate(35.917 9.412)">
          <g id="Group_5157" data-name="Group 5157">
            <path id="Path_11852" data-name="Path 11852" d="M490.96,396.024c-1.116,13.07-1.7,26.194-1.86,39.317,0,.266.372.266.425,0,.159-13.123.744-26.247,1.86-39.317,0-.266-.372-.266-.425,0Z" transform="translate(-489.1 -395.825)" fill="#15dbd6"/>
          </g>
        </g>
        <g id="Group_5160" data-name="Group 5160" transform="translate(36.108 48.469)">
          <g id="Group_5159" data-name="Group 5159">
            <path id="Path_11853" data-name="Path 11853" d="M489.481,469.635q10.281,16.736,21.465,32.888c.159.213.478,0,.319-.213-7.438-10.786-14.558-21.731-21.465-32.888-.106-.213-.425,0-.319.213Z" transform="translate(-489.46 -469.334)" fill="#15dbd6"/>
          </g>
        </g>
        <g id="Group_5162" data-name="Group 5162" transform="translate(0.579 15.09)">
          <g id="Group_5161" data-name="Group 5161">
            <path id="Path_11854" data-name="Path 11854" d="M422.6,406.771a407.238,407.238,0,0,0,11.264,41.974c.053.266.478.159.372-.106a421.2,421.2,0,0,1-11.264-41.974c-.053-.266-.425-.159-.372.106Z" transform="translate(-422.59 -406.51)" fill="#15dbd6"/>
          </g>
        </g>
        <g id="Group_5164" data-name="Group 5164" transform="translate(12.786 60.228)">
          <g id="Group_5163" data-name="Group 5163">
            <path id="Path_11855" data-name="Path 11855" d="M445.583,491.75c3.188,6.535,9.617,10.307,15.62,13.92a251,251,0,0,0,23.059,12.167c.213.106.425-.212.213-.319a232.933,232.933,0,0,1-21.359-11.158c-6.482-3.825-13.761-7.757-17.161-14.77-.106-.266-.478-.053-.372.159Z" transform="translate(-445.564 -491.467)" fill="#15dbd6"/>
          </g>
        </g>
        <g id="Group_5166" data-name="Group 5166" transform="translate(52.666 82.513)">
          <g id="Group_5165" data-name="Group 5165">
            <path id="Path_11856" data-name="Path 11856" d="M520.824,537.6a5.2,5.2,0,0,0,4.569-3.932c.053-.266-.319-.372-.372-.106a4.873,4.873,0,0,1-4.2,3.666c-.266,0-.266.425,0,.372Z" transform="translate(-520.625 -533.41)" fill="#15dbd6"/>
          </g>
        </g>
      </g>
      <g id="torso" transform="translate(63.684 12.805)">
        <path id="Path_11857" data-name="Path 11857" d="M429.223,231.2c-.319,2.391-.691,4.835-1.009,7.226-.478,1.488-1.169,3.613-1.86,6.216-1.541,5.579-2.391,9.936-4.569,23.75-2.6,16.577-3.028,20.827-3.294,23.962-.372,4.2-.584,7.7-.691,10.148a24.882,24.882,0,0,0,3.241,4.091,27.734,27.734,0,0,0,5.26,4.144,50.871,50.871,0,0,0,11.37,5.26,57.376,57.376,0,0,0,13.017,2.6,54.486,54.486,0,0,0,6.907.213c.744-2.019,1.86-4.994,3.188-8.554,2.125-5.685,3.241-8.5,4.357-11.158,2.71-6.429,3.241-6.482,6.694-14.239,2.338-5.207,3.932-9.3,5.154-12.379,2.019-5.154,3.825-10.095,5.366-14.77-1.594-1.7-3.825-3.825-6.535-6.216a83.942,83.942,0,0,0-10.148-7.757,79.1,79.1,0,0,0-18.915-8.873A75.319,75.319,0,0,0,429.223,231.2Z" transform="translate(-417.8 -231.2)" fill="#15dbd6"/>
        <g id="Group_5168" data-name="Group 5168" transform="translate(10.905 0.126)">
          <g id="Group_5167" data-name="Group 5167">
            <path id="Path_11858" data-name="Path 11858" d="M438.524,231.843c5.26-.319,10.573,1.116,15.567,2.657a80.128,80.128,0,0,1,12.964,5.1,87.552,87.552,0,0,1,22.793,16.046c.159.159.478-.106.266-.266a88.306,88.306,0,0,0-36.342-21.359c-4.888-1.435-10.095-2.816-15.249-2.55-.266-.053-.266.372,0,.372Z" transform="translate(-438.325 -231.438)" fill="#00098c"/>
          </g>
        </g>
        <g id="Group_5170" data-name="Group 5170" transform="translate(0.213 7.178)">
          <g id="Group_5169" data-name="Group 5169">
            <path id="Path_11859" data-name="Path 11859" d="M428.082,244.864a276.774,276.774,0,0,0-9.882,62.854c0,.266.372.266.425,0a275.4,275.4,0,0,1,9.882-62.748c0-.266-.372-.372-.425-.106Z" transform="translate(-418.2 -244.71)" fill="#00098c"/>
          </g>
        </g>
        <g id="Group_5172" data-name="Group 5172" transform="translate(1.28 73.775)">
          <g id="Group_5171" data-name="Group 5171">
            <path id="Path_11860" data-name="Path 11860" d="M420.257,370.4a54.421,54.421,0,0,0,38.414,13.5.213.213,0,0,0,0-.425,54.121,54.121,0,0,1-38.095-13.389c-.213-.106-.478.159-.319.319Z" transform="translate(-420.208 -370.054)" fill="#00098c"/>
          </g>
        </g>
        <g id="Group_5174" data-name="Group 5174" transform="translate(39.843 31.565)">
          <g id="Group_5173" data-name="Group 5173">
            <path id="Path_11861" data-name="Path 11861" d="M515.642,290.764c-6.376,18.968-16.736,36.342-22.846,55.416-.053.266.319.372.372.106,6.11-19.074,16.471-36.448,22.846-55.416.106-.266-.266-.372-.372-.106Z" transform="translate(-492.79 -290.61)" fill="#00098c"/>
          </g>
        </g>
      </g>
      <g id="hand_left" transform="translate(104.058 36.806)">
        <path id="Path_11862" data-name="Path 11862" d="M496.543,419.625a17.865,17.865,0,0,0-2.072,5.685c-.106.638-.584,3.4.106,3.613.531.213,1.541-1.275,2.125-2.125a27.432,27.432,0,0,1,2.231,2.125,31.531,31.531,0,0,1,4.941,6.96,15.773,15.773,0,0,0,2.338-1.328,12.807,12.807,0,0,0,2.975-2.816c-.956-1.647-1.753-3.028-2.231-3.932-2.019-3.666-3.028-5.526-3.56-6.588-1.116-2.55-1.169-3.347-2.072-3.719C499.89,416.968,497.924,418.4,496.543,419.625Z" transform="translate(-493.987 -342.465)" fill="#040844"/>
        <path id="Path_11863" data-name="Path 11863" d="M517.433,276.707a10.706,10.706,0,0,0-4.835-.106c-6.057,1.222-10.839,7.7-12.486,16.258,1.913,5.791,3.719,12.114,5.26,18.968,1.169,4.994,2.072,9.776,2.816,14.345-.372,1.169-.9,2.869-1.594,4.941-1.753,5.047-3.029,7.97-4.516,11.848-1.009,2.6-2.391,6.323-3.879,10.892a8.161,8.161,0,0,0,2.5.956,8.574,8.574,0,0,0,4.091-.213c.744-1.222,2.178-3.4,3.985-6.057,4.622-6.748,7.173-9.564,12.061-16.577.956-1.381,2.55-3.666,4.41-6.588.106-5.579-.106-10.2-.319-13.442-.053-.85-.053-.584-1.275-11.954-.425-3.825-1.116-7.651-1.488-11.529a21.509,21.509,0,0,0-1.7-7.438A18.924,18.924,0,0,0,517.433,276.707Z" transform="translate(-495.856 -276.375)" fill="#15dbd6"/>
        <g id="Group_5176" data-name="Group 5176" transform="translate(22.76 1.625)">
          <g id="Group_5175" data-name="Group 5175">
            <path id="Path_11864" data-name="Path 11864" d="M536.666,279.735c2.125,2.816,2.6,6.269,3.188,9.67.691,4.25,1.275,8.5,1.806,12.8.85,7.757,1.381,15.514,1.541,23.324a.213.213,0,0,0,.425,0,253.748,253.748,0,0,0-1.753-25.4c-.478-3.825-1.01-7.6-1.647-11.37-.531-3.294-1.063-6.535-3.135-9.245-.213-.213-.584,0-.425.212Z" transform="translate(-536.627 -279.434)" fill="#040844"/>
          </g>
        </g>
        <g id="Group_5178" data-name="Group 5178" transform="translate(3.985 16.011)">
          <g id="Group_5177" data-name="Group 5177">
            <path id="Path_11865" data-name="Path 11865" d="M501.3,306.771a230.047,230.047,0,0,1,8.235,33.1c.053.266.425.159.372-.106a228.316,228.316,0,0,0-8.235-33.1c-.053-.266-.425-.159-.372.106Z" transform="translate(-501.29 -306.51)" fill="#040844"/>
          </g>
        </g>
        <g id="Group_5180" data-name="Group 5180" transform="translate(2.38 50.015)">
          <g id="Group_5179" data-name="Group 5179">
            <path id="Path_11866" data-name="Path 11866" d="M507.955,370.664q-5.18,13.309-9.67,26.937c-.106.266.319.372.372.106q4.463-13.548,9.67-26.937c.106-.266-.319-.372-.372-.106Z" transform="translate(-498.268 -370.51)" fill="#040844"/>
          </g>
        </g>
        <g id="Group_5182" data-name="Group 5182" transform="translate(2.627 77.404)">
          <g id="Group_5181" data-name="Group 5181">
            <path id="Path_11867" data-name="Path 11867" d="M498.822,422.453a5.337,5.337,0,0,0,4.091.85c.266-.053.159-.425-.106-.372a4.8,4.8,0,0,1-3.772-.85.216.216,0,0,0-.212.372Z" transform="translate(-498.734 -422.06)" fill="#040844"/>
          </g>
        </g>
        <g id="Group_5184" data-name="Group 5184" transform="translate(8.602 49.337)">
          <g id="Group_5183" data-name="Group 5183">
            <path id="Path_11868" data-name="Path 11868" d="M510.362,397.8c6.8-9.4,13.6-18.862,20.4-28.266.159-.213-.213-.425-.319-.213-6.8,9.4-13.6,18.861-20.4,28.266-.213.213.159.425.319.213Z" transform="translate(-509.98 -369.234)" fill="#040844"/>
          </g>
        </g>
        <g id="Group_5186" data-name="Group 5186" transform="translate(0 77.836)">
          <g id="Group_5185" data-name="Group 5185">
            <path id="Path_11869" data-name="Path 11869" d="M495.92,422.994a25.5,25.5,0,0,0-1.541,4.41c-.213.85-.9,3.188-.425,4.038,1.009,1.7,2.125-1.541,2.285-2.072.053-.266-.319-.372-.372-.106a6.73,6.73,0,0,1-.319.956c-1.063,1.063-1.435,1.116-1.222.159-.266-.638.213-1.86.372-2.5a20.552,20.552,0,0,1,1.541-4.622c.106-.319-.213-.531-.319-.266Z" transform="translate(-493.789 -422.874)" fill="#040844"/>
          </g>
        </g>
        <g id="Group_5188" data-name="Group 5188" transform="translate(8.623 77.975)">
          <g id="Group_5187" data-name="Group 5187">
            <path id="Path_11870" data-name="Path 11870" d="M510.062,423.435c2.444,3.507,4.888,7.013,6.057,11.158.053.266.478.159.372-.106-1.222-4.2-3.613-7.757-6.11-11.264-.159-.213-.478,0-.319.213Z" transform="translate(-510.018 -423.134)" fill="#040844"/>
          </g>
        </g>
        <g id="Group_5190" data-name="Group 5190" transform="translate(2.531 84.527)">
          <g id="Group_5189" data-name="Group 5189">
            <path id="Path_11871" data-name="Path 11871" d="M498.631,435.8a28.23,28.23,0,0,1,6.96,8.076c.106.213.478,0,.319-.213a27.812,27.812,0,0,0-7.013-8.129c-.213-.213-.478.106-.266.266Z" transform="translate(-498.553 -435.467)" fill="#040844"/>
          </g>
        </g>
        <g id="Group_5192" data-name="Group 5192" transform="translate(7.129 86.379)">
          <g id="Group_5191" data-name="Group 5191">
            <path id="Path_11872" data-name="Path 11872" d="M507.257,439.3a14.822,14.822,0,0,1,3.507,5.632c.106.266.478.159.372-.106a15.681,15.681,0,0,0-3.613-5.791c-.159-.212-.425.053-.266.266Z" transform="translate(-507.208 -438.953)" fill="#040844"/>
          </g>
        </g>
        <g id="Group_5194" data-name="Group 5194" transform="translate(9.255 85.901)">
          <g id="Group_5193" data-name="Group 5193">
            <path id="Path_11873" data-name="Path 11873" d="M511.257,438.4a14.091,14.091,0,0,1,2.71,5.685c.053.266.425.159.372-.106a14.241,14.241,0,0,0-2.816-5.844c-.159-.212-.425.053-.266.266Z" transform="translate(-511.207 -438.053)" fill="#040844"/>
          </g>
        </g>
        <g id="Group_5196" data-name="Group 5196" transform="translate(11.221 86.409)">
          <g id="Group_5195" data-name="Group 5195">
            <path id="Path_11874" data-name="Path 11874" d="M514.957,439.376a7.7,7.7,0,0,1,1.753,4.941.213.213,0,0,0,.425,0,8.262,8.262,0,0,0-1.86-5.26.227.227,0,0,0-.319.319Z" transform="translate(-514.909 -439.009)" fill="#040844"/>
          </g>
        </g>
        <g id="Group_5198" data-name="Group 5198" transform="translate(12.559 86.369)">
          <g id="Group_5197" data-name="Group 5197">
            <path id="Path_11875" data-name="Path 11875" d="M517.466,439.235a7.3,7.3,0,0,1,1.328,3.985.213.213,0,0,0,.425,0,7.345,7.345,0,0,0-1.381-4.2c-.159-.213-.531,0-.372.213Z" transform="translate(-517.427 -438.934)" fill="#040844"/>
          </g>
        </g>
      </g>
      <g id="hand_right" transform="translate(43.223 13.172)">
        <path id="Path_11876" data-name="Path 11876" d="M384.986,271.2c-.584.8-1.435,1.86-2.5,3.135-.691.9-.956,1.169-1.328,1.7-.744,1.063-2.125,3.454-1.647,3.879.425.372,2.178-.85,2.657-1.169a11.387,11.387,0,0,0,2.55-2.55,9.457,9.457,0,0,0-1.381,2.763,9.265,9.265,0,0,0-.266,4.038,3.384,3.384,0,0,0,1.647,0,5.393,5.393,0,0,0,2.178-1.328c.584-.478,1.381-1.169,2.232-1.966a13.29,13.29,0,0,0-.319,2.816,10.711,10.711,0,0,0,.159,1.913,6.417,6.417,0,0,0,2.816-1.806,6.889,6.889,0,0,0,1.541-3.347,3.966,3.966,0,0,1,.372-.638,16.541,16.541,0,0,0-3.294-4.144A18.752,18.752,0,0,0,384.986,271.2Z" transform="translate(-379.349 -250.315)" fill="#040844"/>
        <path id="Path_11877" data-name="Path 11877" d="M415.912,231.9c-.691-.053-1.063.319-3.082,1.966-4.941,3.985-3.507,2.338-7.97,6a87.363,87.363,0,0,0-10.945,10.254c-1.222,1.381-2.178,2.55-2.816,3.347a17.331,17.331,0,0,1,3.082,1.381,9.924,9.924,0,0,1,3.507,2.922,8.254,8.254,0,0,1,1.275,2.922c-.213.8-.478,1.594-.691,2.391,1.222.584,2.444,1.116,3.666,1.7.85-.319,2.178-.85,3.772-1.381,2.55-.9,4.3-1.381,4.782-1.541,3.56-1.116,7.226-5.419,8.979-9.4C423.351,243.638,419.313,232.268,415.912,231.9Z" transform="translate(-384.825 -231.891)" fill="#15dbd6"/>
        <g id="Group_5200" data-name="Group 5200" transform="translate(8.404 0.391)">
          <g id="Group_5199" data-name="Group 5199">
            <path id="Path_11878" data-name="Path 11878" d="M416.781,232.665A97.966,97.966,0,0,0,395.157,251c-.159.213.106.478.266.266a96.052,96.052,0,0,1,21.571-18.277c.213-.106,0-.478-.213-.319Z" transform="translate(-395.107 -232.626)" fill="#040844"/>
          </g>
        </g>
        <g id="Group_5202" data-name="Group 5202" transform="translate(17.316 30.215)">
          <g id="Group_5201" data-name="Group 5201">
            <path id="Path_11879" data-name="Path 11879" d="M412.1,291.385a41.183,41.183,0,0,0,7.12-2.285c.213-.106.053-.425-.213-.319A46.993,46.993,0,0,1,412,291.066c-.212-.053-.106.372.106.319Z" transform="translate(-411.882 -288.76)" fill="#040844"/>
          </g>
        </g>
        <g id="Group_5204" data-name="Group 5204" transform="translate(0 20.814)">
          <g id="Group_5203" data-name="Group 5203">
            <path id="Path_11880" data-name="Path 11880" d="M384.715,271.138c-2.338,2.5-4.676,5.1-5.419,8.554-.053.266.319.372.372.106.744-3.347,3.028-5.951,5.313-8.395.213-.159-.053-.478-.266-.266Z" transform="translate(-379.29 -271.067)" fill="#040844"/>
          </g>
        </g>
        <g id="Group_5206" data-name="Group 5206" transform="translate(6.276 21.47)">
          <g id="Group_5205" data-name="Group 5205">
            <path id="Path_11881" data-name="Path 11881" d="M391.261,272.725a11.309,11.309,0,0,1,3.985,2.019,8,8,0,0,1,3.188,3.932c.106.213.478.159.372-.106a8.344,8.344,0,0,0-2.922-3.825,11.928,11.928,0,0,0-4.569-2.444c-.212,0-.319.425-.053.425Z" transform="translate(-391.103 -272.3)" fill="#040844"/>
          </g>
        </g>
        <g id="Group_5208" data-name="Group 5208" transform="translate(9.8 28.792)">
          <g id="Group_5207" data-name="Group 5207">
            <path id="Path_11882" data-name="Path 11882" d="M401.754,286.2a8.586,8.586,0,0,1-3.932,4.994c-.213.106,0,.478.213.319a9,9,0,0,0,4.144-5.207c.053-.213-.319-.319-.425-.106Z" transform="translate(-397.734 -286.082)" fill="#040844"/>
          </g>
        </g>
        <g id="Group_5210" data-name="Group 5210" transform="translate(0.755 25.536)">
          <g id="Group_5209" data-name="Group 5209">
            <path id="Path_11883" data-name="Path 11883" d="M380.971,283.91c1.86-.266,3.507-2.285,4.676-3.613.159-.213-.106-.478-.266-.266-1.116,1.328-2.71,3.294-4.516,3.507-.266.053-.159.425.106.372Z" transform="translate(-380.71 -279.953)" fill="#040844"/>
          </g>
        </g>
        <g id="Group_5212" data-name="Group 5212" transform="translate(3.406 25.685)">
          <g id="Group_5211" data-name="Group 5211">
            <path id="Path_11884" data-name="Path 11884" d="M387.666,280.322A11.229,11.229,0,0,0,385.7,286.8a.213.213,0,0,0,.425,0,10.284,10.284,0,0,1,1.913-6.269c.106-.213-.266-.425-.372-.213Z" transform="translate(-385.7 -280.234)" fill="#040844"/>
          </g>
        </g>
        <g id="Group_5214" data-name="Group 5214" transform="translate(4.009 29.096)">
          <g id="Group_5213" data-name="Group 5213">
            <path id="Path_11885" data-name="Path 11885" d="M387.03,290.557a5.6,5.6,0,0,0,2.975-1.169A15.586,15.586,0,0,0,392.874,287c.159-.213-.106-.478-.266-.266a13.248,13.248,0,0,1-2.444,2.125,5.73,5.73,0,0,1-3.082,1.328c-.319,0-.319.372-.053.372Z" transform="translate(-386.837 -286.653)" fill="#040844"/>
          </g>
        </g>
        <g id="Group_5216" data-name="Group 5216" transform="translate(4.047 27.956)">
          <g id="Group_5215" data-name="Group 5215">
            <path id="Path_11886" data-name="Path 11886" d="M387.222,289.02a31.728,31.728,0,0,1,4.25-4.2c.213-.159-.106-.425-.266-.266a31.735,31.735,0,0,0-4.25,4.2c-.159.159.106.478.266.266Z" transform="translate(-386.908 -284.508)" fill="#040844"/>
          </g>
        </g>
        <g id="Group_5218" data-name="Group 5218" transform="translate(9.084 29.483)">
          <g id="Group_5217" data-name="Group 5217">
            <path id="Path_11887" data-name="Path 11887" d="M397.085,287.5a11.8,11.8,0,0,0-.691,4.3.213.213,0,0,0,.425,0,12.644,12.644,0,0,1,.691-4.2c.053-.213-.319-.319-.425-.106Z" transform="translate(-396.387 -287.382)" fill="#040844"/>
          </g>
        </g>
      </g>
      <g id="head" transform="translate(88.374)">
        <path id="Path_11888" data-name="Path 11888" d="M469.014,218.731a5.25,5.25,0,0,1-2.5-.956,5.034,5.034,0,0,1-1.647-3.028,5.865,5.865,0,0,1,1.966-4.676,7.018,7.018,0,0,1,5.579-1.435,9.719,9.719,0,0,1,6.057,3.294,4.909,4.909,0,0,1,1.594-3.135c.319-.266,1.7-1.594,2.869-1.169,1.009.372.85,1.594,2.125,2.178a3.312,3.312,0,0,0,1.806.213,15.44,15.44,0,0,0,2.072-.638,5.773,5.773,0,0,1,2.338,0,14.851,14.851,0,0,1,8.076,4.676,12.029,12.029,0,0,1,3.56,6.641,11.62,11.62,0,0,1-.531,5.472c-.372,1.169-1.541,5.1-5.047,7.332-4.144,2.657-9.085,1.275-9.67,1.116C478.843,231.961,473.637,219.315,469.014,218.731Z" transform="translate(-464.535 -207.308)" fill="#202124"/>
        <path id="Path_11889" data-name="Path 11889" d="M471.884,227.046a8.936,8.936,0,0,0-.744,2.444,6.864,6.864,0,0,0,.478,4.569,6.2,6.2,0,0,0,2.5,2.5,6.418,6.418,0,0,0,2.444.744c-.053.266-.106.584-.159.85a1.476,1.476,0,0,0-1.435.85c-.213.638.372,1.328.638,1.541a3.6,3.6,0,0,0,2.975.85,4.83,4.83,0,0,0,2.391-1.009,5.354,5.354,0,0,0,1.966-3.347c-.85-.372-1.7-.691-2.5-1.063a4.866,4.866,0,0,0,.744-.744,7.339,7.339,0,0,0,.9-1.275,12.233,12.233,0,0,0,1.009-5.579,7.116,7.116,0,0,0-7.173-2.71A10.049,10.049,0,0,0,471.884,227.046Z" transform="translate(-467.405 -215.729)" fill="#fff"/>
        <ellipse id="Ellipse_508" data-name="Ellipse 508" cx="0.425" cy="0.85" rx="0.425" ry="0.85" transform="translate(9.261 12.592)" fill="#202124"/>
        <g id="Group_5220" data-name="Group 5220" transform="translate(3.382 11.441)">
          <g id="Group_5219" data-name="Group 5219">
            <path id="Path_11890" data-name="Path 11890" d="M471.573,228.722c-1.7,3.4-1.222,7.917,2.55,9.67a6.207,6.207,0,0,0,8.395-4.41c.053-.266-.319-.372-.372-.106-.638,3.347-4.729,5.685-7.863,4.144-3.507-1.7-3.985-5.844-2.391-9.085.106-.213-.212-.425-.319-.213Z" transform="translate(-470.636 -228.634)" fill="#202124"/>
          </g>
        </g>
        <g id="Group_5222" data-name="Group 5222" transform="translate(8.783 21.531)">
          <g id="Group_5221" data-name="Group 5221">
            <path id="Path_11891" data-name="Path 11891" d="M480.8,247.824v.744a.213.213,0,0,0,.425,0v-.744a.213.213,0,0,0-.425,0Z" transform="translate(-480.8 -247.625)" fill="#202124"/>
          </g>
        </g>
        <g id="Group_5224" data-name="Group 5224" transform="translate(7.266 21.319)">
          <g id="Group_5223" data-name="Group 5223">
            <path id="Path_11892" data-name="Path 11892" d="M478.4,248.54c-.372.638-.691,1.328-.213,2.019a4.163,4.163,0,0,0,3.294,1.169c2.285-.213,4.622-1.913,4.835-4.3,0-.266-.372-.266-.425,0a4.4,4.4,0,0,1-3.507,3.666c-1.275.372-4.994-.053-3.666-2.391.159-.159-.159-.372-.319-.159Z" transform="translate(-477.946 -247.225)" fill="#202124"/>
          </g>
        </g>
        <g id="Group_5226" data-name="Group 5226" transform="translate(6.121 12.504)">
          <g id="Group_5225" data-name="Group 5225">
            <path id="Path_11893" data-name="Path 11893" d="M476.964,230.722a10.033,10.033,0,0,0-1.169,3.188c-.053.266.319.372.372.106a10.179,10.179,0,0,1,1.116-3.082c.159-.213-.159-.425-.319-.213Z" transform="translate(-475.79 -230.634)" fill="#202124"/>
          </g>
        </g>
        <g id="Group_5228" data-name="Group 5228" transform="translate(0 1.213)">
          <g id="Group_5227" data-name="Group 5227">
            <path id="Path_11894" data-name="Path 11894" d="M468.483,219.381c-4.2-.425-4.782-5.313-2.125-7.81a7.7,7.7,0,0,1,7.066-1.488,9.141,9.141,0,0,1,6.695,10.626c-.053.266.319.372.372.106,1.169-6.429-4.41-12.7-11.158-11.211a6.142,6.142,0,0,0-5.047,5.313,4.459,4.459,0,0,0,4.2,4.835c.266.053.213-.372,0-.372Z" transform="translate(-464.27 -209.384)" fill="#202124"/>
          </g>
        </g>
        <g id="Group_5230" data-name="Group 5230" transform="translate(4.264 9.561)">
          <g id="Group_5229" data-name="Group 5229">
            <path id="Path_11895" data-name="Path 11895" d="M472.617,227.276c3.453-2.072,8.66-3.028,11,1.169.106.213.478,0,.319-.213-2.444-4.41-7.917-3.507-11.583-1.328-.159.159.053.478.266.372Z" transform="translate(-472.295 -225.095)" fill="#202124"/>
          </g>
        </g>
        <g id="Group_5232" data-name="Group 5232" transform="translate(13.878)">
          <g id="Group_5231" data-name="Group 5231">
            <path id="Path_11896" data-name="Path 11896" d="M490.767,211.775a6.375,6.375,0,0,1,.8-1.966c.425-.638,1.753-2.178,2.55-2.178,1.116.053,2.072,1.275,2.71,1.913.159.159.266.478.425.584.8.584,1.275.053,2.125-.266,6.269-2.444,13.07,3.454,14.5,9.4a12.575,12.575,0,0,1-6.8,14.133c-6.057,2.869-13.867-1.647-15.992-7.757-.106-.266-.478-.159-.372.106,1.966,5.632,8.979,10.467,14.93,8.66a12.913,12.913,0,0,0,8.767-14.4c-1.01-5.9-7.173-12.167-13.548-11.051-.584.106-1.116.425-1.7.478a1.346,1.346,0,0,1-2.019-.106l-.638-1.275a2.153,2.153,0,0,0-1.806-.956c-2.285,0-3.825,2.657-4.3,4.516-.053.319.319.425.372.159Z" transform="translate(-490.39 -207.1)" fill="#202124"/>
          </g>
        </g>
      </g>
    </g>
  </g>
</svg>
