<svg xmlns="http://www.w3.org/2000/svg" width="393.656" height="330.598" viewBox="0 0 393.656 330.598">
  <g id="Group_5458" data-name="Group 5458" transform="translate(-8.079 -136.165)">
    <g id="checkout_1_" data-name="checkout (1)" transform="translate(1.998 142.335) rotate(-1)">
      <g id="check" transform="translate(6.082 0.015)">
        <path id="Path_11897" data-name="Path 11897" d="M442.4,14.806a7.585,7.585,0,0,1,5.123.594c2,1.114,3.044,3.341,4.158,8.539,1.708,8.39,1.411,12.993,1.411,12.993a212.068,212.068,0,0,1-5.272,34.9c-4.455,17.448-4.9,15.963-8.242,29.922-4.9,20.493-5.2,29.031-5.272,31.556-.149,6.311-.3,14.4,2.524,24.354,2,7.276,5.346,18.562,15.444,26.135,2.97,2.227,7.054,5.272,12.919,5.42,10.321.223,17.151-8.91,18.117-10.246a33.52,33.52,0,0,1-11.286,13.216c-2.747,1.782-6.46,3.712-14.033,5.2-2.97.594-10.989,2.079-32.744.594a205.225,205.225,0,0,1-26.135-3.118c-10.32-1.93-13.884-3.415-15-3.935a54.849,54.849,0,0,1-18.042-14.033c-13.142-15.741-12.919-40.54-12.7-55.241.52-25.616.891-46.777,15.147-68.977,4.9-7.648,20.79-32.447,49.969-38.015A68.294,68.294,0,0,1,442.4,14.806Z" transform="translate(-95.502 -3.532)" fill="rgba(21,219,214,0.65)"/>
        <path id="Path_11898" data-name="Path 11898" d="M476.9,229.879c2.227-1.188,4.455-2.3,6.682-3.49-.445,1.633-.891,3.341-1.411,4.975,3.341-2,6.682-4.009,9.949-6.014.668,1.633,1.411,3.267,2.079,4.9,1.93-1.262,3.935-2.6,5.866-3.861.594,1.485,1.114,2.97,1.708,4.455,3.267-2.376,6.534-4.678,9.727-7.054-.3,2.153-.52,4.306-.817,6.46l6.46-7.351a16.157,16.157,0,0,1-.742,7.351,17.371,17.371,0,0,1-4.975,7.351,20.742,20.742,0,0,1-6.385,4.232,21.121,21.121,0,0,1-5.494,1.411,23.153,23.153,0,0,1-7.054-.668C484.473,240.423,477.271,230.473,476.9,229.879Z" transform="translate(-127.325 -57.411)" fill="#198380"/>
        <path id="Path_11899" data-name="Path 11899" d="M200.463,16.516a92.85,92.85,0,0,0-13.439,14.553,96.453,96.453,0,0,0-12.177,22.275c-1.039,2.524-4.678,11.286-8.613,28.66-2.524,11.137-2.3,12.919-5.272,29.7-3.564,20.047-5.346,30.071-8.984,40.762a149.294,149.294,0,0,1-13.513,29.4,150.935,150.935,0,0,1-19.3,25.244,188.679,188.679,0,0,1-34.377,28.957c-14.107,9.652-25.69,15.221-36.827,20.567A349.854,349.854,0,0,1,6.6,273.341c8.539.148,17,.3,25.541.371-.742,3.267-1.559,6.608-2.3,9.875,11.286-1.708,22.572-3.415,33.932-5.2-1.114,3.193-2.227,6.46-3.267,9.652,11.731-1.411,23.388-2.9,35.12-4.306-.965,3.193-1.856,6.385-2.821,9.578,11.954-2.227,23.908-4.529,35.788-6.757-1.559,5.569-3.118,11.137-4.752,16.706,9.578-2.6,19.082-5.2,28.66-7.8-.594,4.232-1.262,8.539-1.856,12.771,10.172-2.45,20.418-4.9,30.59-7.351l-.891,7.8c5.42-.742,10.84-1.559,16.26-2.3-.742,1.633-1.411,3.193-2.153,4.826a446.13,446.13,0,0,0,38.535-37.124s23.982-26.061,37.124-48.633c3.638-6.237,6.46-12.4,6.682-12.919,2.821-6.088,5.569-12.1,7.276-19.676a73.432,73.432,0,0,0,1.336-23.685c-.445-5.643-1.114-6.979-2.821-15.815-2.821-15.147-4.826-25.764-3.935-38.609.223-2.9,1.262-8.613,3.341-20.047,2.376-12.919,3.564-19.6,6.163-27.62a104.173,104.173,0,0,1,8.093-19.973c3.935-7.128,11.434-20.567,27.1-28.957,14.33-7.648,28.363-7.128,35.194-6.385-.742-1.411-1.559-2.9-2.3-4.306A501.349,501.349,0,0,0,305.3,1.369C284.958.032,289.858-.116,259.639.4c-8.39.148-15.518.445-20.938.742a71.447,71.447,0,0,0-20.938,5.123A76.011,76.011,0,0,0,200.463,16.516Z" transform="translate(-6.215 -0.044)" fill="#198380"/>
        <g id="Group_5235" data-name="Group 5235">
          <g id="Group_5234" data-name="Group 5234">
            <path id="Path_11900" data-name="Path 11900" d="M6.392,273.684c57.543-20.418,118.426-52.2,142.483-112.115,12.548-31.259,11.88-65.71,22.2-97.563,9.207-28.437,27.62-54.8,58.582-60.735,9.727-1.856,19.75-2.153,29.7-2.45,10.543-.3,21.161-.223,31.7.223a470.581,470.581,0,0,1,62.963,6.905c.371.074.52-.445.148-.52C318.162,1.043,281.186-1.555,244.656.969c-15,1.039-29.551,4.158-41.8,13.216C192.162,22.13,184.069,33.119,178.2,44.924c-14.478,28.808-15.369,61.4-22.5,92.291a148.742,148.742,0,0,1-18.414,45.811,165.718,165.718,0,0,1-30.368,35.565c-28.808,25.764-64.6,41.8-100.681,54.647-.3.074-.149.594.148.445Z" transform="translate(-6.082 -0.015)" fill="#198380"/>
          </g>
        </g>
        <g id="Group_5237" data-name="Group 5237" transform="translate(338.402 10.21)">
          <g id="Group_5236" data-name="Group 5236" transform="translate(0)">
            <path id="Path_11901" data-name="Path 11901" d="M474.064,14.237c5.42,6.014,6.608,14.107,6.682,21.978a118.165,118.165,0,0,1-2.9,25.541c-3.267,15.741-8.613,31.036-12.251,46.7-3.193,13.884-5.049,28.289-2.673,42.47,2.079,12.4,7.425,25.69,17.6,33.709,10.024,7.945,24.5,6.237,30.887-5.346.149-.3-.3-.594-.445-.3a19.578,19.578,0,0,1-16.78,10.172c-7.351,0-13.736-4.529-18.339-9.949-9.133-10.915-12.919-25.393-13.365-39.426-.891-30.219,13.439-58.062,17.671-87.539,1.782-12.325,3.415-28.363-5.643-38.386-.3-.3-.668.148-.445.371Z" transform="translate(-461.851 -13.767)" fill="#198380"/>
          </g>
        </g>
        <g id="Group_5239" data-name="Group 5239" transform="translate(187.912 10.864)">
          <g id="Group_5238" data-name="Group 5238">
            <path id="Path_11902" data-name="Path 11902" d="M418.158,14.835c-20.641-1.856-39.8,10.246-51.528,26.507C352.745,60.72,348.067,85.3,344.948,108.462c-1.782,13.29-2.153,26.432.3,39.649,2.376,13.068,6.237,26.135,4.9,39.5C348.809,201.2,342.87,214.118,336.41,226a215.241,215.241,0,0,1-20.344,30.442c-16.854,21.458-36.9,40.168-56.8,58.731-.3.223.149.668.371.371,33.56-31.333,69.5-64.67,86.2-108.626a70.884,70.884,0,0,0,4.455-34.9c-1.708-13.142-5.791-25.838-6.237-39.129-.52-13.513,1.559-27.1,4.009-40.317,2.227-12.251,5.272-24.428,10.395-35.788,10.469-23.166,32.6-43.881,59.7-41.431.371.074.371-.52,0-.52Z" transform="translate(-259.167 -14.647)" fill="#198380"/>
          </g>
        </g>
        <g id="Group_5241" data-name="Group 5241" transform="translate(0.17 273.439)">
          <g id="Group_5240" data-name="Group 5240">
            <path id="Path_11903" data-name="Path 11903" d="M6.6,368.743c5.866.074,11.731.074,17.6.148,2.079,0,6.831-.891,7.2,1.634.3,2.227-1.336,5.94-2,8.019-.074.223.148.371.371.371,7.054-1.114,14.107-2.153,21.161-3.267,2.97-.446,6.905-1.708,9.875-1.485.965-.594,1.633-.371,2,.594-.3.891-.594,1.856-.965,2.747-.594,1.856-1.262,3.638-1.856,5.494-.074.223.148.371.371.371,7.648-1.411,15.3-2.525,23.017-3.267l4.9-.445c1.039-.074,4.826-.965,5.643-.445,2.079,1.336-.891,7.2-1.708,9.133-.074.223.148.371.371.371a248.9,248.9,0,0,1,25.393-5.346,53.25,53.25,0,0,1,7.573-1.114c.891,0,1.485-.445,2,.52.223.445-.965,2.673-1.114,3.118a87.121,87.121,0,0,0-3.118,12.251c0,.223.148.445.371.371,6.534-2,13.068-3.935,19.75-5.569,1.633-.371,3.193-.817,4.826-1.188,1.782-.445,3.118-1.336,3.49.817.223,1.411-.52,3.564-.742,4.975-.3,1.856-.594,3.787-.817,5.643,0,.223.148.445.371.371a174.537,174.537,0,0,1,18.488-5.123c2.821-.594,6.534-1.93,9.43-1.782,1.93.074,1.856-.223,2.079,1.93.148,1.559-.446,3.564-.594,5.2,0,.223.223.3.371.3,3.193-.445,6.311-.891,9.5-1.336a36.048,36.048,0,0,1,4.084-.594c.965-.52,1.559-.371,1.93.594l-.891,2.673c-.149.371.445.52.52.149.445-1.336.891-2.673,1.336-3.935.074-.223-.148-.371-.371-.371-3.861.52-7.648,1.114-11.509,1.633-1.856.3-3.787,1.188-4.158-.965-.3-1.633.52-4.158.668-5.866,0-.223-.223-.3-.371-.3a181.2,181.2,0,0,0-20.79,4.306c-1.782.52-8.093,3.415-9.281,1.93-.445-.594.742-4.826.817-5.643.3-1.856.594-3.787.817-5.643a.351.351,0,0,0-.371-.371c-7.573,1.782-15.072,3.712-22.572,5.94-1.039.3-4.306,1.856-5.123,1.114s.371-3.787.594-4.826a75.929,75.929,0,0,1,3.49-10.766c.074-.148-.074-.371-.3-.371-7.425.891-14.85,2.079-22.2,3.564-3.638.742-7.276,1.93-10.915,2.524-2.747.445-1.485-.965-.891-3.044a45.594,45.594,0,0,0,1.336-5.494c0-.148-.074-.371-.3-.371-7.054.445-14.181,1.114-21.235,2.079-3.49.446-7.722,1.93-11.212,1.708-.965.594-1.633.445-2-.52.3-.891.594-1.856.965-2.747.594-1.856,1.262-3.638,1.856-5.494.074-.223-.148-.371-.371-.371-7.276,1.114-14.627,2.227-21.9,3.341-1.633.223-3.267.52-4.975.742-.817.149-5.049,1.336-5.643.891-1.336-1.039.965-7.5,1.262-9.355,0-.149-.074-.371-.3-.371L6.526,368.3c-.3-.074-.3.445.074.445Z" transform="translate(-6.311 -368.29)" fill="#198380"/>
          </g>
        </g>
        <g id="Group_5243" data-name="Group 5243" transform="translate(278.822 165.211)">
          <g id="Group_5242" data-name="Group 5242">
            <path id="Path_11904" data-name="Path 11904" d="M381.75,239.881c9.727,7.128,22.2,8.984,33.932,10.543a252.059,252.059,0,0,0,34.3,2.45c9.949-.074,20.418-1.188,29.105-6.385,8.316-4.975,14.553-13.662,13.959-23.685a.282.282,0,0,0-.52-.148c-.52.742-5.049,6.905-5.494,6.534-.074-.074.371-5.272.3-5.494,0-.223-.3-.371-.445-.223a40.187,40.187,0,0,1-6.534,5.2c-3.118,1.93-3.341.371-4.455-2.45-.074-.148-.223-.3-.445-.148-.891.594-3.638,3.118-4.678,3.044-1.93-.074-2.227-2.524-2.9-4.009-.074-.148-.3-.148-.445-.074a46.709,46.709,0,0,1-6.979,4.529c-.742.371-1.559,1.188-2.153.445-.223-.3.965-3.415,1.039-3.712a.29.29,0,0,0-.446-.3,46.889,46.889,0,0,1-6.608,3.49c-.3.148-.149.668.148.52,1.559-.668,3.044-1.559,4.6-2.227.52-.223.891-.891,1.411-.371a25.5,25.5,0,0,1-1.039,3.712c-.074.223.223.371.445.3a43.922,43.922,0,0,0,7.351-4.009c2.97-2,3.044-.074,4.306,2.821a.259.259,0,0,0,.371.074c.891-.594,3.712-3.118,4.678-3.044,1.856.074,1.856,2,2.45,3.49a.33.33,0,0,0,.445.148,41.258,41.258,0,0,0,6.163-3.935c.223-.148,2.6-2.376,2.747-2.376,1.559.223-.074,4.455-.371,5.346a.286.286,0,0,0,.446.3c2-1.633,3.341-3.638,5.2-5.346,1.559-1.485.445-1.114.891.148.52,1.485-.52,4.084-.965,5.569a27.925,27.925,0,0,1-10.989,14.107c-8.836,6.163-20.121,7.425-30.665,7.5a243.982,243.982,0,0,1-32.892-2.227c-12.028-1.559-25.1-3.341-35.119-10.692-.223-.074-.446.445-.149.594Z" transform="translate(-381.607 -222.526)" fill="#198380"/>
          </g>
        </g>
        <g id="Group_5245" data-name="Group 5245" transform="translate(148.592 279.211)">
          <g id="Group_5244" data-name="Group 5244">
            <path id="Path_11905" data-name="Path 11905" d="M206.425,376.611c8.093,3.341,16.186,6.608,24.205,9.949.3.148.445-.371.148-.52-8.093-3.341-16.186-6.608-24.205-9.949-.371-.148-.52.371-.149.52Z" transform="translate(-206.21 -376.064)" fill="#198380"/>
          </g>
        </g>
        <g id="Group_5247" data-name="Group 5247" transform="translate(194.402 276.941)">
          <g id="Group_5246" data-name="Group 5246">
            <path id="Path_11906" data-name="Path 11906" d="M271.095,373.076l-3.118,3.118c-.223.223.148.668.371.371l3.118-3.119c.3-.223-.074-.594-.371-.371Z" transform="translate(-267.908 -373.008)" fill="#198380"/>
          </g>
        </g>
        <g id="Group_5249" data-name="Group 5249" transform="translate(181.298 282.309)">
          <g id="Group_5248" data-name="Group 5248">
            <path id="Path_11907" data-name="Path 11907" d="M250.29,388.525c1.485,2.45,5.791,7.054,8.39,2.97,1.039-1.559.594-3.49-.223-5.049a15.8,15.8,0,0,0-1.188-1.856l-.668-.891c.668-.817,1.411-1.633,2.079-2.376,1.188-.149,4.381,2.747,5.049,3.341.3.223.668-.148.371-.371-1.336-1.188-6.979-6.163-8.539-3.044-.668,1.411.743,2.97,1.411,4.009a9.521,9.521,0,0,1,1.262,2.227c.594,1.708.891,6.237-3.415,4.752-2-.668-3.118-2.376-4.158-4.084-.074-.223-.52.074-.371.371Z" transform="translate(-250.259 -380.237)" fill="#198380"/>
          </g>
        </g>
        <g id="Group_5251" data-name="Group 5251" transform="translate(179.052 295.839)">
          <g id="Group_5250" data-name="Group 5250">
            <path id="Path_11908" data-name="Path 11908" d="M247.654,400.346c1.039-.445,2.153-.965,3.193-1.411.3-.148.074-.594-.3-.445-1.039.445-2.153.965-3.193,1.411-.3.074,0,.594.3.445Z" transform="translate(-247.234 -398.46)" fill="#198380"/>
          </g>
        </g>
        <g id="Group_5253" data-name="Group 5253" transform="translate(179.533 47.649)">
          <g id="Group_5252" data-name="Group 5252">
            <path id="Path_11909" data-name="Path 11909" d="M248.044,64.717l40.762,7.128c.371.074.52-.445.148-.52L248.192,64.2c-.3-.074-.445.445-.148.52Z" transform="translate(-247.882 -64.19)" fill="#198380"/>
          </g>
        </g>
        <g id="Group_5255" data-name="Group 5255" transform="translate(196.334 40.448)">
          <g id="Group_5254" data-name="Group 5254">
            <path id="Path_11910" data-name="Path 11910" d="M270.725,55.018c6.311.965,12.548,1.93,18.859,2.821.371.074.52-.52.149-.52-6.311-.965-12.548-1.93-18.859-2.821-.371-.074-.52.52-.149.52Z" transform="translate(-270.51 -54.491)" fill="#198380"/>
          </g>
        </g>
        <g id="Group_5257" data-name="Group 5257" transform="translate(193.958 28.197)">
          <g id="Group_5256" data-name="Group 5256">
            <path id="Path_11911" data-name="Path 11911" d="M267.525,38.518c14.478,2.376,29.031,4.826,43.51,7.2.371.074.52-.445.149-.52-14.478-2.376-29.031-4.826-43.51-7.2-.371-.074-.52.52-.148.52Z" transform="translate(-267.31 -37.991)" fill="#198380"/>
          </g>
        </g>
        <g id="Group_5259" data-name="Group 5259" transform="translate(212.001 16.911)">
          <g id="Group_5258" data-name="Group 5258" transform="translate(0)">
            <path id="Path_11912" data-name="Path 11912" d="M291.825,23.318q9.244,1.559,18.488,3.564c.371.074.52-.445.148-.52q-9.244-2-18.488-3.564c-.371-.074-.52.52-.148.52Z" transform="translate(-291.61 -22.791)" fill="#198380"/>
          </g>
        </g>
        <g id="Group_5261" data-name="Group 5261" transform="translate(236.333 19.807)">
          <g id="Group_5260" data-name="Group 5260">
            <path id="Path_11913" data-name="Path 11913" d="M324.544,27.218c4.529.742,9.133,1.485,13.662,2.227.371.074.52-.445.148-.52-4.529-.742-9.133-1.485-13.662-2.227-.3-.074-.445.52-.149.52Z" transform="translate(-324.382 -26.691)" fill="#198380"/>
          </g>
        </g>
        <g id="Group_5263" data-name="Group 5263" transform="translate(224.973 8.949)">
          <g id="Group_5262" data-name="Group 5262" transform="translate(0)">
            <path id="Path_11914" data-name="Path 11914" d="M309.244,12.612c9.949,2.3,20.047,4.158,30.145,5.569.371.074.52-.52.148-.52-10.1-1.485-20.2-3.341-30.145-5.569-.3-.148-.446.445-.149.52Z" transform="translate(-309.082 -12.068)" fill="#198380"/>
          </g>
        </g>
        <g id="Group_5265" data-name="Group 5265" transform="translate(169.308 69.775)">
          <g id="Group_5264" data-name="Group 5264">
            <path id="Path_11915" data-name="Path 11915" d="M234.325,94.517q27.843,7.462,55.761,14.924c.371.074.52-.445.148-.52Q262.391,101.459,234.474,94c-.371-.074-.52.445-.149.52Z" transform="translate(-234.11 -93.99)" fill="#198380"/>
          </g>
        </g>
        <g id="Group_5267" data-name="Group 5267" transform="translate(189.281 88.84)">
          <g id="Group_5266" data-name="Group 5266">
            <path id="Path_11916" data-name="Path 11916" d="M261.225,120.212a234.063,234.063,0,0,1,24.651,7.128c.371.148.52-.446.148-.52a222.085,222.085,0,0,0-24.651-7.128c-.371-.148-.52.445-.149.52Z" transform="translate(-261.01 -119.668)" fill="#198380"/>
          </g>
        </g>
        <g id="Group_5269" data-name="Group 5269" transform="translate(165.373 95.317)">
          <g id="Group_5268" data-name="Group 5268">
            <path id="Path_11917" data-name="Path 11917" d="M229.025,128.917c17,4.381,34.006,8.91,50.934,13.736.371.074.52-.445.148-.52-16.929-4.752-33.857-9.355-50.934-13.736-.371-.074-.52.445-.149.52Z" transform="translate(-228.81 -128.39)" fill="#198380"/>
          </g>
        </g>
        <g id="Group_5271" data-name="Group 5271" transform="translate(168.12 105.766)">
          <g id="Group_5270" data-name="Group 5270">
            <path id="Path_11918" data-name="Path 11918" d="M232.725,143.011c10.692,2.6,21.384,5.272,32.075,7.87.371.074.52-.445.148-.52-10.692-2.6-21.384-5.272-32.075-7.87-.371-.148-.52.371-.148.52Z" transform="translate(-232.51 -142.464)" fill="#198380"/>
          </g>
        </g>
      </g>
      <g id="character" transform="translate(43.187 62.96)">
        <g id="leg_right" transform="translate(2.307 123.555)">
          <path id="Path_11919" data-name="Path 11919" d="M206.249,348.5c-.594,3.341-1.336,7.87-1.856,13.29-.817,8.984-2.079,31.11,1.633,32.075,2.45.594,7.945-7.722,21.087-44.4-5.791-2.079-11.583-4.084-17.374-6.163C208.551,345.008,207.363,346.79,206.249,348.5Z" transform="translate(-96.335 -274.916)" fill="#5492ed"/>
          <path id="Path_11920" data-name="Path 11920" d="M66.114,267.534a23.127,23.127,0,0,0-4.529,7.425,17.271,17.271,0,0,0-1.114,7.648c.074,1.039.594,4.9,4.975,9.949,4.529,5.272,9.8,7.648,13.29,9.281,21.978,9.875,23.908,10.618,23.908,10.618,22.126,8.167,33.189,12.251,39.055,14.033,7.648,2.3,17.448,4.975,29.105,7.425a16.726,16.726,0,0,1,.223-4.975,18.811,18.811,0,0,1,4.529-9.058c-5.123-2.9-12.028-6.831-17.151-9.727-7.276-4.158-14.627-8.242-21.9-12.4a97.931,97.931,0,0,0,20.121,2.45,111.811,111.811,0,0,0,18.042-1.114c9.578-1.188,14.4-1.856,19.9-4.975a28.548,28.548,0,0,0,8.613-6.979c5.569-6.979,7.054-16.706,5.42-21.9-3.564-11.137-27.026-18.414-57.32-11.063a193.119,193.119,0,0,0-21.012-1.559,177.622,177.622,0,0,0-27.323,1.559,126.853,126.853,0,0,0-21.9,4.975C74.281,261.372,69.752,263.525,66.114,267.534Z" transform="translate(-59.48 -251.199)" fill="#002322"/>
          <g id="Group_5273" data-name="Group 5273" transform="translate(0 1.286)">
            <g id="Group_5272" data-name="Group 5272">
              <path id="Path_11921" data-name="Path 11921" d="M59.711,278.153c6.608-14.85,22.794-20.2,37.644-22.572a178.206,178.206,0,0,1,52.939-.3c.371.074.52-.52.148-.52a179.317,179.317,0,0,0-54.573.52c-14.553,2.376-30.219,8.093-36.679,22.572-.148.3.371.594.52.3Z" transform="translate(-59.164 -252.931)" fill="#202124"/>
            </g>
          </g>
          <g id="Group_5275" data-name="Group 5275" transform="translate(0.91 31.044)">
            <g id="Group_5274" data-name="Group 5274">
              <path id="Path_11922" data-name="Path 11922" d="M60.4,293.374c1.559,8.613,8.39,14.33,15.815,18.191,9.5,4.975,19.676,8.984,29.625,12.919a463.819,463.819,0,0,0,64.3,20.047c.371.074.52-.446.148-.52a471.879,471.879,0,0,1-59.1-18.117q-14.924-5.68-29.4-12.251c-9.133-4.158-18.933-9.727-20.864-20.418-.074-.371-.594-.223-.52.149Z" transform="translate(-60.39 -293.01)" fill="#202124"/>
            </g>
          </g>
          <g id="Group_5277" data-name="Group 5277" transform="translate(51.533 33.68)">
            <g id="Group_5276" data-name="Group 5276">
              <path id="Path_11923" data-name="Path 11923" d="M128.741,297.035q31.964,15.592,62.666,33.56c.3.148.594-.3.3-.445q-30.628-18.042-62.666-33.56c-.371-.149-.668.3-.3.445Z" transform="translate(-128.57 -296.56)" fill="#202124"/>
            </g>
          </g>
          <g id="Group_5279" data-name="Group 5279" transform="translate(111.15 70.205)">
            <g id="Group_5278" data-name="Group 5278">
              <path id="Path_11924" data-name="Path 11924" d="M209.411,356.108a13.751,13.751,0,0,1,3.267-9.875c.223-.3-.148-.668-.371-.371a14.329,14.329,0,0,0-3.415,10.246.26.26,0,1,0,.52,0Z" transform="translate(-208.864 -345.753)" fill="#202124"/>
            </g>
          </g>
          <g id="Group_5281" data-name="Group 5281" transform="translate(77.009 32.25)">
            <g id="Group_5280" data-name="Group 5280">
              <path id="Path_11925" data-name="Path 11925" d="M163.044,309.087c13.216,3.861,27.917,2.747,41.431,1.262,10.766-1.188,22.126-4.975,27.175-15.3.148-.3-.3-.594-.445-.3C225.487,306.34,212.2,309.31,200.391,310.2c-12.325.891-25.17,1.856-37.2-1.633-.3-.148-.446.445-.148.52Z" transform="translate(-162.882 -294.634)" fill="#202124"/>
            </g>
          </g>
          <g id="Group_5283" data-name="Group 5283" transform="translate(105.471 83.159)">
            <g id="Group_5282" data-name="Group 5282">
              <path id="Path_11926" data-name="Path 11926" d="M205.585,364.611a7.534,7.534,0,0,0-3.49,2.747c-.445.668-1.336,2.153-.594,2.97,1.782,1.782,4.6-4.009,4.975-5.049h-.52c.371,1.262,1.039,2.9,2.6,2.9a2.978,2.978,0,0,0,2.45-1.708,2.1,2.1,0,0,0-.817-2.821c-1.188-.817-2.673-.371-3.861.223a.268.268,0,1,0,.3.445,3.735,3.735,0,0,1,2-.594c1.633.074,2.079.742,1.188,2.079q.223,2.227-2,1.559a4.844,4.844,0,0,1-1.336-2.3.271.271,0,0,0-.52,0c-.52,1.411-1.633,4.306-3.341,4.009-.965.148-1.04-.223-.371-1.039a4.878,4.878,0,0,1,.891-1.262,6.361,6.361,0,0,1,2.524-1.708.238.238,0,1,0-.074-.445Z" transform="translate(-201.216 -363.2)" fill="#fff"/>
            </g>
          </g>
          <g id="Group_5285" data-name="Group 5285" transform="translate(107.475 91.69)">
            <g id="Group_5284" data-name="Group 5284">
              <path id="Path_11927" data-name="Path 11927" d="M204.349,376.331a17.646,17.646,0,0,1,3.861-1.114c.371-.074.223-.594-.148-.52a17.769,17.769,0,0,0-4.009,1.114.3.3,0,0,0,.3.52Z" transform="translate(-203.915 -374.69)" fill="#fff"/>
            </g>
          </g>
          <g id="Group_5287" data-name="Group 5287" transform="translate(107.365 95.336)">
            <g id="Group_5286" data-name="Group 5286">
              <path id="Path_11928" data-name="Path 11928" d="M204.163,380.936a6.161,6.161,0,0,1,3.044-.742c.371,0,.371-.52,0-.594a6.873,6.873,0,0,0-3.267.817c-.371.223-.074.742.223.52Z" transform="translate(-203.767 -379.6)" fill="#fff"/>
            </g>
          </g>
          <g id="Group_5289" data-name="Group 5289" transform="translate(107.207 98.769)">
            <g id="Group_5288" data-name="Group 5288">
              <path id="Path_11929" data-name="Path 11929" d="M204.034,385.765a2.7,2.7,0,0,1,2.524-.965c.371.074.52-.446.148-.52a3.334,3.334,0,0,0-3.118,1.114c-.148.223.223.668.445.371Z" transform="translate(-203.554 -384.224)" fill="#fff"/>
            </g>
          </g>
          <g id="Group_5291" data-name="Group 5291" transform="translate(107.438 102.315)">
            <g id="Group_5290" data-name="Group 5290">
              <path id="Path_11930" data-name="Path 11930" d="M204.411,390.559a2.463,2.463,0,0,1,1.93-.965.3.3,0,0,0,0-.594,2.994,2.994,0,0,0-2.45,1.262c-.148.3.371.594.52.3Z" transform="translate(-203.864 -389)" fill="#fff"/>
            </g>
          </g>
          <g id="Group_5293" data-name="Group 5293" transform="translate(107.323 106.54)">
            <g id="Group_5292" data-name="Group 5292">
              <path id="Path_11931" data-name="Path 11931" d="M204.074,395.588c.52-.148,1.039-.223,1.559-.371.371-.074.223-.594-.148-.52-.52.148-1.039.223-1.559.371-.371.074-.223.594.148.52Z" transform="translate(-203.71 -394.69)" fill="#fff"/>
            </g>
          </g>
          <g id="Group_5295" data-name="Group 5295" transform="translate(119.691 75.89)">
            <g id="Group_5294" data-name="Group 5294">
              <path id="Path_11932" data-name="Path 11932" d="M227.3,353.625c-2,7.5-4.306,14.85-6.905,22.126-.148.371.445.52.52.149,2.6-7.276,4.975-14.7,6.905-22.126.148-.371-.371-.52-.52-.148Z" transform="translate(-220.368 -353.41)" fill="#fff"/>
            </g>
          </g>
        </g>
        <g id="hand_right" transform="translate(0 29.557)">
          <path id="Path_11933" data-name="Path 11933" d="M77.795,200.047c-.074-.371-.445-1.411-1.114-3.341-.965-2.747-1.633-4.084-2.9-4.9-.371-.223-.891-.594-1.336-.371-.817.371-.223,2.821-.223,2.9a26.859,26.859,0,0,1-5.717-4.232c-1.633-1.485-2.079-2.3-3.193-2.524-2.45-.52-5.717,1.633-6.237,4.455a6.156,6.156,0,0,0,.668,3.49c.371.965,1.188,2.376,3.861,4.826a41.516,41.516,0,0,0,5.866,4.455,35.893,35.893,0,0,0,7.276,3.341C75.79,206.8,78.315,203.611,77.795,200.047Z" transform="translate(-56.305 -140.796)" fill="#fff"/>
          <path id="Path_11934" data-name="Path 11934" d="M151.668,124.6c-.371.594-.891,1.485-1.559,2.524a104.025,104.025,0,0,0-5.94,11.88c-3.044,6.905-4.826,11.583-4.826,11.583-2.6,6.831-6.385,16.632-10.989,28.586a91.723,91.723,0,0,1-9.207,2.153,99.191,99.191,0,0,1-14.553,1.411,150.085,150.085,0,0,1-20.121-.52,24.813,24.813,0,0,0-1.93,5.123A27.31,27.31,0,0,0,81.8,194.1c1.559.891,4.009,2.153,7.128,3.564,3.341,1.485,7.8,3.341,28.808,8.539,6.014,1.485,9.207,2.227,13.513,1.633a29.66,29.66,0,0,0,8.539-2.673c2.376-1.114,4.678-2.45,9.8-6.385a140.124,140.124,0,0,0,10.84-9.058c8.761-8.167,13.142-12.177,15.072-15.963,4.678-8.91,4.678-21.161-.742-31.259C167.557,128.609,153.821,125.12,151.668,124.6Z" transform="translate(-62.686 -124.6)" fill="#15dbd6"/>
          <g id="Group_5297" data-name="Group 5297" transform="translate(66.238 0.572)">
            <g id="Group_5296" data-name="Group 5296">
              <path id="Path_11935" data-name="Path 11935" d="M166.527,125.541c-7.87,17.226-15,34.748-21.235,52.642-.148.371.445.52.52.148,6.237-17.82,13.365-35.342,21.235-52.494.074-.371-.371-.668-.52-.3Z" transform="translate(-145.268 -125.37)" fill="#202124"/>
            </g>
          </g>
          <g id="Group_5299" data-name="Group 5299" transform="translate(20.989 54.862)">
            <g id="Group_5298" data-name="Group 5298">
              <path id="Path_11936" data-name="Path 11936" d="M84.6,201.764a150.2,150.2,0,0,0,43.138-2.747c.371-.074.223-.594-.148-.52a149.342,149.342,0,0,1-42.99,2.747c-.371-.074-.371.52,0,.52Z" transform="translate(-84.325 -198.49)" fill="#202124"/>
            </g>
          </g>
          <g id="Group_5301" data-name="Group 5301" transform="translate(18.727 59.499)">
            <g id="Group_5300" data-name="Group 5300">
              <path id="Path_11937" data-name="Path 11937" d="M83,204.857a12.457,12.457,0,0,0-1.485,8.761c.074.371.594.223.52-.148a12.015,12.015,0,0,1,1.411-8.316c.148-.3-.3-.594-.446-.3Z" transform="translate(-81.278 -204.734)" fill="#202124"/>
            </g>
          </g>
          <g id="Group_5303" data-name="Group 5303" transform="translate(19.511 61.676)">
            <g id="Group_5302" data-name="Group 5302">
              <path id="Path_11938" data-name="Path 11938" d="M82.457,216.379c14.107,6.237,29.254,10.989,44.623,12.845,7.648.965,12.771-2.079,19.008-6.237a134.81,134.81,0,0,0,18.339-14.85c.223-.223-.148-.668-.371-.371a137.277,137.277,0,0,1-17.671,14.4,62.838,62.838,0,0,1-8.761,5.346c-4.232,1.93-8.613,1.485-13.068.817a168.2,168.2,0,0,1-41.8-12.4c-.3-.223-.594.3-.3.445Z" transform="translate(-82.334 -207.667)" fill="#202124"/>
            </g>
          </g>
          <g id="Group_5305" data-name="Group 5305" transform="translate(15.428 49.967)">
            <g id="Group_5304" data-name="Group 5304">
              <path id="Path_11939" data-name="Path 11939" d="M82.378,199.77a26.53,26.53,0,0,0-1.708-4.232,18.286,18.286,0,0,0-1.262-2c-.3-.371-.817-1.336-1.262-1.559-1.708-.668-1.336,3.267-1.114,4.009.074.371.594.223.52-.148a5.652,5.652,0,0,1-.223-1.559,1.128,1.128,0,0,1,.445-1.336c.223-.445.445-.445.594.074a7.218,7.218,0,0,1,1.411,2.153,22.514,22.514,0,0,1,2.079,4.752c.074.3.594.148.52-.148Z" transform="translate(-76.836 -191.898)" fill="#202124"/>
            </g>
          </g>
          <g id="Group_5307" data-name="Group 5307" transform="translate(0 50.192)">
            <g id="Group_5306" data-name="Group 5306">
              <path id="Path_11940" data-name="Path 11940" d="M73.983,208.757a29.641,29.641,0,0,1-12.474-7.573c-1.782-1.856-4.009-4.009-4.158-6.682-.148-2.97.965-.148,1.782.965.891,1.114,1.708,2.227,2.6,3.341.223.3.594-.148.371-.371-1.262-1.633-3.415-6.014-5.569-6.237-.148,0-.223.074-.3.223-1.114,3.638,3.193,7.648,5.494,9.949a30.188,30.188,0,0,0,12.028,6.979c.371.074.52-.52.223-.594Z" transform="translate(-56.057 -192.2)" fill="#202124"/>
            </g>
          </g>
          <g id="Group_5309" data-name="Group 5309" transform="translate(1.308 48.934)">
            <g id="Group_5308" data-name="Group 5308">
              <path id="Path_11941" data-name="Path 11941" d="M58.324,191.318c.965-1.114,2.9,1.708,3.341,2.227.817.891,1.633,1.856,2.45,2.747.223.3.668-.148.371-.371-1.411-1.559-2.747-3.267-4.232-4.678-.668-.668-1.633-1.114-2.376-.3-.223.223.223.594.445.371Z" transform="translate(-57.818 -190.506)" fill="#202124"/>
            </g>
          </g>
          <g id="Group_5311" data-name="Group 5311" transform="translate(3.735 47.493)">
            <g id="Group_5310" data-name="Group 5310">
              <path id="Path_11942" data-name="Path 11942" d="M61.245,189.036c1.188.148,1.856,1.114,2.6,2l2.45,2.9c.223.3.594-.148.371-.371-.965-1.114-1.93-2.3-2.9-3.415a4.035,4.035,0,0,0-2.3-1.559c-.371-.148-.52.371-.223.446Z" transform="translate(-61.087 -188.564)" fill="#202124"/>
            </g>
          </g>
          <g id="Group_5313" data-name="Group 5313" transform="translate(6.144 46.305)">
            <g id="Group_5312" data-name="Group 5312">
              <path id="Path_11943" data-name="Path 11943" d="M64.457,187.511a10.592,10.592,0,0,1,4.6,3.861c.223.3.668,0,.446-.3a11.257,11.257,0,0,0-4.826-4.084c-.223-.148-.52.371-.223.52Z" transform="translate(-64.332 -186.964)" fill="#202124"/>
            </g>
          </g>
        </g>
        <g id="torso" transform="translate(88.972 26.313)">
          <path id="Path_11962" data-name="Path 11962" d="M176.132,123.773a111.921,111.921,0,0,0,0,13.216c.223,3.564.52,6.905.965,9.949-.223,3.044-.52,7.276-.743,12.251a322.628,322.628,0,0,0,.52,34.674c.594,9.652,1.708,21.309,3.712,34.451a74.357,74.357,0,0,0,15.741,8.019c10.469,3.861,19.156,4.381,25.467,4.752a104.111,104.111,0,0,0,26.73-2c1.336-8.687,2.524-17.671,3.49-26.952a551.624,551.624,0,0,0,2.97-63.631,61.283,61.283,0,0,0-11.212-12.474c-10.989-9.281-22.349-12.1-28.214-13.513a75.939,75.939,0,0,0-29.7-.965A64.36,64.36,0,0,0,176.132,123.773Z" transform="translate(-175.9 -120.305)" fill="#15dbd6"/>
          <g id="Group_5349" data-name="Group 5349">
            <g id="Group_5348" data-name="Group 5348">
              <path id="Path_11963" data-name="Path 11963" d="M176.268,124.069a72.683,72.683,0,0,1,79,24.725c.223.3.594-.148.371-.371a73.293,73.293,0,0,0-79.594-24.873c-.3.074-.148.594.223.52Z" transform="translate(-175.887 -120.231)" fill="#202124"/>
            </g>
          </g>
          <g id="Group_5351" data-name="Group 5351" transform="translate(0.126 21.751)">
            <g id="Group_5350" data-name="Group 5350">
              <path id="Path_11964" data-name="Path 11964" d="M176.98,149.8a410.539,410.539,0,0,0,3.193,85.386c.074.371.594.223.52-.148A409.121,409.121,0,0,1,177.5,149.8c.074-.371-.446-.371-.52,0Z" transform="translate(-176.057 -149.525)" fill="#202124"/>
            </g>
          </g>
          <g id="Group_5353" data-name="Group 5353" transform="translate(4.414 107.651)">
            <g id="Group_5352" data-name="Group 5352">
              <path id="Path_11965" data-name="Path 11965" d="M181.957,265.724a86.293,86.293,0,0,0,68.383,10.395c.371-.074.223-.594-.148-.52a85.645,85.645,0,0,1-68.012-10.321c-.223-.223-.52.223-.223.445Z" transform="translate(-181.832 -265.218)" fill="#202124"/>
            </g>
          </g>
          <g id="Group_5355" data-name="Group 5355" transform="translate(72.247 38.605)">
            <g id="Group_5354" data-name="Group 5354">
              <path id="Path_11966" data-name="Path 11966" d="M279.063,172.5a567.406,567.406,0,0,1-5.866,79.3c-.074.371.52.52.52.148a568.786,568.786,0,0,0,5.94-79.446c-.074-.371-.594-.371-.594,0Z" transform="translate(-273.191 -172.225)" fill="#202124"/>
            </g>
          </g>
        </g>
        <g id="leg_left" transform="translate(43.191 139.58)">
          <path id="Path_11967" data-name="Path 11967" d="M157.271,389.2c-1.708,1.039-4.009,2.45-6.608,4.232-11.212,7.351-38.535,26.581-36.308,31.481.965,2.153,8.39,3.193,49.078-10.1l8.019-18.711C166.7,393.8,161.949,391.5,157.271,389.2Z" transform="translate(-114.227 -302.761)" fill="#5492ed"/>
          <path id="Path_11968" data-name="Path 11968" d="M171.5,360.307c1.262-2.45,3.044-5.717,5.123-9.5,5.494-9.8,10.543-17.968,14.85-24.651,7.5-11.509,14.33-20.2,27.917-37.5a49.5,49.5,0,0,1,14.4-12.177c4.6-2.6,7.87-3.415,11.137-3.193,1.559.074,5.717.371,8.761,3.564,2.97,3.118,3.044,7.276,3.118,9.355.074,3.712-.891,7.054-5.494,15.518a119.588,119.588,0,0,1-8.093,13.513c-10.766,14.924-24.8,27.695-32,34.006a300.885,300.885,0,0,1-27.769,21.606,57.481,57.481,0,0,0-4.752-4.9A55.134,55.134,0,0,0,171.5,360.307Z" transform="translate(-128.976 -272.903)" fill="#002322"/>
          <g id="Group_5357" data-name="Group 5357" transform="translate(42.286)">
            <g id="Group_5356" data-name="Group 5356">
              <path id="Path_11969" data-name="Path 11969" d="M171.64,360.334a420.826,420.826,0,0,1,24.948-41.5c8.91-13.068,18.191-26.952,30.293-37.2,6.311-5.346,15.147-10.915,23.537-6.905,9.727,4.678,5.643,15.963,2.227,23.463-6.311,13.587-15.592,25.69-26.061,36.382-13.142,13.439-28.214,24.725-43.213,35.936-.3.223,0,.668.3.445,27.62-20.641,57.394-42.99,71.056-75.956,2.3-5.494,4.306-12.622.074-17.745-3.49-4.158-9.43-5.2-14.478-4.009-7.8,1.856-14.478,8.093-19.9,13.81-5.866,6.088-10.915,12.919-15.963,19.75a418.552,418.552,0,0,0-33.189,53.162c-.3.445.223.668.371.371Z" transform="translate(-171.179 -272.781)" fill="#202124"/>
            </g>
          </g>
          <g id="Group_5359" data-name="Group 5359" transform="translate(43.047 89.261)">
            <g id="Group_5358" data-name="Group 5358">
              <path id="Path_11970" data-name="Path 11970" d="M172.424,393.594a12.285,12.285,0,0,1,8.836,6.757.268.268,0,1,0,.445-.3A13.149,13.149,0,0,0,172.5,393c-.3,0-.446.52-.074.594Z" transform="translate(-172.203 -393)" fill="#202124"/>
            </g>
          </g>
          <g id="Group_5361" data-name="Group 5361" transform="translate(33.213 85.724)">
            <g id="Group_5360" data-name="Group 5360">
              <path id="Path_11971" data-name="Path 11971" d="M162.776,396.154a8.4,8.4,0,0,1-2.153-2.45,12.088,12.088,0,0,1-.817-1.708c-.223-.668-1.188-3.935,1.411-2.9,1.114.445,1.708,2.227,1.93,3.267a18.1,18.1,0,0,1,0,4.009c0,.371.52.371.594,0,.223-2.153.371-4.455-.817-6.385-.594-.891-1.782-2.153-2.97-1.633-1.336.52-1.039,2.3-.742,3.341a9.4,9.4,0,0,0,3.267,4.826c.148.223.594-.148.3-.371Z" transform="translate(-158.959 -388.236)" fill="#fff"/>
            </g>
          </g>
          <g id="Group_5363" data-name="Group 5363" transform="translate(37.03 92.892)">
            <g id="Group_5362" data-name="Group 5362">
              <path id="Path_11972" data-name="Path 11972" d="M164.1,399.011c.148,2.153.52,4.9,2.079,6.534a2.821,2.821,0,0,0,3.935.445c1.336-1.188.445-3.341-.371-4.529a8.521,8.521,0,0,0-4.9-3.564c-.371-.074-.52.445-.148.52,2.376.742,6.46,3.712,5.123,6.608-1.114,2.524-3.49.148-4.232-1.411a13.356,13.356,0,0,1-.965-4.529.266.266,0,1,0-.52-.074Z" transform="translate(-164.1 -397.89)" fill="#fff"/>
            </g>
          </g>
          <g id="Group_5365" data-name="Group 5365" transform="translate(19.377 101.883)">
            <g id="Group_5364" data-name="Group 5364">
              <path id="Path_11973" data-name="Path 11973" d="M140.6,410.52a4.711,4.711,0,0,1,3.267,1.559c.223.3.594-.148.371-.371A5.264,5.264,0,0,0,140.6,410a.261.261,0,1,0,0,.52Z" transform="translate(-140.325 -410)" fill="#fff"/>
            </g>
          </g>
          <g id="Group_5367" data-name="Group 5367" transform="translate(22.37 99.473)">
            <g id="Group_5366" data-name="Group 5366">
              <path id="Path_11974" data-name="Path 11974" d="M144.686,407.382a2.892,2.892,0,0,1,3.118,1.782c.148.3.668.148.52-.149a3.6,3.6,0,0,0-3.861-2.227c-.223.148-.074.668.223.594Z" transform="translate(-144.356 -406.754)" fill="#fff"/>
            </g>
          </g>
          <g id="Group_5369" data-name="Group 5369" transform="translate(25.826 97.569)">
            <g id="Group_5368" data-name="Group 5368">
              <path id="Path_11975" data-name="Path 11975" d="M149.225,404.717c1.114.148,2.747.52,2.821,1.93a.3.3,0,0,0,.594,0c-.074-1.708-1.856-2.227-3.267-2.45-.371-.074-.52.445-.148.52Z" transform="translate(-149.01 -404.19)" fill="#fff"/>
            </g>
          </g>
          <g id="Group_5371" data-name="Group 5371" transform="translate(29.16 94.528)">
            <g id="Group_5370" data-name="Group 5370">
              <path id="Path_11976" data-name="Path 11976" d="M153.723,400.618a3.228,3.228,0,0,1,3.044,2c.149.3.668.149.52-.148a3.68,3.68,0,0,0-3.564-2.376c-.3,0-.3.52,0,.52Z" transform="translate(-153.5 -400.095)" fill="#fff"/>
            </g>
          </g>
          <g id="Group_5373" data-name="Group 5373" transform="translate(21.668 110.395)">
            <g id="Group_5372" data-name="Group 5372">
              <path id="Path_11977" data-name="Path 11977" d="M143.774,429.51a188.542,188.542,0,0,0,26.21-7.5c.3-.149.223-.668-.148-.52a170.129,170.129,0,0,1-26.21,7.5c-.371.074-.223.594.148.52Z" transform="translate(-143.41 -421.464)" fill="#fff"/>
            </g>
          </g>
        </g>
        <g id="hand_left" transform="translate(145.036 53.103)">
          <path id="Path_11978" data-name="Path 11978" d="M351.4,268a36.183,36.183,0,0,0,4.975,0c2.6-.223,4.678-.668,10.617-1.782,3.118-.594,4.158-.742,4.6-.149.742,1.039-1.188,3.564-1.856,4.381,2.45.074,4.529.148,6.014.3,3.341.223,4.158.446,5.049,1.039a4.969,4.969,0,0,1,2.153,4.009,4.774,4.774,0,0,1-1.485,3.118c-1.039.148-2.45.3-4.158.445-.965.074-3.415.3-5.866.3a48.69,48.69,0,0,1-9.5-.965,71.5,71.5,0,0,1-10.469-2.747C351.474,273.271,351.4,270.672,351.4,268Z" transform="translate(-277.148 -184.479)" fill="#fff"/>
          <path id="Path_11979" data-name="Path 11979" d="M252.884,176.276c-2.45-5.569-1.856-11.88,1.633-15.741,4.9-5.494,15.221-6.014,22.275.742.742,1.782,1.93,4.6,3.118,8.316a103.2,103.2,0,0,1,3.118,12.028c1.559,7.351,4.752,21.755,9.281,41.579a201.118,201.118,0,0,0,22.349,9.727c5.123,1.856,10.024,3.415,14.7,4.752a42,42,0,0,0-3.118,11.286c-5.123.223-10.469.371-15.963.3a292.8,292.8,0,0,1-35.862-2.45c-2.079-6.46-4.158-12.919-6.237-19.527C262.684,209.985,257.635,193.056,252.884,176.276Z" transform="translate(-251.395 -156.312)" fill="#15dbd6"/>
          <g id="Group_5375" data-name="Group 5375" transform="translate(1.185 19.675)">
            <g id="Group_5374" data-name="Group 5374">
              <path id="Path_11980" data-name="Path 11980" d="M253,183.174a654.158,654.158,0,0,0,20.864,67.715c.149.3.668.223.52-.148a654.15,654.15,0,0,1-20.864-67.715c-.074-.371-.594-.223-.52.148Z" transform="translate(-252.99 -182.81)" fill="#202124"/>
            </g>
          </g>
          <g id="Group_5377" data-name="Group 5377" transform="translate(25.145 4.694)">
            <g id="Group_5376" data-name="Group 5376">
              <path id="Path_11981" data-name="Path 11981" d="M285.29,163.054c4.158,9.5,6.088,19.75,8.39,29.848,2.3,10.246,4.6,20.567,6.905,30.813.074.371.594.223.52-.148-2.376-10.766-4.826-21.458-7.2-32.224-2.153-9.652-4.158-19.453-8.093-28.586a.3.3,0,0,0-.52.3Z" transform="translate(-285.26 -162.634)" fill="#202124"/>
            </g>
          </g>
          <g id="Group_5379" data-name="Group 5379" transform="translate(40.643 66.562)">
            <g id="Group_5378" data-name="Group 5378">
              <path id="Path_11982" data-name="Path 11982" d="M306.257,246.509a227.42,227.42,0,0,0,35.417,14.181c.371.074.52-.445.148-.52a233.289,233.289,0,0,1-35.268-14.181.3.3,0,0,0-.3.52Z" transform="translate(-306.134 -245.96)" fill="#202124"/>
            </g>
          </g>
          <g id="Group_5381" data-name="Group 5381" transform="translate(24.811 89.751)">
            <g id="Group_5380" data-name="Group 5380">
              <path id="Path_11983" data-name="Path 11983" d="M285.025,277.717a228.82,228.82,0,0,0,49.375,2.45.3.3,0,0,0,0-.594,227.651,227.651,0,0,1-49.227-2.376c-.371-.074-.52.52-.148.52Z" transform="translate(-284.81 -277.191)" fill="#202124"/>
            </g>
          </g>
          <g id="Group_5383" data-name="Group 5383" transform="translate(75.143 82.269)">
            <g id="Group_5382" data-name="Group 5382">
              <path id="Path_11984" data-name="Path 11984" d="M354.6,267.252a25.942,25.942,0,0,0-2,8.836c0,.371.52.371.594,0a25.975,25.975,0,0,1,1.93-8.539c.149-.371-.371-.594-.52-.3Z" transform="translate(-352.6 -267.115)" fill="#202124"/>
            </g>
          </g>
          <g id="Group_5385" data-name="Group 5385" transform="translate(78.215 81.062)">
            <g id="Group_5384" data-name="Group 5384">
              <path id="Path_11985" data-name="Path 11985" d="M357.006,267.8a20.614,20.614,0,0,0,6.757-.371c1.633-.3,9.281-2.747,9.5-.223a.3.3,0,0,0,.594,0c-.148-2.079-2.227-1.782-3.935-1.559-4.381.52-8.464,2.079-12.845,1.559a.3.3,0,1,0-.074.594Z" transform="translate(-356.737 -265.489)" fill="#202124"/>
            </g>
          </g>
          <g id="Group_5387" data-name="Group 5387" transform="translate(77.358 92.258)">
            <g id="Group_5386" data-name="Group 5386">
              <path id="Path_11986" data-name="Path 11986" d="M355.744,281.112a67.533,67.533,0,0,0,27.249,1.782c.371-.074.223-.594-.148-.52a66.091,66.091,0,0,1-26.952-1.782c-.3-.148-.445.445-.148.52Z" transform="translate(-355.582 -280.568)" fill="#202124"/>
            </g>
          </g>
          <g id="Group_5389" data-name="Group 5389" transform="translate(91.348 91.614)">
            <g id="Group_5388" data-name="Group 5388">
              <path id="Path_11987" data-name="Path 11987" d="M374.7,280.294a89.284,89.284,0,0,0,13.365.3.3.3,0,0,0,0-.594,89.293,89.293,0,0,1-13.365-.3.3.3,0,0,0,0,.594Z" transform="translate(-374.425 -279.7)" fill="#202124"/>
            </g>
          </g>
          <g id="Group_5391" data-name="Group 5391" transform="translate(92.61 89.089)">
            <g id="Group_5390" data-name="Group 5390">
              <path id="Path_11988" data-name="Path 11988" d="M376.4,276.894a73.48,73.48,0,0,0,11.434,0,.3.3,0,0,0,0-.594,73.48,73.48,0,0,1-11.434,0c-.371,0-.371.52,0,.594Z" transform="translate(-376.125 -276.3)" fill="#202124"/>
            </g>
          </g>
          <g id="Group_5393" data-name="Group 5393" transform="translate(92.833 85.663)">
            <g id="Group_5392" data-name="Group 5392">
              <path id="Path_11989" data-name="Path 11989" d="M376.7,272.29a37.978,37.978,0,0,1,10.023.965c.371.074.52-.445.149-.52A38.827,38.827,0,0,0,376.7,271.7c-.371.074-.371.668,0,.594Z" transform="translate(-376.425 -271.685)" fill="#202124"/>
            </g>
          </g>
        </g>
        <g id="head" transform="translate(97.81)">
          <path id="Path_12009" data-name="Path 12009" d="M199.264,117.4a9.267,9.267,0,0,0-.668,2.673,9.926,9.926,0,0,0,1.856,5.94,11.858,11.858,0,0,0,6.534,4.678,10.688,10.688,0,0,0,4.158.3c.148.3.3.52.446.817a2.791,2.791,0,0,0-1.485,1.114,2.836,2.836,0,0,0,.594,4.232c1.411,1.039,3.267.52,4.158.3a8.54,8.54,0,0,0,4.678-3.341,12.338,12.338,0,0,0,1.485-2.6l-2.673-4.455a18.1,18.1,0,0,0,1.856-3.118,20.882,20.882,0,0,0,1.114-3.118c.742-3.044-.3-7.87-2.524-9.949C215.376,107.752,206.244,109.163,199.264,117.4Z" transform="translate(-190.57 -91.114)" fill="#fff"/>
          <path id="Path_12010" data-name="Path 12010" d="M196.59,111.082a20.666,20.666,0,0,1,3.267-2.153,19.275,19.275,0,0,1,7.573-2.079,13.247,13.247,0,0,1,6.385.668,13.635,13.635,0,0,1,3.49,2.153,18.8,18.8,0,0,0,.594,3.341,13.736,13.736,0,0,0,2.3,5.272,12.708,12.708,0,0,0,7.2,4.009,16.365,16.365,0,0,0,9.058-.817,17.432,17.432,0,0,0,7.648-5.346,20.682,20.682,0,0,0,3.638-7.722c.817-2.673,1.485-5.049,1.039-7.945-.594-4.306-3.267-7.054-4.6-8.539-5.569-5.94-14.775-8.539-18.562-6.385a16.19,16.19,0,0,1-3.638,1.633,9.21,9.21,0,0,1-3.787.594c-2.45-.148-2.97-1.336-4.9-1.485-2.97-.148-5.346,2.376-5.643,2.747a8.721,8.721,0,0,0-1.93,6.905,15.975,15.975,0,0,0-5.569-.668c-1.559.074-6.163.3-9.43,3.638-.891.965-2.45,2.524-2.524,4.826-.074,3.193,2.6,5.272,3.044,5.569A8.225,8.225,0,0,0,196.59,111.082Z" transform="translate(-187.895 -84.791)" fill="#202124"/>
          <ellipse id="Ellipse_509" data-name="Ellipse 509" cx="0.891" cy="1.559" rx="0.891" ry="1.559" transform="translate(17.456 26.588)" fill="#202124"/>
          <g id="Group_5431" data-name="Group 5431" transform="translate(7.833 26.15)">
            <g id="Group_5430" data-name="Group 5430">
              <path id="Path_12011" data-name="Path 12011" d="M198.459,120.225c-.817,6.163,2.6,12.177,8.91,13.513,6.237,1.411,12.028-2.6,13.662-8.613.074-.371-.445-.52-.52-.148a11.041,11.041,0,0,1-12.474,8.316c-6.237-1.114-9.8-6.831-8.984-12.919,0-.371-.52-.52-.594-.148Z" transform="translate(-198.339 -120.01)" fill="#202124"/>
            </g>
          </g>
          <g id="Group_5433" data-name="Group 5433" transform="translate(20.396 39.607)">
            <g id="Group_5432" data-name="Group 5432">
              <path id="Path_12012" data-name="Path 12012" d="M215.29,138.554c.371.668.742,1.262,1.114,1.93.148.3.668,0,.445-.3-.371-.668-.742-1.262-1.114-1.93-.148-.3-.594,0-.445.3Z" transform="translate(-215.26 -138.134)" fill="#202124"/>
            </g>
          </g>
          <g id="Group_5435" data-name="Group 5435" transform="translate(18.627 39.451)">
            <g id="Group_5434" data-name="Group 5434">
              <path id="Path_12013" data-name="Path 12013" d="M214.082,139.763c-2.6,2-.594,5.42,2.227,5.643,3.638.371,8.539-3.564,8.836-7.2,0-.371-.52-.371-.594,0-.148,2.45-2.6,4.455-4.6,5.643a5.52,5.52,0,0,1-4.158.891c-1.93-.446-3.564-2.97-1.485-4.529.371-.223.074-.668-.223-.445Z" transform="translate(-212.877 -137.925)" fill="#202124"/>
            </g>
          </g>
          <g id="Group_5437" data-name="Group 5437" transform="translate(13.812 25.683)">
            <g id="Group_5436" data-name="Group 5436">
              <path id="Path_12014" data-name="Path 12014" d="M206.695,119.544c-.742,2.821-.3,7.87,3.341,8.316.371.074.371-.52,0-.594-3.267-.371-3.415-5.272-2.821-7.573.074-.3-.445-.445-.52-.148Z" transform="translate(-206.392 -119.382)" fill="#202124"/>
            </g>
          </g>
          <g id="Group_5439" data-name="Group 5439" transform="translate(0 10.183)">
            <g id="Group_5438" data-name="Group 5438">
              <path id="Path_12015" data-name="Path 12015" d="M196.484,114.316c-2.9-.3-5.866-1.262-7.351-3.935-2-3.638.371-7.2,3.415-9.058a15.57,15.57,0,0,1,9.43-2.153c7.573.594,13.365,6.311,15.666,13.29.149.371.668.223.52-.148-3.118-9.43-12.771-16.335-22.794-12.919-3.787,1.262-8.242,4.455-7.5,9.058.668,4.232,4.752,6.163,8.613,6.46.371,0,.371-.52,0-.594Z" transform="translate(-187.79 -98.506)" fill="#202124"/>
            </g>
          </g>
          <g id="Group_5441" data-name="Group 5441" transform="translate(8.827 21.711)">
            <g id="Group_5440" data-name="Group 5440">
              <path id="Path_12016" data-name="Path 12016" d="M200.066,118.537c5.494-4.009,14.775-6.014,20.493-1.114.3.223.668-.148.371-.371-5.866-5.049-15.444-3.118-21.161,1.039-.223.148,0,.668.3.446Z" transform="translate(-199.678 -114.032)" fill="#202124"/>
            </g>
          </g>
          <g id="Group_5443" data-name="Group 5443" transform="translate(17.997 0.633)">
            <g id="Group_5442" data-name="Group 5442">
              <path id="Path_12017" data-name="Path 12017" d="M212.6,96.526a10.645,10.645,0,0,1,1.262-6.905,5.931,5.931,0,0,1,4.9-2.673c1.708.074,2.153.668,3.712,1.336,2.9,1.262,3.861.074,6.831-1.039,7.945-3.118,19.9,1.559,23.982,8.984,4.381,7.945-1.114,20.344-8.687,24.354a17,17,0,0,1-12.771,1.262c-5.643-1.856-7.276-6.608-8.167-11.954-.074-.371-.594-.223-.52.148.817,5.2,2.3,9.727,7.5,11.954a16.652,16.652,0,0,0,12.4-.074,17.3,17.3,0,0,0,9.8-9.207c2-4.455,3.49-10.543,1.633-15.3-3.193-8.242-15.444-13.439-23.685-11.286-.965.223-1.856.742-2.747,1.039-2.45.742-4.529.148-6.831-.445a6.753,6.753,0,0,0-4.678.074c-3.861,1.633-4.752,6.014-4.455,9.727,0,.3.52.371.52,0Z" transform="translate(-212.029 -85.643)" fill="#202124"/>
            </g>
          </g>
        </g>
      </g>
    </g>
  </g>
</svg>
