<svg width="216" height="217" viewBox="0 0 216 217" fill="none" xmlns="http://www.w3.org/2000/svg">
<ellipse cx="107.598" cy="108.5" rx="107.578" ry="108.5" fill="#00E6C0"/>
<path d="M74.9566 179.951C74.9566 179.951 76.8363 136.076 72.2327 122.404C67.6292 108.741 38.1992 121.657 38.1992 121.657C38.1992 121.657 31.8365 147.796 34.9363 179.951H51.7615L54.7123 145.354H56.2941L58.9186 179.951H74.9566Z" fill="#252525"/>
<path d="M35.7235 106.292C35.7235 106.292 34.8723 110.292 33.8438 115.08C32.6592 120.606 31.2334 127.185 30.595 129.86C29.4034 134.856 27.1335 154.046 27.1335 154.046C29.8786 158.103 29.8786 161.886 29.5594 162.971C29.2331 164.055 28.2046 162.432 28.2046 161.348C28.2046 160.263 27.0129 157.974 26.3391 159.043C25.6652 160.127 25.7007 163.364 27.2541 165.131C28.8075 166.882 28.9281 169.18 28.9281 169.18C18.4301 165.131 23.4663 154.183 23.4663 154.183C21.1042 148.648 24.7502 119.996 25.5872 114.051C25.9489 111.457 26.3603 107.657 26.7008 104.203C27.1548 99.7131 27.4953 95.7852 27.4953 95.7852L35.7235 106.292Z" fill="#F4A79C"/>
<path d="M35.7231 106.292C35.7231 106.292 34.8719 110.292 33.8434 115.08L26.6934 104.203C27.1473 99.7131 27.4878 95.7852 27.4878 95.7852L35.7231 106.292Z" fill="#E58177"/>
<path d="M51.6693 18.3978C39.3483 20.7675 39.3767 31.459 39.5824 35.1701C39.7881 38.8812 16.5363 55.79 43.5475 66.0236H61.9333C61.9333 66.0236 81.2341 62.4571 72.6016 42.2147C70.7715 39.2507 66.4021 32.7763 65.7992 30.5352C65.1962 28.2941 61.8269 16.4459 51.6693 18.3978Z" fill="#092547"/>
<path d="M74.1973 74.8593L71.4735 122.718L38.1918 121.65L26.5091 96.8206C26.5091 96.8206 25.6154 80.0564 27.9349 76.0561C29.0769 74.0721 33.7939 71.2285 38.2698 68.8589C42.845 66.433 47.179 64.4971 47.179 64.4971L46.8881 53.9502C43.5188 52.0706 42.8308 46.2469 42.8308 46.2469C38.0854 45.1544 37.3902 41.0417 38.7734 39.0576C39.6743 37.7643 42.0647 40.0938 42.2988 40.3027C42.2846 40.2786 42.2704 40.2625 42.242 40.2304C41.6391 39.5476 41.6888 38.0857 42.1498 36.945C44.1785 34.3906 44.7743 28.085 44.7743 28.085C48.0373 32.5592 61.5712 33.0331 61.5712 33.0331C61.5712 35.4349 64.0539 37.4591 64.0539 37.4591C64.0539 37.4591 63.8836 39.154 63.756 40.0456C63.9546 39.6119 64.366 39.154 64.5646 38.8166C64.8412 38.3427 68.6574 37.2503 67.3239 41.7807C65.9903 46.3111 63.1389 45.9015 63.1389 45.9015C62.0323 50.5925 58.5353 53.5646 58.5353 53.5646L58.3934 63.5252C62.387 65.204 65.5151 67.0917 67.8984 68.8508C72.3317 72.096 74.1973 74.8593 74.1973 74.8593Z" fill="#F4A79C"/>
<path d="M74.1973 74.8598L71.4735 122.719L38.1918 121.65L26.5091 96.8211C26.5091 96.8211 25.6154 80.0569 27.9349 76.0567C29.0769 74.0726 33.7939 71.229 38.2698 68.8594C38.2698 68.8594 51.1157 78.8199 67.9055 68.8594C72.3317 72.0965 74.1973 74.8598 74.1973 74.8598Z" fill="#00E9F8"/>
<path d="M52.811 55.356C50.9171 55.3238 48.86 54.9864 47.1364 53.9984C47.2499 54.0627 47.0725 53.8779 47.1364 53.9984C47.4272 54.5928 48.2642 55.5809 48.6614 56.095C51.7257 60.0631 56.84 58.304 58.3296 53.6289C58.2516 53.8619 57.2727 54.2073 57.0599 54.3117C56.5705 54.5527 56.0739 54.7615 55.5632 54.9383C54.6553 55.2435 53.7331 55.38 52.811 55.356Z" fill="#E58177"/>
<path d="M44.6395 37.0498C44.5543 37.0498 44.4763 37.0257 44.3983 36.9695C44.1855 36.8169 44.1145 36.5036 44.2493 36.2626C44.3132 36.1421 45.8595 33.3789 50.3212 33.9813C50.5695 34.0134 50.7539 34.2705 50.7255 34.5597C50.6972 34.8408 50.4702 35.0497 50.2148 35.0175C46.3702 34.4954 45.0863 36.7124 45.0367 36.8088C44.9445 36.9615 44.7955 37.0498 44.6395 37.0498Z" fill="#092547"/>
<path d="M60.2448 36.5116C60.11 36.5116 59.9681 36.4393 59.883 36.3107C58.4644 34.2222 54.79 34.9211 54.7546 34.9291C54.5063 34.9773 54.2651 34.7926 54.2226 34.5034C54.18 34.2222 54.3432 33.9491 54.5914 33.9009C54.7617 33.8688 58.8474 33.0816 60.6065 35.6681C60.7626 35.893 60.7271 36.2224 60.5214 36.3991C60.4434 36.4714 60.3441 36.5116 60.2448 36.5116Z" fill="#092547"/>
<path d="M52.8612 44.3029C52.3859 44.3029 51.9674 44.1342 51.6979 43.7968C51.329 43.3389 51.3148 42.6642 51.6553 41.9332C52.3292 40.4954 51.9107 38.2864 51.9036 38.2703C51.8681 38.0856 51.9674 37.9008 52.1377 37.8606C52.3008 37.8205 52.4639 37.9329 52.4994 38.1257C52.5207 38.2221 52.9746 40.5998 52.1944 42.2706C52.0454 42.5919 51.9107 43.0417 52.1518 43.3389C52.393 43.6281 52.9959 43.7486 53.6911 43.4112C53.8471 43.3309 54.0245 43.4193 54.0954 43.596C54.1592 43.7727 54.0883 43.9735 53.9323 44.0538C53.5634 44.2145 53.1945 44.3029 52.8612 44.3029Z" fill="#E58177"/>
<path d="M48.4063 45.6368C49.7753 46.0063 53.173 46.6811 56.6061 45.4601C56.6274 45.4521 56.6416 45.4681 56.6345 45.4922C56.4501 45.8939 55.5209 49.0829 52.6481 49.0829C50.4492 49.0829 48.7113 47.0345 48.1297 46.1027C47.9878 45.8778 48.1722 45.5726 48.4063 45.6368Z" fill="white"/>
<path d="M64.2387 42.9461C64.2032 42.9461 64.1607 42.938 64.1252 42.922C63.9691 42.8497 63.8911 42.6488 63.955 42.4721C64.0543 42.191 64.9835 39.725 66.3738 39.6768C66.5298 39.6768 66.6859 39.8213 66.6859 40.0141C66.693 40.2069 66.5582 40.3676 66.3879 40.3676C65.5438 40.3997 64.7494 42.0785 64.5153 42.7292C64.4728 42.8657 64.3593 42.9461 64.2387 42.9461Z" fill="#E58177"/>
<path d="M42.1 42.9457C41.9865 42.9457 41.873 42.8734 41.8233 42.7449C41.1495 41.0902 39.6883 41.3954 39.6244 41.4115C39.4613 41.4516 39.2981 41.3312 39.2627 41.1384C39.2272 40.9536 39.3336 40.7689 39.5038 40.7287C40.1919 40.5681 41.6815 40.7207 42.3837 42.4477C42.4546 42.6244 42.3908 42.8252 42.2347 42.9055C42.1851 42.9377 42.1425 42.9457 42.1 42.9457Z" fill="#E58177"/>
<path d="M48.0513 40.3667C48.6546 40.3667 49.1437 39.8128 49.1437 39.1296C49.1437 38.4464 48.6546 37.8926 48.0513 37.8926C47.448 37.8926 46.959 38.4464 46.959 39.1296C46.959 39.8128 47.448 40.3667 48.0513 40.3667Z" fill="#092547"/>
<path d="M57.2379 40.3667C57.8412 40.3667 58.3302 39.8128 58.3302 39.1296C58.3302 38.4464 57.8412 37.8926 57.2379 37.8926C56.6346 37.8926 56.1455 38.4464 56.1455 39.1296C56.1455 39.8128 56.6346 40.3667 57.2379 40.3667Z" fill="#092547"/>
<path d="M173.483 119.377L174.263 121.192C174.263 121.192 176.937 130.366 177.611 140.085C178.278 149.813 178.171 180.257 178.171 180.257H161.218L159.211 147.66H156.87L154.302 180.257H146.72L151.238 121.192H174.263" fill="#886D69"/>
<path d="M206.7 81.0208L199.401 96.4195C198.968 97.3272 199.28 98.4598 200.096 98.9338L205.033 101.777C205.813 102.227 206.771 101.898 207.197 101.022L214.708 85.5352C215.162 84.6034 214.829 83.4387 213.978 82.9888L208.828 80.2256C208.048 79.8079 207.111 80.1533 206.7 81.0208Z" fill="#0074FF"/>
<path d="M205.778 102.677C205.438 102.677 205.083 102.588 204.757 102.395L199.82 99.5518C199.281 99.2385 198.883 98.7084 198.699 98.0497C198.515 97.391 198.578 96.7002 198.862 96.0978L206.161 80.6991C206.729 79.5102 208.012 79.0283 209.091 79.6066L214.24 82.3699C214.794 82.6671 215.226 83.2213 215.411 83.88C215.595 84.5387 215.538 85.2697 215.24 85.8802L207.729 101.367C207.324 102.203 206.565 102.677 205.778 102.677ZM208.133 80.7392C207.771 80.7392 207.424 80.9561 207.239 81.3417L199.94 96.7404C199.813 97.0135 199.784 97.3268 199.869 97.624C199.954 97.9212 200.132 98.1622 200.38 98.3068L205.317 101.15C205.806 101.431 206.402 101.223 206.665 100.676L214.176 85.1894C214.311 84.9082 214.34 84.5869 214.254 84.2817C214.169 83.9764 213.978 83.7354 213.722 83.5989L208.573 80.8356C208.431 80.7794 208.282 80.7392 208.133 80.7392Z" fill="black"/>
<path d="M205.21 102.629C205.21 102.629 203.231 105.255 199.968 104.854C199.968 104.854 193.783 119.192 192.002 122.486C190.229 125.787 187.243 130.454 184.257 129.892C181.27 129.321 179.845 124.646 178.639 119.377C177.426 114.108 175.085 101.223 175.085 101.223C175.085 101.223 175.227 96.1464 177.362 95.7448C179.49 95.3432 186.037 95.9858 186.037 95.9858L187.491 105.368L188.172 109.746C188.172 109.746 195.783 101.054 195.783 99.9218C195.783 98.7892 195.925 87.7603 205.309 91.7927C205.309 91.7927 206.232 93.1583 204.742 93.5599C203.245 93.9615 201.692 91.4071 200.053 94.6202C199.195 96.3151 198.833 97.3835 198.656 97.8815C198.571 98.1225 199.053 98.6526 199.309 98.8213L205.21 102.629Z" fill="#B7824E"/>
<path d="M188.166 109.754C188.166 109.754 183.817 117.465 183.817 115.851C183.817 114.734 186.073 108.91 187.485 105.376L188.166 109.754Z" fill="#A06B3C"/>
<path d="M169.198 27.7802C173.636 27.7802 177.235 23.7055 177.235 18.6792C177.235 13.6528 173.636 9.57812 169.198 9.57812C164.759 9.57812 161.161 13.6528 161.161 18.6792C161.161 23.7055 164.759 27.7802 169.198 27.7802Z" fill="#242B29"/>
<path d="M158.955 50.8172C166.156 50.8172 171.993 43.9518 171.993 35.4828C171.993 27.0139 166.156 20.1484 158.955 20.1484C151.755 20.1484 145.918 27.0139 145.918 35.4828C145.918 43.9518 151.755 50.8172 158.955 50.8172Z" fill="#242B29"/>
<path d="M188.598 97.0219L177.036 98.8052C177.036 98.8052 176.071 105.312 175.745 107.497C175.426 109.689 174.014 119.73 174.269 121.192H151.245L136.264 77.6391C136.264 77.6391 142.257 68.9397 151.422 65.1241C151.507 65.084 151.592 65.0518 151.677 65.0117C151.677 65.0117 153.578 64.7466 153.692 63.2043C153.812 61.6621 153.515 55.0833 153.515 55.0833C153.515 55.0833 149.72 52.063 148.833 47.5647C148.833 47.5647 145.634 47.894 144.563 43.468C143.506 39.042 147.159 40.0541 147.982 41.8776C147.953 41.6446 147.712 39.781 148.294 38.9778C148.918 38.1263 151.089 34.6562 151.089 33.7967C151.089 33.7967 162.041 33.3469 166.169 29.8848C166.119 30.0454 165.211 32.5918 164.318 32.897C164.318 32.897 165.914 33.0978 166.978 30.8889C166.978 30.8889 167.112 34.5036 168.134 35.8852C169.148 37.2748 170.262 39.6284 169.375 41.8936C169.375 41.8936 170.304 42.2953 170.836 40.1345C170.836 40.1345 172.744 38.9778 173.276 41.2349C173.808 43.5002 171.368 47.0185 168.921 47.6209C168.921 47.6209 168.034 53.2036 164.523 55.4608C164.523 55.4608 163.991 63.2525 164.878 63.9112C165.077 64.0558 165.928 64.4896 167.183 65.1964C171.539 67.6303 180.731 73.3175 184.257 81.4787C188.804 91.9935 188.598 97.0219 188.598 97.0219Z" fill="#B7824E"/>
<path d="M188.598 97.0218L177.036 98.8051C177.036 98.8051 176.071 105.312 175.745 107.496C175.426 109.689 174.014 119.73 174.269 121.192H151.245L136.264 77.6389C136.264 77.6389 142.257 68.9395 151.422 65.124C152.259 66.1442 153.734 67.7828 154.912 68.305C156.678 69.1002 158.466 69.9918 159.012 72.5623C159.012 72.5623 159.551 69.1966 162.431 68.4094C164.63 67.8069 166.375 66.337 167.19 65.1963C171.546 67.6302 180.739 73.3174 184.264 81.4786C188.804 91.9933 188.598 97.0218 188.598 97.0218Z" fill="#00ACFA"/>
<path d="M158.955 56.9629C157.062 56.8504 155.196 56.1275 153.508 55.0752C153.614 55.1395 153.749 55.7017 153.806 55.8222C154.075 56.4327 154.409 57.0111 154.785 57.5332C157.721 61.6219 162.885 60.0635 164.524 55.4527C164.439 55.6857 163.453 55.9909 163.233 56.0873C162.736 56.3042 162.233 56.505 161.715 56.6496C160.807 56.9227 159.878 57.0191 158.955 56.9629Z" fill="#A06B3C"/>
<path d="M159.296 46.2717C158.962 46.2717 158.622 46.2557 158.324 46.2075C158.154 46.1834 158.005 46.0709 157.905 45.8942C157.409 45.0508 158.005 42.2715 158.132 41.7172C158.175 41.5325 158.345 41.42 158.508 41.4682C158.672 41.5164 158.771 41.7011 158.728 41.8939C158.345 43.5808 158.203 45.3078 158.43 45.5247C159.204 45.6452 160.466 45.5167 160.48 45.5167C160.636 45.5006 160.8 45.6372 160.814 45.8299C160.828 46.0227 160.707 46.1914 160.537 46.2075C160.495 46.2155 159.927 46.2717 159.296 46.2717Z" fill="#844618"/>
<path d="M155.345 47.4844H162.665C162.665 47.4844 161.232 50.6492 158.884 50.4484C156.536 50.2476 155.345 47.4844 155.345 47.4844Z" fill="white"/>
<path d="M150.72 37.7007C150.606 37.7007 150.5 37.6685 150.394 37.5962C150.11 37.3954 150.018 36.9697 150.195 36.6484C150.216 36.6082 152.259 32.9694 156.572 35.5238C156.87 35.7005 156.983 36.1182 156.827 36.4556C156.671 36.793 156.302 36.9295 156.004 36.7448C152.727 34.8008 151.294 37.2669 151.231 37.3713C151.124 37.5882 150.926 37.7007 150.72 37.7007Z" fill="#242B29"/>
<path d="M166.914 37.2344C166.729 37.2344 166.545 37.138 166.424 36.9533C164.935 34.7042 161.629 35.9492 161.594 35.9572C161.275 36.0777 160.927 35.885 160.821 35.5235C160.714 35.162 160.885 34.7684 161.204 34.6399C161.374 34.5756 165.382 33.0575 167.41 36.1099C167.616 36.4151 167.559 36.8489 167.29 37.0818C167.169 37.1862 167.042 37.2344 166.914 37.2344Z" fill="#242B29"/>
<path d="M153.862 41.8045C154.434 41.8045 154.897 41.2795 154.897 40.6318C154.897 39.9841 154.434 39.459 153.862 39.459C153.29 39.459 152.826 39.9841 152.826 40.6318C152.826 41.2795 153.29 41.8045 153.862 41.8045Z" fill="#242B29"/>
<path d="M163.466 41.8045C164.038 41.8045 164.502 41.2795 164.502 40.6318C164.502 39.9841 164.038 39.459 163.466 39.459C162.894 39.459 162.431 39.9841 162.431 40.6318C162.431 41.2795 162.894 41.8045 163.466 41.8045Z" fill="#242B29"/>
<path d="M147.755 45.1467C147.62 45.1467 147.492 45.0422 147.457 44.8896C146.996 42.8654 145.797 43.0582 145.783 43.0662C145.612 43.0984 145.456 42.9698 145.435 42.7771C145.407 42.5843 145.52 42.4076 145.69 42.3835C145.712 42.3754 147.457 42.0943 148.052 44.7209C148.095 44.9057 147.996 45.0985 147.833 45.1467C147.804 45.1386 147.783 45.1467 147.755 45.1467Z" fill="#844618"/>
<path d="M169.517 45.1467C169.467 45.1467 169.418 45.1306 169.368 45.1065C169.219 45.0101 169.17 44.8013 169.248 44.6326C169.404 44.3193 170.78 41.6042 172.149 42.0541C172.312 42.1103 172.404 42.2951 172.362 42.4798C172.319 42.6646 172.149 42.769 171.986 42.7208C171.305 42.4959 170.276 43.9819 169.787 44.978C169.73 45.0824 169.631 45.1467 169.517 45.1467Z" fill="#844618"/>
<path d="M153.252 46.5766C150.698 46.5766 148.62 44.223 148.62 41.3313C148.62 38.4395 150.698 36.0859 153.252 36.0859C155.806 36.0859 157.884 38.4395 157.884 41.3313C157.884 44.223 155.806 46.5766 153.252 46.5766ZM153.252 36.7767C151.032 36.7767 149.23 38.817 149.23 41.3313C149.23 43.8455 151.032 45.8858 153.252 45.8858C155.472 45.8858 157.274 43.8455 157.274 41.3313C157.274 38.817 155.472 36.7767 153.252 36.7767Z" fill="white"/>
<path d="M164.154 46.311C161.601 46.311 159.522 43.9574 159.522 41.0657C159.522 38.1739 161.601 35.8203 164.154 35.8203C166.708 35.8203 168.786 38.1739 168.786 41.0657C168.786 43.9574 166.708 46.311 164.154 46.311ZM164.154 36.5031C161.934 36.5031 160.132 38.5434 160.132 41.0576C160.132 43.5719 161.934 45.6122 164.154 45.6122C166.375 45.6122 168.176 43.5719 168.176 41.0576C168.176 38.5514 166.375 36.5031 164.154 36.5031Z" fill="white"/>
<path d="M159.821 40.9854H157.579V41.6762H159.821V40.9854Z" fill="white"/>
<path d="M134.001 164.473H79.1348V180.257H134.001V164.473Z" fill="#022E42"/>
<path d="M97.3353 8.13237C97.3353 8.13237 101.35 -0.719638 109.387 2.47737C117.424 5.67437 121.658 9.24088 120.247 19.3219C118.835 29.4029 118.183 31.3709 118.183 31.3709L90.7102 30.5114C90.7102 30.5114 90.3839 23.8684 89.8448 22.1494C89.3057 20.4304 85.603 6.66239 97.3353 8.13237Z" fill="#242B29"/>
<path d="M11.3369 64.5455C11.6632 64.2724 12.1313 64.3447 12.3796 64.7142L16.8342 71.2447C17.0257 71.5179 17.3732 71.5741 17.6144 71.3572C17.8201 71.1724 17.884 70.8592 17.7705 70.5941L14.1387 62.0152C13.9259 61.469 14.1103 60.8264 14.5714 60.5372C15.0537 60.2319 15.6567 60.4167 15.9404 60.9468L20.1325 68.7948C20.3099 69.1321 20.6929 69.2607 21.005 69.092L21.0476 69.0679C21.3597 68.8992 21.5086 68.5056 21.4093 68.1361L18.5082 57.7418C18.3592 57.2036 18.5862 56.6253 19.0473 56.4003C19.5296 56.1594 20.0971 56.4003 20.3241 56.9466L24.275 66.5938C24.4523 67.0195 24.9134 67.1722 25.261 66.9151C25.4738 66.7545 25.5944 66.4814 25.566 66.1922L24.7148 57.1152C24.658 56.5048 25.0836 55.9746 25.6227 55.9746C26.0483 55.9746 26.4172 56.3039 26.5094 56.7698C27.1052 59.6937 29.1623 69.7507 29.5595 71.7508C30.0277 74.0963 31.2832 66.2163 33.7445 65.4692C37.277 64.4009 32.638 74.2409 32.5032 75.4539C32.3684 76.6668 31.0987 82.0487 30.1624 84.097L50.9812 111.464L56.9395 102.749L74.1975 117.457C74.1975 117.457 61.2097 136.526 55.5989 138.39C49.9881 140.262 46.3564 137.265 42.5047 130.164C38.6531 123.064 22.2534 88.6676 22.2534 88.6676C22.2534 88.6676 14.9899 81.4382 14.5501 72.9637L11.117 65.6379C10.9396 65.2604 11.0319 64.7945 11.3369 64.5455Z" fill="#F4A99D"/>
<path d="M23.4667 81.2859C23.3035 81.2859 23.1688 81.1413 23.1617 80.9485C23.1617 80.8682 22.9772 73.0845 29.5172 72.0242C29.6804 71.9921 29.8364 72.1286 29.8648 72.3214C29.8861 72.5142 29.7726 72.6829 29.6024 72.715C23.6156 73.687 23.7646 80.6272 23.7717 80.9244C23.7788 81.1172 23.644 81.2779 23.4738 81.2859C23.4738 81.2779 23.4667 81.2859 23.4667 81.2859Z" fill="#C45853"/>
<path d="M155.579 117.176L137.91 120.879L136.597 166.392L77.8153 166.986L76.9003 116.581L74.29 119.843C74.29 119.843 57.1384 108.131 54.9111 101.158C54.9111 101.158 64.2104 72.1043 89.9945 64.5375C89.9945 64.5375 95.4918 63.6539 95.4918 60.979C95.4918 60.5533 95.4989 59.8785 95.5131 59.0351C95.5769 54.6091 95.7614 45.7089 95.7614 45.7089C95.7614 45.7089 92.8389 40.8812 92.5694 37.9975C92.5694 37.9975 89.7533 40.2788 87.6041 37.0818C85.4477 33.8848 85.9726 28.3583 90.718 30.511C90.718 30.511 91.7678 31.3786 91.6969 29.4025C91.6331 27.4265 89.8314 16.1486 95.96 11.8672C95.96 11.8672 100.493 19.3215 109.714 18.4942C118.935 17.6588 118.488 25.5388 117.836 28.6876C117.176 31.8364 118.531 29.9006 118.531 29.9006C118.531 29.9006 121.191 28.3984 122.581 30.4869C123.978 32.5754 123.539 39.7808 117.098 38.2064C117.098 38.2064 116.367 43.9256 114.395 46.239C114.395 46.239 114.374 46.6728 114.346 47.4118C114.296 48.6649 114.225 50.7855 114.183 53.0186C114.119 56.9305 114.154 61.1718 114.615 61.7341C114.906 62.0875 117.304 63.1237 120.652 64.7945C127.461 68.2004 138.186 74.2249 143.01 82.4745C150.209 94.7886 154.402 106.645 155.579 117.176Z" fill="#F4A79C"/>
<path d="M114.395 46.2471C114.395 46.2471 114.373 46.6808 114.345 47.4198C114.345 47.4198 104.826 66.1601 97.1084 47.4359C97.3992 47.8375 104.762 57.9587 114.395 46.2471Z" fill="#C9827B"/>
<path d="M155.579 117.175L137.91 120.878L136.597 166.392L77.8153 166.986L76.9003 116.581L74.29 119.842C74.29 119.842 57.1384 108.13 54.9111 101.158C54.9111 101.158 64.2104 72.1039 89.9945 64.5371L103.004 74.9475C104.358 76.0319 106.153 76.0399 107.515 74.9876L120.659 64.7942C127.468 68.2 138.193 74.2245 143.017 82.4741C150.209 94.7882 154.402 106.644 155.579 117.175Z" fill="#00FED4"/>
<path d="M135.164 121.193L136.264 180.257H148.812L151.933 117.939L135.164 121.193Z" fill="#F4A89C"/>
<path d="M93.7612 25.1691C93.669 25.1691 93.5768 25.145 93.4917 25.0968C93.1867 24.9281 93.0661 24.5104 93.215 24.1731C93.2363 24.1168 95.719 18.5984 101.791 21.0082C102.11 21.1367 102.28 21.5303 102.167 21.8918C102.053 22.2533 101.706 22.438 101.386 22.3175C96.3574 20.3174 94.3925 24.6068 94.3145 24.7835C94.201 25.0325 93.9882 25.1691 93.7612 25.1691Z" fill="#242B29"/>
<path d="M114.821 25.1692C114.601 25.1692 114.388 25.0327 114.281 24.7997C112.43 20.8235 107.756 22.4943 107.557 22.5666C107.238 22.6871 106.89 22.4863 106.784 22.1248C106.677 21.7634 106.855 21.3698 107.174 21.2493C109.188 20.5022 113.494 20.1408 115.367 24.1491C115.523 24.4864 115.409 24.9041 115.111 25.0889C115.012 25.1451 114.913 25.1692 114.821 25.1692Z" fill="#242B29"/>
<path d="M105.074 40.6879C102.237 40.6879 100.159 38.4227 100.13 38.3906C100.01 38.2541 100.01 38.0372 100.123 37.9006C100.244 37.7641 100.435 37.7641 100.556 37.8926C100.733 38.0854 104.869 42.5676 109.345 37.8845C109.465 37.756 109.664 37.7641 109.777 37.9006C109.891 38.0452 109.884 38.2621 109.763 38.3906C108.117 40.1096 106.5 40.6879 105.074 40.6879Z" fill="#C45853"/>
<path d="M105.046 36.9613C104.677 36.9613 104.379 36.8408 104.145 36.5918C102.847 35.2342 104.478 30.5432 104.67 30.013C104.733 29.8363 104.911 29.7479 105.067 29.8202C105.223 29.8925 105.301 30.0933 105.237 30.27C104.577 32.1015 103.818 35.2985 104.563 36.0777C104.946 36.4793 105.776 36.15 106.4 35.7965C106.549 35.7082 106.734 35.7805 106.812 35.9492C106.89 36.1178 106.826 36.3267 106.677 36.4151C106.032 36.7846 105.492 36.9613 105.046 36.9613Z" fill="#C45853"/>
<path d="M117.694 35.5156C117.651 35.5156 117.601 35.5076 117.559 35.4755C117.41 35.3871 117.346 35.1783 117.424 35.0096C118.062 33.5637 119.843 31.1057 122.021 32.1258C122.177 32.1981 122.248 32.399 122.184 32.5757C122.12 32.7524 121.943 32.8327 121.786 32.7604C119.595 31.7322 117.984 35.2827 117.97 35.3148C117.914 35.4433 117.807 35.5156 117.694 35.5156Z" fill="#C45853"/>
<path d="M92.2926 36.3348C92.1437 36.3348 92.016 36.2143 91.9876 36.0456C91.6188 33.4832 88.2211 32.5755 88.1856 32.5675C88.0225 32.5273 87.9161 32.3425 87.9586 32.1498C87.9941 31.965 88.1572 31.8445 88.3275 31.8847C88.4835 31.9248 92.1649 32.9048 92.5976 35.9251C92.626 36.1179 92.5125 36.2946 92.3423 36.3268C92.3281 36.3348 92.3068 36.3348 92.2926 36.3348Z" fill="#C45853"/>
<path d="M99.0525 30.5277C99.7772 30.5277 100.365 29.8624 100.365 29.0417C100.365 28.221 99.7772 27.5557 99.0525 27.5557C98.3278 27.5557 97.7402 28.221 97.7402 29.0417C97.7402 29.8624 98.3278 30.5277 99.0525 30.5277Z" fill="#242B29"/>
<path d="M110.203 30.5277C110.928 30.5277 111.515 29.8624 111.515 29.0417C111.515 28.221 110.928 27.5557 110.203 27.5557C109.478 27.5557 108.891 28.221 108.891 29.0417C108.891 29.8624 109.478 30.5277 110.203 30.5277Z" fill="#242B29"/>
<path d="M97.7403 36.7851C94.3852 36.7851 91.6543 33.6925 91.6543 29.893C91.6543 26.0936 94.3852 23.001 97.7403 23.001C101.095 23.001 103.826 26.0936 103.826 29.893C103.826 33.6845 101.095 36.7851 97.7403 36.7851ZM97.7403 24.0292C94.8888 24.0292 92.5693 26.6558 92.5693 29.885C92.5693 33.1141 94.8888 35.7408 97.7403 35.7408C100.592 35.7408 102.911 33.1141 102.911 29.885C102.911 26.6558 100.592 24.0292 97.7403 24.0292Z" fill="white"/>
<path d="M111.516 36.7851C108.161 36.7851 105.43 33.6925 105.43 29.893C105.43 26.0936 108.161 23.001 111.516 23.001C114.871 23.001 117.602 26.0936 117.602 29.893C117.609 33.6845 114.878 36.7851 111.516 36.7851ZM111.516 24.0292C108.664 24.0292 106.345 26.6558 106.345 29.885C106.345 33.1141 108.664 35.7408 111.516 35.7408C114.367 35.7408 116.687 33.1141 116.687 29.885C116.687 26.6558 114.367 24.0292 111.516 24.0292Z" fill="white"/>
<path d="M105.883 29.3623H103.365V30.3985H105.883V29.3623Z" fill="white"/>
<path d="M118.112 108.862C115.686 108.862 113.424 107.77 111.742 105.794C110.061 103.81 109.189 101.207 109.281 98.46L109.614 88.7324H126.95V98.8536C126.95 104.372 122.985 108.862 118.112 108.862ZM110.792 90.1221L110.501 98.5163C110.416 100.878 111.175 103.127 112.622 104.83C114.069 106.533 116.02 107.473 118.112 107.473C122.311 107.473 125.73 103.601 125.73 98.8456V90.114H110.792V90.1221Z" fill="#0B3C89"/>
<path d="M135.626 91.374L134.549 121.165L135.774 121.223L136.852 91.4325L135.626 91.374Z" fill="#0B3C89"/>
<path d="M75.9784 90.5844L74.7549 90.6777L76.2708 116.639L77.4943 116.546L75.9784 90.5844Z" fill="#0B3C89"/>
</svg>
