<svg width="374" height="217" viewBox="0 0 374 217" fill="none" xmlns="http://www.w3.org/2000/svg">
<ellipse cx="235.597" cy="108.5" rx="107.578" ry="108.5" fill="#00E6C0"/>
<path d="M147.423 96.3809V134.379C147.423 134.864 147.616 135.328 147.957 135.67C148.299 136.013 148.763 136.205 149.247 136.206H205.481C205.965 136.205 206.429 136.013 206.77 135.67C207.112 135.328 207.305 134.864 207.305 134.379V96.3809C207.304 95.8971 207.111 95.4334 206.77 95.0915C206.428 94.7496 205.964 94.5573 205.481 94.5566H149.247C148.764 94.5573 148.3 94.7496 147.958 95.0915C147.617 95.4334 147.424 95.8971 147.423 96.3809V96.3809Z" fill="#3F3D56"/>
<path d="M148.742 96.854V133.911C148.743 134.17 148.845 134.418 149.028 134.601C149.211 134.784 149.459 134.887 149.717 134.887H205.013C205.272 134.887 205.519 134.784 205.702 134.601C205.885 134.418 205.988 134.17 205.988 133.911V96.854C205.988 96.595 205.885 96.3466 205.703 96.1632C205.52 95.9798 205.272 95.8765 205.013 95.876H149.717C149.458 95.8765 149.21 95.9798 149.028 96.1632C148.845 96.3466 148.742 96.595 148.742 96.854V96.854Z" fill="#00ACFA"/>
<path d="M146.247 141.791C146.35 141.92 146.481 142.024 146.63 142.096C146.779 142.167 146.942 142.204 147.108 142.203H207.322C207.486 142.203 207.649 142.166 207.798 142.095C207.946 142.024 208.077 141.921 208.181 141.793C208.285 141.664 208.359 141.515 208.397 141.355C208.436 141.194 208.439 141.027 208.405 140.866L207.47 136.42C207.431 136.239 207.348 136.07 207.227 135.929C207.107 135.789 206.953 135.68 206.78 135.614C206.655 135.565 206.522 135.54 206.387 135.54H148.039C147.904 135.54 147.771 135.565 147.646 135.614C147.473 135.68 147.319 135.789 147.198 135.929C147.078 136.07 146.994 136.239 146.956 136.42L146.021 140.866C145.988 141.027 145.991 141.194 146.03 141.354C146.069 141.514 146.143 141.663 146.247 141.791V141.791Z" fill="#2F2E41"/>
<path d="M204.321 137.454H205.743C205.862 137.454 205.959 137.357 205.959 137.238V136.556C205.959 136.437 205.862 136.34 205.743 136.34H204.321C204.201 136.34 204.104 136.437 204.104 136.556V137.238C204.104 137.357 204.201 137.454 204.321 137.454Z" fill="#3F3D56"/>
<path d="M200.612 137.454H202.034C202.153 137.454 202.25 137.357 202.25 137.238V136.556C202.25 136.437 202.153 136.34 202.034 136.34H200.612C200.492 136.34 200.395 136.437 200.395 136.556V137.238C200.395 137.357 200.492 137.454 200.612 137.454Z" fill="#3F3D56"/>
<path d="M196.903 137.454H198.325C198.444 137.454 198.541 137.357 198.541 137.238V136.556C198.541 136.437 198.444 136.34 198.325 136.34H196.903C196.783 136.34 196.686 136.437 196.686 136.556V137.238C196.686 137.357 196.783 137.454 196.903 137.454Z" fill="#3F3D56"/>
<path d="M193.194 137.454H194.616C194.735 137.454 194.832 137.357 194.832 137.238V136.556C194.832 136.437 194.735 136.34 194.616 136.34H193.194C193.074 136.34 192.977 136.437 192.977 136.556V137.238C192.977 137.357 193.074 137.454 193.194 137.454Z" fill="#3F3D56"/>
<path d="M189.485 137.454H190.907C191.026 137.454 191.123 137.357 191.123 137.238V136.556C191.123 136.437 191.026 136.34 190.907 136.34H189.485C189.365 136.34 189.268 136.437 189.268 136.556V137.238C189.268 137.357 189.365 137.454 189.485 137.454Z" fill="#3F3D56"/>
<path d="M185.775 137.454H187.197C187.316 137.454 187.413 137.357 187.413 137.238V136.556C187.413 136.437 187.316 136.34 187.197 136.34H185.775C185.655 136.34 185.559 136.437 185.559 136.556V137.238C185.559 137.357 185.655 137.454 185.775 137.454Z" fill="#3F3D56"/>
<path d="M182.066 137.454H183.488C183.607 137.454 183.704 137.357 183.704 137.238V136.556C183.704 136.437 183.607 136.34 183.488 136.34H182.066C181.946 136.34 181.85 136.437 181.85 136.556V137.238C181.85 137.357 181.946 137.454 182.066 137.454Z" fill="#3F3D56"/>
<path d="M178.357 137.454H179.779C179.898 137.454 179.995 137.357 179.995 137.238V136.556C179.995 136.437 179.898 136.34 179.779 136.34H178.357C178.237 136.34 178.141 136.437 178.141 136.556V137.238C178.141 137.357 178.237 137.454 178.357 137.454Z" fill="#3F3D56"/>
<path d="M174.648 137.454H176.07C176.189 137.454 176.286 137.357 176.286 137.238V136.556C176.286 136.437 176.189 136.34 176.07 136.34H174.648C174.528 136.34 174.432 136.437 174.432 136.556V137.238C174.432 137.357 174.528 137.454 174.648 137.454Z" fill="#3F3D56"/>
<path d="M170.939 137.454H172.361C172.48 137.454 172.577 137.357 172.577 137.238V136.556C172.577 136.437 172.48 136.34 172.361 136.34H170.939C170.819 136.34 170.723 136.437 170.723 136.556V137.238C170.723 137.357 170.819 137.454 170.939 137.454Z" fill="#3F3D56"/>
<path d="M167.23 137.454H168.652C168.771 137.454 168.868 137.357 168.868 137.238V136.556C168.868 136.437 168.771 136.34 168.652 136.34H167.23C167.11 136.34 167.014 136.437 167.014 136.556V137.238C167.014 137.357 167.11 137.454 167.23 137.454Z" fill="#3F3D56"/>
<path d="M163.521 137.454H164.943C165.062 137.454 165.159 137.357 165.159 137.238V136.556C165.159 136.437 165.062 136.34 164.943 136.34H163.521C163.401 136.34 163.305 136.437 163.305 136.556V137.238C163.305 137.357 163.401 137.454 163.521 137.454Z" fill="#3F3D56"/>
<path d="M159.811 137.454H161.233C161.352 137.454 161.449 137.357 161.449 137.238V136.556C161.449 136.437 161.352 136.34 161.233 136.34H159.811C159.691 136.34 159.595 136.437 159.595 136.556V137.238C159.595 137.357 159.691 137.454 159.811 137.454Z" fill="#3F3D56"/>
<path d="M156.102 137.454H157.524C157.643 137.454 157.74 137.357 157.74 137.238V136.556C157.74 136.437 157.643 136.34 157.524 136.34H156.102C155.982 136.34 155.886 136.437 155.886 136.556V137.238C155.886 137.357 155.982 137.454 156.102 137.454Z" fill="#3F3D56"/>
<path d="M152.393 137.454H153.815C153.934 137.454 154.031 137.357 154.031 137.238V136.556C154.031 136.437 153.934 136.34 153.815 136.34H152.393C152.273 136.34 152.177 136.437 152.177 136.556V137.238C152.177 137.357 152.273 137.454 152.393 137.454Z" fill="#3F3D56"/>
<path d="M148.684 137.454H150.106C150.225 137.454 150.322 137.357 150.322 137.238V136.556C150.322 136.437 150.225 136.34 150.106 136.34H148.684C148.564 136.34 148.468 136.437 148.468 136.556V137.238C148.468 137.357 148.564 137.454 148.684 137.454Z" fill="#3F3D56"/>
<path d="M204.365 139.312H205.787C205.906 139.312 206.003 139.215 206.003 139.095V138.414C206.003 138.294 205.906 138.197 205.787 138.197H204.365C204.245 138.197 204.148 138.294 204.148 138.414V139.095C204.148 139.215 204.245 139.312 204.365 139.312Z" fill="#3F3D56"/>
<path d="M200.656 139.312H202.078C202.197 139.312 202.294 139.215 202.294 139.095V138.414C202.294 138.294 202.197 138.197 202.078 138.197H200.656C200.536 138.197 200.439 138.294 200.439 138.414V139.095C200.439 139.215 200.536 139.312 200.656 139.312Z" fill="#3F3D56"/>
<path d="M196.947 139.312H198.369C198.488 139.312 198.585 139.215 198.585 139.095V138.414C198.585 138.294 198.488 138.197 198.369 138.197H196.947C196.827 138.197 196.73 138.294 196.73 138.414V139.095C196.73 139.215 196.827 139.312 196.947 139.312Z" fill="#3F3D56"/>
<path d="M193.238 139.312H194.66C194.779 139.312 194.876 139.215 194.876 139.095V138.414C194.876 138.294 194.779 138.197 194.66 138.197H193.238C193.118 138.197 193.021 138.294 193.021 138.414V139.095C193.021 139.215 193.118 139.312 193.238 139.312Z" fill="#3F3D56"/>
<path d="M189.529 139.312H190.951C191.07 139.312 191.167 139.215 191.167 139.095V138.414C191.167 138.294 191.07 138.197 190.951 138.197H189.529C189.409 138.197 189.312 138.294 189.312 138.414V139.095C189.312 139.215 189.409 139.312 189.529 139.312Z" fill="#3F3D56"/>
<path d="M185.819 139.312H187.241C187.36 139.312 187.457 139.215 187.457 139.095V138.414C187.457 138.294 187.36 138.197 187.241 138.197H185.819C185.699 138.197 185.602 138.294 185.602 138.414V139.095C185.602 139.215 185.699 139.312 185.819 139.312Z" fill="#3F3D56"/>
<path d="M182.11 139.312H183.532C183.651 139.312 183.748 139.215 183.748 139.095V138.414C183.748 138.294 183.651 138.197 183.532 138.197H182.11C181.99 138.197 181.893 138.294 181.893 138.414V139.095C181.893 139.215 181.99 139.312 182.11 139.312Z" fill="#3F3D56"/>
<path d="M178.401 139.312H179.823C179.942 139.312 180.039 139.215 180.039 139.095V138.414C180.039 138.294 179.942 138.197 179.823 138.197H178.401C178.281 138.197 178.185 138.294 178.185 138.414V139.095C178.185 139.215 178.281 139.312 178.401 139.312Z" fill="#3F3D56"/>
<path d="M174.692 139.312H176.114C176.233 139.312 176.33 139.215 176.33 139.095V138.414C176.33 138.294 176.233 138.197 176.114 138.197H174.692C174.572 138.197 174.476 138.294 174.476 138.414V139.095C174.476 139.215 174.572 139.312 174.692 139.312Z" fill="#3F3D56"/>
<path d="M170.983 139.312H172.405C172.524 139.312 172.621 139.215 172.621 139.095V138.414C172.621 138.294 172.524 138.197 172.405 138.197H170.983C170.863 138.197 170.767 138.294 170.767 138.414V139.095C170.767 139.215 170.863 139.312 170.983 139.312Z" fill="#3F3D56"/>
<path d="M167.274 139.312H168.696C168.815 139.312 168.912 139.215 168.912 139.095V138.414C168.912 138.294 168.815 138.197 168.696 138.197H167.274C167.154 138.197 167.058 138.294 167.058 138.414V139.095C167.058 139.215 167.154 139.312 167.274 139.312Z" fill="#3F3D56"/>
<path d="M163.564 139.312H164.986C165.105 139.312 165.202 139.215 165.202 139.095V138.414C165.202 138.294 165.105 138.197 164.986 138.197H163.564C163.444 138.197 163.348 138.294 163.348 138.414V139.095C163.348 139.215 163.444 139.312 163.564 139.312Z" fill="#3F3D56"/>
<path d="M159.855 139.312H161.277C161.396 139.312 161.493 139.215 161.493 139.095V138.414C161.493 138.294 161.396 138.197 161.277 138.197H159.855C159.735 138.197 159.639 138.294 159.639 138.414V139.095C159.639 139.215 159.735 139.312 159.855 139.312Z" fill="#3F3D56"/>
<path d="M156.146 139.312H157.568C157.687 139.312 157.784 139.215 157.784 139.095V138.414C157.784 138.294 157.687 138.197 157.568 138.197H156.146C156.026 138.197 155.93 138.294 155.93 138.414V139.095C155.93 139.215 156.026 139.312 156.146 139.312Z" fill="#3F3D56"/>
<path d="M152.437 139.312H153.859C153.978 139.312 154.075 139.215 154.075 139.095V138.414C154.075 138.294 153.978 138.197 153.859 138.197H152.437C152.317 138.197 152.221 138.294 152.221 138.414V139.095C152.221 139.215 152.317 139.312 152.437 139.312Z" fill="#3F3D56"/>
<path d="M148.728 139.312H150.15C150.269 139.312 150.366 139.215 150.366 139.095V138.414C150.366 138.294 150.269 138.197 150.15 138.197H148.728C148.608 138.197 148.512 138.294 148.512 138.414V139.095C148.512 139.215 148.608 139.312 148.728 139.312Z" fill="#3F3D56"/>
<path d="M173.579 141.54H187.983C188.102 141.54 188.199 141.443 188.199 141.324V140.642C188.199 140.523 188.102 140.426 187.983 140.426H173.579C173.459 140.426 173.363 140.523 173.363 140.642V141.324C173.363 141.443 173.459 141.54 173.579 141.54Z" fill="#3F3D56"/>
<path d="M177.482 129.179C184.818 129.179 190.765 123.224 190.765 115.878C190.765 108.532 184.818 102.577 177.482 102.577C170.145 102.577 164.198 108.532 164.198 115.878C164.198 123.224 170.145 129.179 177.482 129.179Z" fill="white"/>
<path d="M174.5 121.154C174.326 121.158 174.155 121.118 174.001 121.037C173.837 120.954 173.698 120.827 173.6 120.671C173.503 120.515 173.449 120.335 173.446 120.15L173.227 111.659C173.222 111.475 173.267 111.293 173.356 111.132C173.446 110.971 173.577 110.837 173.736 110.745C173.895 110.652 174.076 110.603 174.259 110.605C174.443 110.606 174.624 110.656 174.781 110.751L182.935 114.789C183.083 114.878 183.206 115.003 183.294 115.152C183.381 115.302 183.429 115.471 183.433 115.644C183.438 115.817 183.398 115.988 183.319 116.142C183.24 116.296 183.123 116.427 182.979 116.524L175.045 120.977C174.884 121.087 174.695 121.148 174.5 121.154Z" fill="#00ACFA"/>
<path d="M226.934 174.142L222.701 172.252L227.977 154.605L234.224 157.395L226.934 174.142Z" fill="#FFB8B8"/>
<path d="M228.193 171.25L223.613 169.2L222.895 168.878L221.836 171.693L213.974 173.647C213.586 173.744 213.238 173.962 212.982 174.27C212.726 174.578 212.575 174.961 212.551 175.361C212.527 175.761 212.632 176.159 212.85 176.495C213.068 176.831 213.388 177.089 213.763 177.231L221.574 180.181L223.968 177.906L223.445 180.888L226.387 182L229.306 171.749L228.193 171.25Z" fill="#2F2E41"/>
<path d="M234.703 111.206C235.233 111.572 235.837 111.817 236.472 111.924C237.107 112.031 237.758 111.998 238.379 111.826C238.999 111.654 239.575 111.348 240.064 110.929C240.554 110.51 240.946 109.989 241.213 109.403L256.798 110.862L252.972 103.675L238.759 103.39C237.744 103.007 236.625 103.009 235.612 103.397C234.6 103.785 233.764 104.531 233.264 105.494C232.765 106.458 232.635 107.571 232.9 108.624C233.165 109.676 233.807 110.595 234.703 111.206L234.703 111.206Z" fill="#FFB6B6"/>
<path d="M250.506 110.714L272.072 113.135L272.147 113.04C272.289 112.857 286.4 94.7698 288.771 90.464C290.23 87.8771 290.761 84.8685 290.277 81.9375L290.261 81.8659L290.205 81.8184C289.055 80.8536 287.611 80.3099 286.112 80.277C284.612 80.2441 283.146 80.7238 281.955 81.6372C276.229 86.0778 271.612 91.7902 268.469 98.3235L266.685 102.042L250.506 103.64V110.714Z" fill="#00ACFA"/>
<path d="M298.862 121.966L299.485 123.374C299.679 124.669 300.435 123.38 300.368 124.479C303.577 127.126 294.782 144.816 288.173 144.096C285.109 145.06 281.497 145.454 277.722 145.48C277.355 145.483 276.987 145.483 276.617 145.479C276.382 145.476 275.658 144.601 275.422 144.596C274.712 144.58 274.485 145.423 273.77 145.385C273.205 145.355 272.164 145.838 272.073 145.277C271.877 144.069 271.511 144.343 271.08 145.198C270.781 145.79 269.76 145.077 269.105 145.006C265.32 144.599 261.657 143.978 258.491 143.34C257.312 143.106 256.204 142.867 255.184 142.635C253.252 142.2 251.636 141.793 250.466 141.483C249.148 141.139 248.398 140.915 248.398 140.915L238.996 148.575L231.711 164.491C231.15 164.542 225.088 162.943 225.088 162.943C224.441 162.354 223.986 161.583 223.782 160.732C223.577 159.88 223.632 158.987 223.939 158.167C224.31 157.055 226.937 148.834 229.686 141.656C230.5 139.525 231.344 137.363 232.211 135.212C232.922 133.446 233.646 131.686 234.379 129.951C235.653 126.942 241.808 125.32 249.056 124.469C249.424 124.427 249.795 124.385 250.168 124.345C253.862 123.956 257.78 123.754 261.445 123.662C263.28 123.615 265.05 123.598 266.697 123.595C267.229 123.595 267.746 123.597 268.249 123.6H268.251C269.609 123.606 270.858 123.626 271.958 123.648C272.172 123.653 272.379 123.659 272.583 123.664H272.585C272.722 123.666 272.856 123.671 272.989 123.673C275.393 123.735 276.868 123.81 276.868 123.81L276.747 119.616L277.556 118.411L277.667 117.549V117.547L277.68 117.439L277.77 117.437L279.36 117.406L292.721 117.145L298.411 116.903L298.862 121.966Z" fill="#2F2E41"/>
<path d="M278.547 150.759L277.071 155.158L259.026 151.579L261.205 145.086L278.547 150.759Z" fill="#FFB8B8"/>
<path d="M275.551 149.78L273.949 154.54L273.697 155.287L276.597 156.074L279.287 163.725C279.42 164.103 279.67 164.429 280.001 164.655C280.332 164.881 280.726 164.995 281.126 164.981C281.526 164.966 281.911 164.824 282.225 164.575C282.539 164.325 282.765 163.982 282.87 163.595L285.06 155.528L282.57 153.359L285.585 153.596L286.41 150.558L275.942 148.623L275.551 149.78Z" fill="#2F2E41"/>
<path d="M266.819 145.992C266.614 146.569 267.218 145.775 267 146.347C266.159 148.567 264.595 152.349 264.288 152.96C264.169 152.936 241.478 149.775 238.418 148.884L243.136 136.905L243.666 135.562L251.481 138.353L254.158 140.645L260.003 141.395L266.819 145.992Z" fill="#2F2E41"/>
<path d="M281.506 69.0783C287.435 69.0783 292.241 64.2658 292.241 58.3292C292.241 52.3926 287.435 47.5801 281.506 47.5801C275.578 47.5801 270.771 52.3926 270.771 58.3292C270.771 64.2658 275.578 69.0783 281.506 69.0783Z" fill="#FFB6B6"/>
<path d="M240.804 115.525C241.593 116.021 240.049 117.214 239.118 117.214C238.671 117.214 238.242 117.036 237.926 116.719C237.609 116.403 237.432 115.973 237.432 115.525C237.432 114.593 238.476 112.377 238.907 113.204C239.025 113.43 239.775 114.878 240.804 115.525Z" fill="#00ACFA"/>
<path d="M243.544 115.525C244.333 116.021 242.789 117.214 241.858 117.214C241.411 117.214 240.982 117.036 240.666 116.719C240.35 116.403 240.172 115.973 240.172 115.525C240.172 114.593 241.217 112.377 241.647 113.204C241.765 113.43 242.515 114.878 243.544 115.525Z" fill="#00ACFA"/>
<path d="M242.234 115.146C241.342 114.879 242.512 113.317 243.41 113.069C243.841 112.95 244.302 113.007 244.691 113.227C245.08 113.448 245.365 113.815 245.485 114.247C245.733 115.145 245.315 117.56 244.68 116.878C244.507 116.692 243.398 115.495 242.234 115.146Z" fill="#00ACFA"/>
<path d="M252.818 115.525C253.607 116.021 252.063 117.214 251.132 117.214C250.684 117.214 250.255 117.036 249.939 116.719C249.623 116.403 249.445 115.973 249.445 115.525C249.445 114.593 250.49 112.377 250.921 113.204C251.038 113.43 251.789 114.878 252.818 115.525Z" fill="#00ACFA"/>
<path d="M255.558 115.525C256.347 116.021 254.803 117.214 253.872 117.214C253.425 117.214 252.996 117.036 252.679 116.719C252.363 116.403 252.186 115.973 252.186 115.525C252.186 114.593 253.23 112.377 253.661 113.204C253.779 113.43 254.529 114.878 255.558 115.525Z" fill="#00ACFA"/>
<path d="M254.249 115.146C253.356 114.879 254.527 113.317 255.425 113.069C255.856 112.95 256.316 113.007 256.705 113.227C257.095 113.448 257.38 113.815 257.499 114.247C257.747 115.145 257.33 117.56 256.695 116.878C256.521 116.692 255.413 115.495 254.249 115.146Z" fill="#00ACFA"/>
<path d="M234.857 115.146C233.965 114.879 235.135 113.317 236.033 113.069C236.464 112.95 236.925 113.007 237.314 113.227C237.703 113.448 237.988 113.815 238.108 114.247C238.356 115.145 237.938 117.56 237.303 116.878C237.13 116.692 236.021 115.495 234.857 115.146Z" fill="#00ACFA"/>
<path d="M246.849 116.951C246.471 117.804 245.072 116.445 244.938 115.522C244.907 115.302 244.918 115.079 244.973 114.864C245.027 114.649 245.124 114.447 245.256 114.269C245.389 114.092 245.555 113.942 245.745 113.829C245.936 113.715 246.147 113.641 246.366 113.609C247.287 113.475 249.627 114.194 248.872 114.739C248.665 114.888 247.341 115.839 246.849 116.951Z" fill="#00ACFA"/>
<path d="M250.081 114.123C250.306 113.218 251.919 114.315 252.209 115.201C252.278 115.412 252.305 115.634 252.288 115.855C252.272 116.076 252.211 116.292 252.112 116.49C252.012 116.688 251.874 116.864 251.706 117.008C251.538 117.153 251.343 117.263 251.133 117.332C250.248 117.623 247.819 117.319 248.47 116.652C248.647 116.47 249.788 115.304 250.081 114.123Z" fill="#00ACFA"/>
<path d="M248.817 112.856C249.041 111.951 250.654 113.048 250.944 113.934C251.014 114.145 251.04 114.367 251.024 114.588C251.007 114.81 250.947 115.025 250.847 115.223C250.747 115.421 250.609 115.597 250.441 115.742C250.273 115.886 250.078 115.996 249.868 116.065C248.983 116.356 246.555 116.053 247.205 115.385C247.382 115.203 248.524 114.037 248.817 112.856Z" fill="#00ACFA"/>
<path d="M240.973 108.869C240.595 109.722 239.196 108.363 239.062 107.44C239.031 107.22 239.042 106.997 239.097 106.782C239.151 106.567 239.248 106.365 239.38 106.187C239.513 106.01 239.679 105.86 239.869 105.747C240.06 105.633 240.271 105.559 240.49 105.527C241.411 105.393 243.751 106.112 242.996 106.657C242.789 106.806 241.465 107.757 240.973 108.869Z" fill="#00ACFA"/>
<path d="M232.779 121.322L234.76 127.789C234.968 128.909 235.56 129.921 236.435 130.65C237.31 131.378 238.412 131.777 239.55 131.777H253.565C254.72 131.78 255.839 131.371 256.72 130.622C257.601 129.874 258.186 128.835 258.371 127.693L258.376 127.672L260.131 121.233C260.236 120.582 260.199 119.915 260.022 119.279C259.845 118.644 259.533 118.054 259.106 117.551C258.678 117.048 258.147 116.645 257.549 116.368C256.951 116.091 256.299 115.947 255.64 115.947H237.254C236.587 115.947 235.929 116.094 235.325 116.377C234.721 116.66 234.187 117.073 233.76 117.585C233.333 118.098 233.024 118.699 232.855 119.344C232.685 119.99 232.659 120.665 232.779 121.322V121.322Z" fill="#E6E6E6"/>
<path d="M278.66 72.2671C278.66 72.2671 286.402 71.2643 288.761 72.2091C289.601 72.5453 290.44 75.6323 292.014 76.5518C292.042 76.5684 292.071 76.5849 292.099 76.6011C293.568 77.4366 294.778 78.6604 295.598 80.1387C296.418 81.617 296.817 83.2926 296.749 84.9824C296.368 92.5853 296.951 100.206 298.485 107.662C298.596 108.215 298.714 108.774 298.837 109.34C298.983 110.006 299.136 110.682 299.299 111.369C299.602 112.65 299.937 113.971 300.303 115.332C300.494 116.041 299.369 117.867 299.578 118.601C299.719 119.093 299.863 119.591 300.012 120.095C300.459 121.609 302.27 122.071 302.797 123.698C302.803 124.218 302.676 124.731 302.427 125.188C302.178 125.645 301.817 126.031 301.377 126.307C300.937 126.584 300.434 126.744 299.915 126.77C299.396 126.796 298.879 126.688 298.413 126.457L271.053 124.321L273.656 120.28L271.89 117.848L273.214 116.964L273.877 114.532L271.783 106.341L268.783 99.4561C267.748 97.0814 267.609 94.4114 268.392 91.9418C269.174 89.4722 270.825 87.3708 273.038 86.0276V86.0276L276.474 76.9137L278.66 72.2671Z" fill="#00ACFA"/>
<path d="M258.732 128.414C258.931 127.801 259.262 127.239 259.701 126.768C260.141 126.296 260.678 125.927 261.275 125.687C261.872 125.446 262.515 125.339 263.158 125.374C263.801 125.408 264.429 125.584 264.997 125.888L276.492 115.25L277.812 123.287L266.694 132.157C266.12 133.078 265.23 133.757 264.19 134.065C263.15 134.373 262.034 134.288 261.053 133.827C260.071 133.365 259.293 132.56 258.865 131.562C258.437 130.565 258.39 129.445 258.732 128.414H258.732Z" fill="#FFB6B6"/>
<path d="M276.95 124.512L293.746 112.1L293.802 112.101C293.783 111.871 291.86 88.9986 290.677 84.2264C289.991 81.336 288.339 78.7673 285.995 76.9468L285.934 76.9053L285.861 76.9086C284.363 76.9832 282.934 77.5667 281.812 78.5631C280.689 79.5594 279.939 80.9091 279.686 82.3895C278.499 89.5435 278.989 96.8758 281.117 103.808L282.332 107.749L274.761 114.61L276.95 124.512Z" fill="#00ACFA"/>
<path d="M315.958 74.1466C314.72 75.9044 312.912 77.1791 310.841 77.7543C310.012 78.0012 309.157 78.1467 308.293 78.1876C308.187 77.2098 307.932 76.254 307.536 75.3536C307.576 76.312 307.443 77.2699 307.143 78.1809C305.847 78.1073 304.579 77.7672 303.419 77.1817C302.28 76.6079 301.29 75.7761 300.528 74.7523C299.765 73.7285 299.252 72.541 299.028 71.2839C298.573 68.3438 299.904 65.4567 300.386 62.5211C300.869 59.5854 299.962 55.8672 297.092 55.0957C294.906 54.5077 295.151 54.7619 293.335 56.1126C295.224 58.9108 288.244 69.165 285.387 68.2708C283.772 67.7653 282.738 66.2813 282.404 66.2813C280.159 70.1543 284.387 76.6799 280.126 78.035L280.477 77.6835C283.049 74.5158 277.673 67.811 280.245 64.6432C280.963 63.7568 281.727 62.7067 281.515 61.586C281.314 60.5205 279.625 59.9568 279.131 60.8322C280.02 58.7918 278.707 56.0683 276.532 55.5444C274.6 55.078 274.636 55.6527 272.697 55.9025C272.571 55.0637 272.334 54.2454 271.993 53.4687C272.029 54.3056 271.931 55.1428 271.704 55.949C271.019 55.9356 270.358 55.6962 269.823 55.2681C268.242 53.9926 268.563 51.3133 269.973 49.8521C271.386 48.3909 273.486 47.8648 275.488 47.5244C276.07 43.4655 287.254 43.0421 288.736 47.0977C289.367 44.0692 293.153 42.4975 296.096 43.437C299.039 44.3765 301.081 47.1287 302.156 50.029C303.231 52.9271 303.532 56.0462 304.194 59.0659C304.856 62.0856 305.975 65.1605 308.28 67.2186C310.585 69.2744 314.34 69.9553 316.769 68.0453C317.122 69.0546 317.232 70.1329 317.091 71.1929C316.951 72.2529 316.563 73.2648 315.958 74.1466V74.1466Z" fill="#2F2E41"/>
</svg>
