<svg width="216" height="217" viewBox="0 0 216 217" fill="none" xmlns="http://www.w3.org/2000/svg">
<ellipse cx="107.861" cy="108.5" rx="107.578" ry="108.5" fill="#00E6C0"/>
<path d="M107.813 84.1777L86.2252 86.9178C86.2252 86.9178 77.2658 129.177 76.6093 134.271C75.9142 139.365 78.3471 143.224 78.3471 143.224L89.1988 162.405L90.4345 161.44C91.5545 163.331 91.8248 164.682 91.5931 165.762C91.1683 167.808 89.0443 169.004 87.4996 171.127C85.1439 174.369 88.5423 175.218 88.5423 175.218H94.1419L94.0646 176.298L111.636 175.835C111.945 171.976 108.546 170.625 107.465 170.316C106.384 170.008 104.376 167.962 104.376 167.962L104.53 163.794C104.53 163.794 113.412 101.043 113.412 100.464C113.412 99.8463 115.15 98.4184 115.15 98.4184L107.813 84.1777ZM96.2659 111.231L94.2191 146.775L90.7821 135.892L96.2659 111.231Z" fill="#4D5867" stroke="black" stroke-miterlimit="10"/>
<path d="M111.52 175.757L93.9492 176.221L94.0265 175.14H88.4269C88.4269 175.14 85.0285 174.291 87.3842 171.049C88.9289 168.927 91.0529 167.73 91.4777 165.685C91.7094 164.566 91.4391 163.215 90.3192 161.362L93.4086 159.047V163.408L104.453 163.678L104.299 167.846C104.299 167.846 106.346 169.891 107.388 170.2C108.392 170.547 111.829 171.898 111.52 175.757Z" fill="white" stroke="black" stroke-miterlimit="10"/>
<path d="M94.9521 166.11L95.2223 163.485" stroke="black" stroke-miterlimit="10" stroke-linecap="round" stroke-linejoin="round"/>
<path d="M111.674 175.758L94.1026 176.221L94.1798 175.141H88.5802C88.5802 175.141 85.1818 174.292 87.5375 171.05C89.0822 168.927 91.2062 167.731 91.631 165.686C92.944 165.724 94.7204 165.801 95.1839 166.11V168.889C95.1839 168.889 96.381 169.506 96.8444 170.432C97.3465 171.32 98.0802 170.78 99.2774 169.892C100.475 169.005 102.096 167.963 104.452 167.924C104.452 167.924 106.499 169.969 107.542 170.278C108.584 170.548 111.983 171.899 111.674 175.758Z" fill="#202020"/>
<path d="M88.542 89.3496C88.542 89.3496 95.7636 97.1453 106.422 84.8728L108.16 55.5039L107.581 47.3223L89.4302 48.0555L88.542 89.3496Z" fill="white" stroke="black" stroke-miterlimit="10"/>
<path d="M82.4014 55.1566L85.375 85.8763L103.95 79.3156L102.29 55.1952C102.29 55.1952 102.367 53.3428 101.556 53.3428C100.745 53.3428 82.4014 55.1566 82.4014 55.1566Z" fill="white" stroke="black" stroke-miterlimit="10"/>
<path d="M80.2393 57.318L97.347 54.4236C97.347 54.4236 99.3938 53.8833 99.5869 54.8867C99.78 55.8901 103.796 80.2034 103.796 80.2034C103.796 80.2034 104.453 82.9049 102.869 83.0593C101.286 83.2136 84.2555 86.0309 84.2555 86.0309L80.2393 57.318Z" fill="white" stroke="black" stroke-miterlimit="10"/>
<path d="M82.9419 80.2417C82.9419 80.2417 82.4012 90.8547 81.5516 94.6753C80.7021 98.496 80.0069 102.857 80.0069 102.857C80.0069 102.857 79.698 104.787 82.9419 102.625C86.1858 100.464 89.2752 97.7627 89.2752 97.7627L90.7813 84.9114L84.2935 86.0306L83.946 80.2031H82.9419V80.2417Z" fill="#202020"/>
<path d="M123.105 74.839C123.028 73.4883 122.487 70.2851 121.83 67.0047C121.097 63.1455 120.247 59.1704 120.054 58.0898C119.668 56.0444 118.471 49.2135 115.613 47.8628C112.755 46.4735 110.515 45.9718 108.971 45.7402C107.387 45.5087 105.379 43.772 104.645 43.579C103.912 43.3861 102.946 42.6914 102.946 42.6914C102.946 42.6914 103.024 46.5507 103.603 46.6278C104.143 46.705 105.186 48.8276 105.688 49.9854C106.19 51.1432 106.461 64.8049 106.461 64.8049L105.804 84.8731C105.804 84.8731 106.113 90.3918 106.731 91.2023C107.233 91.8198 109.318 92.9389 110.515 93.7108C110.515 93.7108 111.249 88.6166 111.249 87.9219C111.249 87.2272 111.597 81.0138 111.597 79.8175C111.597 78.6211 112.022 71.8674 112.022 71.8674C112.717 72.0218 113.141 73.6812 113.412 75.7266C113.759 78.6597 113.721 82.4032 113.45 83.6767C112.948 85.8379 110.554 93.7494 110.554 93.7494C110.902 93.9423 111.133 94.1353 111.288 94.2897C111.944 94.9457 114.3 97.0297 114.3 97.0297L114.725 95.2545L121.328 82.5961C121.328 82.5961 122.487 79.8561 122.95 77.2703C123.028 76.3827 123.105 75.5723 123.105 74.839Z" fill="#00EEDC"/>
<path d="M105.765 66.1938C105.727 66.7727 104.182 67.5446 104.182 67.5446C104.182 68.8953 103.642 69.9373 103.642 69.9373C103.68 75.456 95.0683 75.7648 95.0683 75.7648C95.0683 75.7648 91.1293 77.4629 85.8386 79.2381C84.1008 79.817 82.2471 80.3959 80.3549 80.9748C72.554 83.2131 74.987 72.2914 74.987 72.2914C74.987 72.2914 78.6943 59.6717 80.239 53.3425C81.7837 47.0133 87.3447 45.3924 88.6577 45.3924C89.9707 45.3924 94.1029 44.9679 94.6435 44.389C95.1842 43.8101 98.9687 42.6523 98.9687 42.6523L99.0073 46.1643C99.0073 46.1643 95.9565 49.4446 95.9179 49.9463C95.8793 50.448 95.609 53.6512 95.609 53.6512L82.3244 55.1177L82.363 57.1246L80.1618 57.3175L82.0154 70.6706H85.1435C85.1435 70.6706 92.7126 68.8181 93.2146 68.6637C93.7167 68.5094 95.7634 65.2676 95.8793 64.8817C95.9951 64.4957 97.5012 64.2642 97.8874 64.2642C98.2736 64.2642 100.784 62.6433 100.784 62.6433C100.9 64.5343 99.4321 65.0746 99.046 65.2676C98.6598 65.4606 98.0033 67.1972 98.0033 67.1972C98.0033 67.1972 103.835 65.2676 104.53 65.0746C105.302 64.8817 105.804 65.6149 105.765 66.1938Z" fill="#00EEDC"/>
<path d="M85.8388 79.0833C84.3713 78.6202 82.8652 77.0765 82.8652 74.7996C82.8652 73.2559 83.8307 71.8279 84.6803 70.8631H85.2595H85.2982C85.6071 70.7859 92.8673 69.0107 93.4079 68.8563C94.0645 68.6633 96.1112 65.2286 96.2271 64.9199C96.3043 64.6883 97.5401 64.4182 98.0421 64.4182C98.3897 64.4182 99.9344 63.4533 100.745 62.9902C100.668 64.341 99.6641 64.8427 99.2006 65.0356L99.0848 65.0742C98.66 65.3058 98.1193 66.6951 97.9649 67.1196L97.8104 67.5056L98.1966 67.3898C98.2738 67.3512 104.028 65.4216 104.723 65.2672C104.8 65.2672 104.839 65.2286 104.877 65.2286C105.071 65.2286 105.225 65.3444 105.341 65.4602C105.534 65.6531 105.611 65.9233 105.611 66.1934C105.573 66.5022 104.723 67.081 104.144 67.3898L104.028 67.4284V67.5442C104.028 68.8563 103.526 69.8211 103.526 69.8597L103.487 69.8983V69.9369C103.526 75.1855 95.1844 75.5714 95.1071 75.5714H95.0685H95.0299C94.9527 75.61 91.0136 77.3081 85.8388 79.0833Z" fill="white"/>
<path d="M100.436 63.3768C100.204 64.3416 99.4707 64.689 99.0459 64.8819C99.0072 64.8819 98.9686 64.9205 98.93 64.9205C98.4666 65.1521 97.9646 66.387 97.7329 67.0817L97.4625 67.815L98.2349 67.5448C98.3121 67.5062 104.066 65.6152 104.761 65.4222C104.8 65.4222 104.839 65.4222 104.877 65.4222C104.993 65.4222 105.07 65.4608 105.186 65.5766C105.341 65.731 105.418 65.9625 105.418 66.1555C105.379 66.3484 104.723 66.8501 104.066 67.1975L103.873 67.3133V67.5448C103.873 68.7798 103.371 69.7446 103.371 69.7446L103.332 69.8218V69.9375C103.371 74.9932 95.2227 75.3791 95.1455 75.3791H95.0682L94.991 75.4177C94.9524 75.4177 91.052 77.1157 85.9158 78.8524C84.5642 78.3893 83.1353 76.9228 83.1353 74.7616C83.1353 73.3337 84.0621 71.9444 84.8731 71.0181H85.3365H85.3751H85.4137C85.7227 70.9409 92.9829 69.1657 93.5235 69.0113C94.2959 68.8184 96.2654 65.4222 96.4585 64.9977C96.6516 64.8047 97.6942 64.5732 98.119 64.5732C98.2735 64.6504 99.0845 64.2259 100.436 63.3768ZM100.861 62.6436C100.861 62.6436 98.3507 64.2644 97.9646 64.2644C97.5784 64.2644 96.1109 64.496 95.9564 64.8819C95.802 65.2678 93.8325 68.5482 93.2918 68.664C92.7512 68.7798 85.2207 70.6708 85.2207 70.6708H84.6028C83.7146 71.6356 82.6719 73.1407 82.6719 74.8002C82.6719 77.1157 84.2166 78.7752 85.8385 79.2769C91.1292 77.4631 95.0682 75.8036 95.0682 75.8036C95.0682 75.8036 103.68 75.4563 103.641 69.9761C103.641 69.9761 104.182 68.9341 104.182 67.5834C104.182 67.5834 105.727 66.8115 105.765 66.2327C105.804 65.731 105.418 65.0749 104.839 65.0749C104.761 65.0749 104.684 65.0749 104.607 65.1135C103.912 65.3064 98.0804 67.2361 98.0804 67.2361C98.0804 67.2361 98.6983 65.4994 99.1231 65.3064C99.5093 65.0749 100.977 64.5346 100.861 62.6436Z" fill="black"/>
<path d="M103.95 67.4287C102.483 68.0848 100.745 68.5865 100.745 68.5865" stroke="black" stroke-miterlimit="10" stroke-linecap="round" stroke-linejoin="round"/>
<path d="M103.371 69.8213L101.556 70.5159" stroke="black" stroke-miterlimit="10" stroke-linecap="round" stroke-linejoin="round"/>
<path d="M101.17 51.5668C99.5868 51.5668 97.8877 50.988 96.1885 49.8688C96.2271 49.3671 96.4202 47.0901 97.3084 46.2797C98.3125 45.3149 98.2738 43.1537 98.2352 42.1117C98.2352 41.9959 98.2352 41.8801 98.2352 41.7643C98.2352 41.1083 98.2352 40.182 98.2352 39.7961L103.603 39.333C103.526 40.3364 103.217 44.1185 103.642 45.2377C103.835 45.778 104.182 46.0867 104.491 46.3954C104.916 46.7814 105.302 47.1673 105.457 48.1707C105.611 49.4443 105.534 49.7916 105.534 49.8302V49.8688C105.495 49.8688 103.912 51.5668 101.17 51.5668Z" fill="white"/>
<path d="M103.41 39.5261C103.294 40.7996 103.101 44.1958 103.487 45.2764C103.719 45.8553 104.066 46.2026 104.375 46.5113C104.8 46.8973 105.148 47.2446 105.263 48.1708C105.418 49.2514 105.379 49.6373 105.341 49.7145C105.186 49.8689 103.68 51.374 101.17 51.374C99.6252 51.374 98.0419 50.8337 96.3813 49.7531C96.4585 48.8655 96.6902 47.0516 97.424 46.3956C98.5053 45.3536 98.4667 43.231 98.428 42.0732C98.428 41.9574 98.428 41.8416 98.428 41.7259C98.428 41.1856 98.428 40.3751 98.428 39.9506L103.41 39.5261ZM103.835 39.1016L98.0419 39.6033C98.0419 39.6033 98.0419 40.9154 98.0419 41.7645C98.0419 42.5749 98.235 45.122 97.1537 46.164C96.0724 47.206 95.9951 50.0233 95.9951 50.0233C98.0033 51.374 99.7411 51.8371 101.17 51.8371C104.028 51.8371 105.65 50.0233 105.65 50.0233C105.65 50.0233 105.881 49.9847 105.65 48.1708C105.418 46.357 104.298 46.4342 103.835 45.1992C103.41 43.9256 103.835 39.1016 103.835 39.1016Z" fill="black"/>
<path d="M92.867 33.4291C92.867 33.4291 91.7085 34.5869 92.1719 35.9762C92.674 37.327 93.8711 38.0602 95.2614 37.5971C95.2614 37.5971 96.7288 41.2634 100.513 40.9932C104.298 40.7617 106.461 36.5551 106.499 36.1692C106.538 35.7832 108.314 35.3587 108.43 34.3167C108.585 33.2747 108.43 31.4609 106.77 31.924C105.109 32.3871 106.77 31.924 106.77 31.924L105.456 25.7492L103.178 24.3984L92.9443 27.4858L92.867 33.4291Z" fill="white" stroke="black" stroke-miterlimit="10"/>
<path d="M93.2148 24.4366C89.353 27.7555 92.4424 34.1233 92.4424 34.1233C92.4424 34.1233 93.601 33.8146 93.8713 34.5093C94.103 35.2039 94.2961 35.9372 94.2961 35.9372L94.9912 35.4355C94.9912 35.4355 94.9912 30.843 94.5664 30.1869C94.1416 29.4922 93.8327 28.1801 94.5278 27.9871C95.2229 27.7941 97.8489 28.6046 99.3937 28.1801C100.938 27.7556 102.676 25.7873 103.487 25.8259C104.298 25.8645 105.225 26.3662 105.495 27.9099C105.727 29.4536 105.997 31.4218 106.19 31.8078C106.384 32.1937 106.886 31.8464 106.886 31.8464C106.886 31.8464 107.272 27.2538 106.692 26.0961C106.692 26.0961 108.353 26.1347 108.353 25.7101C108.353 25.2856 106.19 23.0473 105.534 23.0473C104.839 23.0473 107.233 20.8475 107.001 20.7703C106.77 20.6545 101.209 20.5773 100.552 21.5036C99.9343 22.4298 100.552 19.6511 99.9729 20.037C99.3937 20.423 98.2351 21.8509 96.8063 22.5841C95.3002 23.3174 94.2189 23.6261 93.2148 24.4366Z" fill="#202020"/>
<path d="M95.6475 32.1553C95.6475 32.1553 96.9991 30.4958 99.1231 31.4607" stroke="black" stroke-miterlimit="10" stroke-linecap="round" stroke-linejoin="round"/>
<path d="M104.916 29.9945C104.916 29.9945 101.556 29.2227 100.899 31.4225C100.243 33.6222 101.44 34.7414 101.788 34.8186C102.135 34.8958 103.062 35.1659 102.83 35.5905C102.599 36.015 102.251 36.4009 102.251 36.4009" stroke="black" stroke-miterlimit="10" stroke-linecap="round" stroke-linejoin="round"/>
<path d="M101.556 37.4818C101.556 37.4818 99.3158 37.6748 98.7365 37.2117C98.1186 36.7486 98.7365 38.1379 98.7365 38.1379C98.7365 38.1379 99.5475 39.2571 100.667 39.1413" stroke="black" stroke-miterlimit="10" stroke-linecap="round" stroke-linejoin="round"/>
<path d="M97.8816 34.7147C98.1728 34.6495 98.307 34.1414 98.1814 33.5798C98.0557 33.0182 97.7178 32.6157 97.4267 32.6809C97.1355 32.746 97.0012 33.2541 97.1269 33.8157C97.2525 34.3773 97.5904 34.7798 97.8816 34.7147Z" fill="#202020"/>
<path d="M103.025 33.5936C103.317 33.5285 103.451 33.0205 103.325 32.4589C103.199 31.8973 102.861 31.4948 102.57 31.5599C102.279 31.625 102.145 32.133 102.271 32.6946C102.396 33.2562 102.734 33.6587 103.025 33.5936Z" fill="#202020"/>
<path d="M192.424 86.957C192.424 86.957 190.339 81.94 185.009 82.0172L187.365 79.007L184.778 67.9309L179.448 74.8004L180.221 80.049L180.452 81.7084L182.808 97.7244L161.452 86.9184L161.491 83.831L161.53 82.0558L161.723 64.6119L148.786 69.5904C148.786 69.5904 142.916 71.1727 142.298 68.8571C141.718 66.5416 141.101 58.823 141.101 58.823C141.101 58.823 146.893 60.5983 149.674 56.8548L150.06 58.7844C150.06 58.7844 160.023 46.2419 167.67 46.3962C175.316 46.512 186.206 45.8945 186.206 45.8945C186.322 45.8945 193.467 45.9331 194.471 53.4587C195.475 61.0614 197.637 77.4633 197.637 77.4633C197.637 77.4633 198.255 84.2555 192.424 86.957Z" fill="#00C0F1" stroke="black" stroke-miterlimit="10"/>
<path d="M161.685 82.2094L180.067 80.2412L180.26 81.5148L161.685 83.5602V82.2094Z" fill="#00C0F1"/>
<path d="M179.912 80.4343L180.027 81.3219L161.877 83.3287V82.3639L179.912 80.4343ZM180.221 80.0098L161.491 82.0166L161.452 83.7918L180.452 81.6692L180.221 80.0098Z" fill="#00C0F1"/>
<path d="M180.916 84.7568L174.737 85.2585L176.514 94.0576L182.113 93.0542L180.916 84.7568Z" fill="black" stroke="black" stroke-miterlimit="10"/>
<path d="M170.335 175.14H153.652C153.652 175.14 153.884 169.93 159.175 169.429H169.602C170.026 172.979 170.335 175.14 170.335 175.14Z" fill="black" stroke="black" stroke-miterlimit="10"/>
<path d="M181.805 169.391V166.111H179.874L172.884 124.585L171.339 164.49H169.601V168.388H160.604L161.453 86.8803L162.534 85.5681L176.128 84.0244C176.128 84.0244 176.051 92.3604 182.654 96.5284C183.813 97.2231 184.856 97.0301 184.276 98.5352C183.697 100.079 182.886 98.9211 183.658 104.247C184.238 108.338 189.451 148.011 191.807 166.111C191.961 167.269 192.116 168.388 192.232 169.353C192.695 172.903 192.965 175.064 192.965 175.064H176.282C176.282 175.142 176.514 169.932 181.805 169.391Z" fill="#0E1A2B" stroke="black" stroke-miterlimit="10"/>
<path d="M181.999 166.149H191.576C191.653 166.728 191.769 167.307 191.885 167.886C191.962 168.388 192.078 168.851 192.116 169.275L181.96 169.391V166.149H181.999Z" fill="white"/>
<path d="M191.421 166.342C191.498 166.882 191.614 167.423 191.691 167.924C191.768 168.349 191.845 168.735 191.884 169.082L182.152 169.198V166.342H191.421ZM191.768 165.956H181.805V169.584L192.347 169.468C192.232 168.465 191.923 167.114 191.768 165.956Z" fill="black"/>
<path d="M192.965 175.141H176.282C176.282 175.141 176.514 169.931 181.805 169.43H192.232C192.695 172.98 192.965 175.141 192.965 175.141Z" fill="black" stroke="black" stroke-miterlimit="10"/>
<path d="M188.524 165.261L179.217 100.001L181.418 96.2959L182.731 97.1449L180.877 100.387L190.068 165.261H188.524Z" fill="white"/>
<path d="M138.939 41.9188C138.939 41.9188 138.591 40.105 139.441 39.4103C140.29 38.7156 142.105 37.5965 142.453 37.5579C142.8 37.5193 142.453 41.9574 142.453 41.9574L139.556 42.8836L138.939 41.9188Z" stroke="black" stroke-miterlimit="10" stroke-linejoin="round"/>
<path d="M144.693 59.2478C143.11 59.2478 141.72 58.8233 141.295 58.7075L141.526 48.6734C141.526 48.5962 141.488 48.519 141.411 48.4804C140.715 48.2489 139.518 46.1649 139.209 45.0843C138.978 44.2739 138.205 43.7722 137.356 43.2705C136.97 43.0389 136.583 42.7688 136.197 42.4986C135.579 42.0355 135.541 41.7653 135.541 41.6496C135.579 41.4952 135.772 41.3408 136.12 41.225C136.274 41.1865 136.467 41.1479 136.661 41.1479C137.201 41.1479 137.896 41.3408 138.476 41.4952C139.016 41.6496 139.48 41.7653 139.866 41.7653C140.059 41.7653 140.213 41.7268 140.329 41.6496C141.024 41.2636 142.222 39.7199 142.028 38.485C141.835 37.25 140.291 36.9799 139.711 36.9799H139.634C139.325 36.9799 138.283 37.25 136.815 37.5588C136.004 37.7517 135.27 37.9061 135.039 37.9447C134.846 37.9447 134.575 37.7517 134.498 37.4816C134.421 37.1342 134.652 36.7869 135.154 36.4782C136.583 35.6677 138.862 35.166 141.295 35.166C142.299 35.166 143.148 35.2432 143.689 35.3976C144.616 35.6677 145.543 38.7165 146.199 43.6178C146.354 44.7756 149.134 55.8516 149.443 56.9708C148.516 58.4759 146.894 59.2478 144.693 59.2478Z" fill="white"/>
<path d="M141.371 35.3586C142.336 35.3586 143.225 35.4358 143.727 35.5901C144.345 35.7831 145.31 37.9829 146.082 43.656C146.237 44.8138 148.94 55.4267 149.288 56.9318C148.322 58.3211 146.778 59.0544 144.692 59.0544C143.302 59.0544 142.028 58.7071 141.487 58.5527L141.719 48.673C141.719 48.5186 141.603 48.3643 141.448 48.2871C140.946 48.1327 139.71 46.3189 139.363 45.0067C139.131 44.1191 138.32 43.6174 137.432 43.0771C137.046 42.8455 136.66 42.614 136.273 42.3052C135.656 41.8421 135.694 41.6492 135.694 41.6106C135.694 41.572 135.81 41.4562 136.158 41.3404C136.273 41.3018 136.467 41.2632 136.66 41.2632C137.2 41.2632 137.857 41.4562 138.436 41.6106C138.977 41.7649 139.479 41.8807 139.865 41.8807C140.097 41.8807 140.251 41.8421 140.406 41.7649C141.139 41.3404 142.414 39.7195 142.182 38.4074C141.989 37.1724 140.599 36.7479 139.672 36.7479C139.633 36.7479 139.633 36.7479 139.595 36.7479C139.247 36.7479 138.243 36.9795 136.737 37.3268C135.965 37.5198 135.192 37.6741 134.999 37.7127C134.922 37.7127 134.729 37.5969 134.652 37.3654C134.574 37.0181 134.96 36.7093 135.231 36.555C136.698 35.8217 138.938 35.3586 141.371 35.3586ZM141.371 34.9727C139.363 34.9727 136.814 35.32 135.115 36.3234C133.686 37.1724 134.536 38.1758 135.076 38.1758H135.115C135.617 38.0987 139.131 37.211 139.672 37.211C139.71 37.211 139.71 37.211 139.749 37.211C140.328 37.211 141.719 37.4812 141.873 38.5618C142.028 39.6424 140.946 41.1475 140.251 41.5334C140.174 41.572 140.019 41.6106 139.904 41.6106C139.131 41.6106 137.78 40.9931 136.698 40.9931C136.467 40.9931 136.273 41.0317 136.08 41.0703C135.347 41.3018 134.883 41.7649 136.08 42.6912C137.278 43.6174 138.745 44.0805 139.015 45.1611C139.324 46.2417 140.521 48.4415 141.332 48.7116L141.101 58.9C141.101 58.9 142.761 59.4789 144.692 59.4789C146.469 59.4789 148.515 58.9772 149.713 57.0476C149.713 57.0476 146.623 44.8138 146.469 43.6174C146.314 42.421 145.387 35.6673 143.804 35.2428C143.263 35.0498 142.375 34.9727 141.371 34.9727Z" fill="black"/>
<path d="M142.414 43.6171C142.414 43.6171 141.758 41.9962 140.136 41.7646" stroke="black" stroke-miterlimit="10" stroke-linecap="round" stroke-linejoin="round"/>
<path d="M182.114 95.8322C181.921 95.8322 181.766 95.7936 181.612 95.6778C180.106 94.713 176.63 92.0501 176.707 88.5767C176.707 88.3452 176.785 88.2294 177.055 88.2294C177.48 88.2294 178.213 88.5381 179.14 89.117C179.256 89.1942 179.372 89.2328 179.488 89.2328C180.067 89.2328 180.685 88.4224 181.419 87.419C181.728 86.9944 182.037 86.5699 182.384 86.184C183.35 85.0262 184.315 83.2896 184.856 82.3633C184.972 82.1318 185.203 81.9774 185.435 81.9002L187.713 81.2827C187.791 81.2441 187.868 81.2441 187.945 81.2441C188.177 81.2441 188.409 81.3213 188.602 81.5143L192.502 85.142C192.772 85.4121 192.888 85.8367 192.734 86.184L192.502 86.6857C192.464 86.8015 192.386 86.9173 192.27 87.033L182.77 95.562C182.577 95.7164 182.346 95.8322 182.114 95.8322Z" fill="white"/>
<path d="M187.944 81.3986C188.138 81.3986 188.331 81.4758 188.446 81.5916L192.386 85.2965C192.617 85.528 192.694 85.8368 192.579 86.1455L192.386 86.6472C192.347 86.763 192.27 86.8402 192.192 86.9174L182.692 95.4849C182.538 95.6007 182.383 95.6779 182.19 95.6779C182.036 95.6779 181.92 95.6393 181.766 95.5621C180.298 94.5973 176.9 92.0116 176.938 88.6154C176.938 88.4996 176.977 88.4996 176.977 88.4996C176.977 88.4996 177.015 88.4611 177.093 88.4611C177.286 88.4611 177.826 88.5382 179.062 89.3101C179.217 89.3873 179.371 89.4259 179.526 89.4259C180.221 89.4259 180.8 88.654 181.611 87.5348C181.92 87.1103 182.229 86.6858 182.576 86.2999C183.542 85.1421 184.546 83.3668 185.048 82.4406C185.125 82.2477 185.318 82.1319 185.511 82.0547L187.79 81.4372C187.79 81.3986 187.867 81.3986 187.944 81.3986ZM187.944 81.0127C187.829 81.0127 187.751 81.0127 187.635 81.0513L185.357 81.6688C185.048 81.746 184.816 81.9389 184.662 82.2091C184.237 83.0195 183.194 84.8334 182.229 86.0297C181.07 87.4191 180.182 89.0013 179.487 89.0013C179.41 89.0013 179.333 88.9628 179.255 88.9242C178.753 88.6154 177.711 88.0365 177.093 88.0365C176.784 88.0365 176.552 88.1909 176.552 88.5768C176.513 92.1273 179.989 94.8288 181.572 95.8322C181.766 95.948 181.997 96.0252 182.19 96.0252C182.461 96.0252 182.731 95.9094 182.963 95.7164L192.463 87.1489C192.579 87.0331 192.694 86.9173 192.733 86.763L192.926 86.2613C193.119 85.8368 193.003 85.3351 192.656 84.9877L188.717 81.2828C188.485 81.0899 188.215 81.0127 187.944 81.0127Z" fill="black"/>
<path d="M167.709 46.3574C167.709 46.3574 168.829 50.9113 176.012 50.178C183.195 49.4448 186.246 45.8557 186.246 45.8557C186.246 45.8557 177.402 46.5503 178.638 36.7478C178.638 36.7478 182.693 36.825 181.341 33.3517C179.99 29.8783 177.981 33.0429 177.981 33.0429L172.691 43.5401C172.652 43.5787 172.729 46.9362 167.709 46.3574Z" fill="white" stroke="black" stroke-miterlimit="10"/>
<path d="M165.006 29.2998C165.006 29.2998 166.396 26.7527 166.203 26.5211C166.01 26.2896 162.689 25.4405 165.547 23.2793C168.404 21.1182 178.445 17.4519 182.23 24.5915C182.616 26.0194 183.697 30.3418 181.303 33.3906C181.303 33.3906 179.063 32.2328 177.982 34.0853C176.9 35.9377 177.132 36.9797 177.132 38.0989C177.132 39.2181 176.707 42.9616 172.614 43.6176C168.52 44.2737 164.543 43.0387 164.311 40.1829C164.118 37.327 165.547 36.2464 166.01 35.7833C166.049 35.7447 167.169 31.7311 165.006 29.2998Z" fill="black"/>
<path d="M168.868 37.828C167.323 37.828 167.053 36.8632 167.091 36.6703C167.13 36.4773 167.709 36.4387 167.979 36.6703C168.211 36.9018 169.37 36.8632 169.679 36.7474C169.988 36.6317 170.335 36.5545 170.335 36.8632C170.374 37.172 170.258 37.7895 168.868 37.828Z" fill="white"/>
<path d="M166.937 26.5205C166.937 26.5205 172.421 28.1414 174.815 26.9836C174.815 26.9836 175.201 30.1868 177.171 30.1868C177.171 30.1868 174.622 32.6181 174.622 34.2776C174.622 35.9371 174.776 37.4808 174.004 37.7895C173.193 38.0983 170.528 34.0461 167.864 35.281C167.864 35.281 169.331 29.4535 165.778 29.1448L166.937 26.5205Z" fill="white"/>
<path d="M165.855 29.415C165.855 29.415 167.554 29.9553 167.631 32.3095C167.708 34.6636 167.438 35.4741 167.438 35.4741C167.438 35.4741 166.743 35.4741 166.396 35.667C166.241 35.7442 167.4 31.8078 165.855 30.0325C165.546 29.6466 165.585 29.4536 165.585 29.4536L165.855 29.415Z" fill="white"/>
<path d="M169.794 29.4156C169.794 29.4156 173.154 28.4122 174.428 30.7664" stroke="black" stroke-miterlimit="10" stroke-linecap="round" stroke-linejoin="round"/>
<path d="M171.763 33.0822C172.104 33.0822 172.38 32.5638 172.38 31.9244C172.38 31.285 172.104 30.7666 171.763 30.7666C171.422 30.7666 171.146 31.285 171.146 31.9244C171.146 32.5638 171.422 33.0822 171.763 33.0822Z" fill="black"/>
<path d="M167.438 32.9279C167.779 32.9279 168.055 32.4095 168.055 31.7701C168.055 31.1307 167.779 30.6123 167.438 30.6123C167.097 30.6123 166.82 31.1307 166.82 31.7701C166.82 32.4095 167.097 32.9279 167.438 32.9279Z" fill="black"/>
<path d="M93.8715 97.8398L96.9996 100.001L93.4854 158.893" stroke="black" stroke-miterlimit="10" stroke-linecap="round" stroke-linejoin="round"/>
<path d="M168.868 125.125V135.815C162.998 138.709 147.358 135.275 147.358 135.275L135.154 133.152L134.382 165.3L134.343 166.998L134.228 171.204L134.112 175.604H116.425C116.502 173.597 118.858 172.053 120.866 171.204C121.638 170.896 122.333 170.664 122.835 170.587C124.65 170.239 124.998 167.036 124.998 167.036V166.959L124.805 165.261L121.329 135.236L114.185 141.411L113.412 139.906L110.979 142.028L110.941 142.067L107.967 144.614L104.376 147.701L92.9062 134.271C94.2965 132.689 96.8839 133.191 99.2782 134.155C102.02 135.275 104.453 137.011 104.453 137.011L106.229 135.043L106.345 134.889L108.817 132.11L130.134 108.26L168.868 125.125Z" fill="#191919"/>
<path d="M108.855 132.148L113.451 139.983L110.941 142.105L106.384 134.927L108.855 132.148Z" fill="white" stroke="black" stroke-miterlimit="10"/>
<path d="M114.223 141.449L114.184 141.488L113.451 139.982L114.223 141.449Z" stroke="black" stroke-miterlimit="10"/>
<path d="M125.192 166.766L125.037 165.454H134.228L134.19 166.766H125.192Z" fill="white"/>
<path d="M133.996 165.647L133.957 166.573H125.307L125.191 165.647H133.996ZM134.421 165.261H124.805L124.998 166.959H134.382L134.421 165.261Z" fill="black"/>
<path d="M116.656 175.411C116.888 173.288 119.862 171.86 120.904 171.436C122.603 171.86 125.345 172.786 125.345 174.137C125.345 174.253 125.423 174.33 125.538 174.33H130.906C130.984 174.33 131.061 174.291 131.099 174.214C131.099 174.176 132.181 171.899 134.112 171.436L133.996 175.411H116.656Z" fill="white"/>
<path d="M120.904 171.629C123.569 172.323 125.152 173.25 125.152 174.137C125.152 174.369 125.306 174.523 125.538 174.523H130.906C131.061 174.523 131.176 174.446 131.254 174.292C131.254 174.253 132.219 172.246 133.88 171.667L133.802 175.218H116.888C117.274 173.365 119.9 172.053 120.904 171.629ZM134.266 171.204C132.103 171.551 130.906 174.176 130.906 174.176H125.538C125.538 172.709 122.796 171.744 120.904 171.243C118.896 172.092 116.54 173.635 116.463 175.642H134.189L134.266 171.204Z" fill="black"/>
<path d="M107.735 144.884L104.337 147.701L92.79 134.464C97.7718 131.956 100.938 139.057 99.8185 140.292L103.333 144.305C103.333 144.305 106.075 143.495 107.735 144.884Z" fill="white" stroke="black" stroke-width="0.9958" stroke-miterlimit="10" stroke-linejoin="round"/>
<path d="M149.597 114.937C149.249 114.551 148.477 106.987 148.786 106.523" stroke="black" stroke-miterlimit="10"/>
<path d="M149.828 175.14C151.407 175.14 152.686 173.862 152.686 172.285C152.686 170.707 151.407 169.429 149.828 169.429C148.25 169.429 146.971 170.707 146.971 172.285C146.971 173.862 148.25 175.14 149.828 175.14Z" fill="white" stroke="black" stroke-miterlimit="10" stroke-linejoin="round"/>
<path d="M156.819 175.14C158.397 175.14 159.676 173.862 159.676 172.285C159.676 170.707 158.397 169.429 156.819 169.429C155.24 169.429 153.961 170.707 153.961 172.285C153.961 173.862 155.24 175.14 156.819 175.14Z" fill="white" stroke="black" stroke-miterlimit="10" stroke-linejoin="round"/>
<path d="M163.77 175.14C165.348 175.14 166.628 173.862 166.628 172.285C166.628 170.707 165.348 169.429 163.77 169.429C162.192 169.429 160.912 170.707 160.912 172.285C160.912 173.862 162.192 175.14 163.77 175.14Z" fill="white" stroke="black" stroke-miterlimit="10" stroke-linejoin="round"/>
<path d="M170.721 175.14C172.299 175.14 173.579 173.862 173.579 172.285C173.579 170.707 172.299 169.429 170.721 169.429C169.143 169.429 167.863 170.707 167.863 172.285C167.863 173.862 169.143 175.14 170.721 175.14Z" fill="white" stroke="black" stroke-miterlimit="10" stroke-linejoin="round"/>
<path d="M142.53 143.225L145.272 145.038H157.437V167.191H148.13V169.931H172.305V167.191H162.843V144.768H174.776L177.171 143.225H142.53Z" fill="#424242"/>
<path d="M142.724 143.032V139.79C142.724 137.552 144.539 135.738 146.779 135.738H172.923C175.163 135.738 176.978 137.552 176.978 139.79V143.032H142.724Z" fill="white"/>
<path d="M172.923 135.931C175.047 135.931 176.784 137.668 176.784 139.79V142.839H142.878V139.79C142.878 137.668 144.616 135.931 146.74 135.931H172.923ZM172.923 135.545H146.778C144.423 135.545 142.53 137.436 142.53 139.79V143.225H177.209V139.79C177.171 137.475 175.278 135.545 172.923 135.545Z" fill="black"/>
<path d="M135.308 98.3415C132.528 98.3415 124.071 99.1134 131.06 88.9635C130.983 87.5742 130.365 83.4062 133.571 81.5924C136.776 79.7785 135.579 78.6207 135.308 77.7717C135.038 76.8841 134.188 63.8784 151.335 64.6502C153.073 64.9975 159.792 66.2325 159.174 75.9578C158.556 85.6832 158.556 88.9249 158.556 88.9249L135.308 98.3415Z" fill="black"/>
<path d="M113.374 94.2897C113.335 94.2897 107.504 93.3249 106.848 90.7778V90.7392L106.809 90.7006C106.809 90.7006 106.346 90.0831 106.384 89.5428C106.423 89.3112 106.539 89.0797 106.77 88.9253L106.809 88.8867V88.8481C106.809 88.8481 107.156 87.8447 107.813 87.8447C108.083 87.8447 109.28 87.9991 110.632 88.1921C113.065 88.5394 116.039 88.9639 117.274 88.9639C117.468 88.9639 117.622 88.9639 117.699 88.9253C118.163 88.9253 118.665 91.7426 118.819 95.1001L113.374 94.2897Z" fill="white"/>
<path d="M107.851 88.0373C108.083 88.0373 109.318 88.2303 110.632 88.3846C113.064 88.732 116.077 89.1565 117.312 89.1565C117.506 89.1565 117.621 89.1565 117.737 89.1179C118.123 89.4652 118.548 92.0123 118.664 94.8682L113.373 94.0577C113.373 94.0577 111.906 93.8262 110.361 93.2473C109.01 92.7456 107.31 91.8965 107.001 90.6616L106.963 90.5844L106.924 90.5072C106.808 90.3528 106.499 89.8897 106.538 89.4652C106.577 89.2723 106.654 89.1179 106.847 88.9635L106.924 88.8863L106.963 88.7705C107.117 88.6548 107.426 88.0373 107.851 88.0373ZM107.851 87.6514C107.04 87.6514 106.654 88.7705 106.654 88.7705C105.611 89.581 106.654 90.8545 106.654 90.8545C107.388 93.556 113.335 94.5208 113.335 94.5208L119.089 95.4085C119.089 95.4085 118.857 88.8091 117.776 88.8091H117.737C117.66 88.8477 117.506 88.8477 117.351 88.8477C115.382 88.8091 108.585 87.6514 107.851 87.6514Z" fill="black"/>
<path d="M112.408 90.2375L107.002 88.8867" stroke="black" stroke-miterlimit="10" stroke-linecap="round" stroke-linejoin="round"/>
<path d="M106.847 90.9702C106.847 90.9702 106.924 89.6581 107.387 89.9282C107.967 90.237 108.546 90.8159 108.816 90.9316C109.434 91.2018 110.477 91.8579 110.786 91.9736" stroke="black" stroke-miterlimit="10" stroke-linecap="round" stroke-linejoin="round"/>
<path d="M119.167 96.1804C118.394 95.9489 114.61 94.7139 114.185 94.7139C114.146 94.7139 112.022 94.5981 109.937 91.7423C109.86 91.6265 109.821 91.5107 109.86 91.3949C109.898 91.2791 109.937 91.1634 110.053 91.0862C110.13 91.009 110.246 91.009 110.323 91.009C110.439 91.009 110.555 91.0476 110.632 91.1248C111.752 92.1668 112.525 92.7071 112.949 92.7457C112.988 92.7457 113.065 92.7457 113.142 92.7457C113.838 92.7457 115.151 92.6299 115.807 92.1668C116.386 91.7423 117.197 91.4335 117.197 91.4335L117.352 91.3563L117.313 91.202C117.313 91.202 116.966 89.774 117.043 89.0794C117.159 88.2689 116.734 87.4585 116.425 87.1497C116.232 86.9568 115.807 86.1463 115.807 85.4131C115.807 85.0657 115.923 84.7956 116.116 84.564C116.193 84.5254 116.386 84.4482 116.541 84.4482C116.618 84.4482 116.618 84.4868 116.618 84.4868C116.773 84.8728 117.854 86.7638 118.279 87.4199C118.433 87.6128 118.858 88.1531 119.437 88.8478C120.75 90.4301 122.72 92.7843 123.067 93.6719C123.415 94.5981 122.411 96.412 121.909 97.1838L119.167 96.1804Z" fill="white"/>
<path d="M116.501 84.6027C116.733 85.143 117.737 86.8411 118.162 87.4972C118.316 87.7287 118.741 88.2304 119.32 88.9637C120.556 90.4302 122.603 92.9001 122.912 93.7492C123.182 94.4824 122.448 96.0261 121.83 96.9524L119.204 96.0261C117.814 95.563 114.609 94.5596 114.184 94.5596C113.759 94.5596 111.867 94.0579 110.091 91.6652C110.052 91.588 110.013 91.5108 110.052 91.4722C110.052 91.395 110.091 91.3178 110.168 91.2792C110.206 91.2406 110.284 91.2406 110.322 91.2406C110.4 91.2406 110.477 91.2792 110.515 91.3178C112.253 92.9387 112.794 92.9773 112.948 92.9773C113.026 92.9773 113.064 92.9773 113.141 92.9773C113.837 92.9773 115.227 92.8615 115.922 92.3598C116.501 91.9353 117.274 91.6652 117.274 91.6652L117.582 91.5494L117.505 91.2406C117.428 90.8547 117.196 89.7355 117.235 89.1952C117.351 88.3848 116.965 87.4972 116.54 87.0726C116.424 86.9569 115.961 86.185 115.999 85.4903C115.999 85.1816 116.076 84.9886 116.231 84.7957C116.308 84.6413 116.424 84.6027 116.501 84.6027ZM116.54 84.2168C116.308 84.2168 115.999 84.3712 115.999 84.3712C115.111 85.2202 115.961 86.9183 116.269 87.227C116.578 87.5358 116.926 88.3076 116.849 89.0023C116.772 89.7355 117.119 91.2021 117.119 91.2021C117.119 91.2021 116.308 91.5108 115.69 91.9739C115.111 92.3984 113.875 92.5142 113.141 92.5142C113.064 92.5142 113.026 92.5142 112.948 92.5142C112.446 92.5142 111.326 91.5108 110.747 90.9705C110.631 90.8547 110.438 90.7775 110.284 90.7775C110.129 90.7775 110.013 90.8161 109.897 90.8933C109.589 91.1249 109.55 91.5494 109.743 91.8195C111.713 94.4824 113.759 94.8684 114.145 94.8684C114.532 94.8684 119.05 96.3349 119.05 96.3349L121.946 97.3769C121.946 97.3769 123.723 94.8683 123.221 93.5562C122.719 92.2441 118.857 87.9217 118.393 87.227C117.93 86.5709 116.887 84.6799 116.733 84.3326C116.772 84.2554 116.656 84.2168 116.54 84.2168Z" fill="black"/>
<path d="M119.089 96.3731C119.089 96.3731 122.371 95.9099 123.26 93.5944L130.867 101.313L135.733 94.4048C135.733 94.4048 139.325 89.0791 142.607 89.0019C145.928 88.9247 160.565 85.5671 160.565 85.5671C160.565 85.5671 161.646 85.2584 165.701 87.8441C169.756 90.4298 177.788 98.9588 177.788 98.9588C177.788 98.9588 179.912 103.667 176.437 105.249H164.928L168.867 125.125L147.396 115.785C147.396 115.785 148.979 109.842 148.477 106.87C148.477 106.87 143.457 108.375 141.758 103.474C141.758 103.474 134.459 110.382 133.069 111.077C131.64 111.772 128.28 112.736 125.808 108.26C123.337 103.86 119.089 96.3731 119.089 96.3731Z" fill="#66F6FF" stroke="black" stroke-miterlimit="10"/>
<path d="M152.532 114.704C152.185 114.627 150.872 114.01 150.795 108.684H150.408L150.215 114.627C149.945 114.473 149.443 114.125 149.366 113.045C149.25 111.462 149.018 106.947 148.979 106.484C149.173 105.944 151.799 99.2672 158.171 98.9971C158.557 99.4216 160.642 101.776 159.059 104.67L152.532 114.704Z" fill="white"/>
<path d="M158.054 99.2287C158.518 99.769 160.294 101.969 158.865 104.593L152.416 114.511C151.914 114.28 151.026 113.006 150.949 108.722H150.176L149.983 114.318C149.79 114.125 149.558 113.739 149.481 113.083C149.365 111.54 149.134 107.217 149.095 106.561C149.443 105.828 151.991 99.576 158.054 99.2287ZM158.248 98.8428C151.374 99.0743 148.786 106.484 148.786 106.484C148.786 106.484 149.018 111.424 149.172 113.083C149.327 114.743 150.408 114.897 150.408 114.897L150.601 108.684C150.678 114.704 152.378 114.897 152.609 114.897H152.648L159.213 104.747C160.989 101.544 158.248 98.8428 158.248 98.8428Z" fill="black"/>
<path d="M158.248 98.843L169.602 98.3799" stroke="black" stroke-miterlimit="10"/>
<path d="M159.908 95.8711C159.908 95.8711 164.195 97.1061 165.122 98.534" stroke="black" stroke-miterlimit="10"/>
<path d="M141.41 96.4883C141.41 96.4883 142.762 96.8356 143.766 98.1092C143.766 98.1092 140.715 99.7687 141.719 103.551" stroke="black" stroke-miterlimit="10"/>
<path d="M173.269 126.244H157.822C154.965 126.244 152.647 123.929 152.647 121.073V109.997C152.647 107.141 154.965 104.825 157.822 104.825H173.269C176.127 104.825 178.444 107.141 178.444 109.997V121.073C178.444 123.929 176.127 126.244 173.269 126.244Z" fill="white" stroke="black" stroke-miterlimit="10"/>
<path d="M170.412 124.044H167.323C165.122 124.044 163.307 122.23 163.307 120.03C163.307 117.83 165.122 116.017 167.323 116.017H170.412C172.614 116.017 174.429 117.83 174.429 120.03C174.429 122.269 172.652 124.044 170.412 124.044Z" fill="#424242"/>
<path d="M170.335 141.758C169.37 141.758 168.559 140.948 168.559 139.983V120.88C168.559 119.915 169.37 119.104 170.335 119.104C171.301 119.104 172.112 119.915 172.112 120.88V139.983C172.112 140.948 171.301 141.758 170.335 141.758Z" fill="white"/>
<path d="M170.335 119.297C171.223 119.297 171.918 119.992 171.918 120.879V139.983C171.918 140.87 171.223 141.565 170.335 141.565C169.447 141.565 168.751 140.87 168.751 139.983V120.879C168.713 119.992 169.447 119.297 170.335 119.297ZM170.335 118.911C169.253 118.911 168.365 119.799 168.365 120.879V139.983C168.365 141.063 169.253 141.951 170.335 141.951C171.416 141.951 172.304 141.063 172.304 139.983V120.879C172.304 119.799 171.416 118.911 170.335 118.911Z" fill="black"/>
<path d="M146.509 93.3628C145.35 93.3628 143.805 93.1698 143.072 92.1664C142.57 91.5103 142.492 90.5841 142.84 89.3877C143.497 89.3492 146.238 89.1562 148.169 87.8826C148.247 87.844 148.247 87.7669 148.247 87.6897L147.513 82.5569C147.513 82.5183 147.474 82.4411 147.436 82.4411C147.397 82.4025 147.358 82.4025 147.32 82.4025H147.281C147.281 82.4025 146.779 82.5183 146.084 82.5183C145.234 82.5183 144.037 82.3253 143.149 81.3991C142.222 80.3957 141.797 78.7748 141.913 76.575C142.106 73.5648 142.995 70.7861 148.324 70.7861C148.633 70.7861 148.98 70.7861 149.328 70.8247C149.251 71.7895 149.019 75.8032 150.525 77.4626C150.988 77.9644 151.529 78.1959 152.186 78.1959H152.958C153.074 78.1959 153.537 78.2345 153.537 78.7748V78.8906C153.537 79.2379 153.537 79.6624 153.267 79.9326C152.919 80.2799 152.263 80.4343 151.259 80.4343C151.066 80.4343 150.834 80.4343 150.602 80.3957C150.564 80.3957 150.486 80.4343 150.448 80.4729C150.409 80.5115 150.371 80.5886 150.409 80.6272C150.564 81.978 151.066 86.4161 151.568 86.8792C151.838 87.1494 152.224 87.2652 152.688 87.2652C153.112 87.2652 153.614 87.1494 154.117 86.9178C154.194 86.8792 154.31 86.802 154.425 86.7635C155.236 86.3389 156.356 85.76 159.369 85.76C159.6 85.76 159.871 85.76 160.102 85.76C158.944 86.8792 154.966 90.6227 152.919 91.8191C151.877 92.4366 149.019 93.3628 146.509 93.3628Z" fill="white"/>
<path d="M148.362 70.9406C148.632 70.9406 148.902 70.9406 149.173 70.9792C149.095 72.2142 148.979 75.9191 150.447 77.5785C150.949 78.1188 151.528 78.389 152.262 78.389H153.034C153.227 78.389 153.421 78.4662 153.421 78.7749V78.8907C153.421 79.238 153.421 79.5468 153.189 79.8169C152.88 80.1257 152.262 80.28 151.297 80.28C151.103 80.28 150.872 80.28 150.679 80.2414C150.679 80.2414 150.679 80.2414 150.64 80.2414C150.524 80.2414 150.447 80.28 150.37 80.3572C150.292 80.4344 150.254 80.5502 150.254 80.6659C150.563 83.3288 150.988 86.6092 151.451 87.0337C151.76 87.3039 152.185 87.4583 152.725 87.4583C153.189 87.4583 153.729 87.3425 154.232 87.0723C154.347 87.0337 154.425 86.9565 154.54 86.918C155.351 86.4934 156.433 85.9531 159.368 85.9531C159.445 85.9531 159.561 85.9531 159.638 85.9531C158.171 87.3425 154.695 90.5457 152.841 91.6648C151.76 92.2823 148.941 93.17 146.469 93.17C145.349 93.17 143.882 92.977 143.187 92.0508C142.762 91.4719 142.685 90.6228 142.955 89.5808C143.805 89.5423 146.392 89.2721 148.246 88.0371C148.362 87.96 148.439 87.8056 148.4 87.6512L147.666 82.5184C147.666 82.4026 147.589 82.3254 147.512 82.2482C147.435 82.2097 147.358 82.1711 147.28 82.1711C147.242 82.1711 147.203 82.1711 147.203 82.1711C147.203 82.1711 146.74 82.2868 146.083 82.2868C145.272 82.2868 144.114 82.0939 143.303 81.2062C142.414 80.2414 141.99 78.6591 142.144 76.498C142.337 73.179 143.457 70.9406 148.362 70.9406ZM148.362 70.5547C143.032 70.5547 141.951 73.2948 141.758 76.5365C141.449 81.9395 144.384 82.7114 146.083 82.7114C146.778 82.7114 147.319 82.5956 147.319 82.5956L148.053 87.7284C145.89 89.1563 142.685 89.1949 142.685 89.1949C141.681 92.5139 143.843 93.5559 146.508 93.5559C148.979 93.5559 151.876 92.6683 153.073 91.9736C155.545 90.5457 160.603 85.5672 160.603 85.5672C160.179 85.5286 159.754 85.5286 159.406 85.5286C156.008 85.5286 154.965 86.2619 154.116 86.6864C153.652 86.918 153.189 87.0337 152.764 87.0337C152.339 87.0337 151.992 86.918 151.76 86.6864C151.297 86.2619 150.679 80.5502 150.679 80.5502C150.91 80.5502 151.142 80.5888 151.335 80.5888C153.961 80.5888 153.845 79.4696 153.845 78.7363C153.845 77.9645 153.073 77.9645 153.073 77.9645H152.301C148.864 77.9645 149.636 70.5933 149.636 70.5933C149.134 70.5547 148.748 70.5547 148.362 70.5547Z" fill="black"/>
<path d="M141.796 75.9967C141.796 75.9967 143.572 76.1897 144.19 75.0319C144.808 73.9127 144.19 72.7163 142.993 72.6777" stroke="black" stroke-miterlimit="10" stroke-linecap="round" stroke-linejoin="round"/>
<path d="M146.469 74.0675C146.469 74.0675 148.554 73.1799 149.674 74.7621" stroke="black" stroke-miterlimit="10" stroke-linecap="round" stroke-linejoin="round"/>
<path d="M143.108 79.0068C143.108 79.0068 144.614 79.6629 145.773 79.0068C145.773 79.0068 145.31 80.4733 143.919 80.6277" stroke="black" stroke-miterlimit="10" stroke-linecap="round" stroke-linejoin="round"/>
<path d="M147.318 82.5575C147.318 82.5575 148.4 82.5575 149.249 81.7471" stroke="black" stroke-miterlimit="10" stroke-linecap="round" stroke-linejoin="round"/>
<path d="M148.014 76.748C148.231 76.2847 148.14 75.7848 147.812 75.6313C147.484 75.4779 147.042 75.7291 146.825 76.1924C146.608 76.6557 146.699 77.1556 147.027 77.3091C147.355 77.4625 147.797 77.2113 148.014 76.748Z" fill="black"/>
<path d="M144.078 74.8757C144.25 74.5089 144.17 74.109 143.9 73.9826C143.629 73.8562 143.271 74.051 143.1 74.4178C142.928 74.7847 143.008 75.1845 143.278 75.311C143.549 75.4374 143.907 75.2425 144.078 74.8757Z" fill="black"/>
<path d="M29.3786 175.14H48.3014C48.3014 175.14 49.3055 170.046 41.6977 169.467V128.019H53.7079L56.025 123.696H21.4619L25.5554 127.787H36.3298V169.506C36.3298 169.544 29.5717 169.043 29.3786 175.14Z" fill="#191919"/>
<path d="M34.4768 84.7178H26.9463C26.9463 84.7178 20.9219 85.1037 19.7634 93.6713C18.6048 102.239 18.2959 119.413 18.2959 119.413C18.2959 119.413 18.3731 123.812 21.4626 124.044H48.3021L34.4768 84.7178Z" fill="#4BFF88"/>
<path d="M28.6455 113.276H44.5175" stroke="black" stroke-miterlimit="10" stroke-linecap="round" stroke-linejoin="round"/>
<path d="M83.3672 164.335C83.0196 164.412 82.6721 164.527 82.2859 164.643C82.2859 164.643 78.4241 165.762 77.3042 162.521C77.1111 161.98 76.8794 161.324 76.5704 160.668C75.3347 157.619 73.481 153.837 73.2493 153.413C73.2493 153.374 73.2107 153.374 73.2107 153.374L74.0217 152.988L73.9444 152.757L71.6273 147.354L70.9708 147.624V147.585L62.1273 124.507H63.2472C63.2472 124.507 63.2472 124.584 63.2859 124.739C63.3245 124.931 63.4017 125.24 63.5176 125.51C63.6334 125.819 63.7879 126.051 64.0196 126.089C64.5603 126.166 67.4952 125.549 67.4952 125.549C67.4952 125.549 67.3021 125.009 67.1863 124.082C67.0704 123.156 75.4891 123.156 76.8794 122.886C78.2696 122.616 86.3794 118.95 83.4444 113.701C80.5095 108.452 74.3306 100.116 58.5745 95.4082C58.5745 95.4082 54.1334 86.5705 52.7431 85.2197C51.3529 85.2197 40.8488 85.2197 40.8488 85.2197L36.2919 94.289L35.0947 101.39C35.0947 101.39 36.0988 107.102 39.9606 114.396C43.8224 121.69 60.6212 152.255 60.6212 152.255L59.6171 152.718C59.6171 152.718 58.5745 153.104 59.231 154.725C59.8875 156.307 60.7757 158.044 60.7757 158.044C60.7757 158.044 61.7025 158.893 62.5907 158.43C63.4789 157.967 63.4403 157.967 63.4403 157.967L63.4789 158.005L63.672 158.353L67.3407 165.029L70.7391 171.204L73.4424 176.144L85.7229 170.625C85.7229 170.625 89.5847 167.576 89.8936 165.377C89.8936 165.261 86.9587 163.524 83.3672 164.335ZM58.4586 115.206L55.9871 108.8L66.607 113.662L64.9464 114.01C64.9464 114.01 64.792 113.508 64.4444 113.547C64.0968 113.585 60.544 114.01 60.544 114.01C60.544 114.01 60.3509 114.589 60.4281 114.936C60.4281 114.975 60.4281 114.975 60.4281 115.013C60.2737 115.206 59.2696 115.206 58.7676 115.206C58.5745 115.206 58.4586 115.206 58.4586 115.206Z" fill="#18849C" stroke="black" stroke-miterlimit="10"/>
<path d="M62.0118 158.314C61.5097 158.314 61.0463 157.928 60.9305 157.851C60.8146 157.619 60.0422 156.037 59.4244 154.57C59.1926 154.03 59.154 153.605 59.3085 153.258C59.4244 152.949 59.6947 152.834 59.6947 152.834L60.6987 152.37C60.6987 152.37 60.7374 152.37 60.7374 152.332L70.9711 147.701H71.0098H71.0484L71.5504 147.508L73.7903 152.795L73.1724 153.104C73.1337 153.142 73.0951 153.142 73.0951 153.22L63.711 158.005L63.5951 157.812C63.5565 157.735 63.4792 157.696 63.4406 157.696C63.402 157.696 63.3634 157.696 63.3634 157.735L62.5138 158.198C62.3207 158.275 62.1662 158.314 62.0118 158.314Z" fill="white"/>
<path d="M71.473 147.778L73.597 152.757L73.1336 152.988C73.0564 153.027 73.0177 153.065 72.9791 153.104L63.8266 157.774L63.788 157.735C63.7108 157.619 63.5949 157.542 63.4405 157.542C63.3632 157.542 63.3246 157.542 63.2474 157.581L62.3978 158.044C62.2819 158.121 62.1661 158.121 62.0116 158.121C61.5868 158.121 61.2006 157.851 61.0848 157.735C60.9303 157.388 60.1965 155.883 59.6173 154.493C59.1152 153.335 59.7331 153.027 59.7717 153.027C59.7717 153.027 59.7717 153.027 59.8104 153.027L60.8144 152.564H60.853L71.0482 147.971C71.0868 147.971 71.1254 147.971 71.2027 147.932L71.473 147.778ZM71.6661 147.276L71.0096 147.547V147.508L60.66 152.178L59.6559 152.641C59.6559 152.641 58.6132 153.027 59.2697 154.648C59.9262 156.23 60.8144 157.967 60.8144 157.967C60.8144 157.967 61.3937 158.507 62.0502 158.507C62.2433 158.507 62.3978 158.468 62.5909 158.352C63.4405 157.889 63.4405 157.889 63.4405 157.889L63.6335 158.275L73.2881 153.374C73.2881 153.335 73.2494 153.335 73.2494 153.335L74.0604 152.949L71.6661 147.276Z" fill="black"/>
<path d="M64.174 125.858C64.1354 125.858 64.1354 125.858 64.0968 125.858C63.865 125.82 63.5947 125.086 63.4789 124.43L60.5825 114.898C60.5439 114.705 60.5825 114.396 60.6598 114.203C61.2777 114.126 64.1354 113.779 64.4443 113.74C64.5988 113.74 64.7146 114.01 64.7533 114.088L67.0317 124.122C67.1089 124.701 67.2248 125.164 67.302 125.395C66.6455 125.472 64.7533 125.858 64.174 125.858Z" fill="white"/>
<path d="M64.4442 113.933C64.4828 113.971 64.5215 114.049 64.5601 114.126L66.8385 124.121C66.9158 124.584 66.993 124.97 67.0702 125.202C66.182 125.356 64.6759 125.665 64.2125 125.665H64.1739C64.0194 125.549 63.7877 124.97 63.7105 124.391V124.353L60.8141 114.859C60.7755 114.743 60.8141 114.55 60.8528 114.357C61.9341 114.242 64.1353 113.971 64.4442 113.933ZM64.4442 113.547C64.058 113.585 60.5052 114.01 60.5052 114.01C60.5052 114.01 60.3121 114.589 60.3893 114.936L63.2857 124.43C63.2857 124.43 63.5174 125.974 64.058 126.012C64.0967 126.012 64.1353 126.012 64.1739 126.012C64.9076 126.012 67.5337 125.472 67.5337 125.472C67.5337 125.472 67.3406 124.932 67.2247 124.005L64.9463 113.971C64.9076 114.01 64.7918 113.547 64.4442 113.547Z" fill="black"/>
<path d="M60.5054 115.206L63.2086 124.198L62.2045 124.237L58.7676 115.399C59.2696 115.438 60.3509 115.438 60.5054 115.206Z" fill="white"/>
<path d="M63.5956 125.472C63.4795 125.202 63.402 124.893 63.3633 124.7L63.5956 125.472Z" stroke="black" stroke-miterlimit="10"/>
<path d="M89.8932 165.26C89.5457 167.499 85.7225 170.509 85.7225 170.509L73.442 176.028L70.7387 171.088L67.3403 164.913L63.6716 158.237L63.4785 157.889L73.9826 152.641L74.0598 152.872L73.2489 153.258C73.2489 153.258 73.2489 153.258 73.2875 153.297C73.4806 153.721 75.3342 157.503 76.6086 160.552C76.879 161.208 77.1493 161.864 77.3424 162.405C78.4623 165.646 82.3241 164.527 82.3241 164.527C82.6717 164.411 83.0578 164.296 83.4054 164.218C86.9583 163.524 89.8932 165.26 89.8932 165.26Z" fill="white" stroke="black" stroke-miterlimit="10"/>
<path d="M80.1229 170.123L73.8668 173.365C73.8668 173.365 72.3607 171.011 70.7001 171.088L67.3018 164.913L76.6087 160.591C76.879 161.247 77.1493 161.903 77.3424 162.443C78.4624 165.685 82.3242 164.566 82.3242 164.566C82.6717 164.45 83.0579 164.334 83.4055 164.257C83.2896 164.411 79.5437 167.538 80.1229 170.123Z" fill="black"/>
<path d="M36.6396 98.3804C36.6396 98.3804 38.5319 105.752 39.9608 108.8C41.3897 111.888 47.5299 123.388 47.5299 123.388L62.5523 151.175L64.406 150.558C64.406 150.558 46.6803 117.638 45.5604 115.245C44.4405 112.853 41.5441 107.45 41.3124 106.06C41.0807 104.71 39.1498 100.387 39.0726 99.4996C38.9953 98.6119 37.7982 94.251 37.7982 94.251L36.6396 98.3804Z" fill="white"/>
<path d="M55.4466 98.3809C55.4466 98.3809 54.4039 100.735 53.0137 101.16L71.0097 147.586" stroke="black" stroke-miterlimit="10" stroke-linejoin="round"/>
<path d="M59.7716 94.83L59.5786 94.7142L58.42 94.444C58.42 94.444 55.0216 88.5008 54.8672 88.5008C54.7513 88.5008 54.983 85.8765 54.9444 85.1818C54.8672 84.4872 54.0176 83.4452 54.0176 83.4452L57.0298 67.7766C57.0298 67.7766 57.4932 65.3452 54.6355 63.4542C54.6355 63.4542 59.0765 63.3384 60.6985 65.4996C62.3204 67.6608 62.668 70.0149 62.7452 74.8004C62.8225 79.5859 62.7452 86.7641 62.7452 86.7641L65.1395 89.6972" fill="#144EF2"/>
<path d="M59.7716 94.83L59.5786 94.7142L58.42 94.444C58.42 94.444 55.0216 88.5008 54.8672 88.5008C54.7513 88.5008 54.983 85.8765 54.9444 85.1818C54.8672 84.4872 54.0176 83.4452 54.0176 83.4452L57.0298 67.7766C57.0298 67.7766 57.4932 65.3452 54.6355 63.4542C54.6355 63.4542 59.0765 63.3384 60.6985 65.4996C62.3204 67.6608 62.668 70.0149 62.7452 74.8004C62.8225 79.5859 62.7452 86.7641 62.7452 86.7641L65.1395 89.6972" stroke="black" stroke-miterlimit="10"/>
<path d="M77.2659 107.72C76.8411 108.338 75.9915 107.528 75.9143 107.296C75.837 107.064 75.0261 107.798 74.524 107.064C74.022 106.331 73.52 104.209 73.0565 103.9C72.5931 103.552 70.276 100.426 69.9671 100.735C69.6195 101.044 69.5809 101.546 69.8899 102.125C70.1988 102.703 70.8553 104.17 70.3147 104.594C69.774 105.019 68.7313 102.935 68.1134 102.395C67.4955 101.816 66.2211 100.118 66.5687 98.6126L59.8105 94.8306C61.1622 93.0939 63.2089 90.7397 65.2171 89.7363L72.4 98.6512C72.4 98.6512 77.0728 100.774 77.6521 101.932C78.1928 103.051 77.6907 107.103 77.2659 107.72Z" fill="white" stroke="black" stroke-miterlimit="10" stroke-linejoin="round"/>
<path d="M41.2344 84.988L50.0779 69.0107C50.7344 69.358 53.1287 70.5544 53.9783 70.8245C53.9783 70.8245 54.0169 70.8245 54.0555 70.8245H54.0942C56.1409 70.207 56.7974 68.8949 56.9905 68.123C57.7243 69.6668 59.6938 73.7962 60.273 74.761C60.7751 76.8064 60.582 78.3887 59.6938 79.5079C58.3421 81.2445 55.7547 81.2831 55.4458 81.2831C55.3686 81.2831 55.2913 81.3217 55.2527 81.3603L52.7039 84.988H41.2344V84.988Z" fill="white"/>
<path d="M57.0295 68.5865C57.8791 70.3617 59.5397 73.8351 60.1189 74.7613C60.5824 76.7295 60.3893 78.2346 59.5397 79.3152C58.2267 80.9747 55.7165 81.0519 55.4462 81.0519H55.4075C55.2917 81.0519 55.1758 81.1291 55.0986 81.2063L52.5884 84.7568H41.5437L50.1555 69.204C51.0051 69.6285 53.1291 70.6705 53.9014 70.9406C53.9401 70.9406 53.9787 70.9406 54.0173 70.9406C54.0559 70.9406 54.0945 70.9406 54.1331 70.9406C55.7937 70.4389 56.5661 69.5127 56.9136 68.818C56.9523 68.7794 56.9909 68.7023 57.0295 68.5865ZM56.875 67.4287C56.875 67.4287 56.9523 69.7443 54.0173 70.6319C53.0518 70.3232 50.001 68.7409 50.001 68.7409L40.9258 85.1813H52.8201L55.4462 81.4764C55.4462 81.4764 55.4462 81.4764 55.4848 81.4764C55.9868 81.4764 62.1271 81.3606 60.5051 74.6841C59.7714 73.5263 56.875 67.4287 56.875 67.4287Z" fill="black"/>
<path d="M50.0007 68.7414L38.6084 91.5882C38.6084 91.5882 38.145 93.3635 37.5657 95.7176C36.3686 100.464 34.5149 107.604 34.3218 107.951C34.0129 108.492 36.2914 108.916 36.2527 110.421C36.2141 111.965 36.3686 113.354 34.4763 113.432C32.6226 113.47 30.0739 113.432 30.0739 113.432C30.0739 113.432 29.147 111.695 31.1938 111.618H28.1816C28.1816 111.618 28.2202 113.277 27.9885 113.625C27.7568 113.933 26.2893 114.01 26.0576 113.625C26.0576 113.625 24.3198 114.049 24.1267 112.853C24.1267 112.853 22.1186 113.509 21.9641 112.66C21.9641 112.66 21.6551 108.723 24.4743 108.492C24.4743 108.492 24.9377 107.836 26.0576 108.106H28.5678C28.5678 108.106 29.9194 96.6824 29.9194 95.9492C29.9194 95.872 29.958 95.5246 30.0739 94.9458C31.1552 89.3498 37.1023 63.2227 45.521 64.0331C46.3706 65.5768 50.0007 68.7414 50.0007 68.7414Z" fill="#144EF2" stroke="black" stroke-miterlimit="10"/>
<path d="M26.984 113.702C26.5206 113.702 26.2889 113.586 26.2503 113.548C26.2117 113.471 26.1344 113.471 26.0958 113.471H26.0572C26.0572 113.471 25.7869 113.548 25.4393 113.548C24.8214 113.548 24.4352 113.316 24.3966 112.892C24.3966 112.853 24.358 112.776 24.3194 112.776C24.2808 112.776 24.2421 112.737 24.2035 112.737C24.1649 112.737 24.1649 112.737 24.1263 112.737C24.1263 112.737 23.3925 112.969 22.8519 112.969C22.4657 112.969 22.2726 112.892 22.234 112.699C22.234 112.583 22.0023 108.955 24.5511 108.762C24.5897 108.762 24.6669 108.724 24.7056 108.685C24.7056 108.685 24.9759 108.338 25.5938 108.338C25.7482 108.338 25.9027 108.376 26.0958 108.415H26.1344H28.606C28.7218 108.415 28.7991 108.338 28.7991 108.261C28.8377 107.797 30.1507 96.7986 30.1507 96.0653C30.1507 96.0267 30.1893 95.7952 30.2666 95.2549C32.7767 95.718 35.1711 95.9495 37.3723 95.9881C34.9393 105.52 34.3215 107.759 34.2056 107.952C34.0125 108.338 34.3987 108.608 34.8621 108.878C35.4414 109.264 36.1365 109.727 36.0979 110.499C36.0979 110.653 36.0979 110.769 36.0979 110.923C36.0593 112.429 35.982 113.278 34.5145 113.316C33.9739 113.316 33.3174 113.355 32.545 113.355C31.5023 113.355 30.5369 113.355 30.2279 113.316C30.1507 113.123 29.9962 112.66 30.1893 112.351C30.3438 112.081 30.6914 111.927 31.2706 111.927C31.3865 111.927 31.4637 111.85 31.4637 111.734C31.4637 111.618 31.3865 111.541 31.2706 111.541H28.2584C28.2198 111.541 28.1426 111.58 28.1039 111.618C28.0653 111.657 28.0653 111.695 28.0653 111.772C28.0653 112.544 28.0267 113.471 27.9109 113.664C27.795 113.586 27.4474 113.702 26.984 113.702Z" fill="white"/>
<path d="M30.3829 95.3708C32.7386 95.7953 35.0171 96.0269 37.0638 96.0655C34.7081 105.251 34.0902 107.527 33.9744 107.759C33.704 108.299 34.2447 108.647 34.6695 108.955C35.326 109.38 35.8667 109.804 35.828 110.422C35.828 110.576 35.828 110.692 35.828 110.846C35.7894 112.352 35.7122 113.008 34.4378 113.046C33.8971 113.046 33.2406 113.085 32.4683 113.085C31.5414 113.085 30.6918 113.085 30.3057 113.085C30.2284 112.892 30.1898 112.583 30.3057 112.39C30.4601 112.12 30.8849 112.081 31.2325 112.043C31.4256 112.043 31.6187 111.85 31.6187 111.657C31.6187 111.464 31.4256 111.271 31.2325 111.271H28.2203C28.1044 111.271 28.0272 111.31 27.95 111.387C27.8727 111.464 27.8341 111.58 27.8341 111.657C27.8341 112.429 27.7955 113.239 27.7183 113.394C27.641 113.432 27.3707 113.509 26.9845 113.509C26.637 113.509 26.4439 113.432 26.4053 113.394C26.328 113.278 26.2122 113.239 26.0963 113.239C26.0577 113.239 26.0191 113.239 26.0191 113.239C26.0191 113.239 25.7488 113.316 25.4398 113.316C24.6675 113.316 24.5902 112.93 24.5516 112.815C24.5516 112.699 24.4744 112.622 24.3585 112.545C24.2813 112.506 24.2427 112.506 24.1654 112.506C24.1268 112.506 24.0882 112.506 24.0496 112.545C24.0496 112.545 23.3544 112.776 22.8138 112.776C22.7366 112.776 22.4276 112.776 22.389 112.66C22.3504 112.274 22.2345 109.11 24.513 108.917C24.6288 108.917 24.7447 108.84 24.7833 108.762C24.7833 108.762 25.015 108.492 25.517 108.492C25.6715 108.492 25.7874 108.531 25.9418 108.569C25.9805 108.569 26.0191 108.569 26.0577 108.569H28.5679C28.761 108.569 28.9154 108.415 28.954 108.222C29.1085 107.064 30.3057 96.7601 30.3057 96.0269C30.2671 95.9497 30.3057 95.7567 30.3829 95.3708ZM30.074 94.9463C29.9581 95.5252 29.9195 95.9111 29.9195 95.9497C29.9195 96.683 28.5679 108.106 28.5679 108.106H26.0577C25.8646 108.068 25.6715 108.029 25.517 108.029C24.7833 108.029 24.4744 108.454 24.4744 108.454C21.6939 108.685 21.9642 112.622 21.9642 112.622C22.0414 112.969 22.389 113.046 22.7752 113.046C23.3931 113.046 24.1268 112.815 24.1268 112.815C24.2427 113.509 24.8605 113.664 25.3626 113.664C25.7488 113.664 26.0191 113.587 26.0191 113.587C26.1349 113.779 26.5211 113.857 26.9073 113.857C27.3321 113.857 27.7955 113.741 27.95 113.587C28.1817 113.278 28.1431 111.58 28.1431 111.58H31.1553C29.0699 111.657 30.0353 113.394 30.0353 113.394C30.0353 113.394 31.1553 113.432 32.4683 113.432C33.1248 113.432 33.8199 113.432 34.4378 113.394C36.3301 113.355 36.137 111.927 36.2142 110.383C36.2528 108.878 34.013 108.454 34.2833 107.913C34.4764 107.566 36.3301 100.388 37.5272 95.6795C34.9398 95.6795 32.3138 95.3708 30.074 94.9463Z" fill="black"/>
<path d="M27.4088 108.299C27.4088 108.299 26.2511 108.144 26.174 109.225C26.0968 110.305 26.174 113.277 26.174 113.277" stroke="black" stroke-miterlimit="10" stroke-linecap="round" stroke-linejoin="round"/>
<path d="M24.3206 108.955L24.127 112.544" stroke="black" stroke-miterlimit="10" stroke-linecap="round" stroke-linejoin="round"/>
<path d="M53.9391 70.5548C53.2054 70.5548 46.9106 67.1201 45.8293 64.2642C45.9452 64.2642 46.061 64.2642 46.2541 64.2642C47.0651 64.2642 48.5712 64.0713 49.7684 62.8749C50.8883 61.7171 51.4676 59.9419 51.4676 57.5491C51.4676 57.4333 51.3903 57.3562 51.2745 57.3562C50.0387 57.3562 49.305 57.086 49.305 57.086L43.8984 54.5389L57.4147 45.624L60.2725 48.5185C60.4656 48.943 62.3578 53.6513 60.5428 56.5071C59.6546 57.8965 58.0326 58.6297 55.7155 58.7069C55.6383 58.7069 55.5611 58.7455 55.5225 58.8227C54.8273 60.8295 54.0936 63.2994 54.6342 63.6082C55.059 63.8397 57.2989 65.8851 56.8741 67.9691C56.4107 70.0531 54.5956 70.439 53.9391 70.5548Z" fill="white"/>
<path d="M57.2994 45.9324L60.0026 48.6724C60.2343 49.2513 62.0108 53.7281 60.273 56.4295C59.4234 57.7417 57.8786 58.4749 55.6002 58.5135C55.4457 58.5135 55.2913 58.6293 55.2526 58.7837C53.6307 63.3762 54.1713 63.6464 54.4417 63.8007C54.8278 63.9937 56.9904 66.0005 56.6043 67.9687C56.2181 69.8598 54.5961 70.2071 53.901 70.3615C53.0128 70.3229 47.3746 67.1197 46.1002 64.4568C46.1388 64.4568 46.1774 64.4568 46.216 64.4568C47.0656 64.4568 48.649 64.2638 49.8847 63.0289C51.0433 61.8325 51.6612 60.0187 51.6225 57.5487C51.6225 57.3558 51.4295 57.1628 51.2364 57.1628C50.1164 57.1628 49.4213 56.9698 49.3441 56.9312L44.2465 54.5385L57.2994 45.9324ZM57.3766 45.4307L43.4355 54.6157L49.1896 57.3172C49.1896 57.3172 49.9234 57.5873 51.2364 57.5873C51.275 63.4534 47.7608 64.1095 46.216 64.1095C45.7912 64.1095 45.5209 64.0709 45.5209 64.0709C46.2933 67.0425 53.0128 70.786 53.9396 70.786H53.9782C54.6734 70.6316 56.6043 70.2457 57.0291 68.0845C57.4539 65.9233 55.214 63.7621 54.6734 63.492C54.1327 63.2218 55.6388 58.9381 55.6388 58.9381C64.7913 58.6679 60.3502 48.4795 60.3502 48.4795L57.3766 45.4307Z" fill="black"/>
<path d="M57.8015 54.3848C57.8015 54.3848 58.6511 53.9989 58.3035 53.5744C57.9559 53.1498 56.3726 52.378 56.4885 50.9501C56.6043 49.5221 57.5311 48.403 59.9254 48.7503" stroke="black" stroke-miterlimit="10" stroke-linecap="round" stroke-linejoin="round"/>
<path d="M55.1758 55.0791C55.1758 55.0791 55.9095 56.3527 57.9176 55.8124" stroke="black" stroke-miterlimit="10" stroke-linecap="round" stroke-linejoin="round"/>
<path d="M59.141 52.2984C59.4244 52.2051 59.5243 51.7356 59.3642 51.2498C59.204 50.764 58.8444 50.4458 58.561 50.5391C58.2776 50.6324 58.1777 51.1019 58.3378 51.5877C58.498 52.0735 58.8576 52.3917 59.141 52.2984Z" fill="black"/>
<path d="M54.7748 52.9488C55.0582 52.8555 55.1581 52.386 54.998 51.9002C54.8378 51.4143 54.4782 51.0961 54.1948 51.1894C53.9114 51.2828 53.8115 51.7522 53.9716 52.2381C54.1318 52.7239 54.4914 53.0421 54.7748 52.9488Z" fill="black"/>
<path d="M49.3057 55.5039C49.3057 55.5039 50.5028 55.967 51.1594 55.5039" stroke="black" stroke-miterlimit="10" stroke-linecap="round" stroke-linejoin="round"/>
<path d="M55.6395 58.9387C55.6395 58.9387 54.481 58.9001 54.0176 58.4756" stroke="black" stroke-miterlimit="10" stroke-linecap="round" stroke-linejoin="round"/>
<path d="M53.4376 52.4933C52.588 53.4195 51.777 54.1528 51.1205 54.3457L48.8035 54.3843C48.8035 54.3843 47.2974 57.1244 51.2364 57.5875C51.2364 57.5875 49.0352 58.3207 46.7567 56.5455C46.7567 56.5455 46.3319 57.7419 46.5636 60.9065C46.7567 64.0325 47.2587 78.852 37.7201 80.3185C37.3339 80.3571 29.1083 85.0268 27.8725 75.3015C27.8725 75.3015 22.4274 72.9087 26.405 67.3128C27.3705 66.348 29.3014 64.9587 31.3095 64.264C33.3177 63.5693 35.5189 60.9836 35.8664 56.97C36.1754 52.995 34.6693 38.5999 44.8644 40.5296C45.6754 41.1856 47.336 42.382 47.336 42.382C47.336 42.382 61.8563 37.8667 60.3502 48.4796C60.3502 48.4796 58.1104 47.8622 57.8014 46.6272C57.8014 46.6272 56.2567 49.0971 54.5189 51.2197" fill="black"/>
<path d="M27.1006 68.2782C27.1006 68.2782 30.0742 66.1942 33.125 64.6505C36.1758 63.1454 37.2571 57.7038 37.7205 51.5676C38.1839 45.4314 39.4583 40.5301 44.5945 42.1124" stroke="white" stroke-width="2" stroke-miterlimit="10" stroke-linecap="round" stroke-linejoin="round"/>
<path d="M46.2168 44.1185C46.2168 44.1185 52.7819 40.2593 58.227 44.1185" stroke="white" stroke-width="2" stroke-miterlimit="10" stroke-linecap="round" stroke-linejoin="round"/>
<path d="M92.79 26.7904C92.79 26.7904 94.7596 24.4362 96.536 23.6258C98.3124 22.8154 98.7758 22.854 99.2393 21.9277" stroke="white" stroke-width="2" stroke-miterlimit="10" stroke-linecap="round" stroke-linejoin="round"/>
<path d="M100.089 23.3173C100.089 23.3173 103.178 21.6964 105.457 21.542" stroke="white" stroke-width="2" stroke-miterlimit="10" stroke-linecap="round" stroke-linejoin="round"/>
<path d="M166.164 24.1273C166.164 24.1273 171.609 20.5381 179.101 22.3134" stroke="white" stroke-width="2" stroke-miterlimit="10" stroke-linecap="round" stroke-linejoin="round"/>
<path d="M42.393 48.2862C42.0841 46.6267 43.4743 42.806 46.139 41.9184C48.8036 41.0308 48.3788 42.1885 47.3361 43.1148C46.2934 44.041 44.3625 45.7391 43.8991 46.8197C43.4357 47.9002 42.5861 49.4439 42.393 48.2862Z" fill="#144EF2"/>
</svg>
