<svg width="19" height="16" viewBox="0 0 19 16" fill="none" xmlns="http://www.w3.org/2000/svg">
<path d="M17.1142 1.91586C16.6686 1.43374 16.1251 1.04516 15.5175 0.774229C14.9098 0.503302 14.2509 0.355809 13.5817 0.340905C12.9145 0.327369 12.2513 0.443442 11.6315 0.682227C11.0116 0.921011 10.4479 1.27763 9.97365 1.7309L9.18795 2.4893L8.57271 1.89606C6.65908 0.0470707 3.54446 -0.108198 1.63467 1.55584C1.13688 1.98683 0.735354 2.51126 0.454604 3.09708C0.173853 3.6829 0.019775 4.31782 0.00178151 4.96305C-0.016212 5.60828 0.102257 6.25028 0.349951 6.84983C0.597645 7.44939 0.969365 7.9939 1.44241 8.45013L8.25997 15.0308C8.50624 15.2681 8.83999 15.4013 9.18795 15.4013C9.53591 15.4013 9.86966 15.2681 10.1159 15.0308L16.763 8.61467C18.6779 6.76568 18.8356 3.76052 17.1142 1.91586Z" fill="#5F4444"/>
</svg>
