<svg width="216" height="217" viewBox="0 0 216 217" fill="none" xmlns="http://www.w3.org/2000/svg">
<ellipse cx="108.395" cy="108.5" rx="107.578" ry="108.5" fill="#00E6C0"/>
<path d="M154.069 167.356C153.819 167.269 128.9 158.705 110.222 164.381L110.09 163.944C128.913 158.227 153.969 166.837 154.22 166.923L154.069 167.356Z" fill="#080808"/>
<path d="M152.453 148.624L140.576 191.45H188.075L175.032 144.93L152.453 148.624Z" fill="#D9E7C3"/>
<path d="M164.544 152.282C160.524 152.282 157.265 155.202 157.265 158.806C157.265 162.409 160.524 165.329 164.544 165.329C168.563 165.329 171.823 162.409 171.823 158.806C171.827 155.202 168.568 152.282 164.544 152.282ZM164.544 161.343C162.978 161.343 161.708 160.204 161.708 158.801C161.708 157.398 162.978 156.259 164.544 156.259C166.11 156.259 167.38 157.398 167.38 158.801C167.38 160.204 166.114 161.343 164.544 161.343Z" fill="#7C4844"/>
<path d="M164.261 168.6C158.671 168.6 154.142 172.29 154.142 176.84C154.142 181.391 158.671 185.081 164.261 185.081C169.851 185.081 174.381 181.391 174.381 176.84C174.376 172.29 169.847 168.6 164.261 168.6ZM164.225 180.658C161.698 180.658 159.654 179.086 159.654 177.146C159.654 175.205 161.703 173.633 164.225 173.633C166.751 173.633 168.795 175.205 168.795 177.146C168.795 179.086 166.747 180.658 164.225 180.658Z" fill="#7C4844"/>
<path d="M172.884 151.512L169.46 153.452L170.903 153.703L165.878 155.844L168.791 157.707L165.163 158.759L171.036 158.518L168.65 155.985L172.802 153.981L171.177 153.083L172.884 151.512Z" fill="white"/>
<path d="M140.407 164.673L149.58 171.101L150.909 166.008L156.727 173.242L157.738 171.019L163.997 179.952L158.02 173.847L156.85 176.635L152.202 170.13L151.233 174.535L140.407 164.673Z" fill="white"/>
<path d="M113.576 50.4683C113.576 50.4637 93.4643 43.7809 92.4537 39.9315C92.3763 39.6354 92.3035 39.3439 92.2398 39.0478C91.5205 35.8499 91.1245 32.4151 91.5478 29.1534C91.7436 27.6592 92.126 26.0694 93.0728 24.8622C93.5053 24.3155 94.0561 23.8919 94.6661 23.5639C95.786 22.9626 97.1153 22.6801 98.3262 22.5298C99.7647 22.3522 101.085 22.5253 102.282 22.9671C105.004 23.9648 107.117 26.3199 108.582 29.0076C110.895 33.2533 112.024 38.1322 112.775 42.8744C113.057 44.6737 113.276 46.4914 113.431 48.309C113.44 48.391 113.449 49.047 113.476 49.6164C113.499 50.0628 113.526 50.45 113.576 50.4683Z" fill="#F8F5BB"/>
<path d="M113.476 49.616L112.743 49.4794L102.282 22.9668C105.004 23.9644 107.117 26.3196 108.583 29.0073C110.895 33.2529 112.024 38.1318 112.775 42.874C113.057 44.6734 113.276 46.491 113.431 48.3086C113.44 48.3906 113.449 49.0466 113.476 49.616Z" fill="#F1CF85"/>
<path d="M91.7754 36.8389C91.7754 36.8389 97.4976 40.6928 97.8618 41.8134C98.2305 42.934 97.8618 41.8134 97.8618 41.8134L92.3717 39.604L91.7754 36.8389Z" fill="#F1CF85"/>
<path d="M100.443 27.6041C95.6815 28.8432 95.636 35.4895 97.862 41.8125L106.452 49.9621L112.507 49.4701C112.507 49.4701 111.127 35.6626 108.455 31.7404C105.788 27.8273 103.871 26.7158 100.443 27.6041Z" fill="#34182B"/>
<path d="M108.765 36.4601C108.765 37.3302 108.26 39.9724 108.26 39.9724V47.1699L102.232 44.3365V42.6783C100.389 41.3253 99.1506 38.8882 99.1506 38.8882C97.4116 38.8107 97.0611 37.2801 97.1931 36.4601C97.3297 35.6401 98.1718 35.4443 98.1718 35.4443C98.0853 34.5605 98.1218 33.7679 98.2492 33.0572C98.3221 32.6245 98.4313 32.219 98.5542 31.85C99.3827 29.4402 101.113 28.315 101.113 28.315C103.949 27.7547 105.692 28.9437 106.726 30.2556C107.727 31.5312 108.059 32.916 108.059 32.916C108.396 32.4331 109.507 32.2099 109.766 33.3624C110.026 35.8269 108.765 36.4601 108.765 36.4601Z" fill="#EF9D5D"/>
<path d="M108.26 39.9727V47.1702L102.232 44.3368V44.1409C102.232 43.7992 102.232 43.0202 102.232 42.6786C102.232 42.5738 104.372 43.1888 104.345 43.002C107.008 42.7651 108.26 39.9727 108.26 39.9727Z" fill="#F04F50"/>
<path d="M104.345 43.0021C103.721 43.0613 103.015 42.9748 102.232 42.6787C100.389 41.3257 99.1506 38.8886 99.1506 38.8886C97.4116 38.8111 97.0611 37.2805 97.1931 36.4605C97.3297 35.6405 98.1718 35.4447 98.1718 35.4447C98.0853 34.5609 98.1218 33.7683 98.2492 33.0576C99.3509 33.2991 101.764 33.9641 102.05 35.2169C102.419 36.8523 101.978 37.6313 101.827 38.1141C101.677 38.597 103.484 38.3374 103.484 38.3374C103.484 38.3374 103.462 39.7131 103.944 40.196C104.34 40.5877 104.226 42.173 104.345 43.0021Z" fill="#F8460E"/>
<path d="M106.725 30.2557C106.593 30.0917 106.019 29.9779 105.81 29.905C105.46 29.7865 105.104 29.6863 104.74 29.6089C104.003 29.4494 103.243 29.3765 102.491 29.4494C100.798 29.618 99.6827 30.6475 98.5674 31.841C98.663 31.7363 98.7085 31.4493 98.7631 31.3126C98.8496 31.1076 98.9452 30.9072 99.0499 30.7113C99.2502 30.3332 99.4869 29.9733 99.751 29.6408C100.015 29.3037 100.306 28.9939 100.625 28.7069C101.995 27.4815 104.599 28.3197 105.833 29.3355C106.165 29.6089 106.461 29.9186 106.725 30.2557Z" fill="#F8460E"/>
<path d="M102.232 42.6786C102.232 42.6786 102.933 43.1706 104.345 43.002C105.56 42.8562 106.962 42.2868 108.26 39.9727V40.9247C108.26 40.9247 106.976 43.5623 105.351 44.3094C103.726 45.0565 102.232 42.6786 102.232 42.6786Z" fill="#9F1D21"/>
<path d="M105.35 36.93C104.913 36.93 104.476 36.8252 104.089 36.6248C103.147 36.151 102.564 35.1989 102.564 34.1375C102.564 32.6024 103.816 31.3496 105.35 31.3496C106.088 31.3496 106.784 31.6366 107.312 32.1514C107.845 32.6798 108.141 33.3859 108.141 34.1375C108.141 35.6818 106.889 36.93 105.35 36.93Z" fill="white"/>
<path d="M105.351 31.5815C106.052 31.5815 106.689 31.864 107.153 32.3195C107.622 32.7842 107.913 33.431 107.913 34.1417C107.913 35.5584 106.766 36.7018 105.351 36.7018C104.936 36.7018 104.54 36.6016 104.194 36.4239C103.361 36.0048 102.792 35.1393 102.792 34.1417C102.792 32.7249 103.939 31.5815 105.351 31.5815ZM105.351 31.126C103.689 31.126 102.337 32.4789 102.337 34.1417C102.337 35.2896 102.97 36.3192 103.989 36.8294C104.404 37.0435 104.877 37.1574 105.351 37.1574C107.017 37.1574 108.369 35.8044 108.369 34.1417C108.369 33.3308 108.05 32.57 107.472 31.9961C106.903 31.4357 106.152 31.126 105.351 31.126Z" fill="#080808"/>
<path d="M99.328 38.1087C98.9092 38.1087 98.4904 38.0131 98.1216 37.8308C97.1657 37.3753 96.542 36.3868 96.542 35.3208C96.542 33.7811 97.7939 32.5283 99.328 32.5283C100.024 32.5283 100.685 32.788 101.194 33.2526C101.777 33.7765 102.114 34.5282 102.114 35.3208C102.114 36.8605 100.867 38.1087 99.328 38.1087Z" fill="white"/>
<path d="M99.3281 32.7563C99.9881 32.7563 100.589 33.0069 101.04 33.4214C101.559 33.8861 101.886 34.5648 101.886 35.321C101.886 36.7332 100.739 37.8812 99.3281 37.8812C98.932 37.8812 98.5542 37.7901 98.2219 37.6261C97.3615 37.2161 96.7697 36.3369 96.7697 35.321C96.7697 33.9043 97.9123 32.7563 99.3281 32.7563ZM99.3281 32.3008C97.6665 32.3008 96.3145 33.6537 96.3145 35.321C96.3145 36.4736 96.9882 37.5441 98.0261 38.0361C98.4222 38.2319 98.8728 38.3367 99.3281 38.3367C100.99 38.3367 102.342 36.9838 102.342 35.321C102.342 34.4646 101.977 33.6492 101.345 33.0798C100.798 32.5787 100.084 32.3008 99.3281 32.3008Z" fill="#080808"/>
<path d="M107.914 34.1415C107.914 35.5582 106.766 36.7017 105.351 36.7017C104.936 36.7017 104.54 36.6014 104.194 36.4238L107.153 32.3193C107.622 32.784 107.914 33.4309 107.914 34.1415Z" fill="#198AAD"/>
<path d="M101.886 35.3215C101.886 36.7337 100.739 37.8816 99.3279 37.8816C98.9318 37.8816 98.554 37.7905 98.2217 37.6265L101.04 33.4219C101.558 33.8865 101.886 34.5653 101.886 35.3215Z" fill="#198AAD"/>
<path d="M134.094 57.5016C134.749 60.8271 134.262 65.1639 133.625 68.6078C133.019 71.9059 132.277 74.3886 132.277 74.3886L95.2765 81.5042L82.5301 78.5022L79.125 77.7004L73.7442 76.434L63.1238 73.9331C63.1238 73.9331 61.5942 73.6096 60.0647 71.9105C59.7779 71.5961 59.4956 71.2317 59.218 70.8126C58.9403 70.3981 58.6762 69.9243 58.4304 69.3913C56.6141 65.4509 60.9296 57.4288 65.8461 51.4475C70.7625 45.4662 81.4967 38.05 84.7607 37.8814C92.404 37.4942 100.498 43.1156 100.498 43.1156L106.402 49.7028L108.519 47.2838C113.367 48.7507 116.882 52.2492 119.121 55.2376C121.152 57.9435 122.139 60.2303 122.139 60.2303C122.39 59.7475 122.677 59.2965 122.977 58.8774C124.871 56.258 127.511 54.8549 127.511 54.8549L129.555 50.4635C132.655 50.2357 135.077 52.5043 135.077 52.5043L134.094 57.5016Z" fill="#EBE9BE"/>
<path d="M119.122 55.2373C121.152 57.9432 122.14 60.2301 122.14 60.2301C117.419 66.5439 116.144 75.4315 116.144 75.4315C114.683 73.2722 117.61 64.4028 118.457 61.8062C119.304 59.2051 118.689 59.0821 118.689 57.31C118.689 57.0003 118.853 56.2577 119.122 55.2373Z" fill="#CCAE52"/>
<path d="M133.625 68.608C133.019 71.9061 132.277 74.3888 132.277 74.3888L95.2764 81.5044L82.5301 78.5024L79.125 77.7006L92.6634 63.5742C92.6634 63.5742 113.658 74.7806 115.702 75.0266C117.209 75.2042 128.053 70.8811 133.625 68.608Z" fill="#D6D793"/>
<path d="M102.793 79.1583C102.77 79.1583 102.752 79.1538 102.729 79.1492C102.606 79.1128 102.538 78.9898 102.574 78.8668C102.629 78.68 107.896 59.9208 106.18 49.7394C106.157 49.6164 106.243 49.498 106.366 49.4752C106.489 49.457 106.608 49.539 106.63 49.662C108.365 59.9481 103.07 78.803 103.016 78.9898C102.984 79.0946 102.893 79.1583 102.793 79.1583Z" fill="#DFB356"/>
<path d="M113.23 64.3399C113.162 64.3399 113.098 64.3126 113.053 64.2534C112.989 64.1714 106.593 56.1857 106.912 48.8515C106.916 48.7239 107.03 48.6328 107.149 48.6328C107.276 48.6374 107.372 48.7467 107.367 48.8697C107.053 56.0308 113.344 63.8844 113.408 63.9664C113.485 64.062 113.472 64.2078 113.376 64.2852C113.331 64.3217 113.281 64.3399 113.23 64.3399Z" fill="#566B5B"/>
<path d="M107.117 65.9426C107.053 65.9426 106.985 65.9152 106.944 65.8606C106.789 65.6738 103.161 61.2186 104.254 56.2213C105.319 51.3561 105.469 49.2515 105.474 49.2287C105.483 49.1057 105.587 49.01 105.715 49.0192C105.842 49.0283 105.933 49.1376 105.924 49.2606C105.92 49.3471 105.769 51.4108 104.695 56.3169C103.648 61.0956 107.254 65.5235 107.29 65.569C107.372 65.6647 107.358 65.8105 107.258 65.8879C107.217 65.9243 107.167 65.9426 107.117 65.9426Z" fill="#566B5B"/>
<path d="M129.555 50.4639L127.511 54.8553L134.093 57.502L135.077 52.5093L129.555 50.4639Z" fill="#5A1E2D"/>
<path d="M131.212 144.838C131.212 144.838 127.77 151.548 123.846 159.343C119.922 167.137 113.281 172.335 113.281 172.335C113.281 172.335 111.951 176.202 111.71 176.927C111.469 177.651 110.622 177.592 110.622 177.592L109.534 181.336H99.9925L101.745 175.414L101.044 174.799L102.988 169.023C95.8818 160.249 102.879 142.028 105.096 138.142C107.317 134.252 107.982 130.252 107.982 128.033C107.982 126.899 104.381 120.353 100.853 114.199C99.6648 112.126 98.4812 110.099 97.4478 108.336C96.4144 106.577 95.5268 105.088 94.9304 104.081C94.4114 103.211 94.1064 102.705 94.1064 102.705L105.965 100.55L123.423 97.3799C123.423 97.3799 124.57 99.9856 126.296 104.354C127.852 108.299 129.883 113.684 131.954 119.879C136.32 132.926 131.212 144.838 131.212 144.838Z" fill="#17879F"/>
<path d="M113.28 172.335C113.28 172.335 111.951 176.203 111.71 176.927C111.468 177.651 110.622 177.592 110.622 177.592L109.534 181.337H99.9922L101.745 175.415L101.044 174.8L102.988 169.023C108.76 174.262 113.28 172.335 113.28 172.335Z" fill="#37223B"/>
<path d="M110.622 177.592L109.534 181.336H99.9922L101.745 175.414C107.781 177.938 110.622 177.592 110.622 177.592Z" fill="#E55043"/>
<path d="M131.212 144.838C131.212 144.838 127.77 151.548 123.846 159.343C119.922 167.137 113.281 172.335 113.281 172.335C101.29 173.501 103.816 154.696 104.404 150.874C104.991 147.048 110.577 132.639 110.153 126.17C109.889 122.166 104.741 117.319 100.853 114.199C97.4478 108.267 94.1064 102.705 94.1064 102.705L123.423 97.3799C123.423 97.3799 127.588 106.832 131.954 119.879C136.32 132.926 131.212 144.838 131.212 144.838Z" fill="#0A5465"/>
<path d="M101.896 175.41C101.868 175.41 101.846 175.405 101.818 175.396C101.7 175.355 101.636 175.223 101.682 175.104L103.575 169.788C103.616 169.67 103.748 169.606 103.867 169.651C103.985 169.692 104.049 169.825 104.003 169.943L102.11 175.259C102.073 175.35 101.987 175.41 101.896 175.41Z" fill="#00E5FF"/>
<path d="M103.27 175.997C103.243 175.997 103.215 175.993 103.192 175.983C103.074 175.942 103.015 175.81 103.056 175.692L104.868 170.736C104.913 170.617 105.041 170.558 105.159 170.599C105.277 170.64 105.337 170.772 105.296 170.89L103.484 175.847C103.447 175.942 103.361 175.997 103.27 175.997Z" fill="#00E5FF"/>
<path d="M104.626 176.467C104.599 176.467 104.572 176.463 104.54 176.449C104.422 176.403 104.367 176.271 104.412 176.153L106.224 171.62C106.27 171.502 106.402 171.447 106.52 171.493C106.639 171.538 106.693 171.67 106.648 171.789L104.836 176.321C104.804 176.412 104.717 176.467 104.626 176.467Z" fill="#00E5FF"/>
<path d="M106.639 177.064C106.612 177.064 106.584 177.059 106.553 177.046C106.434 177 106.38 176.868 106.425 176.749L108.237 172.217C108.282 172.098 108.414 172.044 108.533 172.089C108.651 172.135 108.706 172.267 108.66 172.385L106.849 176.918C106.812 177.009 106.73 177.064 106.639 177.064Z" fill="#00E5FF"/>
<path d="M108.405 177.46C108.378 177.46 108.346 177.455 108.319 177.441C108.205 177.391 108.146 177.259 108.196 177.145L110.007 172.804C110.058 172.69 110.19 172.631 110.303 172.681C110.417 172.731 110.476 172.863 110.426 172.977L108.614 177.318C108.578 177.405 108.496 177.46 108.405 177.46Z" fill="#00E5FF"/>
<path d="M110.03 177.46C110.003 177.46 109.971 177.456 109.944 177.442C109.83 177.392 109.771 177.26 109.821 177.146L111.632 172.805C111.683 172.686 111.815 172.632 111.928 172.682C112.042 172.732 112.101 172.864 112.051 172.978L110.239 177.319C110.203 177.406 110.121 177.46 110.03 177.46Z" fill="#00E5FF"/>
<path d="M126.296 104.354L97.4481 108.336C96.4147 106.577 95.527 105.088 94.9307 104.081L105.965 100.55L123.423 97.3799C123.423 97.3799 124.57 99.9856 126.296 104.354Z" fill="#071A26"/>
<path d="M108.747 172.408L108.337 172.203C108.346 172.185 109.466 169.893 118.789 148.528C128.08 127.227 112.134 101.835 111.974 101.58L112.357 101.334C112.52 101.589 128.599 127.186 119.208 148.71C109.862 170.135 108.76 172.385 108.747 172.408Z" fill="#207588"/>
<path d="M127.115 192.798C127.111 192.798 127.111 192.803 127.111 192.803C126.942 194.488 125.936 195.896 123.009 196.707C118.548 197.946 110.773 195.472 109.539 195.272C108.301 195.071 106.43 194.634 105.032 195.992C103.639 197.345 94.8261 196.707 95.4679 193.236C95.4679 193.236 95.5044 193.108 95.5635 192.889C95.8594 191.778 96.7699 188.32 96.7016 187.491C96.6242 186.494 96.8609 182.986 97.8579 181.947C98.8548 180.913 97.5802 178.317 96.301 178.558C96.301 178.558 96.3056 178.558 96.3101 178.554C96.4285 178.481 97.6212 177.77 98.3768 177.961C99.1735 178.157 99.6924 179.875 99.4102 180.79C99.4102 180.79 107.104 179.674 109.575 180.034C109.575 180.034 110.053 179.114 111.811 178.954C113.563 178.795 113.841 179.756 113.841 179.756C113.841 179.756 115.038 188.293 122.85 187.573C122.85 187.573 123.123 187.532 123.528 187.546C124.543 187.573 126.382 187.915 126.838 189.965C127.056 190.953 127.202 191.915 127.115 192.798Z" fill="#FFF0E7"/>
<path d="M123.846 190.124C123.25 191.641 117.746 190.566 117.746 190.566C117.746 190.566 117.91 190.844 116.235 192.361C114.56 193.873 107.663 188.89 105.15 187.295C102.642 185.696 97.7754 186.535 97.7754 186.535C97.3794 185.856 98.9726 182.508 98.8133 180.271C98.6585 178.125 96.4826 178.522 96.3096 178.554C96.4279 178.481 97.6206 177.77 98.3763 177.961C99.1729 178.157 99.6919 179.875 99.4097 180.79C99.4097 180.79 107.103 179.674 109.575 180.034C109.575 180.034 110.053 179.114 111.81 178.954C113.563 178.795 113.84 179.756 113.84 179.756C113.84 179.756 115.038 188.293 122.849 187.573C122.849 187.573 123.122 187.532 123.528 187.546C123.869 188.252 124.188 189.263 123.846 190.124Z" fill="#39172E"/>
<path d="M127.111 192.803C126.942 194.488 125.936 195.896 123.009 196.707C118.548 197.946 110.773 195.472 109.539 195.272C108.301 195.071 106.43 194.634 105.032 195.992C103.639 197.344 94.8261 196.707 95.4679 193.235C95.4679 193.235 95.5044 193.108 95.5635 192.889C95.5635 192.889 99.4512 196.707 104.796 194.434C110.135 192.16 109.858 194.274 111.651 194.675C113.445 195.071 124.835 197.035 127.111 192.803Z" fill="#DD3940"/>
<path d="M123.168 190.206C110.613 191.482 109.575 180.034 109.575 180.034C109.575 180.034 110.053 179.114 111.81 178.954C113.563 178.795 113.841 179.756 113.841 179.756C113.841 179.756 115.038 188.293 122.85 187.573C123.769 189.127 123.168 190.206 123.168 190.206Z" fill="#EE2933"/>
<path d="M119.062 190.516L118.653 190.388L118.452 186.712L115.644 189.382L115.261 189.172L116.003 185.332L112.266 187.158L111.975 186.83L113.841 183.86L114.223 184.106L112.785 186.398L116.213 184.721L116.536 184.967L115.844 188.562L118.498 186.042L118.88 186.197L119.076 189.741L121.097 187.045L121.462 187.318L119.062 190.516Z" fill="white"/>
<path d="M114.196 184.142L113.804 184.006C113.763 183.6 113.426 179.997 114.4 178.986C114.596 178.785 114.833 178.68 115.101 178.703C115.912 178.753 116.417 179.031 116.608 179.528C117.182 181.004 114.501 183.824 114.196 184.142ZM115.042 179.154C114.924 179.154 114.824 179.2 114.728 179.3C114.123 179.929 114.132 182.175 114.218 183.445C115.106 182.448 116.531 180.58 116.185 179.687C116.062 179.373 115.689 179.191 115.074 179.154C115.065 179.159 115.051 179.154 115.042 179.154Z" fill="white"/>
<path d="M116.13 184.503C115.502 184.503 114.773 184.407 113.977 184.207L113.845 183.851C113.913 183.756 115.52 181.546 117.018 181.51C117.514 181.492 117.919 181.706 118.26 182.129C118.634 182.599 118.684 183.173 118.388 183.633C118.024 184.207 117.223 184.503 116.13 184.503ZM114.427 183.842C116.544 184.307 117.66 183.924 118.005 183.387C118.192 183.091 118.156 182.726 117.905 182.412C117.66 182.102 117.382 181.947 117.031 181.961C116.039 181.988 114.896 183.268 114.427 183.842Z" fill="white"/>
<path d="M109.629 186.712L108.778 187.55C108.45 187.869 108.473 188.402 108.824 188.698C109.944 189.646 112.361 191.491 114.664 191.928C114.956 191.983 115.256 191.874 115.438 191.637L115.629 191.386C115.921 191.003 115.802 190.452 115.379 190.229C114.136 189.578 111.81 188.229 110.804 186.808C110.522 186.425 109.966 186.38 109.629 186.712Z" fill="#117F99"/>
<path d="M118.201 191.587L117.523 192.379C117.314 192.625 117.478 193.003 117.801 193.022C119.189 193.099 122.066 193.063 123.168 191.6C123.168 191.6 119.74 192.001 118.652 191.482C118.502 191.409 118.315 191.455 118.201 191.587Z" fill="#3A1930"/>
<path d="M134.171 115.752C134.171 115.752 132.792 119.583 131.895 121.738C131.203 123.401 130.761 123.533 130.593 123.501H130.584L130.529 123.478L130.52 123.474V129.218C123.045 128.557 120.833 123.533 120.833 123.533L122.335 119.879L125.736 111.625L134.171 115.752Z" fill="#37223B"/>
<path d="M130.52 123.473V129.218C123.045 128.557 120.833 123.532 120.833 123.532L122.335 119.879C124.366 122.516 130.52 123.473 130.52 123.473Z" fill="#F04F49"/>
<path d="M123.455 120.426C123.428 120.426 123.396 120.422 123.368 120.408C123.255 120.358 123.195 120.226 123.245 120.112L125.567 114.573C125.617 114.459 125.749 114.404 125.863 114.45C125.977 114.5 126.036 114.632 125.986 114.746L123.664 120.285C123.628 120.372 123.541 120.426 123.455 120.426Z" fill="#00E5FF"/>
<path d="M124.52 121.492C124.493 121.492 124.461 121.487 124.434 121.474C124.32 121.423 124.261 121.291 124.311 121.177L126.633 115.638C126.683 115.524 126.815 115.47 126.928 115.515C127.042 115.565 127.101 115.697 127.051 115.811L124.73 121.351C124.693 121.437 124.607 121.492 124.52 121.492Z" fill="#00E5FF"/>
<path d="M125.959 122.216C125.927 122.216 125.895 122.211 125.868 122.198C125.754 122.148 125.699 122.011 125.754 121.897L128.057 116.708C128.107 116.595 128.244 116.54 128.358 116.595C128.471 116.645 128.526 116.781 128.471 116.895L126.168 122.084C126.127 122.166 126.045 122.216 125.959 122.216Z" fill="#00E5FF"/>
<path d="M127.657 122.845C127.625 122.845 127.593 122.84 127.566 122.827C127.452 122.777 127.397 122.64 127.452 122.526L129.755 117.337C129.806 117.224 129.942 117.169 130.056 117.224C130.17 117.274 130.224 117.41 130.17 117.524L127.866 122.713C127.83 122.795 127.743 122.845 127.657 122.845Z" fill="#00E5FF"/>
<path d="M129.641 123.246C129.609 123.246 129.578 123.242 129.55 123.228C129.436 123.178 129.382 123.041 129.436 122.927L131.735 117.739C131.785 117.625 131.922 117.57 132.036 117.625C132.15 117.68 132.204 117.812 132.15 117.926L129.851 123.114C129.814 123.196 129.728 123.246 129.641 123.246Z" fill="#00E5FF"/>
<path d="M136.097 147.025C135.218 147.49 134.385 147.845 133.598 148.096H133.593C124.725 150.952 121.675 141.295 121.675 140.502C121.675 139.632 121.065 138.361 121.065 138.361H119.026C118.316 137.851 115.361 134.434 114.901 132.954C114.442 131.478 114.901 129.842 115.612 129.232C116.326 128.621 118.266 125 118.844 123.064C119.385 121.255 120.273 121.447 120.391 121.479L120.405 121.483C120.71 119.647 118.111 119.611 118.976 119.342C121.73 118.472 121.575 121.583 121.575 121.583L120.76 123.519C120.86 124.795 124.889 127.651 124.889 127.651L125.244 126.171C126.619 126.225 131.918 126.376 131.918 126.376C129.523 133.919 134.768 139.983 135.887 142.279L135.892 142.283C135.988 142.484 136.069 142.684 136.138 142.884C136.862 144.985 136.097 147.025 136.097 147.025Z" fill="#FFF0E7"/>
<path d="M136.138 142.884C132.864 142.511 130.083 144.069 130.083 144.069L127.638 140.042L125.581 140.397C122.103 138.511 120.81 130.913 120.86 128.672C120.915 126.426 118.57 125.765 118.57 125.765C119.026 125.61 119.28 124.49 119.599 123.574C119.913 122.654 120.405 121.483 120.405 121.483C120.71 119.647 118.111 119.611 118.975 119.342C121.73 118.472 121.575 121.583 121.575 121.583L120.76 123.519C120.86 124.795 124.889 127.651 124.889 127.651L125.244 126.171C126.619 126.225 131.918 126.376 131.918 126.376C129.523 133.924 134.772 139.992 135.892 142.283C135.987 142.484 136.069 142.684 136.138 142.884Z" fill="#371C33"/>
<path d="M133.593 148.095C124.725 150.952 121.675 141.294 121.675 140.502C121.675 139.631 121.065 138.361 121.065 138.361H119.026C118.316 137.85 115.361 134.434 114.901 132.953C114.442 131.477 114.901 129.842 115.612 129.231C115.612 129.231 115.302 130.712 115.612 131.372C115.921 132.038 118.621 137.185 119.995 137.235C121.37 137.285 122.645 137.695 122.695 139.121C122.745 140.552 124.466 148.045 133.593 148.095Z" fill="#C73D44"/>
<path d="M135.888 142.278C132.642 142.027 130.443 142.998 130.443 142.998C124.074 136.114 124.889 127.65 124.889 127.65L125.244 126.17C126.619 126.225 131.918 126.375 131.918 126.375C129.524 133.919 134.768 139.982 135.888 142.278Z" fill="#C43E3A"/>
<path d="M123.778 133.869C122.845 134.511 122.704 134.789 122.973 135.55C123.241 136.311 125.349 139.768 125.617 139.9C125.886 140.037 126.751 139.859 126.837 139.354C126.947 138.689 124.839 134.58 124.839 134.58C124.839 134.58 124.484 133.386 123.778 133.869Z" fill="#0E7B90"/>
<path d="M125.977 141.18L127.21 140.579C127.21 140.579 128.535 143.681 129.336 144.028C129.336 144.028 126.582 142.333 125.977 141.18Z" fill="#25222D"/>
<path d="M126.791 140.146L131.753 136.853L125.512 137.217L130.738 134.229L123.878 133.486L129.391 131.363L129.555 131.791L125.799 133.236L132.186 133.923L127.424 136.648L133.41 136.297L128.999 139.226L133.556 138.288L133.647 138.734L126.791 140.146Z" fill="white"/>
<path d="M129.518 131.82L129.008 131.715C127.752 131.218 125.763 130.02 125.599 128.877C125.562 128.608 125.608 128.212 126.054 127.861C126.354 127.624 126.696 127.542 127.065 127.615C127.925 127.779 128.758 128.79 129.209 129.437C129.368 128.54 129.723 127.897 130.265 127.524C131.075 126.963 131.986 127.232 132.027 127.241L132.118 127.291C132.464 127.61 132.614 127.993 132.573 128.43C132.427 129.988 129.714 131.706 129.6 131.779L129.518 131.82ZM126.814 128.038C126.641 128.038 126.482 128.098 126.332 128.216C126.104 128.394 126.013 128.581 126.049 128.808C126.172 129.66 127.925 130.79 129.14 131.277L129.427 131.337C130.21 130.831 132.013 129.451 132.113 128.38C132.14 128.107 132.049 127.87 131.84 127.656C131.662 127.619 131.048 127.519 130.515 127.893C129.973 128.271 129.659 129.009 129.582 130.093L129.527 130.831L129.159 130.189C128.849 129.651 127.848 128.216 126.978 128.052C126.919 128.043 126.869 128.038 126.814 128.038Z" fill="white"/>
<path d="M83.2128 83.6136C83.2128 83.6136 74.2175 126.517 127.866 97.3209C127.866 97.3209 122.74 106.423 125.253 113.019C125.253 113.019 126.509 117.729 133.201 117.729C133.201 117.729 145.333 116.577 152.339 98.8926C159.345 81.2084 157.879 71.478 146.066 71.9973C134.248 72.5212 116.472 76.1837 116.472 76.1837L83.2128 83.6136Z" fill="#027A94"/>
<path d="M104.145 106.833C104.145 106.833 121.106 100.556 131.954 87.6045L127.511 97.7676C127.511 97.7676 115.361 104.874 104.145 106.833Z" fill="#0A5465"/>
<path d="M127.411 115.935L127.005 115.725C127.11 115.52 137.676 94.9342 140.945 84.1925C141.545 82.22 141.445 80.8762 140.649 80.079C138.236 77.6783 129.618 80.3614 119.635 83.4682C115.852 84.6435 111.942 85.8598 107.972 86.9394C100.853 88.8664 95.2124 88.6432 91.211 86.2789C87.4281 84.0422 86.5813 80.7213 86.5449 80.5846L86.9865 80.4753C86.9956 80.5072 87.8287 83.7598 91.4523 85.8963C95.3445 88.1922 100.862 88.3972 107.854 86.5021C111.819 85.427 115.725 84.2107 119.503 83.0354C130.042 79.7555 138.363 77.1681 140.972 79.7601C141.905 80.6848 142.037 82.1836 141.386 84.3292C138.099 95.1073 127.52 115.73 127.411 115.935Z" fill="#CDECF7"/>
<path d="M107.122 179.641C104.29 179.641 101.381 179.036 99.064 177.874C97.5344 177.104 96.4374 175.715 95.9821 173.961C95.445 171.906 95.8319 169.633 97.0155 167.879C97.9988 166.426 99.7468 165.551 101.472 165.665L101.445 166.121C99.8743 166.025 98.2856 166.813 97.3933 168.139C96.2826 169.788 95.9184 171.925 96.4237 173.851C96.8516 175.478 97.8622 176.762 99.2734 177.473C103.02 179.354 108.373 179.737 112.297 178.407C114.41 177.692 116.394 176.539 117.71 175.737C121.247 173.574 123.328 171.164 124.079 168.367C124.925 165.219 123.514 161.739 119.891 158.026C115.734 153.771 110.586 150.591 105.674 147.703C100.211 144.496 94.4844 141.544 88.9443 138.688L85.908 137.126C81.2601 134.739 76.4529 132.265 71.9735 129.418C62.8143 123.591 58.7355 119.3 59.4957 116.303C60.1785 113.601 64.7399 112.043 73.8445 111.406C76.7397 111.201 78.3876 110.522 78.7427 109.383C79.5985 106.632 73.0888 101.434 68.7823 97.9945C67.2937 96.8056 66.01 95.7806 65.2225 95.0244C61.0025 90.9792 65.1587 85.4853 65.1997 85.4307L65.5593 85.7085C65.5502 85.7222 64.5442 87.0387 64.048 88.8062C63.3924 91.1386 63.8932 93.1202 65.5366 94.6918C66.3059 95.4298 67.5851 96.4502 69.0646 97.6346C73.7306 101.361 80.122 106.468 79.1752 109.515C78.7518 110.873 77.0174 111.638 73.8763 111.857C68.2861 112.248 60.7612 113.146 59.9373 116.412C59.2408 119.159 63.3742 123.405 72.2193 129.031C76.6805 131.869 81.4786 134.333 86.1174 136.72L89.1537 138.283C94.6984 141.139 100.434 144.095 105.906 147.312C110.85 150.218 116.026 153.411 120.218 157.707C123.965 161.543 125.413 165.169 124.52 168.485C123.737 171.401 121.589 173.897 117.947 176.125C116.618 176.94 114.596 178.106 112.443 178.84C110.832 179.377 108.993 179.641 107.122 179.641Z" fill="#080808"/>
<path d="M98.1265 79.0175C95.9323 79.7919 92.3224 86.051 92.3224 86.051C84.3241 96.9613 73.4214 95.1528 70.7765 93.3716C68.3411 91.3627 66.2106 89.5997 64.6674 87.4997C62.8556 85.0397 61.8541 82.1106 62.1318 77.792C62.6507 69.7836 72.52 64.9457 77.0313 64.7499C81.5472 64.5585 88.3847 59.6842 88.3847 59.6842C98.254 49.0655 107.914 53.0014 107.914 53.0014C93.9749 60.5042 97.1842 66.8909 97.858 66.9729C98.5317 67.0504 100.553 67.884 100.512 68.4808C100.476 69.0775 100.899 69.9795 101.482 70.3029C102.06 70.6264 107.914 68.9454 107.914 68.9454C112.28 77.792 100.321 78.243 98.1265 79.0175Z" fill="#00FFE0"/>
<path d="M98.1261 79.0174C95.932 79.7918 92.322 86.0509 92.322 86.0509C84.3237 96.9612 73.421 95.1527 70.7761 93.3715C68.3407 91.3626 66.2102 89.5996 64.667 87.4996C68.0311 89.3035 78.2828 93.8544 85.2751 86.8618C93.7423 78.3842 92.6998 75.8058 96.196 74.9448C99.6967 74.0838 108.642 74.307 107.914 68.9453C112.279 77.7919 100.32 78.2429 98.1261 79.0174Z" fill="#2B1C2A"/>
<path d="M81.055 79.0445L76.5847 82.2697L71.5908 76.744L75.3373 74.7031L81.055 79.0445Z" fill="#B21F24"/>
<path d="M73.8447 76.3526L150.664 34.0053L149.34 32.5476L162.978 26.3203L165.828 29.7642L153.71 38.0505L152.581 36.6566L76.8902 79.7327L73.8447 76.3526Z" fill="#341429"/>
<path d="M154.436 32.288L74.375 76.7822L74.596 77.1805L154.657 32.6863L154.436 32.288Z" fill="#773F57"/>
<path d="M158.341 30.8817L75.2871 77.8896L75.5112 78.2862L158.565 31.2782L158.341 30.8817Z" fill="#773F57"/>
<path d="M161.57 30.2575L76.2061 78.6738L76.4305 79.0702L161.795 30.6538L161.57 30.2575Z" fill="#773F57"/>
<path d="M154.064 29.3041L152.312 30.0785C152.039 30.1969 151.72 30.0739 151.602 29.8006C151.483 29.5273 151.606 29.2084 151.879 29.09L153.632 28.3155C153.905 28.1971 154.224 28.3201 154.342 28.5934C154.46 28.8667 154.338 29.1856 154.064 29.3041Z" fill="#30160C"/>
<path d="M157.538 27.7866L155.753 28.4927C155.476 28.602 155.162 28.4654 155.052 28.1875C154.943 27.9096 155.08 27.5953 155.357 27.486L157.142 26.7799C157.419 26.6705 157.734 26.8072 157.843 27.0851C157.948 27.363 157.811 27.6773 157.538 27.7866Z" fill="#30160C"/>
<path d="M160.861 26.2974L159.077 27.0035C158.799 27.1128 158.485 26.9761 158.376 26.6982C158.266 26.4204 158.403 26.106 158.681 25.9967L160.465 25.2906C160.743 25.1813 161.057 25.3179 161.166 25.5958C161.271 25.8737 161.139 26.188 160.861 26.2974Z" fill="#30160C"/>
<path d="M153.379 29.5662L152.973 29.7705L153.473 30.7679L153.88 30.5636L153.379 29.5662Z" fill="#30160C"/>
<path d="M156.875 27.9618L156.466 28.1621L156.926 29.1031L157.335 28.9027L156.875 27.9618Z" fill="#30160C"/>
<path d="M160.2 26.5145L159.78 26.6904L160.165 27.6107L160.585 27.4347L160.2 26.5145Z" fill="#30160C"/>
<path d="M154.552 33.1346C154.909 33.1346 155.198 32.8449 155.198 32.4877C155.198 32.1304 154.909 31.8408 154.552 31.8408C154.195 31.8408 153.905 32.1304 153.905 32.4877C153.905 32.8449 154.195 33.1346 154.552 33.1346Z" fill="#CBA48B"/>
<path d="M74.8182 77.2542C75.0721 77.2542 75.278 77.0482 75.278 76.7941C75.278 76.54 75.0721 76.334 74.8182 76.334C74.5642 76.334 74.3584 76.54 74.3584 76.7941C74.3584 77.0482 74.5642 77.2542 74.8182 77.2542Z" fill="#CBA48B"/>
<path d="M75.6063 78.3753C75.8602 78.3753 76.066 78.1693 76.066 77.9152C76.066 77.6611 75.8602 77.4551 75.6063 77.4551C75.3523 77.4551 75.1465 77.6611 75.1465 77.9152C75.1465 78.1693 75.3523 78.3753 75.6063 78.3753Z" fill="#CBA48B"/>
<path d="M76.4256 79.2903C76.6795 79.2903 76.8854 79.0843 76.8854 78.8302C76.8854 78.5761 76.6795 78.3701 76.4256 78.3701C76.1717 78.3701 75.9658 78.5761 75.9658 78.8302C75.9658 79.0843 76.1717 79.2903 76.4256 79.2903Z" fill="#CBA48B"/>
<path d="M158.467 31.741C158.824 31.741 159.113 31.4514 159.113 31.0941C159.113 30.7369 158.824 30.4473 158.467 30.4473C158.11 30.4473 157.82 30.7369 157.82 31.0941C157.82 31.4514 158.11 31.741 158.467 31.741Z" fill="#CBA48B"/>
<path d="M161.676 31.0935C162.033 31.0935 162.322 30.8039 162.322 30.4467C162.322 30.0894 162.033 29.7998 161.676 29.7998C161.319 29.7998 161.029 30.0894 161.029 30.4467C161.029 30.8039 161.319 31.0935 161.676 31.0935Z" fill="#CBA48B"/>
<path d="M92.7178 59.5378L93.5827 59.0731C93.5827 59.0731 97.8618 57.8568 98.135 57.752C98.4036 57.6427 99.7283 57.1188 100.771 57.9479C101.813 58.7816 104.872 60.8406 105.009 61.0274C105.145 61.2187 105.173 62.1936 104.062 62.0296C104.062 62.0296 104.631 63.0591 104.253 63.4372C103.875 63.8153 103.006 63.6832 103.006 63.6832C103.006 63.6832 104.007 65.0908 101.759 64.9314C101.759 64.9314 101.786 66.1796 100.024 66.1249C98.2624 66.0702 93.997 65.1546 93.997 65.1546L92.7178 59.5378Z" fill="#F4A463"/>
<path d="M102.992 62.0987C102.956 62.0987 102.924 62.0896 102.888 62.0759L99.4278 60.3221C99.314 60.2674 99.2731 60.1262 99.3277 60.0168C99.3823 59.903 99.5234 59.8574 99.6327 59.9166L103.092 61.6705C103.206 61.7251 103.247 61.8663 103.193 61.9757C103.156 62.0531 103.074 62.0987 102.992 62.0987Z" fill="#CD5D3D"/>
<path d="M102.359 63.8021C102.332 63.8021 102.305 63.7976 102.282 63.7885L99.1454 62.6177C99.0271 62.5722 98.9679 62.4446 99.0134 62.3262C99.0589 62.2077 99.1864 62.1485 99.3047 62.1941L102.441 63.3648C102.56 63.4104 102.619 63.5379 102.573 63.6564C102.537 63.7475 102.45 63.8021 102.359 63.8021Z" fill="#CD5D3D"/>
<path d="M100.789 65.3143C100.766 65.3143 100.739 65.3098 100.716 65.3007L97.8024 64.3258C97.684 64.2848 97.6203 64.1573 97.6567 64.0388C97.6977 63.9204 97.8251 63.8566 97.9435 63.893L100.857 64.8679C100.975 64.9089 101.039 65.0365 101.003 65.1549C100.975 65.2551 100.884 65.3143 100.789 65.3143Z" fill="#CD5D3D"/>
<path d="M131.326 45.0152L134.895 43.2751C134.895 43.2751 136.128 42.0861 137.64 42.3139C137.64 42.3139 139.151 41.1705 139.788 42.5872C140.43 44.0039 142.715 46.7509 139.47 49.0878C136.224 51.4202 136.183 51.3473 135.081 52.5044C133.98 53.6614 129.591 51.0512 129.591 51.0512L129.559 50.459C129.559 50.459 129.5 49.4067 130.37 49.1744C131.239 48.9466 133.984 47.8032 134.075 46.3819C134.075 46.3819 131.881 46.9786 131.33 46.473L132.018 45.8307C132.009 45.8398 130.866 45.5619 131.326 45.0152Z" fill="#F89A5F"/>
<path d="M93.9975 65.1502L90.7153 65.5009C90.7153 65.5009 78.1738 74.5116 63.124 73.933L68.4547 57.4697C68.4547 57.4697 81.3376 58.6314 88.817 59.0004C91.0476 59.1142 92.7911 59.1552 93.5787 59.0732C93.5787 59.0732 94.8351 63.1959 93.9975 65.1502Z" fill="#FAF6BD"/>
<path d="M93.9969 65.1508L90.7147 65.5016C91.6661 61.3288 88.8164 59.001 88.8164 59.001C91.047 59.1149 92.7905 59.1559 93.5781 59.0739C93.5781 59.0739 94.8345 63.1965 93.9969 65.1508Z" fill="#5A1E2D"/>
<path d="M90.037 60.5312C90.037 60.5312 90.2556 62.8682 87.9521 65.0867C85.6487 67.3052 68.9054 77.4683 58.4307 69.3916C58.4307 69.3916 59.81 73.0541 63.1241 73.9333C63.1241 73.9333 77.2179 75.0312 90.7153 65.5012C90.7153 65.5012 91.6941 62.7361 90.037 60.5312Z" fill="#D6D793"/>
<path d="M88.8169 59.2283C88.8124 59.2283 88.8078 59.2283 88.7987 59.2283L67.4259 57.7159C67.2984 57.7068 67.2073 57.5975 67.2164 57.4745C67.2256 57.3515 67.3348 57.2513 67.4577 57.2649L88.8306 58.7773C88.9581 58.7864 89.0491 58.8958 89.04 59.0188C89.0355 59.1372 88.9353 59.2283 88.8169 59.2283Z" fill="#DFB356"/>
<path d="M91.1062 48.6191C91.1062 48.6191 88.3429 55.7666 84.6465 58.5545L89.1396 58.9053C89.135 58.9053 91.9074 50.4595 91.1062 48.6191Z" fill="#E1D084"/>
<path d="M84.5606 58.0851C84.5378 58.0851 84.5151 58.0806 84.4923 58.076C84.3739 58.0396 84.3057 57.9075 84.3466 57.789C85.9399 52.7917 85.5348 48.3593 83.1721 44.9746C81.3831 42.4099 79.0888 41.3212 79.066 41.3121C78.9522 41.2574 78.9021 41.1253 78.9567 41.0114C79.0114 40.8975 79.1434 40.8474 79.2572 40.9021C79.3528 40.9476 88.7532 45.4666 84.7791 57.9302C84.7472 58.0214 84.6562 58.0851 84.5606 58.0851Z" fill="#DFB356"/>
<path d="M84.6467 58.6405C84.583 58.6405 84.5192 58.6132 84.4737 58.5585C84.3918 58.4628 84.4054 58.3171 84.501 58.2351C87.5192 55.6795 90.7968 48.8327 90.8287 48.7643C90.8833 48.6504 91.0199 48.6003 91.1337 48.655C91.2475 48.7097 91.2976 48.8463 91.2429 48.9602C91.1064 49.2426 87.8925 55.9665 84.7969 58.5858C84.7514 58.6223 84.6968 58.6405 84.6467 58.6405Z" fill="#DFB356"/>
<path d="M138.582 45.8717C138.5 45.8717 138.418 45.8261 138.377 45.7487L136.592 42.2228C136.538 42.1089 136.579 41.9722 136.692 41.9175C136.806 41.8629 136.943 41.9039 136.997 42.0178L138.782 45.5437C138.837 45.6575 138.796 45.7942 138.682 45.8489C138.65 45.8671 138.614 45.8717 138.582 45.8717Z" fill="#CD5D3D"/>
<path d="M137.115 46.8784C137.024 46.8784 136.938 46.8237 136.901 46.7326C136.897 46.7189 136.305 45.1792 135.636 43.9948C135.058 42.9698 133.947 43.3707 133.901 43.3844C133.783 43.4254 133.656 43.3707 133.61 43.2523C133.565 43.1338 133.624 43.0063 133.742 42.9607C134.266 42.7603 135.417 42.6783 136.036 43.7716C136.724 44.9879 137.307 46.5094 137.329 46.5732C137.375 46.6916 137.316 46.8237 137.197 46.8693C137.17 46.8738 137.143 46.8784 137.115 46.8784Z" fill="#CD5D3D"/>
<path d="M135.258 47.2611C135.258 47.2611 134.708 45.9674 134.389 45.234C134.307 45.0427 134.18 44.9288 133.997 44.8787C133.647 44.783 133.137 44.9515 132.632 45.3251C131.717 45.9993 131.23 45.89 131.143 45.8626C131.025 45.8216 130.961 45.6941 130.998 45.5756C131.038 45.4572 131.161 45.3934 131.275 45.4299C131.298 45.4344 131.649 45.4891 132.359 44.9607C132.987 44.5006 133.624 44.3092 134.116 44.4413C134.43 44.5279 134.671 44.7374 134.808 45.0518C135.126 45.7852 135.677 47.0835 135.677 47.0835L135.258 47.2611Z" fill="#CD5D3D"/>
<path d="M68.6773 195.281C72.788 195.281 76.1203 194.398 76.1203 193.308C76.1203 192.219 72.788 191.336 68.6773 191.336C64.5667 191.336 61.2344 192.219 61.2344 193.308C61.2344 194.398 64.5667 195.281 68.6773 195.281Z" fill="#3D2038"/>
<path d="M75.7648 47.7172L68.8486 60.0527L69.2456 60.2756L76.1618 47.9401L75.7648 47.7172Z" fill="#080808"/>
<path d="M81.8883 46.9328L65.3545 65.8834L66.3879 66.6442L84.0689 46.6641L81.8883 46.9328Z" fill="#3D2038"/>
<path d="M69.4878 59.6748H67.9082V192.93H69.4878V59.6748Z" fill="#3D2038"/>
<path d="M76.0701 46.4095L88.475 43.9951V46.3913L76.3933 48.2772C75.9244 48.3501 75.4783 48.0677 75.3371 47.6167C75.1778 47.0791 75.5192 46.5143 76.0701 46.4095Z" fill="#2D152A"/>
<path d="M89.8367 47.8258C91.398 47.8258 92.6637 46.5593 92.6637 44.9969C92.6637 43.4345 91.398 42.168 89.8367 42.168C88.2754 42.168 87.0098 43.4345 87.0098 44.9969C87.0098 46.5593 88.2754 47.8258 89.8367 47.8258Z" fill="#381C34"/>
</svg>
