<svg width="216" height="217" viewBox="0 0 216 217" fill="none" xmlns="http://www.w3.org/2000/svg">
<ellipse cx="108.129" cy="108.5" rx="107.578" ry="108.5" fill="#00E6C0"/>
<path d="M173.952 162.103C181.785 162.103 188.136 155.757 188.136 147.929C188.136 140.102 181.785 133.756 173.952 133.756C166.118 133.756 159.768 140.102 159.768 147.929C159.768 155.757 166.118 162.103 173.952 162.103Z" fill="#00F9EA"/>
<path d="M165.67 128.032C166.984 128.032 168.05 126.967 168.05 125.653C168.05 124.339 166.984 123.274 165.67 123.274C164.355 123.274 163.289 124.339 163.289 125.653C163.289 126.967 164.355 128.032 165.67 128.032Z" fill="#00F9EA"/>
<path d="M50.4603 157.073C63.4159 157.073 73.9186 146.689 73.9186 133.88C73.9186 121.07 63.4159 110.687 50.4603 110.687C37.5046 110.687 27.002 121.07 27.002 133.88C27.002 146.689 37.5046 157.073 50.4603 157.073Z" fill="#FECE26"/>
<path d="M134.3 157.123V166.167H88.9207C86.4162 166.167 84.3828 164.11 84.3828 161.558C84.3828 159.006 86.4162 156.949 88.9455 156.949C101.295 156.999 134.523 157.123 134.3 157.123Z" fill="#303538"/>
<path d="M134.895 166.911H89.0946C86.2181 166.911 83.8623 164.582 83.8623 161.682C83.8623 158.783 86.1933 156.454 89.0946 156.454H134.994C135.267 156.454 135.49 156.677 135.49 156.95C135.49 157.222 135.267 157.445 134.994 157.445H89.0946C86.7636 157.445 84.8542 159.353 84.8542 161.682C84.8542 164.012 86.7636 165.92 89.0946 165.92H134.895C135.168 165.92 135.391 166.143 135.391 166.415C135.391 166.688 135.168 166.911 134.895 166.911Z" fill="#ADD3FF"/>
<path d="M189.599 157.123V166.167H144.22C141.715 166.167 139.682 164.11 139.682 161.558C139.682 159.006 141.715 156.949 144.244 156.949C156.593 156.999 189.822 157.123 189.599 157.123Z" fill="#303538"/>
<path d="M169.438 159.502L189.45 159.13V159.7L169.438 159.502Z" fill="#D1DAE1"/>
<path d="M177.969 161.682L189.5 161.36V162.104L177.969 161.682Z" fill="#D1DAE1"/>
<path d="M114.141 159.503L134.152 159.131V159.701L114.141 159.503Z" fill="#D1DAE1"/>
<path d="M122.671 161.682L134.202 161.36V162.104L122.671 161.682Z" fill="#D1DAE1"/>
<path d="M190.194 166.911H144.393C141.517 166.911 139.161 164.582 139.161 161.682C139.161 158.783 141.492 156.454 144.393 156.454H190.293C190.566 156.454 190.789 156.677 190.789 156.95C190.789 157.222 190.566 157.445 190.293 157.445H144.393C142.062 157.445 140.153 159.353 140.153 161.682C140.153 164.012 142.062 165.92 144.393 165.92H190.194C190.467 165.92 190.69 166.143 190.69 166.415C190.69 166.688 190.467 166.911 190.194 166.911Z" fill="#FFD66D"/>
<path d="M34.4911 114.602C34.3424 114.602 34.2432 114.503 34.2432 114.354V98.4214H49.6919V91.3594H57.7263C57.8751 91.3594 57.9742 91.4585 57.9742 91.6072C57.9742 91.7558 57.8751 91.855 57.7263 91.855H50.2127V98.917H34.7639V114.354C34.7391 114.478 34.6151 114.602 34.4911 114.602Z" fill="#A5D5FF"/>
<path d="M57.3291 90.2686V92.9943L60.0568 91.904L57.3291 90.2686Z" fill="#A5D5FF"/>
<path d="M83.2427 133.781V145.328H29.1845C26.0352 145.328 23.5059 142.751 23.5059 139.555C23.5059 136.358 26.06 133.781 29.1845 133.781H83.2427Z" stroke="black" stroke-width="0.9924" stroke-miterlimit="10" stroke-linecap="round"/>
<path d="M29.5069 145.403H81.5813C84.7554 145.403 87.3343 142.826 87.3343 139.654C87.3343 136.482 84.7554 133.905 81.5813 133.905H29.5069C26.3328 133.905 23.7539 136.482 23.7539 139.654C23.7539 142.826 26.3328 145.403 29.5069 145.403Z" fill="#00FED4"/>
<path d="M84.0114 145.674H29.3331C25.8367 145.674 23.0098 142.825 23.0098 139.356C23.0098 135.887 25.8615 133.037 29.3331 133.037H84.1602V134.276H29.3331C26.531 134.276 24.2496 136.556 24.2496 139.356C24.2496 142.156 26.531 144.435 29.3331 144.435H84.0114V145.674Z" fill="#584502"/>
<path d="M72.7288 145.749H37.3926V153.753H72.7288V145.749Z" fill="#E8F4FF"/>
<path d="M17.876 153.753V165.573H72.6038C75.8027 165.573 78.4064 162.971 78.4064 159.775C78.4064 156.603 75.8275 154.001 72.6534 153.976C57.527 153.927 17.8264 153.704 17.876 153.753Z" fill="#303538"/>
<path d="M72.5798 166.241H17.0584C16.7857 166.241 16.5625 166.018 16.5625 165.746C16.5625 165.473 16.7857 165.25 17.0584 165.25H72.5798C75.6051 165.25 78.06 162.797 78.06 159.774C78.06 156.751 75.6051 154.298 72.5798 154.298H17.0584C16.7857 154.298 16.5625 154.075 16.5625 153.802C16.5625 153.53 16.7857 153.307 17.0584 153.307H72.5798C76.1506 153.307 79.0519 156.206 79.0519 159.774C79.0519 163.342 76.1506 166.241 72.5798 166.241Z" fill="#00FED4"/>
<path d="M17.8262 156.008L40.2183 156.33L17.8758 157.123L17.8262 156.008Z" fill="#D1DAE1"/>
<path d="M17.877 162.128L47.5346 162.549L17.877 162.995V162.128Z" fill="#D1DAE1"/>
<path d="M81.8291 155.587V139.877H159.172C163.636 139.877 167.281 143.445 167.281 147.831C167.281 152.242 163.66 155.81 159.172 155.785C137.846 155.81 81.8291 155.785 81.8291 155.587Z" fill="#303538"/>
<path d="M124.084 143.073L81.8047 142.603V144.065L124.084 143.073Z" fill="#D1DAE1"/>
<path d="M119.546 151.375L81.8047 150.606V152.143L119.546 151.375Z" fill="#D1DAE1"/>
<path d="M42.1286 116.61C40.12 118.741 41.7814 120.946 41.7814 120.946C41.7814 120.946 40.0952 122.507 39.5496 122.507C39.0289 122.507 38.3842 124.242 39.6736 124.935C40.9631 125.654 37.8882 125.555 38.4337 126.942C38.9793 128.33 40.9631 128.85 42.6989 128.404C44.4347 127.958 49.667 126.893 50.2373 126.992C50.8076 127.091 53.337 127.215 53.6593 125.48C53.9817 123.746 53.3122 124.068 53.5849 123.597C53.8577 123.126 53.7089 121.02 52.5186 120.896C51.3284 120.772 52.8162 118.716 52.1219 118.319C51.4276 117.923 50.4605 117.378 50.4605 116.659C50.4605 115.965 50.1877 112.248 47.8815 113.611C45.5754 114.999 44.9059 115.395 44.1867 115.544C43.4924 115.718 42.1286 116.61 42.1286 116.61Z" fill="#16153D"/>
<path d="M44.9062 116.337C44.9062 116.337 45.5014 116.832 45.5014 117.154C45.5014 117.477 44.2615 117.848 44.4599 118.443C44.6335 119.038 45.9973 119.855 45.0054 121.565C45.0054 121.565 43.592 120.326 42.9472 121.342C42.3025 122.358 43.4928 123.919 44.7574 122.754C44.7574 122.754 45.8237 124.043 45.551 125.034C45.2782 126.025 41.4346 129.197 40.9387 129.643C40.4427 130.064 41.757 132.22 43.8647 132.517C45.9477 132.815 51.9735 133.013 52.6678 130.213C52.6678 130.213 48.4274 126.769 48.2787 126.199C48.1299 125.604 48.1795 124.762 48.4274 124.613C48.6754 124.464 50.7584 124.489 50.7584 123.151C50.7584 121.813 50.2624 119.508 50.2872 119.038C50.312 118.567 49.7665 116.411 48.7498 116.485C47.7331 116.56 47.3612 117.006 46.9644 117.006C46.5677 117.006 45.8733 117.501 45.551 116.733C45.5758 116.758 45.1046 116.287 44.9062 116.337Z" fill="#FC7E56"/>
<path d="M45.7988 120.227C45.6996 120.202 45.6748 120.153 45.6748 120.079C45.6748 120.054 45.7988 119.434 46.2948 119.112C46.5923 118.914 46.9395 118.889 47.3611 118.988C47.4355 119.013 47.4603 119.063 47.4603 119.137C47.4355 119.211 47.3859 119.236 47.3115 119.236C46.9643 119.137 46.6667 119.186 46.4435 119.335C46.0468 119.608 45.9476 120.128 45.9476 120.153C45.9228 120.178 45.8732 120.227 45.7988 120.227Z" fill="black"/>
<path d="M49.8907 118.814C49.8411 118.814 49.8163 118.79 49.7915 118.765C49.6427 118.567 49.4691 118.443 49.2955 118.418C48.8988 118.368 48.5516 118.691 48.5516 118.715C48.502 118.765 48.4276 118.765 48.378 118.715C48.3284 118.666 48.3284 118.591 48.378 118.542C48.4028 118.517 48.8244 118.145 49.3203 118.195C49.5931 118.22 49.8163 118.368 49.9899 118.641C50.0395 118.691 50.0147 118.765 49.9651 118.814C49.9155 118.814 49.9155 118.814 49.8907 118.814Z" fill="black"/>
<path d="M49.1717 122.035C49.1221 122.035 49.0973 122.011 49.0725 121.986C49.0477 121.936 49.0477 121.862 49.0973 121.812C49.742 121.391 49.7172 121.242 49.7172 121.242C49.7172 121.242 49.6924 121.193 49.494 121.168C48.6757 121.069 48.3285 119.384 48.3037 119.186C48.3037 119.111 48.3285 119.062 48.4029 119.037C48.4773 119.037 48.5269 119.062 48.5517 119.136C48.6261 119.607 48.9733 120.846 49.5188 120.896C49.618 120.896 49.9156 120.945 49.9652 121.143C50.0148 121.366 49.7916 121.614 49.2213 121.961C49.2213 122.035 49.1965 122.035 49.1717 122.035Z" fill="#BC5333"/>
<path d="M48.7247 123.151C48.3032 123.151 48.0056 123.002 48.0056 123.002C47.956 122.978 47.9312 122.903 47.956 122.829C47.9808 122.779 48.0552 122.755 48.1296 122.779C48.1792 122.804 49.0719 123.225 49.915 122.383C49.9646 122.333 50.039 122.333 50.0886 122.383C50.1382 122.432 50.1382 122.507 50.0886 122.556C49.5926 123.027 49.0967 123.151 48.7247 123.151Z" fill="#BC5333"/>
<path d="M47.4602 120.921C47.6518 120.921 47.8071 120.755 47.8071 120.549C47.8071 120.344 47.6518 120.178 47.4602 120.178C47.2686 120.178 47.1133 120.344 47.1133 120.549C47.1133 120.755 47.2686 120.921 47.4602 120.921Z" fill="#15173D"/>
<path d="M49.4934 120.202C49.685 120.202 49.8403 120.036 49.8403 119.831C49.8403 119.625 49.685 119.459 49.4934 119.459C49.3018 119.459 49.1465 119.625 49.1465 119.831C49.1465 120.036 49.3018 120.202 49.4934 120.202Z" fill="#15173D"/>
<path d="M41.0626 129.444C41.0626 129.444 31.838 143.122 34.4169 148.029L60.2061 147.855C60.2061 147.855 56.3129 133.186 52.5934 130.089C52.5934 130.064 46.9644 134.598 41.0626 129.444Z" fill="#A6D2FF"/>
<path d="M50.4359 135.466L44.9805 147.93L61.8427 147.954L67.0005 136.234C67.2733 135.59 66.8021 134.871 66.1078 134.871H51.3038C50.9566 134.871 50.6095 135.094 50.4359 135.466Z" fill="#15173D"/>
<path d="M61.5949 141.339C61.5949 141.339 60.5038 141.661 61.1733 142.429L63.653 142.479C63.653 142.479 60.7021 142.627 60.7021 142.9C60.7021 143.172 60.7517 143.718 61.2973 143.718C61.8428 143.718 63.2811 143.643 63.2811 143.643L61.1981 144.139C61.1981 144.139 60.8013 144.634 61.4461 144.684C62.1156 144.733 62.9587 144.684 62.9587 144.684L61.4461 145.105C61.4461 145.105 61.4461 145.799 61.9668 145.774C62.4876 145.749 64.025 145.526 64.025 145.526C64.025 145.526 64.7193 145.279 64.5953 144.56C64.5953 144.56 65.0169 144.064 64.9177 143.693C64.9177 143.693 65.3641 143.197 65.2153 142.702C65.2153 142.702 65.6616 141.537 64.9177 141.388C64.1738 141.215 61.5949 141.339 61.5949 141.339Z" fill="#FC7E56"/>
<path d="M58.9162 147.954C58.9162 147.954 64.7683 150.408 64.6939 154.471C64.6195 158.535 60.8751 158.139 56.9572 158.461C53.0392 158.783 46.0464 159.229 46.0464 159.229L39.6982 147.93L58.9162 147.954Z" fill="#D2BDFE"/>
<path d="M45.2285 153.48C45.2285 153.48 53.4117 150.482 57.2552 150.705" stroke="black" stroke-miterlimit="10" stroke-linecap="round"/>
<path d="M55.072 149.491C55.072 149.491 53.8331 150.383 53.957 151.028" stroke="black" stroke-miterlimit="10" stroke-linecap="round"/>
<path d="M52.4193 167.827C51.477 168.521 50.1628 168.348 49.4189 167.456L45.8232 162.5L47.9806 160.394L52.7417 164.532C53.6344 165.523 53.4856 167.034 52.4193 167.827Z" fill="#252A6C"/>
<path d="M29.209 141.661C25.3406 143.817 29.457 149.912 32.0111 152.44C34.5404 154.967 46.096 164.631 46.096 164.631L50.3611 160.691L37.9129 144.585C37.9129 144.585 33.7717 139.133 29.209 141.661Z" fill="#D2BDFE"/>
<path d="M40.5664 148.078L48.8984 158.956" stroke="black" stroke-miterlimit="10" stroke-linecap="round"/>
<path d="M42.1534 135.788L41.0127 142.231L46.7905 143.544" stroke="black" stroke-miterlimit="10" stroke-linecap="round"/>
<path d="M42.9702 137.102L41.6816 138.514" stroke="black" stroke-miterlimit="10" stroke-linecap="round"/>
<path d="M159.321 156.405H82.4495V155.166H159.321C163.438 155.166 166.785 151.82 166.785 147.707V147.583C166.785 143.47 163.438 140.125 159.321 140.125H82.0527V138.886H159.321C164.107 138.886 168.025 142.776 168.025 147.583V147.707C168.025 152.514 164.107 156.405 159.321 156.405Z" fill="#00FED4"/>
<path d="M100.824 128.28H99.0879V154.819H100.824V128.28Z" fill="#14163C"/>
<path d="M96.9805 149.788C96.9805 149.788 95.6166 153.034 96.5341 155.215L108.635 155.165C108.635 155.165 108.635 153.257 107.594 153.257C106.528 153.257 101.444 149.862 101.444 149.862L96.9805 149.788Z" fill="#292C71"/>
<path d="M81.4322 149.738C81.4322 149.738 79.9692 152.786 80.9611 154.422L81.7546 155.14L93.335 155.115C93.335 155.115 92.8142 153.356 91.9463 153.282C91.0784 153.232 86.5405 151.646 86.1437 150.011C85.7222 148.4 81.4322 149.738 81.4322 149.738Z" fill="#2B2B71"/>
<path d="M96.583 153.554C96.583 153.554 98.2196 153.183 98.5172 154.273H106.899C106.899 154.273 107.32 153.505 107.568 153.505" stroke="white" stroke-miterlimit="10" stroke-linecap="round"/>
<path d="M80.9609 153.628C80.9609 153.628 82.2752 153.43 82.6224 154.297H91.3263C91.3263 154.297 91.5247 153.653 91.971 153.628" stroke="white" stroke-miterlimit="10" stroke-linecap="round"/>
<path d="M102.138 152.216C102.138 152.216 103.254 151.25 103.799 151.423" stroke="white" stroke-miterlimit="10" stroke-linecap="round"/>
<path d="M102.956 153.009C102.956 153.009 103.874 151.844 104.717 151.993" stroke="white" stroke-miterlimit="10" stroke-linecap="round"/>
<path d="M104.246 153.207C104.246 153.207 104.841 152.191 105.759 152.612" stroke="white" stroke-miterlimit="10" stroke-linecap="round"/>
<path d="M85.8213 152.266C85.8213 152.266 86.8876 151.299 87.8298 151.77" stroke="white" stroke-miterlimit="10" stroke-linecap="round"/>
<path d="M86.54 152.86C86.54 152.86 87.7055 151.844 88.7966 152.265" stroke="white" stroke-miterlimit="10" stroke-linecap="round"/>
<path d="M87.7305 153.257C87.7305 153.257 88.9207 152.414 89.8383 152.786" stroke="white" stroke-miterlimit="10" stroke-linecap="round"/>
<path d="M112.554 128.379H87.1113V126.57H112.554C113.049 126.57 113.471 126.967 113.471 127.487C113.471 127.958 113.049 128.379 112.554 128.379Z" fill="#14163C"/>
<path d="M84.2348 132.418C84.2348 132.418 81.2095 138.612 81.2095 142.329C81.2095 146.046 80.8623 150.358 80.8623 150.358L86.5409 150.63C86.5409 150.63 88.1527 138.959 89.5166 137.274C90.8557 135.589 91.8228 130.733 90.9301 130.336C90.0373 129.94 84.7059 130.113 84.2348 132.418Z" fill="#1155C0"/>
<path d="M65.041 128.28C65.041 128.28 66.9008 133.508 72.5794 133.434L86.3668 133.359L95.6906 150.284H102.088L92.9133 127.611C92.9133 127.611 91.847 126.025 90.9791 125.951C90.1112 125.876 73.3977 124.935 73.3977 124.935L65.041 128.28Z" fill="#1470FF"/>
<path d="M111.015 125.555H100.799V126.595H111.015V125.555Z" fill="#3641C1"/>
<path d="M65.7108 97.3806C65.7108 97.3806 63.8014 98.8921 65.5868 101.271C67.3474 103.65 67.7938 103.749 67.7938 103.749L70.3231 100.974C70.3231 100.974 70.6703 99.5611 70.1 98.8178L73.15 96.9593C73.15 96.9593 74.1171 94.2089 72.2325 93.9115C70.3231 93.6142 70.4967 94.977 69.6288 95.0513C68.7609 95.1257 65.3636 95.4478 65.7108 97.3806Z" fill="#15173D"/>
<path d="M71.0424 95.8691C71.0424 95.8691 71.6128 98.2975 69.9513 98.7683C69.9513 98.7683 70.3729 99.8338 70.3729 100.181C70.3729 100.503 70.2489 100.924 70.2489 100.924C70.2489 100.924 69.3314 100.205 68.7363 100.751C68.2651 101.197 68.1163 101.841 68.6123 102.386C69.1082 102.906 67.4964 103.6 67.4964 103.6L67.2236 106.549L71.3648 108.259C71.3648 108.259 70.7697 104.393 71.34 104.294C71.34 104.294 76.1011 105.36 74.7372 101.048C74.7372 101.048 75.7043 100.181 75.506 99.9825C75.3076 99.7842 74.0925 99.6851 73.9189 99.3878C73.7453 99.0904 73.2742 96.0922 71.0424 95.8691Z" fill="#EC6F53"/>
<path d="M92.2438 126.595C92.2438 126.595 91.8471 125.728 93.0125 125.233C94.178 124.737 96.5585 125.257 96.5585 125.257C96.5585 125.257 97.0297 125.852 97.0049 126.595C97.0049 126.571 92.219 126.595 92.2438 126.595Z" fill="#322F7E"/>
<path d="M62.7603 86.7499C63.8762 85.8083 64.5209 84.6685 64.5209 83.4295C64.5209 80.3322 60.479 77.8047 55.4699 77.8047C50.4609 77.8047 46.4189 80.3322 46.4189 83.4295C46.4189 86.5269 50.4609 89.0544 55.4699 89.0544C57.2305 89.0544 58.8672 88.7323 60.2558 88.2119L64.2234 89.7234L62.7603 86.7499Z" fill="#D2BDFE"/>
<path d="M48.8984 83.876L52.2213 82.538L54.2299 84.2725L58.2222 82.4141L59.6853 84.1238L62.2146 83.0583" stroke="white" stroke-width="2" stroke-miterlimit="10" stroke-linecap="round"/>
<path d="M88.9458 124.043C88.9458 124.043 91.4752 123.275 91.8471 123.077C92.2191 122.878 95.9387 122.655 96.6826 124.762C96.6826 124.762 96.4346 125.133 94.9964 125.307C93.5581 125.48 92.5415 125.728 92.2687 125.976C91.9711 126.224 90.6073 126.546 89.6154 126.496C88.5987 126.447 88.9458 124.043 88.9458 124.043Z" fill="#EC6F53"/>
<path d="M95.0209 125.43C94.9713 125.43 94.9465 125.406 94.9217 125.356C94.4258 124.489 92.6899 124.984 92.6651 124.984C92.5908 125.009 92.5412 124.96 92.5164 124.91C92.4916 124.836 92.5412 124.786 92.5908 124.761C92.6652 124.737 94.5498 124.191 95.1449 125.232C95.1697 125.282 95.1697 125.356 95.0953 125.406C95.0457 125.43 95.0209 125.43 95.0209 125.43Z" fill="#BC5333"/>
<path d="M95.9873 125.084C95.9377 125.084 95.913 125.059 95.8882 125.034C94.8715 123.572 93.1604 124.093 93.086 124.117C93.0117 124.142 92.9621 124.093 92.9373 124.043C92.9125 123.969 92.9621 123.919 93.0116 123.894C93.0364 123.894 94.9706 123.3 96.1113 124.91C96.1609 124.96 96.1361 125.034 96.0865 125.084C96.0369 125.084 96.0121 125.084 95.9873 125.084Z" fill="#BC5333"/>
<path d="M67.6447 105.855C67.6447 105.855 66.8264 105.83 66.5784 106.87C66.3304 107.911 63.7763 116.113 63.8259 120.846C63.9003 125.579 64.421 129.494 65.1154 129.494C65.8097 129.494 73.2241 125.752 73.2241 125.752C73.2241 125.752 73.4225 126.421 74.6128 126.421C75.8031 126.421 89.5905 126.495 89.5905 126.495V123.249L76.6958 120.895L71.3643 107.515L67.6447 105.855Z" fill="#A6D2FF"/>
<path d="M67.6445 118.021L73.2487 125.777" stroke="black" stroke-width="1.0081" stroke-miterlimit="10" stroke-linecap="round"/>
<path d="M67.2725 118.938L68.6364 119.408" stroke="black" stroke-width="1.0081" stroke-miterlimit="10" stroke-linecap="round"/>
<path d="M66.5293 111.529C66.5293 111.529 67.1988 107.961 71.4641 108.804" stroke="black" stroke-width="1.0081" stroke-miterlimit="10" stroke-linecap="round"/>
<path d="M76.671 122.431L76.7205 120.92L75.4072 121.713" stroke="black" stroke-width="1.0081" stroke-miterlimit="10" stroke-linecap="round"/>
<path d="M71.3896 99.4374C71.3152 99.4374 71.2656 99.3631 71.2656 99.3135C71.2656 99.2887 71.2904 98.7684 71.6872 98.4215C71.9104 98.2232 72.2327 98.1489 72.5799 98.1985C72.6543 98.1985 72.7039 98.2728 72.6791 98.3471C72.6791 98.4215 72.6047 98.471 72.5303 98.4463C72.2327 98.4215 71.9848 98.471 71.8112 98.6197C71.5136 98.8675 71.464 99.3135 71.464 99.3135C71.5136 99.3879 71.4392 99.4374 71.3896 99.4374Z" fill="black"/>
<path d="M72.5294 99.9582C72.68 99.9582 72.802 99.8362 72.802 99.6857C72.802 99.5351 72.68 99.4131 72.5294 99.4131C72.3789 99.4131 72.2568 99.5351 72.2568 99.6857C72.2568 99.8362 72.3789 99.9582 72.5294 99.9582Z" fill="#15173D"/>
<path d="M74.341 102.585C73.4731 102.585 73.0268 102.238 73.002 102.213L73.1507 102.015C73.1507 102.015 73.7211 102.461 74.8618 102.287L74.9114 102.535C74.6882 102.56 74.5146 102.585 74.341 102.585Z" fill="#BC5333"/>
<path d="M143.029 118.22H121.48V139.232H143.029V118.22Z" fill="#15173D"/>
<path d="M154.436 135.02H110.223V139.257H154.436V135.02Z" fill="#282A74"/>
<path d="M77.1429 45.0717C77.6085 45.0717 77.986 44.6945 77.986 44.2292C77.986 43.7639 77.6085 43.3867 77.1429 43.3867C76.6773 43.3867 76.2998 43.7639 76.2998 44.2292C76.2998 44.6945 76.6773 45.0717 77.1429 45.0717Z" fill="#AACBF8"/>
<path d="M77.1429 49.1606C77.6085 49.1606 77.986 48.7834 77.986 48.3181C77.986 47.8528 77.6085 47.4756 77.1429 47.4756C76.6773 47.4756 76.2998 47.8528 76.2998 48.3181C76.2998 48.7834 76.6773 49.1606 77.1429 49.1606Z" fill="#AACBF8"/>
<path d="M77.1917 53.1742C77.6574 53.1742 78.0349 52.797 78.0349 52.3317C78.0349 51.8665 77.6574 51.4893 77.1917 51.4893C76.7261 51.4893 76.3486 51.8665 76.3486 52.3317C76.3486 52.797 76.7261 53.1742 77.1917 53.1742Z" fill="#AACBF8"/>
<path d="M77.1917 57.2387C77.6574 57.2387 78.0349 56.8615 78.0349 56.3962C78.0349 55.9309 77.6574 55.5537 77.1917 55.5537C76.7261 55.5537 76.3486 55.9309 76.3486 56.3962C76.3486 56.8615 76.7261 57.2387 77.1917 57.2387Z" fill="#AACBF8"/>
<path d="M77.1917 61.2026C77.6574 61.2026 78.0349 60.8254 78.0349 60.3601C78.0349 59.8948 77.6574 59.5176 77.1917 59.5176C76.7261 59.5176 76.3486 59.8948 76.3486 60.3601C76.3486 60.8254 76.7261 61.2026 77.1917 61.2026Z" fill="#AACBF8"/>
<path d="M77.1917 65.2914C77.6574 65.2914 78.0349 64.9142 78.0349 64.4489C78.0349 63.9836 77.6574 63.6064 77.1917 63.6064C76.7261 63.6064 76.3486 63.9836 76.3486 64.4489C76.3486 64.9142 76.7261 65.2914 77.1917 65.2914Z" fill="#AACBF8"/>
<path d="M81.1107 45.0717C81.5763 45.0717 81.9538 44.6945 81.9538 44.2292C81.9538 43.7639 81.5763 43.3867 81.1107 43.3867C80.645 43.3867 80.2676 43.7639 80.2676 44.2292C80.2676 44.6945 80.645 45.0717 81.1107 45.0717Z" fill="#AACBF8"/>
<path d="M81.1107 49.1606C81.5763 49.1606 81.9538 48.7834 81.9538 48.3181C81.9538 47.8528 81.5763 47.4756 81.1107 47.4756C80.645 47.4756 80.2676 47.8528 80.2676 48.3181C80.2676 48.7834 80.645 49.1606 81.1107 49.1606Z" fill="#AACBF8"/>
<path d="M81.1605 53.1742C81.6261 53.1742 82.0036 52.797 82.0036 52.3317C82.0036 51.8665 81.6261 51.4893 81.1605 51.4893C80.6949 51.4893 80.3174 51.8665 80.3174 52.3317C80.3174 52.797 80.6949 53.1742 81.1605 53.1742Z" fill="#AACBF8"/>
<path d="M81.1605 57.2387C81.6261 57.2387 82.0036 56.8615 82.0036 56.3962C82.0036 55.9309 81.6261 55.5537 81.1605 55.5537C80.6949 55.5537 80.3174 55.9309 80.3174 56.3962C80.3174 56.8615 80.6949 57.2387 81.1605 57.2387Z" fill="#AACBF8"/>
<path d="M81.1605 61.2026C81.6261 61.2026 82.0036 60.8254 82.0036 60.3601C82.0036 59.8948 81.6261 59.5176 81.1605 59.5176C80.6949 59.5176 80.3174 59.8948 80.3174 60.3601C80.3174 60.8254 80.6949 61.2026 81.1605 61.2026Z" fill="#AACBF8"/>
<path d="M81.1605 65.2914C81.6261 65.2914 82.0036 64.9142 82.0036 64.4489C82.0036 63.9836 81.6261 63.6064 81.1605 63.6064C80.6949 63.6064 80.3174 63.9836 80.3174 64.4489C80.3174 64.9142 80.6949 65.2914 81.1605 65.2914Z" fill="#AACBF8"/>
<path d="M85.3265 45.0717C85.7921 45.0717 86.1696 44.6945 86.1696 44.2292C86.1696 43.7639 85.7921 43.3867 85.3265 43.3867C84.8609 43.3867 84.4834 43.7639 84.4834 44.2292C84.4834 44.6945 84.8609 45.0717 85.3265 45.0717Z" fill="#AACBF8"/>
<path d="M85.3265 49.1606C85.7921 49.1606 86.1696 48.7834 86.1696 48.3181C86.1696 47.8528 85.7921 47.4756 85.3265 47.4756C84.8609 47.4756 84.4834 47.8528 84.4834 48.3181C84.4834 48.7834 84.8609 49.1606 85.3265 49.1606Z" fill="#AACBF8"/>
<path d="M85.3754 53.1742C85.841 53.1742 86.2185 52.797 86.2185 52.3317C86.2185 51.8665 85.841 51.4893 85.3754 51.4893C84.9097 51.4893 84.5322 51.8665 84.5322 52.3317C84.5322 52.797 84.9097 53.1742 85.3754 53.1742Z" fill="#AACBF8"/>
<path d="M85.3754 57.2387C85.841 57.2387 86.2185 56.8615 86.2185 56.3962C86.2185 55.9309 85.841 55.5537 85.3754 55.5537C84.9097 55.5537 84.5322 55.9309 84.5322 56.3962C84.5322 56.8615 84.9097 57.2387 85.3754 57.2387Z" fill="#AACBF8"/>
<path d="M85.3754 61.2026C85.841 61.2026 86.2185 60.8254 86.2185 60.3601C86.2185 59.8948 85.841 59.5176 85.3754 59.5176C84.9097 59.5176 84.5322 59.8948 84.5322 60.3601C84.5322 60.8254 84.9097 61.2026 85.3754 61.2026Z" fill="#AACBF8"/>
<path d="M85.3754 65.2914C85.841 65.2914 86.2185 64.9142 86.2185 64.4489C86.2185 63.9836 85.841 63.6064 85.3754 63.6064C84.9097 63.6064 84.5322 63.9836 84.5322 64.4489C84.5322 64.9142 84.9097 65.2914 85.3754 65.2914Z" fill="#AACBF8"/>
<path d="M89.0453 45.0717C89.5109 45.0717 89.8884 44.6945 89.8884 44.2292C89.8884 43.7639 89.5109 43.3867 89.0453 43.3867C88.5796 43.3867 88.2021 43.7639 88.2021 44.2292C88.2021 44.6945 88.5796 45.0717 89.0453 45.0717Z" fill="#AACBF8"/>
<path d="M89.0453 49.1606C89.5109 49.1606 89.8884 48.7834 89.8884 48.3181C89.8884 47.8528 89.5109 47.4756 89.0453 47.4756C88.5796 47.4756 88.2021 47.8528 88.2021 48.3181C88.2021 48.7834 88.5796 49.1606 89.0453 49.1606Z" fill="#AACBF8"/>
<path d="M89.095 53.5465C88.4254 53.5465 87.8799 53.0014 87.8799 52.3323C87.8799 51.6633 88.4254 51.1182 89.095 51.1182C89.7645 51.1182 90.3101 51.6633 90.3101 52.3323C90.3101 53.0014 89.7645 53.5465 89.095 53.5465ZM89.095 51.8615C88.847 51.8615 88.6238 52.0846 88.6238 52.3323C88.6238 52.5801 88.847 52.8031 89.095 52.8031C89.3429 52.8031 89.5661 52.5801 89.5661 52.3323C89.5661 52.0846 89.3429 51.8615 89.095 51.8615Z" fill="black"/>
<path d="M89.095 57.61C88.4254 57.61 87.8799 57.0649 87.8799 56.3958C87.8799 55.7268 88.4254 55.1816 89.095 55.1816C89.7645 55.1816 90.3101 55.7268 90.3101 56.3958C90.3101 57.0649 89.7645 57.61 89.095 57.61ZM89.095 55.925C88.847 55.925 88.6238 56.148 88.6238 56.3958C88.6238 56.6436 88.847 56.8666 89.095 56.8666C89.3429 56.8666 89.5661 56.6436 89.5661 56.3958C89.5661 56.148 89.3429 55.925 89.095 55.925Z" fill="black"/>
<path d="M89.095 61.5748C88.4254 61.5748 87.8799 61.0297 87.8799 60.3607C87.8799 59.6916 88.4254 59.1465 89.095 59.1465C89.7645 59.1465 90.3101 59.6916 90.3101 60.3607C90.3101 61.0297 89.7645 61.5748 89.095 61.5748ZM89.095 59.8899C88.847 59.8899 88.6238 60.1129 88.6238 60.3607C88.6238 60.6084 88.847 60.8315 89.095 60.8315C89.3429 60.8315 89.5661 60.6084 89.5661 60.3607C89.5661 60.1129 89.3429 59.8899 89.095 59.8899Z" fill="black"/>
<path d="M89.095 65.6627C88.4254 65.6627 87.8799 65.1176 87.8799 64.4485C87.8799 63.7795 88.4254 63.2344 89.095 63.2344C89.7645 63.2344 90.3101 63.7795 90.3101 64.4485C90.3101 65.1176 89.7645 65.6627 89.095 65.6627ZM89.095 63.9777C88.847 63.9777 88.6238 64.2008 88.6238 64.4485C88.6238 64.6963 88.847 64.9193 89.095 64.9193C89.3429 64.9193 89.5661 64.6963 89.5661 64.4485C89.5661 64.2008 89.3429 63.9777 89.095 63.9777Z" fill="black"/>
<path d="M93.0131 45.0717C93.4787 45.0717 93.8562 44.6945 93.8562 44.2292C93.8562 43.7639 93.4787 43.3867 93.0131 43.3867C92.5474 43.3867 92.1699 43.7639 92.1699 44.2292C92.1699 44.6945 92.5474 45.0717 93.0131 45.0717Z" fill="#AACBF8"/>
<path d="M93.0131 49.1606C93.4787 49.1606 93.8562 48.7834 93.8562 48.3181C93.8562 47.8528 93.4787 47.4756 93.0131 47.4756C92.5474 47.4756 92.1699 47.8528 92.1699 48.3181C92.1699 48.7834 92.5474 49.1606 93.0131 49.1606Z" fill="#AACBF8"/>
<path d="M93.0627 53.5465C92.3932 53.5465 91.8477 53.0014 91.8477 52.3323C91.8477 51.6633 92.3932 51.1182 93.0627 51.1182C93.7322 51.1182 94.2778 51.6633 94.2778 52.3323C94.2778 53.0014 93.7322 53.5465 93.0627 53.5465ZM93.0627 51.8615C92.8147 51.8615 92.5916 52.0846 92.5916 52.3323C92.5916 52.5801 92.8147 52.8031 93.0627 52.8031C93.3107 52.8031 93.5339 52.5801 93.5339 52.3323C93.5339 52.0846 93.3107 51.8615 93.0627 51.8615Z" fill="black"/>
<path d="M93.0627 57.61C92.3932 57.61 91.8477 57.0649 91.8477 56.3958C91.8477 55.7268 92.3932 55.1816 93.0627 55.1816C93.7322 55.1816 94.2778 55.7268 94.2778 56.3958C94.2778 57.0649 93.7322 57.61 93.0627 57.61ZM93.0627 55.925C92.8147 55.925 92.5916 56.148 92.5916 56.3958C92.5916 56.6436 92.8147 56.8666 93.0627 56.8666C93.3107 56.8666 93.5339 56.6436 93.5339 56.3958C93.5339 56.148 93.3107 55.925 93.0627 55.925Z" fill="black"/>
<path d="M93.0627 61.5748C92.3932 61.5748 91.8477 61.0297 91.8477 60.3607C91.8477 59.6916 92.3932 59.1465 93.0627 59.1465C93.7322 59.1465 94.2778 59.6916 94.2778 60.3607C94.2778 61.0297 93.7322 61.5748 93.0627 61.5748ZM93.0627 59.8899C92.8147 59.8899 92.5916 60.1129 92.5916 60.3607C92.5916 60.6084 92.8147 60.8315 93.0627 60.8315C93.3107 60.8315 93.5339 60.6084 93.5339 60.3607C93.5339 60.1129 93.3107 59.8899 93.0627 59.8899Z" fill="black"/>
<path d="M93.0627 65.6627C92.3932 65.6627 91.8477 65.1176 91.8477 64.4485C91.8477 63.7795 92.3932 63.2344 93.0627 63.2344C93.7322 63.2344 94.2778 63.7795 94.2778 64.4485C94.2778 65.1176 93.7322 65.6627 93.0627 65.6627ZM93.0627 63.9777C92.8147 63.9777 92.5916 64.2008 92.5916 64.4485C92.5916 64.6963 92.8147 64.9193 93.0627 64.9193C93.3107 64.9193 93.5339 64.6963 93.5339 64.4485C93.5339 64.2008 93.3107 63.9777 93.0627 63.9777Z" fill="black"/>
<path d="M96.9808 45.0717C97.4464 45.0717 97.8239 44.6945 97.8239 44.2292C97.8239 43.7639 97.4464 43.3867 96.9808 43.3867C96.5152 43.3867 96.1377 43.7639 96.1377 44.2292C96.1377 44.6945 96.5152 45.0717 96.9808 45.0717Z" fill="#AACBF8"/>
<path d="M96.9808 49.1606C97.4464 49.1606 97.8239 48.7834 97.8239 48.3181C97.8239 47.8528 97.4464 47.4756 96.9808 47.4756C96.5152 47.4756 96.1377 47.8528 96.1377 48.3181C96.1377 48.7834 96.5152 49.1606 96.9808 49.1606Z" fill="#AACBF8"/>
<path d="M97.0305 53.5465C96.361 53.5465 95.8154 53.0014 95.8154 52.3323C95.8154 51.6633 96.361 51.1182 97.0305 51.1182C97.7 51.1182 98.2455 51.6633 98.2455 52.3323C98.2455 53.0014 97.7 53.5465 97.0305 53.5465ZM97.0305 51.8615C96.7825 51.8615 96.5593 52.0846 96.5593 52.3323C96.5593 52.5801 96.7825 52.8031 97.0305 52.8031C97.2785 52.8031 97.5016 52.5801 97.5016 52.3323C97.5016 52.0846 97.2785 51.8615 97.0305 51.8615Z" fill="black"/>
<path d="M97.0305 57.61C96.361 57.61 95.8154 57.0649 95.8154 56.3958C95.8154 55.7268 96.361 55.1816 97.0305 55.1816C97.7 55.1816 98.2455 55.7268 98.2455 56.3958C98.2455 57.0649 97.7 57.61 97.0305 57.61ZM97.0305 55.925C96.7825 55.925 96.5593 56.148 96.5593 56.3958C96.5593 56.6436 96.7825 56.8666 97.0305 56.8666C97.2785 56.8666 97.5016 56.6436 97.5016 56.3958C97.5016 56.148 97.2785 55.925 97.0305 55.925Z" fill="black"/>
<path d="M97.0305 61.5748C96.361 61.5748 95.8154 61.0297 95.8154 60.3607C95.8154 59.6916 96.361 59.1465 97.0305 59.1465C97.7 59.1465 98.2455 59.6916 98.2455 60.3607C98.2455 61.0297 97.7 61.5748 97.0305 61.5748ZM97.0305 59.8899C96.7825 59.8899 96.5593 60.1129 96.5593 60.3607C96.5593 60.6084 96.7825 60.8315 97.0305 60.8315C97.2785 60.8315 97.5016 60.6084 97.5016 60.3607C97.5016 60.1129 97.2785 59.8899 97.0305 59.8899Z" fill="black"/>
<path d="M97.0305 65.6627C96.361 65.6627 95.8154 65.1176 95.8154 64.4485C95.8154 63.7795 96.361 63.2344 97.0305 63.2344C97.7 63.2344 98.2455 63.7795 98.2455 64.4485C98.2455 65.1176 97.7 65.6627 97.0305 65.6627ZM97.0305 63.9777C96.7825 63.9777 96.5593 64.2008 96.5593 64.4485C96.5593 64.6963 96.7825 64.9193 97.0305 64.9193C97.2785 64.9193 97.5016 64.6963 97.5016 64.4485C97.5016 64.2008 97.2785 63.9777 97.0305 63.9777Z" fill="black"/>
<path d="M174.447 118.245H90.1114C88.8468 118.245 87.8301 117.229 87.8301 115.965V51.9359C87.8301 50.6722 88.8468 49.6562 90.1114 49.6562H174.447C175.712 49.6562 176.729 50.6722 176.729 51.9359V115.99C176.729 117.229 175.712 118.245 174.447 118.245Z" fill="#1F215E"/>
<path d="M110.445 125.728L116.322 116.956H117.116L111.016 126.595L110.445 125.728Z" fill="#3641C1"/>
<path d="M172.364 111.752H92.2193C91.0786 111.752 90.1611 110.835 90.1611 109.696V53.9922C90.1611 52.8524 91.0786 51.9355 92.2193 51.9355H172.364C173.505 51.9355 174.423 52.8524 174.423 53.9922V109.696C174.447 110.835 173.505 111.752 172.364 111.752Z" fill="white"/>
<path d="M139.16 52.6543C139.16 52.6543 134.424 47.9711 138.268 44.8489C138.268 44.8489 136.606 39.6949 139.508 38.332C142.409 36.9692 144.541 40.2152 145.657 40.6365C146.773 41.0577 152.7 42.594 153.171 42.6436C153.642 42.6931 155.353 44.5268 155.13 47.7233C155.13 47.7233 156.37 47.7233 155.477 51.0932C154.584 54.4632 154.46 56.4207 154.46 57.4862C154.46 58.5517 151.906 60.8562 149.6 60.2615C147.294 59.6668 139.16 52.6543 139.16 52.6543Z" fill="#15173D"/>
<path d="M77.415 88.2618L85.2262 111.926H115.752L108.511 88.1875L77.415 88.2618Z" fill="#15173D"/>
<path d="M141.169 44.9229C141.169 44.9229 140.574 47.4751 138.689 47.4751C138.689 47.4751 138.64 52.1583 138.392 53.6946C138.144 55.2309 137.325 62.3425 141.343 62.8629L139.979 68.3639C139.979 68.3639 146.972 71.3869 151.757 67.7196C151.757 67.7196 149.377 62.1691 150.17 57.3619C150.17 57.3619 152.898 59.0221 153.419 55.8256C153.94 52.6291 149.997 53.4469 149.749 54.8097C149.749 54.8097 148.087 53.1495 149.625 49.9034C149.625 49.9034 146.079 48.3176 146.674 45.1706C146.674 45.1706 145.608 47.1282 143.946 47.1282C142.285 47.1282 141.169 44.9229 141.169 44.9229Z" fill="#F88254"/>
<path d="M148.037 51.1928C147.938 51.1928 147.839 51.1185 147.789 51.0193C147.244 49.1361 144.392 49.5822 144.367 49.5822C144.219 49.6069 144.095 49.5078 144.095 49.3839C144.07 49.26 144.169 49.1114 144.293 49.1114C145.434 48.9131 147.765 49.0618 148.285 50.9202C148.335 51.0441 148.236 51.1928 148.112 51.2176C148.087 51.1928 148.062 51.1928 148.037 51.1928Z" fill="black"/>
<path d="M139.185 50.2757C139.135 50.2757 139.086 50.2509 139.036 50.2262C138.912 50.1518 138.887 50.0032 138.962 49.8793C138.962 49.8545 140.078 48.2686 142.012 49.1854C142.136 49.235 142.185 49.3837 142.136 49.5076C142.086 49.6315 141.938 49.681 141.814 49.6315C140.276 48.8881 139.433 50.1023 139.383 50.1518C139.359 50.2262 139.259 50.2757 139.185 50.2757Z" fill="black"/>
<path d="M142.384 56.0243C142.335 55.9747 142.235 55.9252 142.136 55.8756C141.69 55.6278 140.996 55.2561 140.971 54.7358C140.946 54.4384 141.144 54.1411 141.516 53.8685C142.707 53.026 142.359 50.8702 142.359 50.8455L142.731 50.7959C142.756 50.895 143.103 53.1995 141.74 54.1659C141.467 54.3641 141.343 54.5375 141.343 54.711C141.368 55.0579 141.963 55.3553 142.31 55.5535C142.434 55.6278 142.533 55.6774 142.607 55.7269L142.384 56.0243Z" fill="#BC5333"/>
<path d="M142.88 59.8901C141.59 59.5184 140.351 57.09 140.351 57.09C140.351 57.09 143.723 58.0316 145.905 56.9909C148.112 55.975 144.095 60.237 142.88 59.8901Z" fill="#FFFDFF"/>
<path d="M142.904 63.185C142.408 63.185 141.888 63.1355 141.317 63.0363L141.392 62.6647C147.79 63.8293 149.501 57.6345 149.575 57.3867L149.947 57.4858C149.922 57.5354 148.36 63.185 142.904 63.185Z" fill="#BC5333"/>
<path d="M145.26 53.0014C145.588 53.0014 145.854 52.6686 145.854 52.258C145.854 51.8475 145.588 51.5146 145.26 51.5146C144.931 51.5146 144.665 51.8475 144.665 52.258C144.665 52.6686 144.931 53.0014 145.26 53.0014Z" fill="#15173D"/>
<path d="M140.796 52.9274C141.097 52.9274 141.341 52.6057 141.341 52.2088C141.341 51.812 141.097 51.4902 140.796 51.4902C140.495 51.4902 140.251 51.812 140.251 52.2088C140.251 52.6057 140.495 52.9274 140.796 52.9274Z" fill="#15173D"/>
<path d="M152.303 54.7378L150.169 55.8984L150.347 56.225L152.481 55.0643L152.303 54.7378Z" fill="#BC5333"/>
<path d="M151.244 55.4445L150.966 55.6914L151.707 56.5248L151.984 56.2779L151.244 55.4445Z" fill="#BC5333"/>
<path d="M143.004 61.575C142.136 61.575 141.788 61.1042 141.764 61.0795L142.061 60.8564C142.086 60.8812 142.607 61.5503 144.119 60.9556L144.268 61.3025C143.772 61.5007 143.351 61.575 143.004 61.575Z" fill="#BC5333"/>
<path d="M138.219 50.1025L132.143 57.6354C131.573 58.3292 132.069 59.3947 132.986 59.3947H136.929" stroke="black" stroke-width="2" stroke-miterlimit="10" stroke-linecap="round"/>
<path d="M139.211 60.9806H136.706C136.012 60.9806 135.441 60.4107 135.441 59.7169C135.441 59.023 136.012 58.4531 136.706 58.4531H139.211C139.905 58.4531 140.475 59.023 140.475 59.7169C140.5 60.4107 139.93 60.9806 139.211 60.9806Z" fill="#1D1441"/>
<path d="M137.028 68.5872L140.574 65.9854C140.574 65.9854 143.302 70.4704 151.237 66.2331C151.237 66.2331 151.832 68.3146 153.543 68.8349L154.312 70.842L143.649 76.2191L136.83 69.7022L137.028 68.5872Z" fill="white"/>
<path d="M161.751 57.1641H163.834" stroke="black" stroke-width="0.9924" stroke-miterlimit="10" stroke-linecap="round"/>
<path d="M165.521 55.1816L167.678 57.3374" stroke="black" stroke-width="0.9924" stroke-miterlimit="10" stroke-linecap="round"/>
<path d="M167.776 55.1074L165.445 57.4119" stroke="black" stroke-width="0.9924" stroke-miterlimit="10" stroke-linecap="round"/>
<path d="M171.67 54.959H169.19V57.5112H171.67V54.959Z" stroke="black" stroke-width="0.9924" stroke-miterlimit="10" stroke-linecap="round" stroke-linejoin="bevel"/>
<path d="M189.499 43.3125H179.258V54.2648H189.499V43.3125Z" fill="#FECE26"/>
<path d="M184.986 50.251L187.441 56.0988L188.557 54.5625L191.533 57.4121L193.07 55.7767L189.896 52.9271L191.334 51.4899L184.986 50.251Z" fill="#A3D2FE"/>
<path d="M191.558 57.7837L188.607 54.9341L187.392 56.5943L184.59 49.9287L191.855 51.3411L190.268 52.927L193.443 55.7766L191.558 57.7837ZM188.533 54.1907L191.533 57.0899L192.723 55.8261L189.549 52.9518L190.839 51.6632L185.408 50.6225L187.516 55.6279L188.533 54.1907Z" fill="white"/>
<path d="M137.747 68.3398C137.747 68.3398 133.284 69.5292 132.54 69.9257C132.019 70.2231 126.985 73.9895 126.564 80.4073C126.093 87.2711 125.15 91.657 125.15 91.657L118.877 77.7559L110.941 79.4656L120.389 111.778H169.364C169.364 111.778 166.884 75.501 158.875 72.0071C158.875 72.0071 154.436 68.6868 153.494 68.6372C153.494 68.6372 151.237 73.0726 146.327 73.0231C141.417 72.9735 138.218 72.0071 137.747 68.3398Z" fill="#1470FF"/>
<path d="M128.521 104.145L154.336 99.4619C154.336 99.4619 156.592 99.4619 157.386 100.676" stroke="black" stroke-width="2" stroke-miterlimit="10" stroke-linecap="round"/>
<path d="M158.13 72.1309C158.13 72.1309 152.824 75.699 153.22 83.8514C153.617 92.0037 154.535 99.3878 154.535 99.3878" stroke="black" stroke-width="2" stroke-miterlimit="10" stroke-linecap="round"/>
<path d="M130.357 80.9023L128.225 103.427" stroke="black" stroke-width="2" stroke-miterlimit="10" stroke-linecap="round"/>
<path d="M94.2772 65.3167C94.3268 65.8123 94.6988 66.184 95.1947 66.2583L101.022 66.8778C101.022 66.8778 100.65 67.1008 100.601 67.6707C100.551 68.2406 100.477 69.1574 101.047 69.4548C101.047 69.4548 99.9062 70.7681 101.072 71.5362C101.072 71.5362 100.824 73.6177 102.212 74.0389C103.601 74.4602 108.362 74.1876 108.362 74.1876C108.362 74.1876 109.23 74.1628 109.577 75.0301C109.9 75.8974 111.66 79.6638 111.66 79.6638L118.579 78.1275L114.809 68.8601C114.809 68.8601 112.925 63.5078 110.272 63.4335C108.065 63.3839 98.4184 64.0034 95.2195 64.2016C94.674 64.276 94.2276 64.7715 94.2772 65.3167Z" fill="#FF7D59"/>
<path d="M105.783 111.703C105.783 111.703 110.643 104.591 119.595 104.715L128.473 104.368L129.787 111.579C129.787 111.579 121.207 112 119.769 110.761C119.769 110.761 115.181 110.414 114.537 111.777C114.561 111.752 105.783 111.43 105.783 111.703Z" fill="#FF7D59"/>
<path d="M108.635 111.678L108.362 111.43C108.536 111.257 112.677 106.995 116.149 106.821L116.174 107.193C112.851 107.342 108.685 111.628 108.635 111.678Z" fill="#BC5333"/>
<path d="M111.884 111.529L111.636 111.232C111.76 111.133 114.983 108.506 117.066 108.581V108.952C117.042 108.952 117.017 108.952 117.017 108.952C115.058 108.952 111.933 111.505 111.884 111.529Z" fill="#BC5333"/>
<path d="M105.809 69.8012C104.222 69.8012 101.692 69.5534 101.568 69.5534L101.593 69.1818C101.618 69.1818 104.966 69.5039 106.379 69.4295C106.627 69.4048 106.801 69.3304 106.875 69.1818C107.123 68.7605 106.85 67.8932 106.677 67.4968L101.965 67.026L102.015 66.6543L106.949 67.1499L106.999 67.249C107.073 67.3977 107.644 68.6614 107.222 69.38C107.073 69.6526 106.801 69.8012 106.429 69.826C106.23 69.8012 106.032 69.8012 105.809 69.8012Z" fill="#BC5333"/>
<path d="M104.469 71.8829C103.254 71.8829 101.915 71.8334 101.493 71.8086L101.518 71.4369C103.204 71.5112 106.006 71.5856 106.353 71.3874C106.601 71.2635 106.453 70.3219 106.229 69.6776L106.577 69.5537C106.676 69.8511 107.172 71.3874 106.502 71.7095C106.279 71.8334 105.411 71.8829 104.469 71.8829Z" fill="#BC5333"/>
<path d="M103.601 73.9638C103.353 73.9638 103.204 73.939 103.18 73.939L103.204 73.5673C103.229 73.5673 105.089 73.716 105.858 72.923C106.131 72.6505 106.23 72.3036 106.18 71.8328L106.552 71.7832C106.627 72.3531 106.478 72.7991 106.131 73.1708C105.486 73.8646 104.246 73.9638 103.601 73.9638Z" fill="#BC5333"/>
<path d="M107.37 63.8291C107.37 63.8291 105.56 65.6132 104.94 66.0592C104.345 66.5052 103.204 67.7194 104.295 68.7849C105.386 69.8504 107.196 67.4468 107.717 67.2486C108.238 67.0256 109.85 66.8521 110.271 67.4716" fill="#FF7D59"/>
<path d="M104.966 69.256C104.693 69.256 104.445 69.1569 104.197 68.9338C103.825 68.5869 103.651 68.1657 103.676 67.7197C103.726 66.8028 104.668 66.0595 104.842 65.9108C105.437 65.4648 107.222 63.7054 107.247 63.6807L107.52 63.9532C107.445 64.0276 105.685 65.7621 105.065 66.2081C104.618 66.5303 104.073 67.1497 104.048 67.7444C104.023 68.0666 104.172 68.3887 104.445 68.6613C105.065 69.2807 106.032 68.4878 106.974 67.6205C107.272 67.348 107.495 67.1497 107.669 67.0754C108.189 66.8524 109.925 66.6294 110.446 67.348L110.148 67.571C109.801 67.0754 108.313 67.2241 107.817 67.4223C107.718 67.4719 107.47 67.6949 107.247 67.8931C106.652 68.4383 105.759 69.256 104.966 69.256Z" fill="#BC5333"/>
<path d="M166.214 121.54L165.669 125.653L170.157 123.869L166.214 121.54Z" fill="#FDCD25"/>
<path d="M116.272 116.906L107.618 104.368L92.4668 119.558L110.445 125.728L116.272 116.906Z" fill="url(#paint0_linear_244_4125)"/>
<defs>
<linearGradient id="paint0_linear_244_4125" x1="94.6217" y1="109.061" x2="115.6" y2="120.285" gradientUnits="userSpaceOnUse">
<stop offset="0.5367" stop-color="white" stop-opacity="0"/>
<stop offset="1" stop-color="white" stop-opacity="0.3"/>
</linearGradient>
</defs>
</svg>
