<svg width="46" height="46" viewBox="0 0 46 46" fill="none" xmlns="http://www.w3.org/2000/svg">
<path d="M22.8692 4.3125C19.1731 4.3125 15.5601 5.4085 12.4869 7.46191C9.41379 9.51532 7.01856 12.4339 5.60415 15.8486C4.18974 19.2633 3.81966 23.0207 4.54072 26.6458C5.26179 30.2708 7.0416 33.6006 9.65509 36.2141C12.2686 38.8276 15.5984 40.6074 19.2234 41.3284C22.8484 42.0495 26.6059 41.6794 30.0205 40.265C33.4352 38.8506 36.3538 36.4554 38.4072 33.3822C40.4606 30.3091 41.5567 26.696 41.5567 23C41.5509 18.0455 39.5802 13.2956 36.0769 9.79227C32.5735 6.28892 27.8236 4.31823 22.8692 4.3125ZM29.6355 27.7336C29.7692 27.8671 29.8753 28.0255 29.9477 28.2C30.0202 28.3744 30.0575 28.5614 30.0576 28.7503C30.0577 28.9392 30.0206 29.1263 29.9483 29.3008C29.8761 29.4753 29.7702 29.6339 29.6366 29.7674C29.503 29.901 29.3445 30.0069 29.1699 30.0792C28.9954 30.1514 28.8084 30.1885 28.6195 30.1884C28.4306 30.1883 28.2436 30.151 28.0691 30.0786C27.8947 30.0062 27.7362 29.9001 27.6028 29.7664L22.8692 25.0327L18.1355 29.7664C17.8659 30.0354 17.5004 30.1865 17.1195 30.1863C16.7385 30.1861 16.3732 30.0346 16.1039 29.7653C15.8345 29.4959 15.6831 29.1306 15.6829 28.7497C15.6827 28.3687 15.8337 28.0033 16.1028 27.7336L20.8364 23L16.1028 18.2664C15.8337 17.9967 15.6827 17.6313 15.6829 17.2503C15.6831 16.8694 15.8345 16.5041 16.1039 16.2347C16.3732 15.9654 16.7385 15.8139 17.1195 15.8137C17.5004 15.8135 17.8659 15.9646 18.1355 16.2336L22.8692 20.9673L27.6028 16.2336C27.8724 15.9646 28.2379 15.8135 28.6188 15.8137C28.9998 15.8139 29.3651 15.9654 29.6344 16.2347C29.9038 16.5041 30.0552 16.8694 30.0554 17.2503C30.0556 17.6313 29.9046 17.9967 29.6355 18.2664L24.9019 23L29.6355 27.7336Z" fill="#9CC4C3"/>
</svg>
