<svg width="118" height="56" viewBox="0 0 118 56" fill="none" xmlns="http://www.w3.org/2000/svg">
<g filter="url(#filter0_d_367_3195)">
<rect x="2" width="108" height="40.4535" rx="12" fill="url(#paint0_linear_367_3195)"/>
</g>
<path d="M45.5683 24.125V14.185H49.6843C50.1136 14.185 50.5056 14.2737 50.8603 14.451C51.2243 14.6283 51.5369 14.871 51.7983 15.179C52.0689 15.4777 52.2743 15.8137 52.4143 16.187C52.5636 16.551 52.6383 16.9243 52.6383 17.307C52.6383 17.8483 52.5169 18.3617 52.2743 18.847C52.0316 19.323 51.6956 19.7103 51.2663 20.009C50.8369 20.3077 50.3376 20.457 49.7683 20.457H46.5483V24.125H45.5683ZM46.5483 19.589H49.7263C50.1183 19.589 50.4589 19.4817 50.7483 19.267C51.0376 19.0523 51.2616 18.7723 51.4203 18.427C51.5789 18.0817 51.6583 17.7083 51.6583 17.307C51.6583 16.8963 51.5649 16.523 51.3783 16.187C51.1916 15.8417 50.9443 15.5663 50.6363 15.361C50.3376 15.1557 50.0063 15.053 49.6423 15.053H46.5483V19.589ZM57.0525 24.265C56.3525 24.265 55.7272 24.0923 55.1765 23.747C54.6352 23.4017 54.2105 22.9443 53.9025 22.375C53.5945 21.7963 53.4405 21.171 53.4405 20.499C53.4405 19.8177 53.5945 19.1923 53.9025 18.623C54.2199 18.0443 54.6492 17.5823 55.1905 17.237C55.7412 16.8823 56.3619 16.705 57.0525 16.705C57.7525 16.705 58.3732 16.8823 58.9145 17.237C59.4652 17.5823 59.8945 18.0443 60.2025 18.623C60.5199 19.1923 60.6785 19.8177 60.6785 20.499C60.6785 21.171 60.5245 21.7963 60.2165 22.375C59.9085 22.9443 59.4792 23.4017 58.9285 23.747C58.3872 24.0923 57.7619 24.265 57.0525 24.265ZM54.4065 20.513C54.4065 21.0543 54.5232 21.549 54.7565 21.997C54.9992 22.4357 55.3212 22.7857 55.7225 23.047C56.1239 23.299 56.5672 23.425 57.0525 23.425C57.5379 23.425 57.9812 23.2943 58.3825 23.033C58.7839 22.7717 59.1059 22.417 59.3485 21.969C59.5912 21.521 59.7125 21.0263 59.7125 20.485C59.7125 19.9437 59.5912 19.449 59.3485 19.001C59.1059 18.553 58.7839 18.1983 58.3825 17.937C57.9812 17.6757 57.5379 17.545 57.0525 17.545C56.5765 17.545 56.1379 17.6803 55.7365 17.951C55.3352 18.2123 55.0132 18.567 54.7705 19.015C54.5279 19.463 54.4065 19.9623 54.4065 20.513ZM64.6647 24.265C64.0674 24.265 63.512 24.167 62.9987 23.971C62.4947 23.7657 62.0514 23.467 61.6687 23.075L62.0607 22.403C62.4714 22.7857 62.882 23.0657 63.2927 23.243C63.7127 23.411 64.156 23.495 64.6227 23.495C65.1827 23.495 65.64 23.383 65.9947 23.159C66.3587 22.9257 66.5407 22.5943 66.5407 22.165C66.5407 21.8757 66.452 21.6563 66.2747 21.507C66.1067 21.3483 65.8594 21.2223 65.5327 21.129C65.2154 21.0357 64.8327 20.9283 64.3847 20.807C63.8807 20.667 63.456 20.5223 63.1107 20.373C62.7747 20.2143 62.518 20.0183 62.3407 19.785C62.1727 19.5423 62.0887 19.2297 62.0887 18.847C62.0887 18.3803 62.2054 17.9883 62.4387 17.671C62.6814 17.3537 63.008 17.1157 63.4187 16.957C63.8387 16.789 64.3054 16.705 64.8187 16.705C65.3787 16.705 65.8734 16.7937 66.3027 16.971C66.732 17.1483 67.082 17.3957 67.3527 17.713L66.8907 18.357C66.6387 18.0583 66.326 17.839 65.9527 17.699C65.5887 17.5497 65.192 17.475 64.7627 17.475C64.464 17.475 64.1794 17.517 63.9087 17.601C63.638 17.6757 63.414 17.8063 63.2367 17.993C63.0687 18.1703 62.9847 18.4177 62.9847 18.735C62.9847 19.127 63.1294 19.3977 63.4187 19.547C63.708 19.6963 64.1467 19.855 64.7347 20.023C65.2854 20.1723 65.766 20.3217 66.1767 20.471C66.5874 20.6203 66.9047 20.821 67.1287 21.073C67.3527 21.3157 67.4647 21.6563 67.4647 22.095C67.4647 22.7763 67.208 23.3083 66.6947 23.691C66.1814 24.0737 65.5047 24.265 64.6647 24.265ZM72.5383 23.775C72.4263 23.8217 72.2209 23.9057 71.9223 24.027C71.6236 24.1483 71.2783 24.209 70.8863 24.209C70.4756 24.209 70.1163 24.0923 69.8083 23.859C69.5003 23.6257 69.3463 23.2757 69.3463 22.809V17.587H68.3383V16.831H69.3463V14.367H70.2983V16.831H71.9783V17.587H70.2983V22.543C70.3169 22.8137 70.4103 23.0143 70.5783 23.145C70.7556 23.2663 70.9563 23.327 71.1803 23.327C71.4416 23.327 71.6749 23.285 71.8803 23.201C72.0949 23.1077 72.2303 23.0423 72.2863 23.005L72.5383 23.775Z" fill="black"/>
<defs>
<filter id="filter0_d_367_3195" x="0" y="0" width="118" height="55.4531" filterUnits="userSpaceOnUse" color-interpolation-filters="sRGB">
<feFlood flood-opacity="0" result="BackgroundImageFix"/>
<feColorMatrix in="SourceAlpha" type="matrix" values="0 0 0 0 0 0 0 0 0 0 0 0 0 0 0 0 0 0 127 0" result="hardAlpha"/>
<feOffset dx="3" dy="10"/>
<feGaussianBlur stdDeviation="2.5"/>
<feComposite in2="hardAlpha" operator="out"/>
<feColorMatrix type="matrix" values="0 0 0 0 0.113725 0 0 0 0 0.988235 0 0 0 0 0.956863 0 0 0 0.23 0"/>
<feBlend mode="normal" in2="BackgroundImageFix" result="effect1_dropShadow_367_3195"/>
<feBlend mode="normal" in="SourceGraphic" in2="effect1_dropShadow_367_3195" result="shape"/>
</filter>
<linearGradient id="paint0_linear_367_3195" x1="22.5" y1="20.2268" x2="100" y2="20.2268" gradientUnits="userSpaceOnUse">
<stop offset="0.0291881" stop-color="#00FED4"/>
<stop offset="1" stop-color="#00FFF6"/>
</linearGradient>
</defs>
</svg>
