<svg width="34" height="32" viewBox="0 0 34 32" fill="none" xmlns="http://www.w3.org/2000/svg">
<path d="M18.0031 12.3726C17.1785 10.4979 15.7121 8.95719 13.8518 8.01094C11.9916 7.06468 9.85172 6.77097 7.79408 7.17947C5.73643 7.58797 3.88729 8.67362 2.55936 10.2528C1.23143 11.832 0.506213 13.8078 0.506348 15.8462V23.1442C0.506822 23.5547 0.67503 23.9482 0.974068 24.2384C1.27311 24.5286 1.67855 24.6919 2.10146 24.6923H8.55789C9.26927 26.2688 10.4382 27.6101 11.9219 28.5526C13.4056 29.4951 15.1399 29.9981 16.9132 30H24.433C24.8559 29.9995 25.2613 29.8363 25.5604 29.5461C25.8594 29.2558 26.0276 28.8624 26.0281 28.4519V21.1539C26.0286 18.9909 25.2122 16.9028 23.7334 15.2846C22.2545 13.6664 20.2159 12.6304 18.0031 12.3726ZM24.2051 28.2308H16.9132C15.6238 28.2293 14.3577 27.8967 13.2436 27.2668C12.1294 26.6369 11.2068 25.7322 10.5694 24.6444C11.8179 24.519 13.0262 24.1444 14.1184 23.5441C15.2106 22.9438 16.1631 22.1308 16.9161 21.1561C17.6691 20.1815 18.2062 19.0663 18.4939 17.8805C18.7815 16.6947 18.8134 15.4641 18.5876 14.2658C20.1866 14.6317 21.6115 15.5111 22.6311 16.7613C23.6507 18.0116 24.2054 19.5594 24.2051 21.1539V28.2308Z" fill="#1DFCF4"/>
</svg>
