<svg width="39" height="39" viewBox="0 0 39 39" fill="none" xmlns="http://www.w3.org/2000/svg">
<path d="M12.1875 30.4688C14.8799 30.4688 17.0625 28.2861 17.0625 25.5938C17.0625 22.9014 14.8799 20.7188 12.1875 20.7188C9.49511 20.7188 7.3125 22.9014 7.3125 25.5938C7.3125 28.2861 9.49511 30.4688 12.1875 30.4688Z" stroke="#00FFF6" stroke-width="2" stroke-linecap="round" stroke-linejoin="round"/>
<path d="M4.87305 34.1247C5.7246 32.9896 6.8287 32.0683 8.09795 31.4337C9.3672 30.7992 10.7667 30.4688 12.1858 30.4688C13.6048 30.4687 15.0044 30.799 16.2736 31.4335C17.5429 32.068 18.6471 32.9893 19.4987 34.1243" stroke="#00FFF6" stroke-width="2" stroke-linecap="round" stroke-linejoin="round"/>
<path d="M12.1875 14.625C14.8799 14.625 17.0625 12.4424 17.0625 9.75C17.0625 7.05761 14.8799 4.875 12.1875 4.875C9.49511 4.875 7.3125 7.05761 7.3125 9.75C7.3125 12.4424 9.49511 14.625 12.1875 14.625Z" stroke="#00FFF6" stroke-width="2" stroke-linecap="round" stroke-linejoin="round"/>
<path d="M4.87305 18.2809C5.7246 17.1458 6.8287 16.2245 8.09795 15.59C9.3672 14.9554 10.7667 14.625 12.1858 14.625C13.6048 14.625 15.0044 14.9553 16.2736 15.5898C17.5429 16.2243 18.6471 17.1455 19.4987 18.2806" stroke="#00FFF6" stroke-width="2" stroke-linecap="round" stroke-linejoin="round"/>
<path d="M26.8125 30.4688C29.5049 30.4688 31.6875 28.2861 31.6875 25.5938C31.6875 22.9014 29.5049 20.7188 26.8125 20.7188C24.1201 20.7188 21.9375 22.9014 21.9375 25.5938C21.9375 28.2861 24.1201 30.4688 26.8125 30.4688Z" stroke="#00FFF6" stroke-width="2" stroke-linecap="round" stroke-linejoin="round"/>
<path d="M19.498 34.1247C20.3496 32.9896 21.4537 32.0683 22.7229 31.4337C23.9922 30.7992 25.3917 30.4688 26.8108 30.4688C28.2298 30.4687 29.6294 30.799 30.8986 31.4335C32.1679 32.068 33.2721 32.9893 34.1237 34.1243" stroke="#00FFF6" stroke-width="2" stroke-linecap="round" stroke-linejoin="round"/>
<path d="M26.8125 14.625C29.5049 14.625 31.6875 12.4424 31.6875 9.75C31.6875 7.05761 29.5049 4.875 26.8125 4.875C24.1201 4.875 21.9375 7.05761 21.9375 9.75C21.9375 12.4424 24.1201 14.625 26.8125 14.625Z" stroke="#00FFF6" stroke-width="2" stroke-linecap="round" stroke-linejoin="round"/>
<path d="M19.498 18.2809C20.3496 17.1458 21.4537 16.2245 22.7229 15.59C23.9922 14.9554 25.3917 14.625 26.8108 14.625C28.2298 14.625 29.6294 14.9553 30.8986 15.5898C32.1679 16.2243 33.2721 17.1455 34.1237 18.2806" stroke="#00FFF6" stroke-width="2" stroke-linecap="round" stroke-linejoin="round"/>
</svg>
