<svg width="35" height="32" viewBox="0 0 35 32" fill="none" xmlns="http://www.w3.org/2000/svg">
<path d="M21.3599 12.6563C18.9661 11.8903 16.366 11.8958 13.9759 12.672C13.8022 12.7299 13.6476 12.8289 13.5274 12.9594C13.4072 13.0899 13.3254 13.2474 13.2903 13.4163L12.4999 17.1048C12.4649 17.2679 12.3869 17.4203 12.2729 17.5482C12.1588 17.6761 12.0124 17.7754 11.8468 17.8372L5.50694 20.2029C5.29214 20.2837 5.05498 20.2973 4.83119 20.2416C4.6074 20.1858 4.4091 20.0637 4.26617 19.8936C3.30883 18.7389 2.83551 17.2982 2.93486 15.8414C3.0342 14.3846 3.69939 13.0115 4.80588 11.9792C8.22354 8.79106 12.8589 7 17.6922 7C22.5255 7 27.1608 8.79106 30.5785 11.9792C31.685 13.0115 32.3502 14.3846 32.4495 15.8414C32.5489 17.2982 32.0755 18.7389 31.1182 19.8936C30.9753 20.0637 30.777 20.1858 30.5532 20.2416C30.3294 20.2973 30.0922 20.2837 29.8774 20.2029L23.532 17.8352C23.3679 17.7739 23.2225 17.6758 23.1089 17.5494C22.9953 17.4231 22.9169 17.2725 22.8808 17.1111L22.0486 13.3939C22.012 13.2259 21.9293 13.0696 21.8086 12.9403C21.6879 12.8111 21.5333 12.7132 21.3599 12.6563Z" stroke="white" stroke-width="2" stroke-linecap="round" stroke-linejoin="round"/>
<path d="M5.90039 25H29.4844" stroke="white" stroke-width="2" stroke-linecap="round" stroke-linejoin="round"/>
</svg>
