<svg width="32" height="32" viewBox="0 0 32 32" fill="none" xmlns="http://www.w3.org/2000/svg">
<path d="M27.3633 9.63745C28.2001 10.4723 28.8639 11.464 29.3169 12.5558C29.7699 13.6475 30.003 14.8179 30.003 16C30.003 17.182 29.7699 18.3524 29.3169 19.4441C28.8639 20.5359 28.2001 21.5276 27.3633 22.3625" stroke="white" stroke-width="2" stroke-linecap="round" stroke-linejoin="round"/>
<path d="M10 11V21" stroke="white" stroke-width="2" stroke-linecap="round" stroke-linejoin="round"/>
<path d="M23.8242 13.175C24.1961 13.5455 24.4912 13.9858 24.6926 14.4706C24.8939 14.9553 24.9976 15.4751 24.9976 16C24.9976 16.525 24.8939 17.0448 24.6926 17.5295C24.4912 18.0143 24.1961 18.4546 23.8242 18.825" stroke="white" stroke-width="2" stroke-linecap="round" stroke-linejoin="round"/>
<path d="M6 5L26 27" stroke="white" stroke-width="2" stroke-linecap="round" stroke-linejoin="round"/>
<path d="M19 19.2999V27.9999L10 20.9999H4C3.73478 20.9999 3.48043 20.8945 3.29289 20.707C3.10536 20.5195 3 20.2651 3 19.9999V11.9999C3 11.7347 3.10536 11.4803 3.29289 11.2928C3.48043 11.1053 3.73478 10.9999 4 10.9999H10L10.85 10.3374" stroke="white" stroke-width="2" stroke-linecap="round" stroke-linejoin="round"/>
<path d="M14.0254 7.875L19.0004 4V13.35" stroke="white" stroke-width="2" stroke-linecap="round" stroke-linejoin="round"/>
</svg>
